<svg width="277" height="206" viewBox="0 0 277 206" fill="none" xmlns="http://www.w3.org/2000/svg">
<path d="M139.415 166.233C198.739 166.233 246.83 164.145 246.83 161.569C246.83 158.994 198.739 156.906 139.415 156.906C80.0914 156.906 32 158.994 32 161.569C32 164.145 80.0914 166.233 139.415 166.233Z" fill="#F5F5F5"/>
<path d="M106.829 40.0006H112.468L118.147 88.3076H112.513C111.225 88.2903 109.991 87.9227 109.044 87.2743C108.097 86.6259 107.502 85.7418 107.372 84.7891L102.513 43.5191C102.447 43.0712 102.51 42.618 102.697 42.1896C102.885 41.7612 103.193 41.3675 103.602 41.0346C104.01 40.7017 104.509 40.4373 105.065 40.259C105.622 40.0807 106.223 39.9927 106.829 40.0006Z" fill="#9DE6B2"/>
<path d="M103.339 44.8457C103.326 44.7542 103.269 44.6692 103.178 44.607C103.088 44.5447 102.969 44.5094 102.845 44.5078C102.788 44.5076 102.73 44.5164 102.678 44.5337C102.625 44.5511 102.577 44.5765 102.539 44.6084C102.5 44.6403 102.471 44.678 102.453 44.7188C102.435 44.7597 102.429 44.8029 102.436 44.8457L102.818 48.084C102.829 48.1747 102.885 48.2591 102.975 48.3208C103.065 48.3825 103.183 48.417 103.305 48.4177C103.363 48.4191 103.421 48.4113 103.475 48.3947C103.528 48.3781 103.576 48.3531 103.616 48.3214C103.655 48.2898 103.685 48.2522 103.703 48.2112C103.721 48.1703 103.727 48.1269 103.721 48.084L103.339 44.8457Z" fill="#9DE6B2"/>
<path opacity="0.5" d="M103.339 44.8457C103.326 44.7542 103.269 44.6692 103.178 44.607C103.088 44.5447 102.969 44.5094 102.845 44.5078C102.788 44.5076 102.73 44.5164 102.678 44.5337C102.625 44.5511 102.577 44.5765 102.539 44.6084C102.5 44.6403 102.471 44.678 102.453 44.7188C102.435 44.7597 102.429 44.8029 102.436 44.8457L102.818 48.084C102.829 48.1747 102.885 48.2591 102.975 48.3208C103.065 48.3825 103.183 48.417 103.305 48.4177C103.363 48.4191 103.421 48.4113 103.475 48.3947C103.528 48.3781 103.576 48.3531 103.616 48.3214C103.655 48.2898 103.685 48.2522 103.703 48.2112C103.721 48.1703 103.727 48.1269 103.721 48.084L103.339 44.8457Z" fill="white"/>
<path d="M113.665 88.3076H136.889C137.495 88.3155 138.096 88.2275 138.652 88.0492C139.209 87.8709 139.707 87.6065 140.116 87.2736C140.524 86.9407 140.832 86.547 141.02 86.1186C141.208 85.6902 141.271 85.237 141.204 84.7891L136.346 43.5191C136.216 42.5664 135.621 41.6823 134.674 41.0339C133.726 40.3855 132.492 40.0179 131.205 40.0006H107.987C107.381 39.9919 106.779 40.0796 106.222 40.2576C105.665 40.4357 105.166 40.7001 104.758 41.0331C104.349 41.3661 104.041 41.7602 103.853 42.1889C103.666 42.6176 103.604 43.0711 103.671 43.5191L108.524 84.7767C108.65 85.7316 109.243 86.6187 110.191 87.2697C111.139 87.9206 112.375 88.29 113.665 88.3076Z" fill="#9DE6B2"/>
<path opacity="0.5" d="M113.665 88.3076H136.889C137.495 88.3155 138.096 88.2275 138.652 88.0492C139.209 87.8709 139.707 87.6065 140.116 87.2736C140.524 86.9407 140.832 86.547 141.02 86.1186C141.208 85.6902 141.271 85.237 141.204 84.7891L136.346 43.5191C136.216 42.5664 135.621 41.6823 134.674 41.0339C133.726 40.3855 132.492 40.0179 131.205 40.0006H107.987C107.381 39.9919 106.779 40.0796 106.222 40.2576C105.665 40.4357 105.166 40.7001 104.758 41.0331C104.349 41.3661 104.041 41.7602 103.853 42.1889C103.666 42.6176 103.604 43.0711 103.671 43.5191L108.524 84.7767C108.65 85.7316 109.243 86.6187 110.191 87.2697C111.139 87.9206 112.375 88.29 113.665 88.3076Z" fill="white"/>
<path d="M108.081 40.8081H114.114C114.311 40.811 114.501 40.8628 114.653 40.9555C114.806 41.0481 114.913 41.1761 114.956 41.319L114.995 41.4591C115.101 41.8059 115.361 42.1162 115.733 42.3402C116.104 42.5643 116.566 42.6892 117.044 42.6951H122.795C123.248 42.7028 123.686 42.5773 124.015 42.3458C124.344 42.1144 124.537 41.7956 124.551 41.4591V41.319C124.553 41.2503 124.574 41.1825 124.611 41.1197C124.648 41.0568 124.702 41 124.769 40.9526C124.836 40.9051 124.915 40.8679 125.001 40.8432C125.087 40.8184 125.179 40.8065 125.271 40.8081H131.304C132.296 40.8215 133.247 41.1047 133.977 41.6043C134.707 42.1039 135.165 42.7851 135.266 43.5191L140.119 84.7767C140.17 85.1218 140.122 85.471 139.977 85.8011C139.833 86.1312 139.595 86.4346 139.281 86.6911C138.966 86.9476 138.582 87.1513 138.153 87.2887C137.724 87.4261 137.261 87.4939 136.795 87.4877H113.571C112.579 87.4743 111.628 87.1911 110.898 86.6915C110.168 86.1919 109.71 85.5107 109.61 84.7767L104.751 43.5067C104.703 43.1624 104.754 42.8145 104.901 42.4859C105.047 42.1573 105.285 41.8555 105.6 41.6005C105.914 41.3454 106.298 41.1429 106.726 41.0063C107.154 40.8697 107.615 40.8022 108.081 40.8081Z" fill="white"/>
<path d="M121.133 41.2655C121.145 41.358 121.203 41.444 121.295 41.5071C121.387 41.5701 121.507 41.6059 121.632 41.6074C121.691 41.6083 121.749 41.5998 121.803 41.5825C121.857 41.5652 121.906 41.5395 121.946 41.5072C121.986 41.4748 122.016 41.4365 122.034 41.3949C122.053 41.3532 122.059 41.3091 122.053 41.2655C122.04 41.1729 121.983 41.0869 121.891 41.0239C121.799 40.9608 121.679 40.9251 121.554 40.9235C121.495 40.9227 121.437 40.9312 121.382 40.9485C121.328 40.9658 121.28 40.9914 121.24 41.0238C121.2 41.0561 121.17 41.0944 121.151 41.1361C121.133 41.1778 121.127 41.2219 121.133 41.2655Z" fill="#263238"/>
<path d="M117.837 40.9235H119.416C119.541 40.925 119.662 40.9606 119.755 41.0235C119.848 41.0865 119.906 41.1726 119.92 41.2655C119.926 41.3091 119.92 41.3532 119.901 41.3949C119.883 41.4365 119.853 41.4748 119.813 41.5072C119.773 41.5395 119.725 41.5652 119.67 41.5825C119.616 41.5998 119.558 41.6083 119.499 41.6074H117.92C117.794 41.606 117.674 41.5704 117.581 41.5074C117.488 41.4444 117.429 41.3584 117.416 41.2655C117.409 41.2219 117.416 41.1778 117.434 41.1361C117.452 41.0944 117.483 41.0561 117.522 41.0238C117.562 40.9914 117.611 40.9658 117.665 40.9485C117.719 40.9312 117.778 40.9227 117.837 40.9235Z" fill="#263238"/>
<path d="M138.468 70.9047H107.959L105.294 48.22H135.797L138.468 70.9047Z" fill="#263238"/>
<path d="M111.632 45.5254C111.67 45.761 111.64 46 111.543 46.226C111.446 46.4521 111.284 46.6598 111.069 46.8351C110.853 47.0103 110.59 47.149 110.296 47.2415C110.002 47.334 109.685 47.3783 109.366 47.3712C108.691 47.3609 108.045 47.1676 107.548 46.8277C107.051 46.4878 106.738 46.0247 106.668 45.5254C106.63 45.2899 106.66 45.0509 106.757 44.8249C106.855 44.5988 107.016 44.3911 107.231 44.2158C107.447 44.0406 107.71 43.9019 108.004 43.8094C108.298 43.7169 108.615 43.6726 108.934 43.6797C109.609 43.69 110.255 43.8833 110.752 44.2232C111.249 44.563 111.562 45.0261 111.632 45.5254Z" fill="#263238"/>
<path d="M132.119 46.3742H127.354C127.044 46.3703 126.746 46.2817 126.517 46.1253C126.288 45.9688 126.145 45.7554 126.113 45.5255C126.098 45.4174 126.113 45.3081 126.158 45.2049C126.204 45.1016 126.278 45.0066 126.377 44.9264C126.475 44.8461 126.596 44.7824 126.73 44.7393C126.864 44.6963 127.009 44.6749 127.155 44.6767H131.919C132.23 44.6806 132.528 44.7692 132.757 44.9256C132.986 45.0821 133.129 45.2955 133.16 45.5255C133.176 45.6335 133.161 45.7428 133.115 45.8461C133.07 45.9494 132.995 46.0443 132.897 46.1245C132.798 46.2048 132.678 46.2686 132.544 46.3116C132.41 46.3547 132.265 46.376 132.119 46.3742Z" fill="#263238"/>
<path d="M121.687 74.0647H111.493C111.193 74.0615 110.905 73.9754 110.685 73.8232C110.465 73.671 110.328 73.4634 110.302 73.2407C110.284 73.1363 110.296 73.0301 110.338 72.9295C110.38 72.8289 110.451 72.7362 110.546 72.6579C110.64 72.5796 110.757 72.5175 110.887 72.4759C111.017 72.4342 111.158 72.4141 111.3 72.4167H121.499C121.799 72.4209 122.086 72.5073 122.306 72.6593C122.526 72.8114 122.663 73.0184 122.69 73.2407C122.706 73.3453 122.693 73.4513 122.65 73.5516C122.607 73.6519 122.535 73.7442 122.44 73.8222C122.345 73.9003 122.229 73.9623 122.099 74.0042C121.969 74.046 121.829 74.0666 121.687 74.0647Z" fill="#263238"/>
<path d="M134.983 77.2577H111.881C111.581 77.2527 111.295 77.166 111.075 77.0141C110.855 76.8622 110.719 76.6557 110.69 76.4337C110.673 76.3292 110.687 76.2232 110.73 76.1229C110.773 76.0226 110.845 75.9303 110.94 75.8522C111.035 75.7742 111.151 75.7121 111.281 75.6703C111.411 75.6285 111.551 75.6078 111.693 75.6097H134.795C135.095 75.6138 135.384 75.7 135.604 75.852C135.825 76.004 135.963 76.2111 135.991 76.4337C136.008 76.5386 135.994 76.645 135.951 76.7456C135.907 76.8462 135.836 76.9387 135.74 77.0168C135.644 77.095 135.527 77.1569 135.397 77.1985C135.266 77.24 135.125 77.2602 134.983 77.2577Z" fill="#263238"/>
<path d="M129.498 79.738H112.175C111.875 79.7329 111.588 79.6462 111.369 79.4944C111.149 79.3425 111.012 79.136 110.984 78.914C110.966 78.8096 110.979 78.7037 111.021 78.6034C111.064 78.5031 111.135 78.4108 111.229 78.3326C111.324 78.2545 111.44 78.1923 111.57 78.1505C111.699 78.1086 111.84 78.088 111.981 78.09H129.31C129.61 78.095 129.897 78.1817 130.116 78.3336C130.336 78.4855 130.473 78.692 130.501 78.914C130.518 79.0185 130.504 79.1245 130.461 79.2248C130.418 79.3251 130.347 79.4174 130.252 79.4955C130.157 79.5735 130.04 79.6356 129.91 79.6774C129.78 79.7192 129.64 79.7399 129.498 79.738Z" fill="#263238"/>
<path d="M132.856 82.2182H112.468C112.168 82.215 111.88 82.1289 111.66 81.9767C111.44 81.8244 111.303 81.6169 111.277 81.3942C111.26 81.2899 111.273 81.184 111.315 81.0837C111.357 80.9833 111.428 80.891 111.523 80.8128C111.617 80.7347 111.734 80.6726 111.863 80.6307C111.993 80.5889 112.133 80.5682 112.275 80.5702H132.667C132.967 80.5753 133.254 80.6619 133.473 80.8138C133.693 80.9657 133.83 81.1722 133.858 81.3942C133.875 81.4988 133.861 81.6047 133.818 81.705C133.775 81.8053 133.704 81.8976 133.609 81.9757C133.514 82.0538 133.398 82.1158 133.268 82.1576C133.138 82.1995 132.997 82.2201 132.856 82.2182Z" fill="#263238"/>
<path d="M119 84.6984H112.757C112.457 84.6934 112.17 84.6067 111.95 84.4548C111.731 84.3029 111.594 84.0964 111.565 83.8744C111.549 83.7699 111.562 83.6639 111.606 83.5636C111.649 83.4633 111.72 83.371 111.815 83.2929C111.91 83.2149 112.026 83.1528 112.156 83.111C112.286 83.0692 112.427 83.0485 112.568 83.0504H118.806C119.107 83.0537 119.395 83.1397 119.615 83.292C119.835 83.4442 119.971 83.6517 119.997 83.8744C120.015 83.9787 120.002 84.0847 119.96 84.185C119.917 84.2853 119.846 84.3776 119.752 84.4558C119.657 84.5339 119.541 84.596 119.411 84.6379C119.282 84.6798 119.141 84.7004 119 84.6984Z" fill="#263238"/>
<path opacity="0.9" d="M138.468 70.9047H107.959L105.294 48.22H135.797L138.468 70.9047Z" fill="white"/>
<path opacity="0.9" d="M111.632 45.5254C111.67 45.761 111.64 46 111.543 46.226C111.446 46.4521 111.284 46.6598 111.069 46.8351C110.853 47.0103 110.59 47.149 110.296 47.2415C110.002 47.334 109.685 47.3783 109.366 47.3712C108.691 47.3609 108.045 47.1676 107.548 46.8277C107.051 46.4878 106.738 46.0247 106.668 45.5254C106.63 45.2899 106.66 45.0509 106.757 44.8249C106.855 44.5988 107.016 44.3911 107.231 44.2158C107.447 44.0406 107.71 43.9019 108.004 43.8094C108.298 43.7169 108.615 43.6726 108.934 43.6797C109.609 43.69 110.255 43.8833 110.752 44.2232C111.249 44.563 111.562 45.0261 111.632 45.5254Z" fill="white"/>
<path opacity="0.9" d="M132.119 46.3742H127.354C127.044 46.3703 126.746 46.2817 126.517 46.1253C126.288 45.9688 126.145 45.7554 126.113 45.5255C126.098 45.4174 126.113 45.3081 126.158 45.2049C126.204 45.1016 126.278 45.0066 126.377 44.9264C126.475 44.8461 126.596 44.7824 126.73 44.7393C126.864 44.6963 127.009 44.6749 127.155 44.6767H131.919C132.23 44.6806 132.528 44.7692 132.757 44.9256C132.986 45.0821 133.129 45.2955 133.16 45.5255C133.176 45.6335 133.161 45.7428 133.115 45.8461C133.07 45.9494 132.995 46.0443 132.897 46.1245C132.798 46.2048 132.678 46.2686 132.544 46.3116C132.41 46.3547 132.265 46.376 132.119 46.3742Z" fill="white"/>
<path opacity="0.9" d="M121.687 74.0647H111.493C111.193 74.0615 110.905 73.9754 110.685 73.8232C110.465 73.671 110.328 73.4634 110.302 73.2407C110.284 73.1363 110.296 73.0301 110.338 72.9295C110.38 72.8289 110.451 72.7362 110.546 72.6579C110.64 72.5796 110.757 72.5175 110.887 72.4759C111.017 72.4342 111.158 72.4141 111.3 72.4167H121.499C121.799 72.4209 122.086 72.5073 122.306 72.6593C122.526 72.8114 122.663 73.0184 122.69 73.2407C122.706 73.3453 122.693 73.4513 122.65 73.5516C122.607 73.6519 122.535 73.7442 122.44 73.8222C122.345 73.9003 122.229 73.9623 122.099 74.0042C121.969 74.046 121.829 74.0666 121.687 74.0647Z" fill="white"/>
<path opacity="0.9" d="M134.983 77.2577H111.881C111.581 77.2527 111.295 77.166 111.075 77.0141C110.855 76.8622 110.719 76.6557 110.69 76.4337C110.673 76.3292 110.687 76.2232 110.73 76.1229C110.773 76.0226 110.845 75.9303 110.94 75.8522C111.035 75.7742 111.151 75.7121 111.281 75.6703C111.411 75.6285 111.551 75.6078 111.693 75.6097H134.795C135.095 75.6138 135.384 75.7 135.604 75.852C135.825 76.004 135.963 76.2111 135.991 76.4337C136.008 76.5386 135.994 76.645 135.951 76.7456C135.907 76.8462 135.836 76.9387 135.74 77.0168C135.644 77.095 135.527 77.1569 135.397 77.1985C135.266 77.24 135.125 77.2602 134.983 77.2577Z" fill="white"/>
<path opacity="0.9" d="M129.498 79.738H112.175C111.875 79.7329 111.588 79.6462 111.369 79.4944C111.149 79.3425 111.012 79.136 110.984 78.914C110.966 78.8096 110.979 78.7037 111.021 78.6034C111.064 78.5031 111.135 78.4108 111.229 78.3326C111.324 78.2545 111.44 78.1923 111.57 78.1505C111.699 78.1086 111.84 78.088 111.981 78.09H129.31C129.61 78.095 129.897 78.1817 130.116 78.3336C130.336 78.4855 130.473 78.692 130.501 78.914C130.518 79.0185 130.504 79.1245 130.461 79.2248C130.418 79.3251 130.347 79.4174 130.252 79.4955C130.157 79.5735 130.04 79.6356 129.91 79.6774C129.78 79.7192 129.64 79.7399 129.498 79.738Z" fill="white"/>
<path opacity="0.9" d="M132.856 82.2182H112.468C112.168 82.215 111.88 82.1289 111.66 81.9767C111.44 81.8244 111.303 81.6169 111.277 81.3942C111.26 81.2899 111.273 81.184 111.315 81.0837C111.357 80.9833 111.428 80.891 111.523 80.8128C111.617 80.7347 111.734 80.6726 111.863 80.6307C111.993 80.5889 112.133 80.5682 112.275 80.5702H132.667C132.967 80.5753 133.254 80.6619 133.473 80.8138C133.693 80.9657 133.83 81.1722 133.858 81.3942C133.875 81.4988 133.861 81.6047 133.818 81.705C133.775 81.8053 133.704 81.8976 133.609 81.9757C133.514 82.0538 133.398 82.1158 133.268 82.1576C133.138 82.1995 132.997 82.2201 132.856 82.2182Z" fill="white"/>
<path opacity="0.9" d="M119 84.6984H112.757C112.457 84.6934 112.17 84.6067 111.95 84.4548C111.731 84.3029 111.594 84.0964 111.565 83.8744C111.549 83.7699 111.562 83.6639 111.606 83.5636C111.649 83.4633 111.72 83.371 111.815 83.2929C111.91 83.2149 112.026 83.1528 112.156 83.111C112.286 83.0692 112.427 83.0485 112.568 83.0504H118.806C119.107 83.0537 119.395 83.1397 119.615 83.292C119.835 83.4442 119.971 83.6517 119.997 83.8744C120.015 83.9787 120.002 84.0847 119.96 84.185C119.917 84.2853 119.846 84.3776 119.752 84.4558C119.657 84.5339 119.541 84.596 119.411 84.6379C119.282 84.6798 119.141 84.7004 119 84.6984Z" fill="white"/>
<path d="M128.158 66.6075H118.784C118.131 66.5989 117.505 66.4127 117.024 66.0839C116.543 65.7552 116.241 65.3068 116.175 64.8236L115.355 57.8525C115.324 57.6154 115.36 57.3762 115.46 57.1499C115.56 56.9236 115.722 56.7154 115.936 56.5382C116.153 56.3641 116.416 56.2256 116.709 56.132C117.002 56.0383 117.318 55.9914 117.637 55.9944H127.011C127.664 56.003 128.29 56.1893 128.771 56.518C129.252 56.8467 129.554 57.2951 129.62 57.7784L130.44 64.7494C130.471 64.9865 130.435 65.2258 130.335 65.452C130.235 65.6783 130.073 65.8866 129.858 66.0637C129.642 66.2379 129.379 66.3763 129.086 66.47C128.793 66.5636 128.477 66.6105 128.158 66.6075ZM117.632 56.8308C117.468 56.8269 117.305 56.8494 117.154 56.8968C117.003 56.9442 116.867 57.0154 116.757 57.1054C116.646 57.1955 116.563 57.3022 116.513 57.4184C116.464 57.5346 116.448 57.6574 116.468 57.7784L117.288 64.7494C117.326 65.0257 117.498 65.2821 117.773 65.4703C118.047 65.6585 118.405 65.7655 118.778 65.7712H128.152C128.316 65.775 128.479 65.7525 128.63 65.7051C128.781 65.6577 128.917 65.5865 129.027 65.4965C129.138 65.4064 129.221 65.2997 129.27 65.1835C129.32 65.0674 129.336 64.9446 129.316 64.8236L128.496 57.8525C128.458 57.5763 128.285 57.3198 128.011 57.1316C127.736 56.9434 127.379 56.8364 127.005 56.8308H117.632Z" fill="#263238"/>
<g opacity="0.5">
<path d="M128.158 66.6075H118.784C118.131 66.5989 117.505 66.4127 117.024 66.0839C116.543 65.7552 116.241 65.3068 116.175 64.8236L115.355 57.8525C115.324 57.6154 115.36 57.3762 115.46 57.1499C115.56 56.9236 115.722 56.7154 115.936 56.5382C116.153 56.3641 116.416 56.2256 116.709 56.132C117.002 56.0383 117.318 55.9914 117.637 55.9944H127.011C127.664 56.003 128.29 56.1893 128.771 56.518C129.252 56.8467 129.554 57.2951 129.62 57.7784L130.44 64.7494C130.471 64.9865 130.435 65.2258 130.335 65.452C130.235 65.6783 130.073 65.8866 129.858 66.0637C129.642 66.2379 129.379 66.3763 129.086 66.47C128.793 66.5636 128.477 66.6105 128.158 66.6075ZM117.632 56.8308C117.468 56.8269 117.305 56.8494 117.154 56.8968C117.003 56.9442 116.867 57.0154 116.757 57.1054C116.646 57.1955 116.563 57.3022 116.513 57.4184C116.464 57.5346 116.448 57.6574 116.468 57.7784L117.288 64.7494C117.326 65.0257 117.498 65.2821 117.773 65.4703C118.047 65.6585 118.405 65.7655 118.778 65.7712H128.152C128.316 65.775 128.479 65.7525 128.63 65.7051C128.781 65.6577 128.917 65.5865 129.027 65.4965C129.138 65.4064 129.221 65.2997 129.27 65.1835C129.32 65.0674 129.336 64.9446 129.316 64.8236L128.496 57.8525C128.458 57.5763 128.285 57.3198 128.011 57.1316C127.736 56.9434 127.379 56.8364 127.005 56.8308H117.632Z" fill="white"/>
</g>
<path d="M120.956 64.2056L113.798 59.3111C113.558 59.1455 113.417 58.9162 113.403 58.6732C113.39 58.4302 113.506 58.193 113.726 58.0133C113.949 57.8351 114.257 57.7296 114.584 57.7195C114.911 57.7095 115.229 57.7958 115.471 57.9597L120.801 61.6059L131.138 53.1846C131.247 53.0955 131.378 53.0232 131.524 52.9718C131.671 52.9205 131.829 52.8911 131.991 52.8853C132.152 52.8796 132.314 52.8976 132.466 52.9384C132.618 52.9791 132.758 53.0418 132.878 53.1228C133.119 53.2873 133.263 53.516 133.278 53.759C133.294 54.0021 133.18 54.2399 132.961 54.4206L120.956 64.2056Z" fill="#9DE6B2"/>
<g opacity="0.2">
<path d="M120.956 64.2056L113.798 59.3111C113.558 59.1455 113.417 58.9162 113.403 58.6732C113.39 58.4302 113.506 58.193 113.726 58.0133C113.949 57.8351 114.257 57.7296 114.584 57.7195C114.911 57.7095 115.229 57.7958 115.471 57.9597L120.801 61.6059L131.138 53.1846C131.247 53.0955 131.378 53.0232 131.524 52.9718C131.671 52.9205 131.829 52.8911 131.991 52.8853C132.152 52.8796 132.314 52.8976 132.466 52.9384C132.618 52.9791 132.758 53.0418 132.878 53.1228C133.119 53.2873 133.263 53.516 133.278 53.759C133.294 54.0021 133.18 54.2399 132.961 54.4206L120.956 64.2056Z" fill="black"/>
</g>
<path d="M138.95 144.105C138.704 144.035 138.431 144.035 138.185 144.105H119.183L111.2 161.516H131.244L131.659 160.585H132.867L139.576 145.106C139.665 144.911 139.649 144.699 139.532 144.512C139.416 144.326 139.207 144.18 138.95 144.105ZM130.235 152.312L129.548 153.902C129.336 154.382 128.924 154.8 128.373 155.096C127.822 155.392 127.159 155.551 126.479 155.55H125.521C125.131 155.551 124.747 155.482 124.399 155.351C124.051 155.22 123.751 155.029 123.521 154.795C123.291 154.561 123.14 154.29 123.078 154.003C123.016 153.717 123.046 153.424 123.166 153.148L123.859 151.558C124.07 151.078 124.481 150.66 125.031 150.364C125.581 150.068 126.243 149.909 126.922 149.91H127.886C128.277 149.91 128.662 149.978 129.01 150.11C129.358 150.242 129.659 150.434 129.888 150.669C130.117 150.904 130.268 151.177 130.329 151.464C130.389 151.751 130.357 152.044 130.235 152.32V152.312Z" fill="#263238"/>
<path opacity="0.3" d="M138.95 144.105C138.704 144.035 138.431 144.035 138.185 144.105H119.183L111.2 161.516H131.244L131.659 160.585H132.867L139.576 145.106C139.665 144.911 139.649 144.699 139.532 144.512C139.416 144.326 139.207 144.18 138.95 144.105ZM130.235 152.312L129.548 153.902C129.336 154.382 128.924 154.8 128.373 155.096C127.822 155.392 127.159 155.551 126.479 155.55H125.521C125.131 155.551 124.747 155.482 124.399 155.351C124.051 155.22 123.751 155.029 123.521 154.795C123.291 154.561 123.14 154.29 123.078 154.003C123.016 153.717 123.046 153.424 123.166 153.148L123.859 151.558C124.07 151.078 124.481 150.66 125.031 150.364C125.581 150.068 126.243 149.909 126.922 149.91H127.886C128.277 149.91 128.662 149.978 129.01 150.11C129.358 150.242 129.659 150.434 129.888 150.669C130.117 150.904 130.268 151.177 130.329 151.464C130.389 151.751 130.357 152.044 130.235 152.32V152.312Z" fill="white"/>
<path d="M154.644 160.585H134.878C135.161 160.585 135.433 160.668 135.634 160.818C135.834 160.967 135.947 161.169 135.947 161.38V161.681C135.948 161.785 135.92 161.889 135.867 161.986C135.814 162.082 135.735 162.17 135.635 162.244C135.536 162.318 135.418 162.377 135.288 162.416C135.158 162.456 135.018 162.476 134.878 162.476H154.644C154.785 162.476 154.923 162.455 155.053 162.415C155.182 162.375 155.3 162.317 155.399 162.243C155.497 162.169 155.576 162.081 155.629 161.985C155.682 161.888 155.709 161.785 155.708 161.681V161.38C155.708 161.17 155.596 160.968 155.397 160.819C155.198 160.67 154.927 160.586 154.644 160.585Z" fill="#263238"/>
<path opacity="0.3" d="M154.644 160.585H134.878C135.161 160.585 135.433 160.668 135.634 160.818C135.834 160.967 135.947 161.169 135.947 161.38V161.681C135.948 161.785 135.92 161.889 135.867 161.986C135.814 162.082 135.735 162.17 135.635 162.244C135.536 162.318 135.418 162.377 135.288 162.416C135.158 162.456 135.018 162.476 134.878 162.476H154.644C154.785 162.476 154.923 162.455 155.053 162.415C155.182 162.375 155.3 162.317 155.399 162.243C155.497 162.169 155.576 162.081 155.629 161.985C155.682 161.888 155.709 161.785 155.708 161.681V161.38C155.708 161.17 155.596 160.968 155.397 160.819C155.198 160.67 154.927 160.586 154.644 160.585Z" fill="white"/>
<path d="M134.878 162.468H110.053L117.809 144.612C117.854 144.509 117.926 144.414 118.022 144.332C118.117 144.251 118.234 144.185 118.365 144.138C118.497 144.091 118.639 144.065 118.785 144.061C118.93 144.056 119.075 144.074 119.211 144.113C119.465 144.186 119.672 144.329 119.789 144.512C119.907 144.695 119.926 144.905 119.842 145.098L113.1 160.585H134.878C135.161 160.585 135.433 160.669 135.634 160.818C135.834 160.967 135.947 161.169 135.947 161.38V161.681C135.946 161.785 135.918 161.887 135.864 161.983C135.81 162.079 135.731 162.166 135.631 162.239C135.532 162.312 135.415 162.37 135.285 162.409C135.156 162.448 135.017 162.468 134.878 162.468Z" fill="#263238"/>
<g opacity="0.6">
<path d="M134.878 162.468H110.053L117.809 144.612C117.854 144.509 117.926 144.414 118.022 144.332C118.117 144.251 118.234 144.185 118.365 144.138C118.497 144.091 118.639 144.065 118.785 144.061C118.93 144.056 119.075 144.074 119.211 144.113C119.465 144.186 119.672 144.329 119.789 144.512C119.907 144.695 119.926 144.905 119.842 145.098L113.1 160.585H134.878C135.161 160.585 135.433 160.669 135.634 160.818C135.834 160.967 135.947 161.169 135.947 161.38V161.681C135.946 161.785 135.918 161.887 135.864 161.983C135.81 162.079 135.731 162.166 135.631 162.239C135.532 162.312 135.415 162.37 135.285 162.409C135.156 162.448 135.017 162.468 134.878 162.468Z" fill="white"/>
</g>
<path d="M127.886 149.918H126.922C126.85 149.918 126.784 149.918 126.712 149.918C127.076 149.948 127.426 150.038 127.737 150.182C128.049 150.325 128.314 150.518 128.512 150.747C128.711 150.975 128.839 151.234 128.887 151.504C128.935 151.774 128.902 152.048 128.789 152.308L128.102 153.898C127.903 154.354 127.524 154.756 127.014 155.05C126.505 155.343 125.888 155.516 125.244 155.546C125.336 155.55 125.428 155.55 125.521 155.546H126.479C127.159 155.547 127.822 155.388 128.373 155.092C128.924 154.796 129.336 154.378 129.548 153.898L130.235 152.308C130.352 152.033 130.379 151.742 130.317 151.457C130.254 151.173 130.102 150.904 129.873 150.671C129.645 150.439 129.346 150.249 129 150.118C128.655 149.988 128.274 149.919 127.886 149.918Z" fill="#263238"/>
<path d="M84.7961 93.3959H74.9737C74.4961 93.389 74.022 93.458 73.5831 93.5983C73.1442 93.7386 72.7506 93.9469 72.4286 94.2094C72.1066 94.4718 71.8637 94.7824 71.716 95.1202C71.5683 95.4581 71.5193 95.8155 71.5722 96.1686L77.1122 143.549C77.2163 144.3 77.687 144.997 78.4352 145.508C79.1834 146.019 80.1574 146.308 81.173 146.321H90.9899L84.7961 93.3959Z" fill="#9DE6B2"/>
<path opacity="0.2" d="M84.7961 93.3959H74.9737C74.4961 93.389 74.022 93.458 73.5831 93.5983C73.1442 93.7386 72.7506 93.9469 72.4286 94.2094C72.1066 94.4718 71.8637 94.7824 71.716 95.1202C71.5683 95.4581 71.5193 95.8155 71.5722 96.1686L77.1122 143.549C77.2163 144.3 77.687 144.997 78.4352 145.508C79.1834 146.019 80.1574 146.308 81.173 146.321H90.9899L84.7961 93.3959Z" fill="white"/>
<path d="M171.697 146.301H83.738C82.7226 146.288 81.7487 145.999 81.0011 145.488C80.2536 144.977 79.7844 144.279 79.6827 143.528L74.1095 96.148C74.0574 95.7947 74.1072 95.4372 74.2556 95.0993C74.404 94.7614 74.6475 94.451 74.9699 94.1886C75.2923 93.9262 75.6862 93.7179 76.1253 93.5777C76.5644 93.4374 77.0387 93.3684 77.5166 93.3752H165.453C166.468 93.3876 167.442 93.6768 168.19 94.1879C168.937 94.6991 169.407 95.3966 169.508 96.148L175.082 143.528C175.133 143.88 175.084 144.236 174.937 144.573C174.79 144.909 174.548 145.219 174.228 145.481C173.909 145.743 173.517 145.952 173.081 146.093C172.644 146.234 172.173 146.305 171.697 146.301Z" fill="#9DE6B2"/>
<path opacity="0.5" d="M171.697 146.301H83.738C82.7226 146.288 81.7487 145.999 81.0011 145.488C80.2536 144.977 79.7844 144.279 79.6827 143.528L74.1095 96.148C74.0574 95.7947 74.1072 95.4372 74.2556 95.0993C74.404 94.7614 74.6475 94.451 74.9699 94.1886C75.2923 93.9262 75.6862 93.7179 76.1253 93.5777C76.5644 93.4374 77.0387 93.3684 77.5166 93.3752H165.453C166.468 93.3876 167.442 93.6768 168.19 94.1879C168.937 94.6991 169.407 95.3966 169.508 96.148L175.082 143.528C175.133 143.88 175.084 144.236 174.937 144.573C174.79 144.909 174.548 145.219 174.228 145.481C173.909 145.743 173.517 145.952 173.081 146.093C172.644 146.234 172.173 146.305 171.697 146.301Z" fill="white"/>
<path d="M79.1177 138.749L79.6717 143.532C79.7734 144.284 80.2425 144.981 80.9901 145.492C81.7377 146.003 82.7116 146.292 83.727 146.305H171.697C172.174 146.312 172.649 146.243 173.088 146.102C173.527 145.962 173.921 145.754 174.243 145.491C174.566 145.229 174.809 144.919 174.958 144.581C175.106 144.243 175.156 143.885 175.104 143.532L174.55 138.749H79.1177Z" fill="#9DE6B2"/>
<path opacity="0.2" d="M79.1177 138.749L79.6717 143.532C79.7734 144.284 80.2425 144.981 80.9901 145.492C81.7377 146.003 82.7116 146.292 83.727 146.305H171.697C172.174 146.312 172.649 146.243 173.088 146.102C173.527 145.962 173.921 145.754 174.243 145.491C174.566 145.229 174.809 144.919 174.958 144.581C175.106 144.243 175.156 143.885 175.104 143.532L174.55 138.749H79.1177Z" fill="white"/>
<path d="M77.2396 95.7566L82.0206 136.38H171.087L166.306 95.7566H77.2396Z" fill="white"/>
<path d="M98.2196 102.106H81.5608L81.04 97.6477H97.6933L98.2196 102.106Z" fill="#263238"/>
<path d="M126.213 99.8766H116.092L115.831 97.6477H125.953L126.213 99.8766Z" fill="#263238"/>
<path d="M107.006 134.546H90.4193L89.7157 128.577H106.302L107.006 134.546Z" fill="#263238"/>
<path d="M127.05 134.546H110.463L109.759 128.577H126.346L127.05 134.546Z" fill="#263238"/>
<path d="M147.093 134.546H130.507L129.803 128.577H146.39L147.093 134.546Z" fill="#263238"/>
<path d="M167.137 134.546H150.55L149.847 128.577H166.434L167.137 134.546Z" fill="#263238"/>
<path d="M138.495 99.8766H128.374L128.113 97.6477H138.235L138.495 99.8766Z" fill="#263238"/>
<path d="M150.778 99.8766H140.656L140.39 97.6477H150.517L150.778 99.8766Z" fill="#263238"/>
<path d="M163.06 99.8766H152.938L152.672 97.6477H162.794L163.06 99.8766Z" fill="#263238"/>
<path d="M169.907 126.566H80.8406L78.3254 105.216H167.398L169.907 126.566Z" fill="#263238"/>
<g opacity="0.9">
<path d="M98.2196 102.106H81.5608L81.04 97.6477H97.6933L98.2196 102.106Z" fill="white"/>
<path d="M126.213 99.8766H116.092L115.831 97.6477H125.953L126.213 99.8766Z" fill="white"/>
<path d="M107.006 134.546H90.4193L89.7157 128.577H106.302L107.006 134.546Z" fill="white"/>
<path d="M127.05 134.546H110.463L109.759 128.577H126.346L127.05 134.546Z" fill="white"/>
<path d="M147.093 134.546H130.507L129.803 128.577H146.39L147.093 134.546Z" fill="white"/>
<path d="M167.137 134.546H150.55L149.847 128.577H166.434L167.137 134.546Z" fill="white"/>
<path d="M138.495 99.8766H128.374L128.113 97.6477H138.235L138.495 99.8766Z" fill="white"/>
<path d="M150.778 99.8766H140.656L140.39 97.6477H150.517L150.778 99.8766Z" fill="white"/>
<path d="M163.06 99.8766H152.938L152.672 97.6477H162.794L163.06 99.8766Z" fill="white"/>
<path d="M169.907 126.566H80.8406L78.3254 105.216H167.398L169.907 126.566Z" fill="white"/>
</g>
<path d="M134.512 121.103H124.097C123.372 121.093 122.677 120.885 122.143 120.52C121.609 120.155 121.274 119.658 121.199 119.121L120.285 111.376C120.251 111.112 120.291 110.847 120.402 110.595C120.514 110.344 120.695 110.113 120.934 109.917C121.174 109.723 121.466 109.569 121.791 109.465C122.117 109.36 122.468 109.308 122.823 109.311H133.238C133.963 109.322 134.658 109.529 135.192 109.894C135.725 110.259 136.061 110.757 136.135 111.293L137.049 119.039C137.084 119.302 137.044 119.568 136.932 119.819C136.821 120.07 136.64 120.301 136.401 120.497C136.161 120.691 135.869 120.845 135.543 120.95C135.218 121.054 134.866 121.106 134.512 121.103ZM122.823 110.238C122.641 110.234 122.459 110.26 122.292 110.313C122.124 110.366 121.974 110.445 121.851 110.545C121.729 110.645 121.637 110.764 121.581 110.893C121.526 111.022 121.509 111.159 121.532 111.293L122.44 119.039C122.482 119.347 122.675 119.633 122.981 119.842C123.287 120.052 123.686 120.17 124.102 120.176H134.518C134.699 120.179 134.879 120.153 135.046 120.1C135.213 120.048 135.363 119.97 135.487 119.871C135.609 119.77 135.701 119.651 135.757 119.522C135.814 119.393 135.833 119.256 135.814 119.121L134.9 111.376C134.858 111.068 134.666 110.782 134.359 110.572C134.053 110.363 133.654 110.244 133.238 110.238H122.823Z" fill="#263238"/>
<g opacity="0.5">
<path d="M134.512 121.103H124.097C123.372 121.093 122.677 120.885 122.143 120.52C121.609 120.155 121.274 119.658 121.199 119.121L120.285 111.376C120.251 111.112 120.291 110.847 120.402 110.595C120.514 110.344 120.695 110.113 120.934 109.917C121.174 109.723 121.466 109.569 121.791 109.465C122.117 109.36 122.468 109.308 122.823 109.311H133.238C133.963 109.322 134.658 109.529 135.192 109.894C135.725 110.259 136.061 110.757 136.135 111.293L137.049 119.039C137.084 119.302 137.044 119.568 136.932 119.819C136.821 120.07 136.64 120.301 136.401 120.497C136.161 120.691 135.869 120.845 135.543 120.95C135.218 121.054 134.866 121.106 134.512 121.103ZM122.823 110.238C122.641 110.234 122.459 110.26 122.292 110.313C122.124 110.366 121.974 110.445 121.851 110.545C121.729 110.645 121.637 110.764 121.581 110.893C121.526 111.022 121.509 111.159 121.532 111.293L122.44 119.039C122.482 119.347 122.675 119.633 122.981 119.842C123.287 120.052 123.686 120.17 124.102 120.176H134.518C134.699 120.179 134.879 120.153 135.046 120.1C135.213 120.048 135.363 119.97 135.487 119.871C135.609 119.77 135.701 119.651 135.757 119.522C135.814 119.393 135.833 119.256 135.814 119.121L134.9 111.376C134.858 111.068 134.666 110.782 134.359 110.572C134.053 110.363 133.654 110.244 133.238 110.238H122.823Z" fill="white"/>
</g>
<path d="M126.507 118.433L118.557 112.995C118.29 112.812 118.132 112.557 118.118 112.288C118.103 112.018 118.233 111.755 118.479 111.557C118.601 111.458 118.747 111.379 118.91 111.322C119.073 111.266 119.249 111.234 119.429 111.228C119.608 111.222 119.788 111.243 119.957 111.289C120.125 111.335 120.28 111.405 120.413 111.495L126.341 115.545L137.82 106.201C138.065 106.001 138.407 105.882 138.771 105.87C139.134 105.857 139.489 105.953 139.759 106.135C140.027 106.317 140.187 106.572 140.204 106.842C140.22 107.113 140.092 107.377 139.847 107.577L126.507 118.433Z" fill="#9DE6B2"/>
<g opacity="0.2">
<path d="M126.507 118.433L118.557 112.995C118.29 112.812 118.132 112.557 118.118 112.288C118.103 112.018 118.233 111.755 118.479 111.557C118.601 111.458 118.747 111.379 118.91 111.322C119.073 111.266 119.249 111.234 119.429 111.228C119.608 111.222 119.788 111.243 119.957 111.289C120.125 111.335 120.28 111.405 120.413 111.495L126.341 115.545L137.82 106.201C138.065 106.001 138.407 105.882 138.771 105.87C139.134 105.857 139.489 105.953 139.759 106.135C140.027 106.317 140.187 106.572 140.204 106.842C140.22 107.113 140.092 107.377 139.847 107.577L126.507 118.433Z" fill="black"/>
</g>
<path d="M48.9579 48.8297H44.1769C43.5473 48.821 42.9225 48.9122 42.3441 49.0972C41.7657 49.2822 41.2469 49.5567 40.8224 49.9025C40.3978 50.2483 40.0771 50.6574 39.8818 51.1025C39.6864 51.5477 39.6209 52.0186 39.6895 52.4841L45.0245 97.8329C45.161 98.8227 45.7803 99.741 46.7653 100.414C47.7504 101.088 49.0329 101.469 50.3706 101.487H55.1516L48.9579 48.8297Z" fill="#9DE6B2"/>
<path opacity="0.2" d="M48.9579 48.8297H44.1769C43.5473 48.821 42.9225 48.9122 42.3441 49.0972C41.7657 49.2822 41.2469 49.5567 40.8224 49.9025C40.3978 50.2483 40.0771 50.6574 39.8818 51.1025C39.6864 51.5477 39.6209 52.0186 39.6895 52.4841L45.0245 97.8329C45.161 98.8227 45.7803 99.741 46.7653 100.414C47.7504 101.088 49.0329 101.469 50.3706 101.487H55.1516L48.9579 48.8297Z" fill="white"/>
<path d="M52.2763 101.487H94.1698C94.7989 101.495 95.423 101.404 96.0008 101.219C96.5785 101.033 97.0966 100.759 97.5206 100.413C97.9446 100.067 98.2647 99.6584 98.4597 99.2135C98.6548 98.7687 98.7202 98.2981 98.6517 97.8329L93.3222 52.4841C93.1856 51.4943 92.5664 50.576 91.5813 49.9027C90.5963 49.2293 89.3138 48.8476 87.9761 48.8297H46.0826C45.4531 48.821 44.8283 48.9122 44.2499 49.0972C43.6715 49.2822 43.1527 49.5567 42.7281 49.9025C42.3035 50.2483 41.9829 50.6574 41.7875 51.1025C41.5922 51.5477 41.5266 52.0186 41.5952 52.4841L46.9302 97.8329C47.0668 98.8227 47.6861 99.7411 48.6711 100.414C49.6561 101.088 50.9386 101.469 52.2763 101.487Z" fill="#9DE6B2"/>
<path opacity="0.5" d="M52.2763 101.487H94.1698C94.7989 101.495 95.423 101.404 96.0008 101.219C96.5785 101.033 97.0966 100.759 97.5206 100.413C97.9446 100.067 98.2647 99.6584 98.4597 99.2135C98.6548 98.7687 98.7202 98.2981 98.6517 97.8329L93.3222 52.4841C93.1856 51.4943 92.5664 50.576 91.5813 49.9027C90.5963 49.2293 89.3138 48.8476 87.9761 48.8297H46.0826C45.4531 48.821 44.8283 48.9122 44.2499 49.0972C43.6715 49.2822 43.1527 49.5567 42.7281 49.9025C42.3035 50.2483 41.9829 50.6574 41.7875 51.1025C41.5922 51.5477 41.5266 52.0186 41.5952 52.4841L46.9302 97.8329C47.0668 98.8227 47.6861 99.7411 48.6711 100.414C49.6561 101.088 50.9386 101.469 52.2763 101.487Z" fill="white"/>
<path d="M96.9398 97.833L91.6048 52.4841H43.3126L48.6476 97.833H96.9398Z" fill="white"/>
<path d="M73.1288 100.705C72.7107 100.695 72.3115 100.573 72.0057 100.361C71.6999 100.148 71.5083 99.8606 71.4668 99.551C71.4447 99.4048 71.4648 99.2568 71.5258 99.1168C71.5868 98.9768 71.6872 98.8481 71.8204 98.7393C71.9536 98.6305 72.1165 98.5441 72.2982 98.4859C72.4799 98.4276 72.6762 98.3989 72.874 98.4015C73.2916 98.41 73.6908 98.5314 73.9967 98.743C74.3026 98.9546 74.4944 99.2419 74.536 99.551C74.5571 99.6973 74.5364 99.8453 74.4751 99.9851C74.4138 100.125 74.3134 100.254 74.1805 100.363C74.0476 100.472 73.8852 100.558 73.7039 100.617C73.5226 100.676 73.3267 100.706 73.1288 100.705ZM72.8962 98.6858C72.7467 98.6834 72.5983 98.7048 72.4608 98.7484C72.3233 98.792 72.1998 98.8569 72.0987 98.9387C71.9975 99.0206 71.9209 99.1175 71.8741 99.2231C71.8272 99.3287 71.8112 99.4405 71.8269 99.551C71.8605 99.7857 72.0077 100.003 72.2411 100.163C72.4746 100.323 72.7783 100.415 73.0956 100.42C73.2451 100.422 73.3934 100.4 73.5307 100.356C73.668 100.312 73.791 100.247 73.8917 100.164C73.9923 100.082 74.0682 99.985 74.1144 99.8792C74.1605 99.7734 74.1758 99.6615 74.1593 99.551C74.1281 99.3167 73.9821 99.0991 73.7492 98.9395C73.5163 98.78 73.2127 98.6897 72.8962 98.6858Z" fill="#9DE6B2"/>
<path d="M89.5107 56.8925H85.954L85.6438 54.2474H89.2005L89.5107 56.8925Z" fill="#263238"/>
<path d="M56.736 56.8925H46.5701L46.2599 54.2474H56.4258L56.736 56.8925Z" fill="#263238"/>
<path d="M91.8486 76.7344H48.908L46.9524 60.1061H89.8874L91.8486 76.7344Z" fill="#263238"/>
<path d="M75.9488 94.9571H51.052L49.174 79.0004H74.0762L75.9488 94.9571Z" fill="#263238"/>
<path d="M82.7574 82.6383H77.0401L76.6135 79.0004H82.3308L82.7574 82.6383Z" fill="#263238"/>
<path d="M90.735 80.2446H84.4748C84.2502 80.2415 84.0349 80.1773 83.8695 80.0642C83.7042 79.9511 83.6002 79.797 83.5773 79.6308C83.5663 79.5527 83.5777 79.4738 83.6107 79.3992C83.6437 79.3246 83.6976 79.2561 83.7687 79.1981C83.8399 79.1401 83.9268 79.094 84.0236 79.0627C84.1205 79.0315 84.2252 79.0159 84.3307 79.0169H90.5909C90.8152 79.0209 91.0298 79.0854 91.1949 79.1983C91.36 79.3112 91.4643 79.4649 91.4884 79.6308C91.4994 79.7089 91.488 79.7878 91.455 79.8624C91.422 79.9369 91.3681 80.0055 91.2969 80.0635C91.2258 80.1214 91.1389 80.1676 91.042 80.1988C90.9452 80.23 90.8405 80.2457 90.735 80.2446Z" fill="#263238"/>
<path d="M91.7156 82.6383H84.7574C84.5331 82.6343 84.3185 82.5698 84.1534 82.4569C83.9883 82.344 83.884 82.1903 83.8599 82.0245C83.8489 81.9464 83.8603 81.8674 83.8933 81.7929C83.9263 81.7183 83.9802 81.6497 84.0513 81.5918C84.1225 81.5338 84.2094 81.4876 84.3062 81.4564C84.4031 81.4252 84.5078 81.4096 84.6133 81.4106H91.5716C91.7962 81.4137 92.0114 81.4779 92.1768 81.591C92.3421 81.7041 92.4461 81.8583 92.469 82.0245C92.48 82.1025 92.4686 82.1815 92.4356 82.256C92.4026 82.3306 92.3487 82.3991 92.2776 82.4571C92.2064 82.5151 92.1195 82.5612 92.0227 82.5925C91.9258 82.6237 91.8212 82.6393 91.7156 82.6383Z" fill="#263238"/>
<path d="M91.3001 85.0486H78.1537C77.9285 85.0455 77.7125 84.9815 77.5462 84.8685C77.38 84.7555 77.2749 84.6012 77.2507 84.4347C77.2388 84.3565 77.2495 84.2773 77.2822 84.2024C77.3149 84.1275 77.3687 84.0587 77.44 84.0006C77.5114 83.9424 77.5986 83.8963 77.6959 83.8653C77.7932 83.8343 77.8983 83.8191 78.0041 83.8208H91.1561C91.381 83.8231 91.597 83.8869 91.7625 84.0002C91.9281 84.1135 92.0317 84.2682 92.0535 84.4347C92.0645 84.5128 92.0531 84.5917 92.0201 84.6663C91.9871 84.7409 91.9332 84.8094 91.8621 84.8674C91.7909 84.9254 91.704 84.9715 91.6072 85.0027C91.5103 85.0339 91.4057 85.0496 91.3001 85.0486Z" fill="#263238"/>
<path d="M92.2807 87.4547H78.4307C78.2058 87.4524 77.9898 87.3886 77.8242 87.2753C77.6587 87.162 77.555 87.0073 77.5333 86.8408C77.5214 86.7626 77.5321 86.6834 77.5648 86.6085C77.5975 86.5337 77.6513 86.4648 77.7226 86.4067C77.794 86.3486 77.8812 86.3024 77.9785 86.2714C78.0758 86.2404 78.1809 86.2253 78.2867 86.2269H92.1367C92.3616 86.2292 92.5776 86.2931 92.7432 86.4063C92.9088 86.5196 93.0124 86.6743 93.0342 86.8408C93.046 86.919 93.0353 86.9982 93.0026 87.0731C92.97 87.148 92.9161 87.2168 92.8448 87.2749C92.7734 87.3331 92.6862 87.3792 92.5889 87.4102C92.4916 87.4412 92.3865 87.4564 92.2807 87.4547Z" fill="#263238"/>
<path d="M90.7849 89.8649H78.7188C78.4942 89.8617 78.2789 89.7975 78.1136 89.6844C77.9483 89.5713 77.8443 89.4172 77.8213 89.251C77.8095 89.1728 77.8202 89.0936 77.8529 89.0187C77.8855 88.9438 77.9394 88.875 78.0107 88.8169C78.0821 88.7587 78.1693 88.7126 78.2666 88.6816C78.3639 88.6506 78.4689 88.6354 78.5748 88.6371H90.6631C90.888 88.6393 91.1039 88.7032 91.2695 88.8165C91.4351 88.9297 91.5387 89.0844 91.5605 89.251C91.5727 89.3306 91.5615 89.4113 91.5275 89.4874C91.4936 89.5634 91.4378 89.6331 91.364 89.6915C91.2902 89.7499 91.2001 89.7957 91.1001 89.8256C91.0001 89.8556 90.8926 89.869 90.7849 89.8649Z" fill="#263238"/>
<path d="M92.879 92.275H79.029C78.8044 92.2719 78.5891 92.2077 78.4237 92.0946C78.2584 91.9815 78.1544 91.8274 78.1315 91.6612C78.1205 91.5831 78.1319 91.5042 78.1649 91.4296C78.1979 91.355 78.2518 91.2865 78.3229 91.2285C78.3941 91.1705 78.481 91.1244 78.5778 91.0931C78.6747 91.0619 78.7794 91.0463 78.8849 91.0473H92.7349C92.9592 91.0513 93.1738 91.1158 93.3389 91.2287C93.504 91.3416 93.6083 91.4953 93.6324 91.6612C93.6434 91.7393 93.632 91.8182 93.599 91.8928C93.566 91.9673 93.5121 92.0359 93.4409 92.0939C93.3698 92.1518 93.2829 92.198 93.186 92.2292C93.0892 92.2604 92.9845 92.2761 92.879 92.275Z" fill="#263238"/>
<path d="M88.8293 94.6853H79.2839C79.0593 94.6821 78.844 94.618 78.6787 94.5049C78.5133 94.3918 78.4094 94.2376 78.3864 94.0714C78.3745 93.9932 78.3853 93.914 78.4179 93.8391C78.4506 93.7642 78.5044 93.6954 78.5758 93.6373C78.6471 93.5792 78.7344 93.533 78.8317 93.502C78.9289 93.471 79.034 93.4559 79.1398 93.4575H88.6853C88.9102 93.4598 89.1262 93.5236 89.2918 93.6369C89.4573 93.7502 89.5609 93.9049 89.5827 94.0714C89.5937 94.1495 89.5823 94.2284 89.5493 94.303C89.5163 94.3776 89.4624 94.4461 89.3913 94.5041C89.3201 94.5621 89.2332 94.6082 89.1364 94.6394C89.0395 94.6707 88.9349 94.6863 88.8293 94.6853Z" fill="#263238"/>
<path opacity="0.9" d="M89.5107 56.8925H85.954L85.6438 54.2474H89.2005L89.5107 56.8925Z" fill="white"/>
<path opacity="0.9" d="M56.736 56.8925H46.5701L46.2599 54.2474H56.4258L56.736 56.8925Z" fill="white"/>
<path opacity="0.9" d="M91.8486 76.7344H48.908L46.9524 60.1061H89.8874L91.8486 76.7344Z" fill="white"/>
<path opacity="0.9" d="M75.9488 94.9571H51.052L49.174 79.0004H74.0762L75.9488 94.9571Z" fill="white"/>
<path opacity="0.9" d="M82.7574 82.6383H77.0401L76.6135 79.0004H82.3308L82.7574 82.6383Z" fill="white"/>
<path opacity="0.9" d="M90.735 80.2446H84.4748C84.2502 80.2415 84.0349 80.1773 83.8695 80.0642C83.7042 79.9511 83.6002 79.797 83.5773 79.6308C83.5663 79.5527 83.5777 79.4738 83.6107 79.3992C83.6437 79.3246 83.6976 79.2561 83.7687 79.1981C83.8399 79.1401 83.9268 79.094 84.0236 79.0627C84.1205 79.0315 84.2252 79.0159 84.3307 79.0169H90.5909C90.8152 79.0209 91.0298 79.0854 91.1949 79.1983C91.36 79.3112 91.4643 79.4649 91.4884 79.6308C91.4994 79.7089 91.488 79.7878 91.455 79.8624C91.422 79.9369 91.3681 80.0055 91.2969 80.0635C91.2258 80.1214 91.1389 80.1676 91.042 80.1988C90.9452 80.23 90.8405 80.2457 90.735 80.2446Z" fill="white"/>
<path opacity="0.9" d="M91.7156 82.6383H84.7574C84.5331 82.6343 84.3185 82.5698 84.1534 82.4569C83.9883 82.344 83.884 82.1903 83.8599 82.0245C83.8489 81.9464 83.8603 81.8674 83.8933 81.7929C83.9263 81.7183 83.9802 81.6497 84.0513 81.5918C84.1225 81.5338 84.2094 81.4876 84.3062 81.4564C84.4031 81.4252 84.5078 81.4096 84.6133 81.4106H91.5716C91.7962 81.4137 92.0114 81.4779 92.1768 81.591C92.3421 81.7041 92.4461 81.8583 92.469 82.0245C92.48 82.1025 92.4686 82.1815 92.4356 82.256C92.4026 82.3306 92.3487 82.3991 92.2776 82.4571C92.2064 82.5151 92.1195 82.5612 92.0227 82.5925C91.9258 82.6237 91.8212 82.6393 91.7156 82.6383Z" fill="white"/>
<path opacity="0.9" d="M91.3001 85.0486H78.1537C77.9285 85.0455 77.7125 84.9815 77.5462 84.8685C77.38 84.7555 77.2749 84.6012 77.2507 84.4347C77.2388 84.3565 77.2495 84.2773 77.2822 84.2024C77.3149 84.1275 77.3687 84.0587 77.44 84.0006C77.5114 83.9424 77.5986 83.8963 77.6959 83.8653C77.7932 83.8343 77.8983 83.8191 78.0041 83.8208H91.1561C91.381 83.8231 91.597 83.8869 91.7625 84.0002C91.9281 84.1135 92.0317 84.2682 92.0535 84.4347C92.0645 84.5128 92.0531 84.5917 92.0201 84.6663C91.9871 84.7409 91.9332 84.8094 91.8621 84.8674C91.7909 84.9254 91.704 84.9715 91.6072 85.0027C91.5103 85.0339 91.4057 85.0496 91.3001 85.0486Z" fill="white"/>
<path opacity="0.9" d="M92.2807 87.4547H78.4307C78.2058 87.4524 77.9898 87.3886 77.8242 87.2753C77.6587 87.162 77.555 87.0073 77.5333 86.8408C77.5214 86.7626 77.5321 86.6834 77.5648 86.6085C77.5975 86.5337 77.6513 86.4648 77.7226 86.4067C77.794 86.3486 77.8812 86.3024 77.9785 86.2714C78.0758 86.2404 78.1809 86.2253 78.2867 86.2269H92.1367C92.3616 86.2292 92.5776 86.2931 92.7432 86.4063C92.9088 86.5196 93.0124 86.6743 93.0342 86.8408C93.046 86.919 93.0353 86.9982 93.0026 87.0731C92.97 87.148 92.9161 87.2168 92.8448 87.2749C92.7734 87.3331 92.6862 87.3792 92.5889 87.4102C92.4916 87.4412 92.3865 87.4564 92.2807 87.4547Z" fill="white"/>
<path opacity="0.9" d="M90.7849 89.8649H78.7188C78.4942 89.8617 78.2789 89.7975 78.1136 89.6844C77.9483 89.5713 77.8443 89.4172 77.8213 89.251C77.8095 89.1728 77.8202 89.0936 77.8529 89.0187C77.8855 88.9438 77.9394 88.875 78.0107 88.8169C78.0821 88.7587 78.1693 88.7126 78.2666 88.6816C78.3639 88.6506 78.4689 88.6354 78.5748 88.6371H90.6631C90.888 88.6393 91.1039 88.7032 91.2695 88.8165C91.4351 88.9297 91.5387 89.0844 91.5605 89.251C91.5727 89.3306 91.5615 89.4113 91.5275 89.4874C91.4936 89.5634 91.4378 89.6331 91.364 89.6915C91.2902 89.7499 91.2001 89.7957 91.1001 89.8256C91.0001 89.8556 90.8926 89.869 90.7849 89.8649Z" fill="white"/>
<path opacity="0.9" d="M92.879 92.275H79.029C78.8044 92.2719 78.5891 92.2077 78.4237 92.0946C78.2584 91.9815 78.1544 91.8274 78.1315 91.6612C78.1205 91.5831 78.1319 91.5042 78.1649 91.4296C78.1979 91.355 78.2518 91.2865 78.3229 91.2285C78.3941 91.1705 78.481 91.1244 78.5778 91.0931C78.6747 91.0619 78.7794 91.0463 78.8849 91.0473H92.7349C92.9592 91.0513 93.1738 91.1158 93.3389 91.2287C93.504 91.3416 93.6083 91.4953 93.6324 91.6612C93.6434 91.7393 93.632 91.8182 93.599 91.8928C93.566 91.9673 93.5121 92.0359 93.4409 92.0939C93.3698 92.1518 93.2829 92.198 93.186 92.2292C93.0892 92.2604 92.9845 92.2761 92.879 92.275Z" fill="white"/>
<path opacity="0.9" d="M88.8293 94.6853H79.2839C79.0593 94.6821 78.844 94.618 78.6787 94.5049C78.5133 94.3918 78.4094 94.2376 78.3864 94.0714C78.3745 93.9932 78.3853 93.914 78.4179 93.8391C78.4506 93.7642 78.5044 93.6954 78.5758 93.6373C78.6471 93.5792 78.7344 93.533 78.8317 93.502C78.9289 93.471 79.034 93.4559 79.1398 93.4575H88.6853C88.9102 93.4598 89.1262 93.5236 89.2918 93.6369C89.4573 93.7502 89.5609 93.9049 89.5827 94.0714C89.5937 94.1495 89.5823 94.2284 89.5493 94.303C89.5163 94.3776 89.4624 94.4461 89.3913 94.5041C89.3201 94.5621 89.2332 94.6082 89.1364 94.6394C89.0395 94.6707 88.9349 94.6863 88.8293 94.6853Z" fill="white"/>
<path d="M78.2866 76.8581H68.9129C68.2599 76.8495 67.6337 76.6632 67.1529 76.3345C66.672 76.0057 66.3699 75.5573 66.3036 75.0741L65.4837 68.1031C65.4499 67.8665 65.4841 67.6273 65.5839 67.4013C65.6837 67.1753 65.8468 66.9676 66.0626 66.792C66.2783 66.6163 66.5417 66.4767 66.8354 66.3825C67.1291 66.2882 67.4463 66.2413 67.7662 66.2449H77.1343C77.788 66.2534 78.4148 66.4396 78.8966 66.7682C79.3783 67.0969 79.6816 67.5453 79.7492 68.0289L80.5691 74.9999C80.6002 75.2374 80.5641 75.477 80.4629 75.7034C80.3618 75.9298 80.1979 76.1379 79.9819 76.3142C79.7665 76.4883 79.5042 76.6267 79.2121 76.7204C78.92 76.8141 78.6047 76.861 78.2866 76.8581ZM67.7606 67.0813C67.5954 67.0737 67.4301 67.0938 67.2767 67.1399C67.1233 67.1861 66.9857 67.2573 66.8741 67.3481C66.7625 67.439 66.6797 67.5474 66.6318 67.6652C66.5839 67.783 66.5721 67.9073 66.5972 68.0289L67.4171 74.9999C67.4549 75.2762 67.6274 75.5326 67.9019 75.7209C68.1764 75.9091 68.5341 76.0161 68.9074 76.0217H78.2811C78.4436 76.0246 78.6052 76.0019 78.7551 75.955C78.905 75.9081 79.0399 75.8382 79.1509 75.7498C79.2604 75.6586 79.3431 75.5514 79.3937 75.435C79.4442 75.3187 79.4615 75.1957 79.4445 75.0741L78.6246 68.1031C78.5866 67.8261 78.4134 67.5691 78.1377 67.3808C77.862 67.1925 77.503 67.0859 77.1288 67.0813H67.7606Z" fill="#263238"/>
<g opacity="0.5">
<path d="M78.2866 76.8581H68.9129C68.2599 76.8495 67.6337 76.6632 67.1529 76.3345C66.672 76.0057 66.3699 75.5573 66.3036 75.0741L65.4837 68.1031C65.4499 67.8665 65.4841 67.6273 65.5839 67.4013C65.6837 67.1753 65.8468 66.9676 66.0626 66.792C66.2783 66.6163 66.5417 66.4767 66.8354 66.3825C67.1291 66.2882 67.4463 66.2413 67.7662 66.2449H77.1343C77.788 66.2534 78.4148 66.4396 78.8966 66.7682C79.3783 67.0969 79.6816 67.5453 79.7492 68.0289L80.5691 74.9999C80.6002 75.2374 80.5641 75.477 80.4629 75.7034C80.3618 75.9298 80.1979 76.1379 79.9819 76.3142C79.7665 76.4883 79.5042 76.6267 79.2121 76.7204C78.92 76.8141 78.6047 76.861 78.2866 76.8581ZM67.7606 67.0813C67.5954 67.0737 67.4301 67.0938 67.2767 67.1399C67.1233 67.1861 66.9857 67.2573 66.8741 67.3481C66.7625 67.439 66.6797 67.5474 66.6318 67.6652C66.5839 67.783 66.5721 67.9073 66.5972 68.0289L67.4171 74.9999C67.4549 75.2762 67.6274 75.5326 67.9019 75.7209C68.1764 75.9091 68.5341 76.0161 68.9074 76.0217H78.2811C78.4436 76.0246 78.6052 76.0019 78.7551 75.955C78.905 75.9081 79.0399 75.8382 79.1509 75.7498C79.2604 75.6586 79.3431 75.5514 79.3937 75.435C79.4442 75.3187 79.4615 75.1957 79.4445 75.0741L78.6246 68.1031C78.5866 67.8261 78.4134 67.5691 78.1377 67.3808C77.862 67.1925 77.503 67.0859 77.1288 67.0813H67.7606Z" fill="white"/>
</g>
<path d="M71.0791 74.4767L63.927 69.5821C63.8071 69.5007 63.71 69.4024 63.6414 69.293C63.5729 69.1835 63.5341 69.0651 63.5274 68.9444C63.5207 68.8237 63.5462 68.7033 63.6024 68.59C63.6587 68.4767 63.7445 68.3728 63.855 68.2843C64.0767 68.1065 64.384 68.001 64.7099 67.991C65.0358 67.9809 65.3538 68.0671 65.5945 68.2308L70.9295 71.877L81.245 63.4351C81.4654 63.2548 81.7731 63.147 82.1004 63.1354C82.4276 63.1239 82.7477 63.2094 82.9901 63.3733C83.2318 63.5378 83.3757 63.7669 83.3902 64.0103C83.4048 64.2536 83.2888 64.4913 83.0677 64.6711L71.0791 74.4767Z" fill="#9DE6B2"/>
<g opacity="0.2">
<path d="M71.0791 74.4767L63.927 69.5821C63.8071 69.5007 63.71 69.4024 63.6414 69.293C63.5729 69.1835 63.5341 69.0651 63.5274 68.9444C63.5207 68.8237 63.5462 68.7033 63.6024 68.59C63.6587 68.4767 63.7445 68.3728 63.855 68.2843C64.0767 68.1065 64.384 68.001 64.7099 67.991C65.0358 67.9809 65.3538 68.0671 65.5945 68.2308L70.9295 71.877L81.245 63.4351C81.4654 63.2548 81.7731 63.147 82.1004 63.1354C82.4276 63.1239 82.7477 63.2094 82.9901 63.3733C83.2318 63.5378 83.3757 63.7669 83.3902 64.0103C83.4048 64.2536 83.2888 64.4913 83.0677 64.6711L71.0791 74.4767Z" fill="black"/>
</g>
<path d="M46.1159 125.066H42.6423C42.3144 125.062 41.9891 125.109 41.6879 125.206C41.3867 125.302 41.1165 125.445 40.8954 125.625C40.6742 125.805 40.5071 126.018 40.4052 126.25C40.3034 126.482 40.269 126.727 40.3044 126.97L44.1824 159.905C44.2525 160.419 44.5728 160.896 45.083 161.247C45.5931 161.597 46.258 161.797 46.9524 161.808H50.4426L46.1159 125.066Z" fill="#9DE6B2"/>
<path opacity="0.2" d="M46.1159 125.066H42.6423C42.3144 125.062 41.9891 125.109 41.6879 125.206C41.3867 125.302 41.1165 125.445 40.8954 125.625C40.6742 125.805 40.5071 126.018 40.4052 126.25C40.3034 126.482 40.269 126.727 40.3044 126.97L44.1824 159.905C44.2525 160.419 44.5728 160.896 45.083 161.247C45.5931 161.597 46.258 161.797 46.9524 161.808H50.4426L46.1159 125.066Z" fill="white"/>
<path d="M102.646 161.821H48.476C47.7816 161.809 47.1167 161.609 46.6065 161.259C46.0964 160.908 45.7761 160.431 45.706 159.917L41.828 126.982C41.7925 126.739 41.8269 126.494 41.9288 126.262C42.0307 126.031 42.1978 125.818 42.4189 125.637C42.6401 125.457 42.9102 125.314 43.2114 125.218C43.5126 125.122 43.838 125.074 44.1659 125.078H98.336C99.0304 125.09 99.6953 125.29 100.205 125.64C100.716 125.991 101.036 126.468 101.106 126.982L104.984 159.917C105.02 160.16 104.987 160.405 104.885 160.637C104.784 160.869 104.616 161.083 104.395 161.263C104.174 161.443 103.903 161.586 103.602 161.682C103.3 161.778 102.974 161.826 102.646 161.821Z" fill="#9DE6B2"/>
<path opacity="0.5" d="M102.646 161.821H48.476C47.7816 161.809 47.1167 161.609 46.6065 161.259C46.0964 160.908 45.7761 160.431 45.706 159.917L41.828 126.982C41.7925 126.739 41.8269 126.494 41.9288 126.262C42.0307 126.031 42.1978 125.818 42.4189 125.637C42.6401 125.457 42.9102 125.314 43.2114 125.218C43.5126 125.122 43.838 125.074 44.1659 125.078H98.336C99.0304 125.09 99.6953 125.29 100.205 125.64C100.716 125.991 101.036 126.468 101.106 126.982L104.984 159.917C105.02 160.16 104.987 160.405 104.885 160.637C104.784 160.869 104.616 161.083 104.395 161.263C104.174 161.443 103.903 161.586 103.602 161.682C103.3 161.778 102.974 161.826 102.646 161.821Z" fill="white"/>
<path d="M79.0291 159.077H138.307V159.967C138.307 160.622 137.957 161.251 137.333 161.715C136.71 162.178 135.865 162.439 134.983 162.439H79.0291V159.081V159.077Z" fill="#9DE6B2"/>
<path opacity="0.2" d="M79.0291 159.077H138.307V159.967C138.307 160.622 137.957 161.251 137.333 161.715C136.71 162.178 135.865 162.439 134.983 162.439H79.0291V159.081V159.077Z" fill="white"/>
<path opacity="0.4" d="M113.565 160.758H108.829C108.23 160.757 107.657 160.579 107.234 160.264C106.811 159.949 106.574 159.522 106.574 159.077H115.826C115.826 159.523 115.588 159.95 115.164 160.265C114.74 160.581 114.165 160.758 113.565 160.758Z" fill="white"/>
<path d="M101.571 156.242L98.1641 127.27H44.8306L48.2377 156.242H101.571Z" fill="white"/>
<path d="M73.8602 126.187C73.8697 126.249 73.8612 126.312 73.8353 126.372C73.8095 126.431 73.7668 126.486 73.7102 126.533C73.6536 126.579 73.5843 126.616 73.507 126.641C73.4297 126.666 73.3462 126.678 73.2619 126.677C73.0821 126.675 72.9096 126.624 72.777 126.533C72.6443 126.443 72.5606 126.32 72.5417 126.187C72.5322 126.124 72.5408 126.061 72.567 126.001C72.5932 125.941 72.6364 125.886 72.6936 125.839C72.7508 125.793 72.8208 125.756 72.8988 125.732C72.9767 125.707 73.0609 125.695 73.1456 125.697C73.3252 125.698 73.4976 125.749 73.6296 125.84C73.7616 125.93 73.8438 126.054 73.8602 126.187Z" fill="#263238"/>
<path d="M45.8721 159.077H83.0344V159.967C83.0344 160.622 82.6842 161.251 82.0608 161.715C81.4374 162.178 80.592 162.439 79.7104 162.439H49.1961C48.3145 162.439 47.469 162.178 46.8456 161.715C46.2223 161.251 45.8721 160.622 45.8721 159.967V159.077Z" fill="#9DE6B2"/>
<path opacity="0.4" d="M51.6781 161.071H49.1131C48.9662 161.071 48.8252 161.027 48.7213 160.95C48.6174 160.873 48.5591 160.768 48.5591 160.659C48.5591 160.55 48.6174 160.445 48.7213 160.368C48.8252 160.29 48.9662 160.247 49.1131 160.247H51.6892C51.8361 160.247 51.977 160.29 52.0809 160.368C52.1848 160.445 52.2432 160.55 52.2432 160.659C52.2432 160.714 52.2285 160.768 52.2 160.818C52.1714 160.869 52.1296 160.915 52.077 160.953C52.0244 160.991 51.962 161.022 51.8935 161.042C51.825 161.062 51.7518 161.072 51.6781 161.071Z" fill="white"/>
<path opacity="0.4" d="M57.218 161.071H54.653C54.5061 161.071 54.3652 161.027 54.2613 160.95C54.1574 160.873 54.099 160.768 54.099 160.659C54.099 160.55 54.1574 160.445 54.2613 160.368C54.3652 160.29 54.5061 160.247 54.653 160.247H57.2291C57.376 160.247 57.5169 160.29 57.6208 160.368C57.7247 160.445 57.7831 160.55 57.7831 160.659C57.7831 160.714 57.7684 160.768 57.7399 160.818C57.7114 160.869 57.6696 160.915 57.6169 160.953C57.5643 160.991 57.5019 161.022 57.4334 161.042C57.3649 161.062 57.2917 161.072 57.218 161.071Z" fill="white"/>
<path d="M56.7804 131.856H47.7835L47.4788 129.256H56.4757L56.7804 131.856Z" fill="#263238"/>
<path d="M76.1759 130.2H70.5417L70.4309 129.256H76.0651L76.1759 130.2Z" fill="#263238"/>
<path d="M82.9514 130.2H77.3172L77.2064 129.256H82.8406L82.9514 130.2Z" fill="#263238"/>
<path d="M89.7268 130.2H84.0926L83.9818 129.256H89.616L89.7268 130.2Z" fill="#263238"/>
<path d="M96.5022 130.2H90.868L90.7572 129.256H96.3914L96.5022 130.2Z" fill="#263238"/>
<path d="M97.527 138.942H48.6199L47.9496 133.273H96.8622L97.527 138.942Z" fill="#263238"/>
<path d="M80.3032 150.907H50.0271L48.7363 139.964H79.018L80.3032 150.907Z" fill="#263238"/>
<path d="M71.9378 153.111H50.9744C50.786 153.111 50.6044 153.058 50.4652 152.964C50.3259 152.869 50.2389 152.74 50.221 152.6C50.2116 152.535 50.2208 152.469 50.2481 152.407C50.2754 152.345 50.3201 152.288 50.3793 152.24C50.4385 152.192 50.5108 152.153 50.5914 152.127C50.672 152.101 50.7591 152.088 50.847 152.089H71.827C72.0138 152.092 72.1926 152.146 72.3302 152.24C72.4678 152.334 72.5548 152.462 72.5749 152.6C72.5845 152.666 72.5749 152.732 72.547 152.795C72.5191 152.858 72.4734 152.915 72.413 152.964C72.3526 153.012 72.2789 153.05 72.1969 153.076C72.1149 153.101 72.0266 153.113 71.9378 153.111Z" fill="#263238"/>
<path d="M69.9046 154.767H51.1683C50.9812 154.765 50.8017 154.712 50.6638 154.617C50.526 154.523 50.4394 154.395 50.4204 154.256C50.4111 154.191 50.4203 154.125 50.4475 154.063C50.4748 154.001 50.5194 153.943 50.5785 153.895C50.6376 153.846 50.7098 153.807 50.7904 153.781C50.8711 153.754 50.9583 153.741 51.0464 153.741H69.7883C69.9759 153.745 70.1554 153.799 70.2932 153.894C70.4309 153.988 70.5173 154.117 70.5362 154.256C70.5456 154.322 70.5363 154.388 70.5087 154.45C70.481 154.513 70.4358 154.57 70.376 154.618C70.3163 154.667 70.2433 154.705 70.162 154.731C70.0807 154.756 69.9929 154.769 69.9046 154.767Z" fill="#263238"/>
<path d="M96.4246 146.989H84.1314C83.9436 146.986 83.7634 146.933 83.6247 146.839C83.4859 146.745 83.3982 146.617 83.3779 146.478C83.3685 146.412 83.3779 146.346 83.4055 146.283C83.433 146.221 83.4782 146.163 83.5379 146.115C83.5976 146.066 83.6705 146.027 83.7518 146.001C83.8331 145.975 83.9209 145.962 84.0095 145.963H96.3027C96.4908 145.965 96.671 146.019 96.8089 146.114C96.9469 146.209 97.033 146.339 97.0507 146.478C97.061 146.543 97.0524 146.609 97.0255 146.671C96.9985 146.734 96.9539 146.791 96.8945 146.84C96.8351 146.888 96.7624 146.926 96.6814 146.952C96.6003 146.978 96.5127 146.99 96.4246 146.989Z" fill="#263238"/>
<path d="M94.397 148.637H84.3253C84.1378 148.635 83.9576 148.582 83.8195 148.488C83.6814 148.394 83.5952 148.265 83.5774 148.126C83.567 148.061 83.5756 147.995 83.6026 147.932C83.6295 147.87 83.6742 147.812 83.7335 147.764C83.7929 147.716 83.8656 147.677 83.9467 147.651C84.0277 147.626 84.1153 147.613 84.2034 147.615H94.2751C94.4626 147.616 94.6428 147.669 94.7809 147.764C94.919 147.858 95.0052 147.987 95.023 148.126C95.0334 148.191 95.0248 148.257 94.9978 148.319C94.9709 148.382 94.9262 148.439 94.8669 148.488C94.8075 148.536 94.7348 148.574 94.6537 148.6C94.5727 148.626 94.4851 148.638 94.397 148.637Z" fill="#263238"/>
<path d="M97.383 144.925H82.9901L82.4028 139.964H96.8013L97.383 144.925Z" fill="#263238"/>
<path d="M98.5575 154.887H84.1591L83.5774 149.926H97.9758L98.5575 154.887Z" fill="#263238"/>
<g opacity="0.9">
<path d="M56.7804 131.856H47.7835L47.4788 129.256H56.4757L56.7804 131.856Z" fill="white"/>
<path d="M76.176 130.2H70.5418L70.431 129.256H76.0652L76.176 130.2Z" fill="white"/>
<path d="M82.9514 130.2H77.3172L77.2064 129.256H82.8406L82.9514 130.2Z" fill="white"/>
<path d="M89.7268 130.2H84.0926L83.9818 129.256H89.616L89.7268 130.2Z" fill="white"/>
<path d="M96.5022 130.2H90.868L90.7572 129.256H96.3914L96.5022 130.2Z" fill="white"/>
<path d="M97.5272 138.942H48.62L47.9497 133.273H96.8624L97.5272 138.942Z" fill="white"/>
<path d="M80.3032 150.907H50.0271L48.7363 139.964H79.018L80.3032 150.907Z" fill="white"/>
<path d="M71.9379 153.111H50.9745C50.7861 153.111 50.6046 153.058 50.4653 152.964C50.326 152.869 50.239 152.74 50.2211 152.6C50.2117 152.535 50.2209 152.469 50.2482 152.407C50.2755 152.345 50.3202 152.288 50.3794 152.24C50.4386 152.192 50.5109 152.153 50.5915 152.127C50.6721 152.101 50.7593 152.088 50.8471 152.089H71.8271C72.0139 152.092 72.1927 152.146 72.3303 152.24C72.4679 152.334 72.5549 152.462 72.575 152.6C72.5846 152.666 72.5751 152.732 72.5471 152.795C72.5192 152.858 72.4735 152.915 72.4131 152.964C72.3527 153.012 72.279 153.05 72.197 153.076C72.115 153.101 72.0267 153.113 71.9379 153.111Z" fill="white"/>
<path d="M69.9047 154.767H51.1684C50.9813 154.765 50.8018 154.712 50.6639 154.617C50.5261 154.523 50.4395 154.395 50.4205 154.256C50.4112 154.191 50.4204 154.125 50.4477 154.063C50.4749 154.001 50.5195 153.943 50.5786 153.895C50.6377 153.846 50.7099 153.807 50.7906 153.781C50.8712 153.754 50.9584 153.741 51.0466 153.741H69.7884C69.976 153.745 70.1556 153.799 70.2933 153.894C70.431 153.988 70.5174 154.117 70.5363 154.256C70.5458 154.322 70.5364 154.388 70.5088 154.45C70.4812 154.513 70.436 154.57 70.3762 154.618C70.3164 154.667 70.2434 154.705 70.1621 154.731C70.0808 154.756 69.993 154.769 69.9047 154.767Z" fill="white"/>
<path d="M96.4246 146.989H84.1314C83.9436 146.986 83.7634 146.933 83.6247 146.839C83.4859 146.745 83.3982 146.617 83.3779 146.478C83.3685 146.412 83.3779 146.346 83.4055 146.283C83.433 146.221 83.4782 146.163 83.5379 146.115C83.5976 146.066 83.6705 146.027 83.7518 146.001C83.8331 145.975 83.9209 145.962 84.0095 145.963H96.3027C96.4908 145.965 96.671 146.019 96.8089 146.114C96.9469 146.209 97.033 146.339 97.0507 146.478C97.061 146.543 97.0524 146.609 97.0255 146.671C96.9985 146.734 96.9539 146.791 96.8945 146.84C96.8351 146.888 96.7624 146.926 96.6814 146.952C96.6003 146.978 96.5127 146.99 96.4246 146.989Z" fill="white"/>
<path d="M94.397 148.637H84.3253C84.1378 148.635 83.9576 148.582 83.8195 148.488C83.6814 148.394 83.5952 148.265 83.5774 148.126C83.567 148.061 83.5756 147.995 83.6026 147.932C83.6295 147.87 83.6742 147.812 83.7335 147.764C83.7929 147.716 83.8656 147.677 83.9467 147.651C84.0277 147.626 84.1153 147.613 84.2034 147.615H94.2751C94.4626 147.616 94.6428 147.669 94.7809 147.764C94.919 147.858 95.0052 147.987 95.023 148.126C95.0334 148.191 95.0248 148.257 94.9978 148.319C94.9709 148.382 94.9262 148.439 94.8669 148.488C94.8075 148.536 94.7348 148.574 94.6537 148.6C94.5727 148.626 94.4851 148.638 94.397 148.637Z" fill="white"/>
<path d="M97.3831 144.925H82.9902L82.403 139.964H96.8014L97.3831 144.925Z" fill="white"/>
<path d="M98.5575 154.887H84.1591L83.5774 149.926H97.9758L98.5575 154.887Z" fill="white"/>
</g>
<path d="M81.522 146.614H71.1068C70.3818 146.604 69.6869 146.396 69.1531 146.031C68.6194 145.666 68.2837 145.169 68.2094 144.632L67.2953 136.886C67.2593 136.624 67.2984 136.359 67.41 136.108C67.5216 135.858 67.7032 135.628 67.9428 135.433C68.1825 135.239 68.4747 135.084 68.8004 134.98C69.1261 134.875 69.4779 134.823 69.8326 134.826H80.2478C80.9729 134.837 81.6678 135.044 82.2016 135.409C82.7353 135.774 83.071 136.272 83.1453 136.808L84.0594 144.554C84.0953 144.816 84.0562 145.081 83.9446 145.332C83.8331 145.582 83.6515 145.812 83.4118 146.007C83.1722 146.201 82.8799 146.356 82.5542 146.461C82.2285 146.565 81.8768 146.617 81.522 146.614ZM69.8326 135.749C69.6515 135.748 69.4719 135.774 69.305 135.826C69.1382 135.879 68.9877 135.956 68.8631 136.054C68.7411 136.155 68.6493 136.274 68.5939 136.403C68.5385 136.533 68.5207 136.669 68.5418 136.804L69.4504 144.55C69.4923 144.858 69.6847 145.143 69.991 145.353C70.2973 145.563 70.6962 145.681 71.1124 145.687H81.5276C81.7099 145.691 81.8911 145.665 82.059 145.612C82.227 145.56 82.3776 145.48 82.5006 145.38C82.6236 145.28 82.7162 145.162 82.772 145.032C82.8278 144.903 82.8455 144.767 82.8239 144.632L81.9098 136.886C81.8679 136.579 81.6755 136.293 81.3693 136.083C81.063 135.874 80.664 135.755 80.2478 135.749H69.8326Z" fill="#263238"/>
<g opacity="0.5">
<path d="M81.522 146.614H71.1068C70.3818 146.604 69.6869 146.396 69.1531 146.031C68.6194 145.666 68.2837 145.169 68.2094 144.632L67.2953 136.886C67.2593 136.624 67.2984 136.359 67.41 136.108C67.5216 135.858 67.7032 135.628 67.9428 135.433C68.1825 135.239 68.4747 135.084 68.8004 134.98C69.1261 134.875 69.4779 134.823 69.8326 134.826H80.2478C80.9729 134.837 81.6678 135.044 82.2016 135.409C82.7353 135.774 83.071 136.272 83.1453 136.808L84.0594 144.554C84.0953 144.816 84.0562 145.081 83.9446 145.332C83.8331 145.582 83.6515 145.812 83.4118 146.007C83.1722 146.201 82.8799 146.356 82.5542 146.461C82.2285 146.565 81.8768 146.617 81.522 146.614ZM69.8326 135.749C69.6515 135.748 69.4719 135.774 69.305 135.826C69.1382 135.879 68.9877 135.956 68.8631 136.054C68.7411 136.155 68.6493 136.274 68.5939 136.403C68.5385 136.533 68.5207 136.669 68.5418 136.804L69.4504 144.55C69.4923 144.858 69.6847 145.143 69.991 145.353C70.2973 145.563 70.6962 145.681 71.1124 145.687H81.5276C81.7099 145.691 81.8911 145.665 82.059 145.612C82.227 145.56 82.3776 145.48 82.5006 145.38C82.6236 145.28 82.7162 145.162 82.772 145.032C82.8278 144.903 82.8455 144.767 82.8239 144.632L81.9098 136.886C81.8679 136.579 81.6755 136.293 81.3693 136.083C81.063 135.874 80.664 135.755 80.2478 135.749H69.8326Z" fill="white"/>
</g>
<path d="M73.5167 143.944L65.5668 138.51C65.3004 138.326 65.1422 138.071 65.1266 137.801C65.1111 137.531 65.2394 137.268 65.4837 137.068C65.6052 136.969 65.7516 136.89 65.9145 136.833C66.0775 136.777 66.2537 136.745 66.4333 136.739C66.6128 136.733 66.7921 136.754 66.9609 136.8C67.1298 136.846 67.2848 136.916 67.4172 137.006L73.345 141.06L84.8239 131.699C85.0695 131.5 85.4115 131.381 85.7751 131.368C86.1386 131.356 86.4938 131.451 86.7629 131.634C87.0314 131.816 87.1916 132.071 87.2082 132.341C87.2248 132.611 87.0965 132.875 86.8515 133.076L73.5167 143.944Z" fill="#9DE6B2"/>
<g opacity="0.2">
<path d="M73.5167 143.944L65.5668 138.51C65.3004 138.326 65.1422 138.071 65.1266 137.801C65.1111 137.531 65.2394 137.268 65.4837 137.068C65.6052 136.969 65.7516 136.89 65.9145 136.833C66.0775 136.777 66.2537 136.745 66.4333 136.739C66.6128 136.733 66.7921 136.754 66.9609 136.8C67.1298 136.846 67.2848 136.916 67.4172 137.006L73.345 141.06L84.8239 131.699C85.0695 131.5 85.4115 131.381 85.7751 131.368C86.1386 131.356 86.4938 131.451 86.7629 131.634C87.0314 131.816 87.1916 132.071 87.2082 132.341C87.2248 132.611 87.0965 132.875 86.8515 133.076L73.5167 143.944Z" fill="black"/>
</g>
<path d="M207.912 126.436H214.482C216.148 126.434 217.751 125.912 218.976 124.975C220.201 124.037 220.958 122.752 221.097 121.373L222.293 108.779L219.8 108.614L218.604 121.207C218.518 122.067 218.047 122.869 217.284 123.454C216.52 124.04 215.521 124.366 214.482 124.369H207.912V126.436Z" fill="#263238"/>
<path opacity="0.3" d="M207.912 126.436H214.482C216.148 126.434 217.751 125.912 218.976 124.975C220.201 124.037 220.958 122.752 221.097 121.373L222.293 108.779L219.8 108.614L218.604 121.207C218.518 122.067 218.047 122.869 217.284 123.454C216.52 124.04 215.521 124.366 214.482 124.369H207.912V126.436Z" fill="white"/>
<path opacity="0.2" d="M217.042 123.628L216.654 125.105C216.532 125.543 216.298 125.952 215.967 126.307C215.48 126.403 214.982 126.452 214.482 126.454H207.912V124.374H214.482C215.412 124.373 216.315 124.11 217.042 123.628Z" fill="black"/>
<path d="M211.23 110.11C210.478 110.046 209.786 109.737 209.306 109.252C208.826 108.767 208.595 108.144 208.665 107.518L210.654 91.4087C210.692 91.0971 210.804 90.7947 210.982 90.5189C211.161 90.2432 211.404 89.9993 211.696 89.8014C211.988 89.6035 212.324 89.4554 212.685 89.3655C213.047 89.2756 213.426 89.2458 213.801 89.2776H232.803C233.053 89.2983 233.296 89.3599 233.517 89.4589C233.739 89.558 233.935 89.6925 234.093 89.8546C234.252 90.0168 234.37 90.2034 234.442 90.4038C234.513 90.6042 234.536 90.8143 234.509 91.0221L232.332 108.72C232.28 109.139 232.03 109.525 231.636 109.792C231.243 110.058 230.738 110.184 230.232 110.142L211.23 110.11Z" fill="#9DE6B2"/>
<path opacity="0.3" d="M211.23 110.11C210.478 110.046 209.786 109.737 209.306 109.252C208.826 108.767 208.595 108.144 208.665 107.518L210.654 91.4087C210.692 91.0971 210.804 90.7947 210.982 90.5189C211.161 90.2432 211.404 89.9993 211.696 89.8014C211.988 89.6035 212.324 89.4554 212.685 89.3655C213.047 89.2756 213.426 89.2458 213.801 89.2776H232.803C233.053 89.2983 233.296 89.3599 233.517 89.4589C233.739 89.558 233.935 89.6925 234.093 89.8546C234.252 90.0168 234.37 90.2034 234.442 90.4038C234.513 90.6042 234.536 90.8143 234.509 91.0221L232.332 108.72C232.28 109.139 232.03 109.525 231.636 109.792C231.243 110.058 230.738 110.184 230.232 110.142L211.23 110.11Z" fill="black"/>
<path d="M232.332 108.687L234.515 90.9898C234.566 90.5699 234.414 90.1504 234.093 89.8233C233.772 89.4962 233.308 89.2884 232.803 89.2454C232.428 89.2135 232.049 89.2434 231.688 89.3333C231.326 89.4232 230.99 89.5713 230.698 89.7692C230.406 89.9671 230.163 90.2109 229.985 90.4867C229.806 90.7625 229.694 91.0648 229.656 91.3764L227.667 107.486C227.629 107.798 227.665 108.113 227.773 108.413C227.881 108.713 228.06 108.992 228.298 109.235C228.536 109.478 228.829 109.679 229.161 109.828C229.493 109.976 229.857 110.069 230.232 110.1C230.736 110.143 231.239 110.018 231.633 109.754C232.026 109.489 232.277 109.106 232.332 108.687Z" fill="#9DE6B2"/>
<path d="M210.842 156.952L210.671 156.524C210.565 156.256 210.361 156.023 210.086 155.857C209.811 155.692 209.481 155.603 209.141 155.603H191.375C191.007 155.604 190.651 155.709 190.366 155.901C190.08 156.093 189.881 156.359 189.801 156.657L189.757 156.823C189.682 157.112 189.49 157.372 189.213 157.558C188.936 157.744 188.59 157.845 188.234 157.845C187.999 157.845 187.768 157.802 187.557 157.718C187.345 157.634 187.159 157.512 187.013 157.361C186.866 157.209 186.762 157.032 186.709 156.842C186.655 156.653 186.654 156.456 186.704 156.266L186.749 156.096C186.982 155.221 187.567 154.438 188.408 153.876C189.249 153.315 190.296 153.008 191.375 153.007H209.141C210.14 153.006 211.113 153.266 211.923 153.752C212.733 154.237 213.337 154.922 213.651 155.709L213.823 156.137C213.9 156.332 213.92 156.54 213.882 156.743C213.844 156.946 213.748 157.138 213.604 157.305C213.459 157.472 213.269 157.607 213.049 157.701C212.829 157.795 212.585 157.844 212.338 157.845C212.007 157.847 211.684 157.761 211.415 157.601C211.146 157.44 210.946 157.213 210.842 156.952Z" fill="#263238"/>
<path opacity="0.3" d="M210.842 156.952L210.671 156.524C210.565 156.256 210.361 156.023 210.086 155.857C209.811 155.692 209.481 155.603 209.141 155.603H191.375C191.007 155.604 190.651 155.709 190.366 155.901C190.08 156.093 189.881 156.359 189.801 156.657L189.757 156.823C189.682 157.112 189.49 157.372 189.213 157.558C188.936 157.744 188.59 157.845 188.234 157.845C187.999 157.845 187.768 157.802 187.557 157.718C187.345 157.634 187.159 157.512 187.013 157.361C186.866 157.209 186.762 157.032 186.709 156.842C186.655 156.653 186.654 156.456 186.704 156.266L186.749 156.096C186.982 155.221 187.567 154.438 188.408 153.876C189.249 153.315 190.296 153.008 191.375 153.007H209.141C210.14 153.006 211.113 153.266 211.923 153.752C212.733 154.237 213.337 154.922 213.651 155.709L213.823 156.137C213.9 156.332 213.92 156.54 213.882 156.743C213.844 156.946 213.748 157.138 213.604 157.305C213.459 157.472 213.269 157.607 213.049 157.701C212.829 157.795 212.585 157.844 212.338 157.845C212.007 157.847 211.684 157.761 211.415 157.601C211.146 157.44 210.946 157.213 210.842 156.952Z" fill="white"/>
<path opacity="0.2" d="M203.147 153.007H197.651V155.603H203.147V153.007Z" fill="black"/>
<path d="M200.399 157.55C200.814 157.55 201.211 157.413 201.504 157.17C201.797 156.927 201.962 156.596 201.962 156.252V121.732H198.837V156.252C198.837 156.596 199.002 156.927 199.295 157.17C199.588 157.413 199.985 157.55 200.399 157.55Z" fill="#263238"/>
<path opacity="0.3" d="M200.399 157.55C200.814 157.55 201.211 157.413 201.504 157.17C201.797 156.927 201.962 156.596 201.962 156.252V121.732H198.837V156.252C198.837 156.596 199.002 156.927 199.295 157.17C199.588 157.413 199.985 157.55 200.399 157.55Z" fill="white"/>
<path d="M198.211 159.907C198.211 160.266 198.339 160.618 198.58 160.917C198.82 161.216 199.162 161.449 199.562 161.587C199.962 161.724 200.402 161.76 200.826 161.69C201.251 161.62 201.641 161.447 201.947 161.192C202.253 160.938 202.461 160.614 202.546 160.262C202.63 159.909 202.587 159.543 202.421 159.211C202.255 158.879 201.975 158.595 201.615 158.395C201.255 158.195 200.832 158.089 200.399 158.089C199.821 158.095 199.269 158.288 198.86 158.628C198.451 158.968 198.218 159.427 198.211 159.907Z" fill="#263238"/>
<path d="M211.701 159.907C211.701 160.266 211.829 160.618 212.07 160.917C212.31 161.216 212.652 161.449 213.052 161.587C213.452 161.724 213.892 161.76 214.316 161.69C214.741 161.62 215.131 161.447 215.437 161.192C215.743 160.938 215.951 160.614 216.035 160.262C216.12 159.909 216.077 159.543 215.911 159.211C215.745 158.879 215.465 158.595 215.105 158.395C214.745 158.195 214.322 158.089 213.889 158.089C213.311 158.095 212.759 158.288 212.35 158.628C211.941 158.968 211.708 159.427 211.701 159.907Z" fill="#263238"/>
<path d="M184.483 159.907C184.483 160.267 184.611 160.618 184.852 160.917C185.093 161.216 185.435 161.449 185.835 161.587C186.235 161.724 186.676 161.76 187.1 161.69C187.525 161.619 187.915 161.446 188.221 161.191C188.526 160.936 188.734 160.612 188.818 160.259C188.902 159.906 188.858 159.54 188.691 159.208C188.525 158.876 188.244 158.592 187.883 158.393C187.522 158.194 187.099 158.088 186.666 158.089C186.379 158.089 186.094 158.136 185.829 158.227C185.564 158.319 185.323 158.453 185.12 158.622C184.918 158.79 184.757 158.991 184.647 159.211C184.538 159.432 184.482 159.668 184.483 159.907Z" fill="#263238"/>
<path opacity="0.2" d="M201.962 123.757H198.837V129.897H201.962V123.757Z" fill="black"/>
<path d="M190.261 126.712H210.881C211.72 126.712 212.534 126.474 213.188 126.037C213.842 125.6 214.297 124.99 214.476 124.309L215.091 122.008H185.729L186.765 124.627C187.012 125.234 187.482 125.762 188.109 126.136C188.737 126.51 189.489 126.712 190.261 126.712Z" fill="#263238"/>
<path opacity="0.3" d="M190.261 126.712H210.881C211.72 126.712 212.534 126.474 213.188 126.037C213.842 125.6 214.297 124.99 214.476 124.309L215.091 122.008H185.729L186.765 124.627C187.012 125.234 187.482 125.762 188.109 126.136C188.737 126.51 189.489 126.712 190.261 126.712Z" fill="white"/>
<path d="M214.565 123.812L182.489 123.812C182.002 123.812 181.536 123.651 181.192 123.366C180.848 123.08 180.655 122.693 180.655 122.288V121.939C180.655 121.328 180.947 120.743 181.466 120.311C181.986 119.88 182.69 119.637 183.425 119.637H213.646C214.38 119.637 215.085 119.88 215.604 120.311C216.124 120.743 216.416 121.328 216.416 121.939V122.288C216.416 122.49 216.368 122.689 216.274 122.875C216.181 123.06 216.045 123.229 215.873 123.371C215.701 123.512 215.496 123.624 215.272 123.7C215.048 123.776 214.807 123.814 214.565 123.812Z" fill="#9DE6B2"/>
<path opacity="0.3" d="M214.565 123.812L182.489 123.812C182.002 123.812 181.536 123.651 181.192 123.366C180.848 123.08 180.655 122.693 180.655 122.288V121.939C180.655 121.328 180.947 120.743 181.466 120.311C181.986 119.88 182.69 119.637 183.425 119.637H213.646C214.38 119.637 215.085 119.88 215.604 120.311C216.124 120.743 216.416 121.328 216.416 121.939V122.288C216.416 122.49 216.368 122.689 216.274 122.875C216.181 123.06 216.045 123.229 215.873 123.371C215.701 123.512 215.496 123.624 215.272 123.7C215.048 123.776 214.807 123.814 214.565 123.812Z" fill="black"/>
<path d="M220.814 123.812H201.236C200.75 123.812 200.283 123.652 199.939 123.366C199.595 123.08 199.402 122.693 199.402 122.289V121.939C199.402 121.328 199.694 120.743 200.213 120.311C200.733 119.88 201.438 119.637 202.172 119.637H219.9C220.635 119.637 221.339 119.88 221.859 120.311C222.378 120.743 222.67 121.328 222.67 121.939V122.289C222.67 122.49 222.622 122.69 222.528 122.876C222.435 123.062 222.298 123.231 222.125 123.372C221.953 123.514 221.748 123.626 221.523 123.701C221.298 123.777 221.057 123.814 220.814 123.812Z" fill="#9DE6B2"/>
<path d="M169.874 149.601L168.029 156.989L164.101 156.547L164.91 148.888L169.874 149.601Z" fill="#FF8B7B"/>
<path d="M163.83 156.174L168.6 156.45C168.68 156.454 168.756 156.483 168.81 156.532C168.865 156.581 168.895 156.646 168.893 156.713L168.86 159.902C168.849 160.068 168.759 160.222 168.61 160.333C168.462 160.443 168.267 160.5 168.068 160.491C166.406 160.372 165.619 160.243 163.52 160.109C161.65 160.059 159.787 159.893 157.946 159.612C156.179 159.272 156.65 157.836 157.426 157.849C159.438 157.756 161.386 157.228 163.076 156.317C163.301 156.201 163.567 156.151 163.83 156.174Z" fill="#263238"/>
<path d="M161.492 156.469C161.43 156.405 161.39 156.329 161.375 156.248C161.361 156.167 161.372 156.084 161.409 156.008C161.423 155.957 161.453 155.909 161.496 155.869C161.538 155.83 161.592 155.8 161.653 155.783C162.207 155.645 163.315 156.404 163.47 156.492C163.492 156.518 163.502 156.551 163.497 156.584C163.492 156.599 163.482 156.613 163.467 156.624C163.452 156.635 163.434 156.641 163.414 156.643C163.038 156.698 162.655 156.718 162.273 156.703C161.987 156.706 161.71 156.623 161.492 156.469ZM161.714 155.948C161.684 155.957 161.657 155.972 161.636 155.991C161.615 156.01 161.6 156.034 161.592 156.059C161.567 156.108 161.558 156.162 161.566 156.216C161.574 156.269 161.598 156.319 161.636 156.363C161.824 156.538 162.378 156.588 163.148 156.51C162.678 156.215 161.996 155.875 161.714 155.948Z" fill="#263238"/>
<path d="M163.337 156.625C162.938 156.39 162.367 155.608 162.489 155.221C162.513 155.153 162.564 155.094 162.633 155.052C162.702 155.011 162.786 154.989 162.871 154.991C162.948 154.989 163.025 155 163.097 155.024C163.168 155.048 163.233 155.083 163.287 155.129C163.68 155.507 163.497 156.538 163.497 156.574C163.487 156.6 163.465 156.622 163.436 156.634C163.43 156.636 163.424 156.638 163.417 156.638C163.41 156.638 163.404 156.636 163.398 156.634C163.387 156.636 163.377 156.637 163.366 156.635C163.356 156.633 163.346 156.63 163.337 156.625ZM162.882 155.175C162.738 155.175 162.683 155.235 162.683 155.286C162.721 155.712 162.946 156.111 163.315 156.409C163.403 156.02 163.339 155.619 163.132 155.263C163.107 155.237 163.076 155.216 163.04 155.201C163.005 155.186 162.966 155.177 162.927 155.175H162.882Z" fill="#263238"/>
<path opacity="0.2" d="M164.91 148.888L169.874 149.601L168.943 153.334L164.484 152.948L164.91 148.888Z" fill="black"/>
<path d="M202.948 101.19C202.948 101.19 202.438 108.094 200.222 108.411C198.006 108.729 169.802 113.502 167.769 119.025C165.736 124.549 164.062 152.091 164.062 152.091L169.708 152.515C169.708 152.515 177.464 129.151 177.093 122.938C177.093 122.938 201.746 122.938 209.967 119.177C218.188 115.417 214.233 102 214.233 102L202.948 101.19Z" fill="#263238"/>
<path opacity="0.5" d="M202.948 101.19C202.948 101.19 202.438 108.094 200.222 108.411C198.006 108.729 169.802 113.502 167.769 119.025C165.736 124.549 164.062 152.091 164.062 152.091L169.708 152.515C169.708 152.515 177.464 129.151 177.093 122.938C177.093 122.938 201.746 122.938 209.967 119.177C218.188 115.417 214.233 102 214.233 102L202.948 101.19Z" fill="white"/>
<path opacity="0.2" d="M177.791 122.942C178.827 122.942 180.937 122.905 183.635 122.813L187.181 120.512L207.956 117.032L208.743 111.477C208.743 111.477 188.289 112.66 182.804 115.191C178.694 117.11 177.918 121.073 177.791 122.942Z" fill="black"/>
<path d="M183.098 151.051L181.264 158.554L177.32 158.227L178.106 150.48L183.098 151.051Z" fill="#FF8B7B"/>
<path d="M176.976 157.26L181.724 157.693C181.764 157.694 181.802 157.702 181.838 157.716C181.874 157.73 181.906 157.75 181.933 157.774C181.959 157.799 181.979 157.827 181.992 157.858C182.005 157.89 182.01 157.922 182.007 157.955L181.835 161.15C181.822 161.315 181.731 161.469 181.581 161.579C181.432 161.688 181.236 161.744 181.037 161.734C179.375 161.564 178.616 161.407 176.505 161.205C174.643 161.102 172.791 160.888 170.965 160.565C169.242 160.169 169.752 158.747 170.522 158.784C172.35 158.871 174.954 158.103 176.256 157.403C176.471 157.292 176.724 157.242 176.976 157.26Z" fill="#263238"/>
<path d="M174.655 157.5C174.588 157.432 174.545 157.349 174.532 157.262C174.519 157.175 174.537 157.086 174.583 157.007C174.602 156.957 174.635 156.911 174.679 156.873C174.723 156.836 174.778 156.807 174.838 156.791C175.392 156.69 176.5 157.467 176.616 157.559C176.626 157.573 176.631 157.589 176.631 157.606C176.631 157.622 176.626 157.638 176.616 157.652C176.612 157.667 176.601 157.681 176.586 157.69C176.571 157.699 176.552 157.704 176.533 157.702C176.153 157.747 175.769 157.758 175.386 157.734C175.118 157.727 174.86 157.644 174.655 157.5ZM174.86 156.975C174.83 156.98 174.803 156.993 174.781 157.011C174.76 157.029 174.745 157.051 174.738 157.076C174.711 157.125 174.7 157.18 174.708 157.233C174.716 157.287 174.742 157.338 174.782 157.38C174.954 157.564 175.514 157.633 176.289 157.578C175.824 157.27 175.181 156.901 174.871 156.975H174.86Z" fill="#263238"/>
<path d="M176.478 157.688C176.073 157.458 175.536 156.653 175.68 156.275C175.705 156.206 175.758 156.147 175.829 156.107C175.901 156.067 175.987 156.048 176.073 156.054C176.15 156.052 176.227 156.064 176.297 156.091C176.367 156.117 176.429 156.157 176.478 156.206C176.86 156.593 176.616 157.624 176.622 157.656C176.617 157.669 176.61 157.681 176.599 157.692C176.589 157.702 176.576 157.71 176.561 157.716C176.556 157.718 176.55 157.719 176.544 157.719C176.538 157.719 176.533 157.718 176.528 157.716C176.517 157.715 176.508 157.711 176.499 157.707C176.49 157.702 176.483 157.696 176.478 157.688ZM176.073 156.261C175.935 156.261 175.863 156.317 175.868 156.367C175.896 156.796 176.106 157.202 176.461 157.513C176.562 157.126 176.516 156.722 176.328 156.358C176.277 156.306 176.204 156.271 176.123 156.261H176.073Z" fill="#263238"/>
<path opacity="0.2" d="M183.02 151.346L182.3 154.301L177.791 153.61L178.106 150.49L183.02 151.346Z" fill="black"/>
<path d="M211.507 79.3219C207.003 78.8294 210.504 77.5821 210.504 77.5821C213.562 77.1218 213.745 75.2807 213.474 73.5455L219.075 70.144C218.233 72.3303 217.13 76.3485 218.781 77.8905C218.781 77.8905 219.917 79.8789 212.898 79.437L211.507 79.3219Z" fill="#FF8B7B"/>
<path opacity="0.2" d="M216.792 71.5294L213.468 73.5408C213.538 73.9477 213.564 74.359 213.546 74.7698C214.704 74.6731 216.41 73.7019 216.67 72.7215C216.798 72.3336 216.839 71.9296 216.792 71.5294Z" fill="black"/>
<path d="M221.59 65.7897C220.587 69.3292 220.255 70.8527 217.712 72.4637C213.884 74.9031 208.887 73.352 208.599 69.702C208.344 66.4111 210.022 61.1731 214.515 60.1559C215.47 59.9129 216.486 59.8859 217.457 60.0779C218.429 60.2699 219.321 60.6738 220.043 61.2479C220.764 61.8221 221.287 62.5457 221.559 63.3441C221.831 64.1425 221.842 64.9868 221.59 65.7897Z" fill="#FF8B7B"/>
<path d="M214.759 66.1304C214.687 66.4296 214.443 66.6551 214.205 66.6321C213.967 66.6091 213.845 66.3467 213.911 66.0476C213.978 65.7484 214.222 65.5182 214.465 65.5413C214.709 65.5643 214.814 65.8266 214.759 66.1304Z" fill="#263238"/>
<path d="M210.366 65.7483C210.299 66.0475 210.056 66.273 209.812 66.25C209.568 66.227 209.446 65.9646 209.513 65.6654C209.579 65.3663 209.828 65.1407 210.067 65.1637C210.305 65.1867 210.432 65.4491 210.366 65.7483Z" fill="#263238"/>
<path d="M210.166 65.1731L209.363 64.8785C209.363 64.8785 209.673 65.5045 210.166 65.1731Z" fill="#263238"/>
<path d="M211.474 66.3606C210.997 67.0156 210.424 67.6186 209.767 68.1557C209.928 68.2828 210.121 68.378 210.332 68.4338C210.543 68.4896 210.767 68.5047 210.986 68.4779L211.474 66.3606Z" fill="#FF5652"/>
<path d="M212.776 69.7759C212.575 69.7917 212.373 69.7917 212.172 69.7759C212.159 69.7742 212.146 69.7704 212.135 69.7646C212.123 69.7588 212.113 69.7512 212.106 69.7421C212.098 69.7331 212.092 69.7229 212.09 69.7121C212.087 69.7013 212.086 69.6901 212.089 69.6792C212.09 69.6673 212.094 69.6557 212.101 69.6452C212.108 69.6346 212.118 69.6254 212.129 69.6181C212.141 69.6107 212.154 69.6054 212.168 69.6025C212.182 69.5996 212.196 69.599 212.211 69.601C212.666 69.6464 213.127 69.6068 213.561 69.4849C213.996 69.3631 214.392 69.1621 214.72 68.8968C214.728 68.885 214.739 68.8749 214.752 68.8671C214.765 68.8594 214.78 68.8542 214.796 68.852C214.811 68.8498 214.828 68.8507 214.843 68.8545C214.858 68.8583 214.873 68.865 214.884 68.8741C214.896 68.8832 214.905 68.8944 214.911 68.9068C214.917 68.9193 214.919 68.9326 214.918 68.9459C214.916 68.9592 214.911 68.9721 214.903 68.9835C214.895 68.9949 214.883 69.0046 214.87 69.0118C214.308 69.4709 213.563 69.7428 212.776 69.7759Z" fill="#263238"/>
<path d="M216.061 64.5516C216.004 64.5481 215.95 64.5267 215.911 64.4918C215.751 64.3219 215.543 64.1876 215.305 64.1009C215.067 64.0142 214.807 63.9777 214.549 63.9947C214.521 63.9986 214.494 63.9978 214.467 63.9924C214.44 63.987 214.415 63.9771 214.394 63.9633C214.372 63.9494 214.353 63.932 214.34 63.9121C214.327 63.8921 214.319 63.8701 214.316 63.8474C214.312 63.7997 214.33 63.7526 214.366 63.7152C214.402 63.6778 214.453 63.6528 214.51 63.6449C214.838 63.6165 215.169 63.6572 215.473 63.7634C215.777 63.8696 216.044 64.0378 216.249 64.2525C216.283 64.2907 216.299 64.3383 216.291 64.3855C216.284 64.4327 216.255 64.4758 216.211 64.5056C216.169 64.5355 216.116 64.5518 216.061 64.5516Z" fill="#263238"/>
<path d="M209.474 63.9763C209.447 63.9772 209.421 63.9736 209.396 63.9657C209.371 63.9578 209.349 63.9457 209.33 63.9303C209.309 63.9144 209.293 63.8951 209.282 63.8737C209.271 63.8524 209.265 63.8293 209.265 63.806C209.265 63.7827 209.271 63.7597 209.282 63.7383C209.293 63.7169 209.309 63.6977 209.33 63.6817C209.562 63.469 209.851 63.3035 210.173 63.1982C210.494 63.0928 210.841 63.0504 211.186 63.0742C211.213 63.078 211.239 63.0863 211.261 63.0987C211.284 63.1112 211.304 63.1274 211.319 63.1464C211.334 63.1654 211.344 63.1868 211.349 63.2092C211.354 63.2316 211.353 63.2546 211.346 63.2767C211.333 63.3239 211.299 63.3652 211.251 63.3925C211.203 63.4198 211.144 63.431 211.086 63.424C210.813 63.4091 210.54 63.4457 210.287 63.531C210.034 63.6163 209.807 63.748 209.623 63.9165C209.584 63.9514 209.531 63.9728 209.474 63.9763Z" fill="#263238"/>
<path d="M214.549 65.5689L213.745 65.2789C213.745 65.2789 214.05 65.8865 214.549 65.5689Z" fill="#263238"/>
<path d="M184.732 95.4683H184.976C185.447 95.4407 186.084 95.4269 186.594 95.3763C187.103 95.3256 187.702 95.2658 188.206 95.1829C189.165 95.0488 190.097 94.8056 190.976 94.4603C191.341 94.3153 191.687 94.1378 192.006 93.931C192.147 93.8372 192.282 93.7373 192.411 93.6318C192.477 93.5827 192.538 93.5288 192.594 93.4707L192.815 93.2774L193.923 92.2694L195.031 91.2522C196.466 89.8714 197.801 88.4583 199.114 87.0177C199.762 86.295 200.388 85.5632 201.003 84.8314C201.308 84.4631 201.607 84.0949 201.895 83.7267C202.183 83.3585 202.488 82.9718 202.715 82.6589L202.754 82.6036C203.208 82.0557 203.879 81.6572 204.65 81.4773C205.421 81.2974 206.244 81.3474 206.975 81.6186C208.554 82.1848 209.191 83.5656 208.416 84.7025C208.083 85.1628 207.806 85.5816 207.479 86.0005C207.153 86.4193 206.837 86.8151 206.499 87.2156C205.845 88.0211 205.142 88.8035 204.416 89.5676C202.95 91.1147 201.38 92.5915 199.712 93.9908C198.876 94.6996 197.995 95.3717 197.109 96.0575C197.014 96.1311 196.854 96.2416 196.693 96.352C196.538 96.4624 196.375 96.5654 196.206 96.6604C195.875 96.8593 195.526 97.0378 195.164 97.1943C194.459 97.5063 193.716 97.7562 192.948 97.94C191.494 98.267 189.987 98.3975 188.483 98.3266C187.07 98.2606 185.672 98.0488 184.322 97.696C184.056 97.6313 183.818 97.5039 183.637 97.329C183.456 97.1542 183.34 96.9395 183.303 96.711C183.297 96.5512 183.329 96.3919 183.398 96.2425C183.467 96.0931 183.571 95.9566 183.704 95.841C183.837 95.7253 183.997 95.6328 184.173 95.5688C184.35 95.5049 184.54 95.4707 184.732 95.4683Z" fill="#FF8B7B"/>
<path d="M204.787 79.598C204.787 79.598 203.507 79.598 198.693 86.4561C198.693 86.4561 200.671 90.4697 205.817 90.6768C205.795 90.6768 215.867 79.1377 204.787 79.598Z" fill="#263238"/>
<path opacity="0.5" d="M203.369 81.7429L206.039 81.2136L209.175 82.5944L209.801 83.8924C208.992 87.0085 205.795 90.6723 205.795 90.6723C203.803 90.5967 201.922 89.8862 200.543 88.6885C201.713 86.4417 202.658 84.1187 203.369 81.7429Z" fill="black"/>
<path d="M179.896 94.7687L181.358 94.175C181.636 94.0643 181.939 94.0031 182.247 93.9951C182.555 93.9872 182.862 94.0328 183.148 94.129L185.812 95.0495C186.315 95.2061 186.763 95.4632 187.118 95.7979C187.473 96.1327 187.723 96.5348 187.846 96.9688L187.973 97.489C185.641 98.5936 181.99 98.543 181.99 98.543L180.948 98.612C180.543 98.6664 180.128 98.5885 179.791 98.3947C179.453 98.2008 179.219 97.9059 179.137 97.5718L178.921 96.0805C178.899 95.8048 178.981 95.5304 179.156 95.2953C179.331 95.0602 179.589 94.8762 179.896 94.7687Z" fill="#FF8B7B"/>
<path d="M207.978 101.19C207.978 101.19 208.576 111.776 206.355 112.093C204.133 112.411 183.691 113.962 181.663 119.486C179.635 125.009 177.403 152.552 177.403 152.552L183.048 153.435C183.048 153.435 191.912 129.151 191.541 122.938C191.541 122.938 214.039 123.49 218.87 119.637C223.701 115.785 222.587 101.995 222.587 101.995L207.978 101.19Z" fill="#263238"/>
<path opacity="0.5" d="M207.978 101.19C207.978 101.19 208.576 111.776 206.355 112.093C204.133 112.411 183.691 113.962 181.663 119.486C179.635 125.009 177.403 152.552 177.403 152.552L183.048 153.435C183.048 153.435 191.912 129.151 191.541 122.938C191.541 122.938 214.039 123.49 218.87 119.637C223.701 115.785 222.587 101.995 222.587 101.995L207.978 101.19Z" fill="white"/>
<path d="M211.557 77.5176C211.407 77.6004 207.84 79.5244 212.493 79.5244C217.147 79.5244 218.637 77.849 218.637 77.8075C220.299 78.0101 222.172 78.3092 224.238 78.7281L222.72 104.655C222.72 104.655 209.64 105.64 202.333 102.897C202.333 102.897 201.397 83.8187 203.568 80.8039C203.59 80.8224 204.671 77.964 211.557 77.5176Z" fill="#263238"/>
<path opacity="0.5" d="M223.961 83.515L223.324 93.5996C220.72 86.4239 220.803 82.7187 220.803 82.7187L221.496 81.3655L223.961 83.515Z" fill="black"/>
<path d="M239.135 85.195C238.872 85.1558 238.602 85.1816 238.356 85.2692C238.111 85.3567 237.902 85.5022 237.756 85.6875V85.7105C237.102 86.5022 236.448 87.3261 235.767 88.1039C235.085 88.8818 234.42 89.6689 233.717 90.4053C233.263 90.8656 232.792 91.3259 232.326 91.7447C232.252 91.8065 232.162 91.8527 232.062 91.8796C231.963 91.9064 231.857 91.9132 231.753 91.8992C231.65 91.8853 231.552 91.851 231.467 91.7993C231.383 91.7477 231.315 91.68 231.268 91.602C230.548 90.3501 229.878 89.0659 229.241 87.7587C228.786 86.8013 228.332 85.8394 227.905 84.8636C227.479 83.8878 227.058 82.8936 226.676 81.9685V81.9178C226.553 81.6212 226.359 81.3485 226.104 81.1165C225.85 80.8845 225.542 80.6981 225.198 80.5688C224.854 80.4395 224.482 80.37 224.104 80.3645C223.727 80.359 223.352 80.4177 223.003 80.537C222.365 80.7673 221.852 81.1847 221.562 81.7095C221.272 82.2343 221.224 82.8296 221.429 83.3815C221.811 84.4677 222.244 85.4527 222.692 86.4699C223.141 87.4872 223.623 88.532 224.177 89.5676C224.731 90.6032 225.313 91.5744 225.944 92.564C226.576 93.5536 227.268 94.5202 228.005 95.4775L228.099 95.5972C228.164 95.6809 228.24 95.7582 228.326 95.8273C228.613 96.0709 228.941 96.2772 229.302 96.4395C229.716 96.6242 230.169 96.7399 230.637 96.7801C231.382 96.8381 232.131 96.7184 232.797 96.4349C233.576 96.0916 234.272 95.633 234.853 95.0817C235.731 94.2416 236.504 93.3285 237.157 92.3569C237.783 91.4363 238.337 90.5158 238.847 89.5952C239.357 88.6747 239.805 87.7219 240.21 86.7323C240.279 86.5729 240.306 86.4029 240.287 86.2341C240.269 86.0653 240.207 85.9019 240.104 85.7553C240.002 85.6088 239.862 85.4827 239.694 85.3858C239.527 85.289 239.336 85.2239 239.135 85.195Z" fill="#FF8B7B"/>
<path d="M231.883 87.8784C229.601 89.7446 226.526 90.7896 223.324 90.7874C223.324 90.7874 217.729 79.796 222.604 78.6545C227.219 77.5683 231.883 87.8784 231.883 87.8784Z" fill="#263238"/>
<path d="M238.254 81.8305L237.179 82.6636C236.974 82.8128 236.816 83.0017 236.72 83.2136C236.623 83.4255 236.591 83.6539 236.625 83.8787L236.947 85.996C237.011 86.4146 237.195 86.8143 237.485 87.1612C237.774 87.5081 238.159 87.792 238.609 87.989L239.163 88.2375C241.057 86.9763 241.983 84.4494 241.983 84.4494L242.348 83.7544C242.426 83.613 242.47 83.4602 242.477 83.3047C242.484 83.1492 242.454 82.9942 242.388 82.8484C242.323 82.7026 242.224 82.5689 242.096 82.4551C241.968 82.3412 241.815 82.2494 241.645 82.1849L239.983 81.5773C239.695 81.4813 239.38 81.4541 239.075 81.4989C238.769 81.5436 238.485 81.6585 238.254 81.8305Z" fill="#FF8B7B"/>
<path d="M212.222 108.899L180.882 111.339C180.666 111.367 180.472 111.463 180.338 111.606C180.205 111.749 180.142 111.93 180.162 112.11C180.183 112.291 180.285 112.458 180.449 112.578C180.612 112.698 180.824 112.762 181.043 112.756L212.382 110.312C212.494 110.304 212.603 110.277 212.702 110.233C212.801 110.189 212.889 110.13 212.96 110.058C213.032 109.986 213.085 109.904 213.118 109.815C213.151 109.725 213.163 109.632 213.152 109.539C213.142 109.446 213.109 109.356 213.057 109.274C213.004 109.191 212.933 109.118 212.847 109.059C212.76 109 212.66 108.955 212.553 108.928C212.446 108.9 212.333 108.89 212.222 108.899Z" fill="#9DE6B2"/>
<path d="M181.458 112.301L195.923 111.168C195.985 111.163 196.045 111.146 196.098 111.118C196.151 111.09 196.195 111.052 196.227 111.007C196.259 110.962 196.277 110.912 196.281 110.86C196.285 110.808 196.275 110.756 196.25 110.708L188.849 97.3049C188.75 97.1243 188.586 96.9739 188.379 96.8748C188.173 96.7757 187.934 96.733 187.696 96.7526L173.209 97.8526C173.147 97.8587 173.088 97.8766 173.036 97.9049C172.984 97.9331 172.94 97.971 172.909 98.0155C172.877 98.0601 172.858 98.1101 172.854 98.1617C172.849 98.2132 172.859 98.265 172.882 98.3129L180.284 111.721C180.38 111.908 180.546 112.066 180.757 112.17C180.968 112.274 181.214 112.32 181.458 112.301Z" fill="#9DE6B2"/>
<path d="M180.965 112.342L195.43 111.2C195.492 111.195 195.552 111.178 195.605 111.15C195.658 111.122 195.702 111.084 195.734 111.039C195.767 110.995 195.786 110.944 195.791 110.892C195.796 110.841 195.786 110.788 195.762 110.74L188.355 97.3324C188.256 97.1526 188.091 97.003 187.885 96.9041C187.678 96.8052 187.44 96.7619 187.203 96.7801L172.71 97.9123C172.648 97.9175 172.588 97.9348 172.535 97.9629C172.483 97.9909 172.438 98.0288 172.407 98.0737C172.375 98.1185 172.356 98.1689 172.352 98.2208C172.348 98.2728 172.359 98.3248 172.384 98.3726L179.791 111.776C179.888 111.962 180.055 112.117 180.266 112.219C180.477 112.321 180.722 112.364 180.965 112.342Z" fill="#9DE6B2"/>
<path opacity="0.7" d="M180.965 112.342L195.43 111.2C195.492 111.195 195.552 111.178 195.605 111.15C195.658 111.122 195.702 111.084 195.734 111.039C195.767 110.995 195.786 110.944 195.791 110.892C195.796 110.841 195.786 110.788 195.762 110.74L188.355 97.3324C188.256 97.1526 188.091 97.003 187.885 96.9041C187.678 96.8052 187.44 96.7619 187.203 96.7801L172.71 97.9123C172.648 97.9175 172.588 97.9348 172.535 97.9629C172.483 97.9909 172.438 98.0288 172.407 98.0737C172.375 98.1185 172.356 98.1689 172.352 98.2208C172.348 98.2728 172.359 98.3248 172.384 98.3726L179.791 111.776C179.888 111.962 180.055 112.117 180.266 112.219C180.477 112.321 180.722 112.364 180.965 112.342Z" fill="white"/>
<path opacity="0.7" d="M197.363 111.495C197.252 111.504 197.139 111.494 197.032 111.467C196.925 111.44 196.825 111.395 196.739 111.335C196.564 111.215 196.454 111.043 196.433 110.855C196.411 110.668 196.481 110.481 196.625 110.336C196.769 110.191 196.977 110.1 197.203 110.082L212.222 108.899C212.333 108.89 212.446 108.9 212.553 108.928C212.66 108.955 212.76 109 212.847 109.059C212.933 109.118 213.005 109.191 213.057 109.274C213.109 109.356 213.142 109.446 213.152 109.539C213.163 109.632 213.151 109.725 213.118 109.815C213.085 109.904 213.032 109.986 212.96 110.058C212.889 110.13 212.801 110.189 212.702 110.233C212.603 110.277 212.494 110.304 212.382 110.312L197.363 111.495Z" fill="white"/>
<path opacity="0.5" d="M199.852 110.755L201.066 110.66L201.029 110.33L199.815 110.425L199.852 110.755Z" fill="black"/>
<path opacity="0.5" d="M197.977 110.901L199.191 110.806L199.153 110.476L197.94 110.571L197.977 110.901Z" fill="black"/>
<path d="M220.26 68.487C219.348 67.8337 218.711 66.9552 218.442 65.9799C218.173 65.0045 218.286 63.9832 218.765 63.065C217.628 62.6386 216.399 62.4054 215.152 62.3792C212.382 62.3792 209.214 62.8717 210.061 61.1088C210.061 61.1088 207.119 58.002 212.128 57.5601C212.128 57.5601 211.873 53.6432 215.917 56.1793C215.917 56.1793 219.28 52.8607 220.953 57.3576C220.953 57.3576 226.011 55.1621 224.692 60.5795C224.692 60.5795 228.271 60.6301 226.011 64.096C226.011 64.096 227.883 66.2087 224.166 68.0636C224.166 68.0636 224.465 71.0784 221.756 70.5352C221.756 70.5352 218.648 74.1576 218.222 72.4684C217.834 70.8989 220.26 68.487 220.26 68.487Z" fill="#263238"/>
<path d="M221.822 69.2465C221.628 69.5552 221.359 69.8271 221.032 70.045C220.705 70.2629 220.327 70.422 219.922 70.5123C218.908 70.6918 218.526 69.7252 218.908 68.7863C219.257 67.9394 220.199 66.8255 221.169 67.0694C222.138 67.3134 222.371 68.4272 221.822 69.2465Z" fill="#FF8B7B"/>
<path d="M219.656 70.144L218.604 71.7412H221.003L219.944 70.144H219.656Z" fill="#9DE6B2"/>
<path opacity="0.2" d="M219.656 70.144L218.604 71.7412H221.003L219.944 70.144H219.656Z" fill="black"/>
<path d="M218.604 71.7412L219.656 70.144L220.714 71.7412H218.604Z" fill="#9DE6B2"/>
<path d="M163.691 152.303L169.863 152.842L170.35 151.383L163.691 150.77V152.303Z" fill="#263238"/>
<path d="M177.093 152.842L183.214 153.707L183.807 152.28L177.209 151.313L177.093 152.842Z" fill="#263238"/>
<path d="M170.622 84.8715C160.002 84.8715 150.606 75.336 149.675 63.6246C148.744 51.9131 156.633 42.3716 167.248 42.3716C177.863 42.3716 187.264 51.907 188.195 63.6246C189.126 75.3421 181.237 84.8715 170.622 84.8715Z" fill="#263238"/>
<path d="M171.547 84.358C160.927 84.358 151.531 74.8287 150.6 63.1111C149.67 51.3936 157.559 41.8643 168.179 41.8643C178.799 41.8643 188.189 51.3936 189.12 63.1111C190.051 74.8287 182.167 84.358 171.547 84.358Z" fill="#9DE6B2"/>
<g opacity="0.7">
<path d="M171.547 84.358C160.927 84.358 151.531 74.8287 150.6 63.1111C149.67 51.3936 157.559 41.8643 168.179 41.8643C178.799 41.8643 188.189 51.3936 189.12 63.1111C190.051 74.8287 182.167 84.358 171.547 84.358Z" fill="white"/>
</g>
<path d="M171.547 84.358C160.927 84.358 151.531 74.8287 150.6 63.1111C149.67 51.3936 157.559 41.8643 168.179 41.8643C178.799 41.8643 188.189 51.3936 189.12 63.1111C190.051 74.8287 182.167 84.358 171.547 84.358ZM168.5 45.9474C159.924 45.9474 153.542 53.6491 154.307 63.1111C155.071 72.5732 162.644 80.2688 171.22 80.2688C179.796 80.2688 186.178 72.5732 185.414 63.1111C184.649 53.6491 177.087 45.9474 168.5 45.9474Z" fill="#9DE6B2"/>
<path d="M170.927 76.5707C167.609 76.4996 164.43 75.0936 161.986 72.6171C159.543 70.1406 158.004 66.7643 157.658 63.1233C157.492 61.4107 157.657 59.6786 158.143 58.0419C158.629 56.4051 159.425 54.901 160.478 53.6294C161.531 52.3578 162.817 51.3477 164.251 50.6661C165.684 49.9845 167.233 49.647 168.794 49.6759C172.116 49.7383 175.303 51.1406 177.753 53.618C180.202 56.0955 181.745 59.4767 182.09 63.1233C182.257 64.8385 182.091 66.5732 181.603 68.2122C181.115 69.8511 180.317 71.3567 179.261 72.6288C178.205 73.9009 176.916 74.9104 175.479 75.59C174.041 76.2697 172.49 76.604 170.927 76.5707ZM169.115 53.7346C168.027 53.7136 166.947 53.9485 165.947 54.4236C164.948 54.8987 164.051 55.6032 163.318 56.4902C162.584 57.3772 162.03 58.4264 161.692 59.5679C161.354 60.7095 161.241 61.9173 161.359 63.1111C161.592 65.6539 162.661 68.0144 164.365 69.7457C166.069 71.477 168.289 72.459 170.605 72.5059C171.693 72.5268 172.772 72.292 173.771 71.8173C174.771 71.3425 175.667 70.6386 176.4 69.7523C177.134 68.866 177.688 67.8176 178.026 66.6768C178.364 65.536 178.479 64.3288 178.361 63.1355C178.13 60.5916 177.061 58.2297 175.357 56.4971C173.653 54.7645 171.432 53.7816 169.115 53.7346Z" fill="#9DE6B2"/>
<path d="M174.677 63.1112C174.745 63.7879 174.681 64.4727 174.49 65.1201C174.299 65.7675 173.986 66.3626 173.57 66.8658C173.154 67.3689 172.646 67.7686 172.08 68.0381C171.513 68.3077 170.901 68.4409 170.284 68.429C168.972 68.4035 167.714 67.8482 166.748 66.8682C165.782 65.8882 165.176 64.5515 165.043 63.1112C164.976 62.4341 165.041 61.7492 165.232 61.1018C165.424 60.4544 165.738 59.8594 166.154 59.3563C166.57 58.8533 167.079 58.4538 167.645 58.1843C168.212 57.9148 168.825 57.7815 169.442 57.7933C170.753 57.8203 172.009 58.3763 172.974 59.3561C173.939 60.336 174.545 61.6719 174.677 63.1112Z" fill="#9DE6B2"/>
<path d="M183.375 48.2518L182.433 44.2115L186.256 40L187.192 44.0403L183.375 48.2518Z" fill="#263238"/>
<path d="M183.375 48.2518L187.037 49.2909L190.854 45.0794L187.192 44.0403L183.375 48.2518Z" fill="#263238"/>
<path d="M185.377 46.8564L184.641 46.0438L168.964 63.3411L169.7 64.1537L185.377 46.8564Z" fill="#263238"/>
</svg>
