<svg width="746" height="1246" viewBox="0 0 746 1246" fill="none" xmlns="http://www.w3.org/2000/svg">
<g opacity="0.328497">
<g opacity="0.507045">
<mask id="mask0_21_2361" style="mask-type:luminance" maskUnits="userSpaceOnUse" x="292" y="35" width="915" height="1011">
<path fill-rule="evenodd" clip-rule="evenodd" d="M1206.5 146.566L1080.2 1045.27L292.155 934.516L418.459 35.8139L1206.5 146.566Z" fill="white"/>
</mask>
<g mask="url(#mask0_21_2361)">
<path fill-rule="evenodd" clip-rule="evenodd" d="M1373.11 441.541C1356.43 420.052 1299.94 348.339 1237.08 280.66C1162.04 199.875 1051.79 94.6353 945.869 103.117C884.265 108.051 854.891 147.534 829.821 183.222C811.787 208.891 795.984 232.597 772.012 240.07C714.716 257.931 614.449 183.067 484.09 249.016C353.728 314.967 399.854 444.095 410.629 526.023C421.404 607.948 334.41 622.607 328.628 725.662C322.908 827.598 642.181 984.783 750.733 990.242L1373.11 441.541" fill="#92E3A9"/>
<path fill-rule="evenodd" clip-rule="evenodd" d="M1373.65 441.279L1009.59 761.667C1009.5 761.608 1009.39 761.549 1009.28 761.486L1169.82 620.206C1170.12 619.941 1170.23 619.559 1170.1 619.195C1169.98 618.832 1169.64 618.535 1169.2 618.408C1169.2 618.407 1167.22 617.834 1163.65 616.778C1151.15 613.084 1119.29 603.509 1085.68 592.181C1052.08 580.863 1016.68 567.758 997.304 557.128C974.908 544.851 955.713 535.37 936.459 528.722C917.208 522.075 897.904 518.275 875.405 517.359C864.675 516.925 851.487 518.079 837.063 520.633C835.348 518.425 833.602 516.231 831.845 514.067C820.578 500.193 808.966 487.566 804.146 480.836C799.105 473.818 787.606 462.462 777.313 452.773C775.115 450.704 772.974 448.716 770.966 446.868C771.498 446.807 772.004 446.74 772.484 446.666C774.386 446.346 775.866 445.974 776.885 445.12C776.887 445.118 776.887 445.118 776.887 445.118C777.157 444.881 777.385 444.591 777.518 444.253C777.837 443.444 777.773 442.58 777.488 441.759C776.772 439.77 774.895 437.796 772.617 435.873C776.178 437.318 779.917 438.609 783.339 439.302C785.178 439.672 786.93 439.872 788.546 439.804C790.157 439.737 791.663 439.392 792.862 438.613C793.208 438.387 793.533 438.14 793.833 437.876C796.977 435.06 797.762 430.406 797.004 425.721C796.213 421.031 793.825 416.246 789.874 413.169C788.634 412.21 787.228 411.423 785.676 410.893C777.042 407.956 765.183 404.513 761.019 403.319C761.656 402.243 762.633 400.493 763.569 398.423C765.125 394.953 766.613 390.626 766.091 386.85C765.896 385.506 765.704 384.403 765.425 383.488C765.136 382.582 764.801 381.815 764.023 381.192C763.407 380.693 762.475 380.464 761.682 380.531C760.478 380.618 759.363 381.079 757.916 381.798C756.479 382.523 754.748 383.544 752.574 384.858C748.223 387.504 742.188 388.346 735.118 388.418C728.058 388.498 720.038 387.825 711.866 387.652C701.089 387.427 686.985 387.921 678.641 388.283C679.234 388.024 679.819 387.756 680.373 387.485C681.507 386.924 682.494 386.372 683.202 385.755C683.541 385.446 683.85 385.125 684.006 384.633C684.078 384.389 684.092 384.084 683.98 383.779C683.873 383.475 683.645 383.199 683.391 383.005C682.678 382.489 681.925 382.353 680.933 382.224C679.94 382.112 678.678 382.081 677.031 382.131C672.935 382.264 666.52 383.684 658.646 386.008C646.868 389.497 631.98 395.053 618.007 401.506C604.032 407.964 590.988 415.292 582.87 422.43C582.859 422.44 582.847 422.45 582.838 422.458C567.655 435.819 565.464 448.216 565.516 454.438C565.475 454.389 565.434 454.342 565.392 454.295C563.636 452.303 561.382 449.918 559.227 448.245C558.213 447.469 557.238 446.831 556.182 446.458C555.653 446.277 555.08 446.154 554.462 446.195C553.856 446.231 553.243 446.468 552.823 446.838C552.816 446.844 552.809 446.85 552.802 446.856C552.44 447.175 552.2 447.56 552.031 447.992C551.407 449.619 551.565 451.587 552.02 453.701C553.139 458.747 556.209 464.69 557.404 466.895C557.1 467.054 556.736 467.25 556.323 467.482C556.561 466.861 556.347 466.136 555.705 465.639C554.827 464.959 553.489 464.966 552.712 465.651L537.727 478.838C536.949 479.523 537.027 480.624 537.905 481.304C538.782 481.982 540.121 481.977 540.899 481.292L544.271 478.324C543.934 479.032 543.681 479.764 543.531 480.517C543.088 482.767 542.977 484.732 543.174 486.343C543.394 487.948 543.825 489.235 544.961 490.155C545.346 490.456 545.838 490.694 546.375 490.8C547.184 490.965 547.998 490.831 548.711 490.539C549.432 490.242 550.111 489.79 550.806 489.178C552.681 487.528 554.484 486.306 555.864 485.473L555.747 485.98C555.59 486.273 555.144 487.112 554.514 488.377L552.429 490.212C551.682 490.869 551.724 491.91 552.499 492.592C550.966 495.959 549.144 500.313 547.607 505.002C545.909 510.185 544.555 515.773 544.335 520.924C544.129 526.065 545.01 530.818 548.11 534.299C548.973 535.258 550.072 536.237 551.379 537.248C555.613 540.52 562.039 544.156 569.442 547.906C580.538 553.52 593.814 559.351 604.906 564.242C610.451 566.685 615.45 568.893 619.341 570.71C621.289 571.619 622.956 572.43 624.268 573.119C625.577 573.805 626.542 574.382 627.001 574.743L627.191 574.899C628.738 576.317 629.862 578.103 631.123 580.006C632.384 581.904 633.799 583.923 636.055 585.668C637.228 586.578 638.623 587.401 640.307 588.085C639.583 589.419 639.459 590.912 639.827 592.501C626.537 600.072 611.012 611.473 592.359 627.878C578.05 640.471 561.904 656.021 543.534 675.07C514.835 704.84 491.34 731.37 479.595 754.199C473.729 765.616 470.785 776.127 471.703 785.699C472.611 795.27 477.473 803.879 486.966 811.208C490.582 814.005 494.863 816.624 499.849 819.063C513.846 825.907 536.994 839.527 563.765 856.072C603.929 880.893 652.307 912.319 690.635 937.537C709.799 950.147 726.452 961.204 738.316 969.11C744.246 973.061 748.979 976.225 752.231 978.402C755.48 980.578 757.242 981.762 757.246 981.765C757.796 982.132 758.575 982.111 759.039 981.712L758.054 980.935L759.039 981.712L782.399 961.608L750.314 989.844C677.219 986.211 508.704 913.987 408.038 836.094C359.092 798.222 326.189 759.008 328.09 725.687C333.962 622.712 421.04 608.022 410.325 526.169C400.919 454.3 364.265 346.107 443.791 276.12C454.843 266.395 468.153 257.399 484.078 249.35C614.599 183.389 714.884 258.143 772.242 240.268C780.743 237.618 788.219 232.935 795.133 226.85C807.739 215.757 818.478 200.005 830.145 183.437C841.815 166.866 854.41 149.481 870.737 135.113C889.559 118.549 913.338 105.996 946.355 103.34C1006.45 98.5058 1067.91 130.188 1123.55 173.237C1166.05 206.125 1205.15 245.649 1237.65 280.595C1300.51 348.188 1356.98 419.815 1373.65 441.279M540.349 500.843C539.569 501.529 539.649 502.629 540.525 503.307C541.404 503.987 542.741 503.983 543.521 503.297L549.229 498.273C550.007 497.589 549.927 496.486 549.049 495.806C548.172 495.128 546.835 495.135 546.057 495.819L540.349 500.843M532.997 495.155C532.217 495.841 532.299 496.942 533.175 497.621C534.052 498.299 535.389 498.295 536.169 497.609L541.877 492.585C542.655 491.901 542.575 490.798 541.699 490.12C540.822 489.441 539.483 489.447 538.705 490.131L532.997 495.155M525.647 489.469C524.867 490.155 524.947 491.255 525.825 491.935C526.702 492.613 528.039 492.609 528.819 491.923L534.527 486.899C535.305 486.215 535.225 485.112 534.349 484.434C533.47 483.754 532.133 483.761 531.355 484.445L525.647 489.469" fill="#92E3A9"/>
</g>
</g>
<g opacity="0.543225">
<mask id="mask1_21_2361" style="mask-type:luminance" maskUnits="userSpaceOnUse" x="0" y="283" width="915" height="1010">
<path fill-rule="evenodd" clip-rule="evenodd" d="M914.591 393.886L788.286 1292.59L0.241273 1181.84L126.546 283.133L914.591 393.886Z" fill="white"/>
</mask>
<g mask="url(#mask1_21_2361)">
<path opacity="0.097261" fill-rule="evenodd" clip-rule="evenodd" d="M1081.19 688.861C1064.51 667.371 1008.03 595.658 945.164 527.98C870.129 447.194 759.875 341.955 653.956 350.436C592.352 355.37 562.977 394.853 537.907 430.541C519.874 456.21 504.07 479.917 480.099 487.389C422.803 505.251 322.536 430.387 192.176 496.336C61.8147 562.287 107.941 691.414 118.716 773.342C129.491 855.268 42.4959 869.926 36.7147 972.982C30.9941 1074.92 350.267 1232.1 458.82 1237.56L1081.19 688.861Z" fill="#92E3A9"/>
<path opacity="0.097261" fill-rule="evenodd" clip-rule="evenodd" d="M1081.74 688.598L717.68 1008.99C717.582 1008.93 717.478 1008.87 717.37 1008.8L877.907 867.526C878.208 867.26 878.314 866.878 878.19 866.514C878.068 866.151 877.726 865.854 877.291 865.728C877.285 865.726 875.307 865.153 871.737 864.098C859.24 860.404 827.376 850.828 793.765 839.501C760.162 828.183 724.765 815.077 705.39 804.447C682.994 792.17 663.799 782.69 644.546 776.041C625.294 769.394 605.99 765.594 583.491 764.678C572.761 764.244 559.573 765.398 545.149 767.952C543.434 765.744 541.688 763.55 539.931 761.386C528.664 747.512 517.052 734.885 512.232 728.155C507.191 721.137 495.692 709.782 485.399 700.092C483.201 698.024 481.06 696.035 479.052 694.187C479.584 694.126 480.09 694.059 480.571 693.985C482.472 693.665 483.952 693.293 484.971 692.439C484.973 692.438 484.973 692.438 484.973 692.438C485.243 692.2 485.471 691.91 485.605 691.573C485.923 690.763 485.859 689.9 485.574 689.079C484.858 687.089 482.981 685.115 480.703 683.193C484.264 684.637 488.003 685.929 491.425 686.621C493.264 686.991 495.016 687.192 496.632 687.123C498.243 687.057 499.749 686.711 500.948 685.932C501.294 685.706 501.619 685.459 501.919 685.196C505.063 682.38 505.848 677.725 505.09 673.041C504.299 668.35 501.911 663.566 497.96 660.489C496.72 659.529 495.314 658.742 493.762 658.212C485.128 655.275 473.269 651.832 469.105 650.639C469.742 649.562 470.719 647.812 471.656 645.742C473.211 642.273 474.7 637.946 474.177 634.169C473.982 632.825 473.79 631.723 473.511 630.807C473.222 629.901 472.887 629.135 472.109 628.512C471.493 628.012 470.561 627.784 469.768 627.85C468.564 627.937 467.449 628.399 466.002 629.117C464.565 629.843 462.834 630.863 460.66 632.178C456.309 634.824 450.274 635.665 443.204 635.738C436.144 635.818 428.124 635.145 419.952 634.971C409.175 634.746 395.071 635.24 386.727 635.602C387.32 635.344 387.905 635.075 388.459 634.804C389.593 634.244 390.58 633.691 391.288 633.075C391.627 632.766 391.936 632.445 392.092 631.953C392.164 631.708 392.178 631.404 392.066 631.098C391.959 630.794 391.731 630.518 391.477 630.325C390.764 629.808 390.011 629.672 389.019 629.543C388.026 629.431 386.764 629.4 385.117 629.45C381.021 629.584 374.606 631.003 366.732 633.327C354.954 636.817 340.066 642.372 326.093 648.825C312.119 655.283 299.074 662.612 290.956 669.75C290.945 669.759 290.933 669.77 290.924 669.777C275.742 683.139 273.55 695.536 273.602 701.757C273.561 701.708 273.521 701.662 273.478 701.614C271.722 699.623 269.469 697.238 267.314 695.565C266.299 694.788 265.324 694.151 264.269 693.778C263.739 693.596 263.166 693.473 262.548 693.514C261.942 693.55 261.329 693.788 260.909 694.157C260.902 694.163 260.895 694.17 260.888 694.176C260.526 694.494 260.286 694.88 260.117 695.312C259.493 696.938 259.651 698.907 260.106 701.021C261.225 706.067 264.295 712.009 265.49 714.214C265.186 714.373 264.822 714.569 264.409 714.801C264.647 714.181 264.433 713.455 263.791 712.958C262.913 712.279 261.576 712.286 260.798 712.97L245.813 726.158C245.035 726.842 245.113 727.944 245.991 728.623C246.868 729.301 248.207 729.296 248.985 728.612L252.358 725.643C252.02 726.351 251.768 727.083 251.617 727.836C251.174 730.087 251.063 732.051 251.26 733.662C251.48 735.267 251.911 736.554 253.047 737.474C253.432 737.776 253.924 738.013 254.461 738.119C255.27 738.284 256.084 738.15 256.797 737.858C257.518 737.562 258.197 737.109 258.892 736.498C260.767 734.847 262.57 733.626 263.951 732.792L263.833 733.299C263.676 733.592 263.23 734.431 262.6 735.696L260.515 737.531C259.768 738.188 259.81 739.229 260.585 739.911C259.052 743.278 257.23 747.633 255.693 752.322C253.995 757.504 252.641 763.093 252.421 768.243C252.215 773.384 253.096 778.137 256.196 781.618C257.059 782.577 258.158 783.556 259.466 784.568C263.699 787.84 270.125 791.476 277.529 795.225C288.624 800.839 301.9 806.671 312.992 811.562C318.537 814.005 323.536 816.212 327.427 818.03C329.375 818.938 331.042 819.749 332.354 820.438C333.663 821.124 334.628 821.701 335.087 822.062L335.277 822.218C336.824 823.637 337.948 825.422 339.209 827.326C340.471 829.223 341.885 831.242 344.141 832.987C345.314 833.897 346.709 834.72 348.393 835.404C347.669 836.738 347.545 838.231 347.913 839.82C334.623 847.391 319.098 858.792 300.445 875.198C286.136 887.791 269.99 903.341 251.621 922.389C222.921 952.159 199.426 978.689 187.681 1001.52C181.815 1012.94 178.871 1023.45 179.789 1033.02C180.697 1042.59 185.559 1051.2 195.052 1058.53C198.668 1061.32 202.949 1063.94 207.935 1066.38C221.932 1073.23 245.08 1086.85 271.851 1103.39C312.015 1128.21 360.393 1159.64 398.721 1184.86C417.885 1197.47 434.538 1208.52 446.402 1216.43C452.332 1220.38 457.065 1223.54 460.317 1225.72C463.567 1227.9 465.328 1229.08 465.332 1229.08C465.882 1229.45 466.661 1229.43 467.125 1229.03L466.14 1228.25L467.125 1229.03L490.485 1208.93L458.4 1237.16C385.305 1233.53 216.79 1161.31 116.124 1083.41C67.1781 1045.54 34.2751 1006.33 36.1759 973.007C42.0485 870.031 129.126 855.341 118.411 773.488C109.005 701.619 72.3509 593.426 151.877 523.44C162.929 513.714 176.239 504.718 192.164 496.669C322.685 430.709 422.97 505.463 480.328 487.587C488.829 484.937 496.305 480.254 503.22 474.169C515.825 463.076 526.564 447.324 538.231 430.756C549.901 414.185 562.496 396.801 578.823 382.432C597.645 365.868 621.425 353.315 654.441 350.659C714.539 345.825 776 377.508 831.634 420.557C874.138 453.445 913.241 492.969 945.735 527.915C1008.59 595.507 1065.06 667.134 1081.74 688.598M248.435 748.162C247.655 748.848 247.735 749.948 248.611 750.626C249.49 751.306 250.827 751.302 251.607 750.616L257.315 745.592C258.093 744.908 258.013 743.805 257.135 743.125C256.258 742.447 254.921 742.454 254.143 743.138L248.435 748.162M241.083 742.474C240.303 743.16 240.385 744.262 241.261 744.94C242.138 745.618 243.475 745.614 244.255 744.928L249.963 739.905C250.741 739.22 250.661 738.117 249.785 737.439C248.908 736.761 247.569 736.766 246.791 737.451L241.083 742.474M233.733 736.788C232.953 737.474 233.033 738.574 233.911 739.254C234.788 739.932 236.126 739.928 236.905 739.242L242.613 734.219C243.391 733.534 243.311 732.431 242.435 731.753C241.556 731.073 240.219 731.08 239.441 731.765L233.733 736.788" fill="#92E3A9"/>
</g>
</g>
<g opacity="0.223354">
<mask id="mask2_21_2361" style="mask-type:luminance" maskUnits="userSpaceOnUse" x="198" y="146" width="872" height="706">
<path fill-rule="evenodd" clip-rule="evenodd" d="M1069.77 257.407L986.263 851.568L198.218 740.815L281.722 146.655L1069.77 257.407Z" fill="white"/>
</mask>
<g mask="url(#mask2_21_2361)">
<path fill-rule="evenodd" clip-rule="evenodd" d="M1249.05 462.141C1231.48 447.014 1172.01 396.493 1106.4 348.369C1028.09 290.924 913.642 215.507 808.814 216.224C747.845 216.641 720.507 241.632 697.268 264.29C680.552 280.586 665.959 295.677 642.494 299.547C586.408 308.797 483.303 254.128 356.879 292.074C230.453 330.021 282.307 418.393 296.838 473.599C311.368 528.804 225.629 534.528 224.698 603.068C223.776 670.863 548.294 790.726 656.389 799.44L1249.05 462.141" fill="#92E3A9"/>
<path fill-rule="evenodd" clip-rule="evenodd" d="M1249.58 461.991L902.875 658.911C902.775 658.867 902.669 658.822 902.559 658.775L1055.44 571.941C1055.73 571.778 1055.82 571.528 1055.68 571.279C1055.54 571.031 1055.19 570.817 1054.75 570.712C1054.74 570.711 1052.75 570.235 1049.15 569.364C1036.57 566.314 1004.47 558.432 970.546 549.299C936.635 540.173 900.858 529.77 881.114 521.767C858.292 512.523 838.779 505.297 819.342 499.959C799.907 494.622 780.552 491.183 758.157 489.52C747.478 488.729 734.43 488.884 720.22 489.916C718.413 488.361 716.576 486.815 714.73 485.288C702.889 475.498 690.763 466.525 685.661 461.806C680.325 456.885 668.371 448.766 657.693 441.815C655.413 440.332 653.193 438.904 651.112 437.576C651.638 437.56 652.137 437.539 652.611 437.512C654.486 437.387 655.938 437.208 656.911 436.686C656.912 436.685 656.912 436.685 656.912 436.685C657.169 436.539 657.383 436.356 657.499 436.137C657.778 435.611 657.674 435.031 657.353 434.47C656.548 433.108 654.592 431.703 652.239 430.312C655.844 431.443 659.619 432.48 663.05 433.103C664.895 433.435 666.645 433.651 668.247 433.681C669.844 433.712 671.324 433.551 672.479 433.087C672.812 432.952 673.123 432.803 673.409 432.641C676.4 430.907 676.963 427.836 675.992 424.673C674.986 421.504 672.391 418.198 668.322 415.959C667.046 415.26 665.612 414.669 664.045 414.243C655.331 411.879 643.389 409.026 639.197 408.035C639.779 407.346 640.668 406.223 641.502 404.884C642.885 402.64 644.161 399.821 643.466 397.275C643.209 396.369 642.967 395.623 642.648 394.999C642.318 394.381 641.95 393.853 641.147 393.401C640.512 393.038 639.575 392.842 638.791 392.85C637.599 392.851 636.513 393.108 635.109 393.52C633.715 393.937 632.043 394.538 629.945 395.314C625.746 396.877 619.79 397.157 612.769 396.875C605.759 396.599 597.761 395.775 589.634 395.278C578.918 394.624 564.929 394.296 556.657 394.148C557.234 394.003 557.803 393.851 558.341 393.696C559.441 393.374 560.395 393.051 561.07 392.673C561.393 392.483 561.685 392.283 561.816 391.961C561.877 391.801 561.876 391.599 561.75 391.389C561.63 391.182 561.391 390.987 561.129 390.846C560.397 390.467 559.643 390.341 558.651 390.209C557.659 390.088 556.404 390.008 554.77 389.965C550.708 389.863 544.4 390.511 536.687 391.695C525.149 393.475 510.618 396.489 497.038 400.145C483.457 403.804 470.84 408.088 463.109 412.475C463.099 412.481 463.087 412.487 463.079 412.492C448.62 420.704 447.022 428.879 447.364 433.036C447.321 433.001 447.279 432.968 447.234 432.934C445.397 431.523 443.047 429.825 440.828 428.607C439.783 428.041 438.785 427.57 437.719 427.272C437.185 427.126 436.609 427.017 435.997 427.016C435.398 427.012 434.799 427.141 434.4 427.368C434.393 427.372 434.386 427.376 434.379 427.38C434.035 427.576 433.814 427.822 433.666 428.102C433.123 429.159 433.371 430.481 433.922 431.914C435.269 435.335 438.597 439.446 439.887 440.974C439.593 441.066 439.24 441.18 438.84 441.316C439.048 440.913 438.802 440.418 438.141 440.057C437.236 439.562 435.908 439.504 435.167 439.925L420.897 448.03C420.156 448.451 420.285 449.19 421.189 449.685C422.092 450.178 423.422 450.237 424.163 449.817L427.375 447.992C427.073 448.449 426.856 448.926 426.742 449.422C426.407 450.904 426.388 452.21 426.659 453.295C426.952 454.377 427.44 455.257 428.612 455.924C429.009 456.143 429.509 456.325 430.047 456.421C430.859 456.569 431.661 456.517 432.355 456.355C433.058 456.191 433.711 455.921 434.373 455.545C436.159 454.531 437.893 453.799 439.225 453.307L439.133 453.64C438.99 453.828 438.586 454.368 438.019 455.183L436.033 456.311C435.323 456.714 435.413 457.412 436.215 457.903C434.849 460.08 433.242 462.902 431.934 465.961C430.489 469.342 429.405 473.01 429.427 476.439C429.463 479.862 430.559 483.077 433.802 485.545C434.704 486.226 435.841 486.931 437.188 487.668C441.546 490.05 448.1 492.778 455.63 495.627C466.915 499.894 480.376 504.408 491.624 508.191C497.246 510.082 502.315 511.789 506.266 513.184C508.243 513.882 509.937 514.501 511.273 515.022C512.605 515.541 513.591 515.972 514.064 516.235L514.26 516.347C515.863 517.367 517.063 518.611 518.405 519.941C519.747 521.267 521.246 522.681 523.569 523.952C524.776 524.614 526.201 525.229 527.906 525.764C527.249 526.621 527.195 527.612 527.635 528.69C514.786 533.125 499.896 540.012 482.131 550.095C468.504 557.835 453.19 567.464 435.831 579.324C408.71 597.861 386.608 614.478 376.007 629.172C370.712 636.521 368.279 643.402 369.638 649.836C370.987 656.269 376.218 662.244 385.992 667.582C389.714 669.618 394.09 671.566 399.156 673.427C413.381 678.651 437.014 688.826 464.381 701.123C505.441 719.572 554.969 742.815 594.223 761.442C613.851 770.757 630.911 778.917 643.066 784.75C649.141 787.666 653.992 789.999 657.324 791.604C660.654 793.209 662.459 794.082 662.463 794.084C663.026 794.355 663.799 794.377 664.242 794.132L663.227 793.568L664.242 794.132L686.509 781.8L655.954 799.155C583.169 793.315 412.387 737.222 308.744 680.511C258.351 652.939 223.832 625.219 224.164 603.059C225.189 534.578 311.009 528.836 296.542 473.682C283.841 425.256 242.375 351.305 318.111 308.289C328.635 302.311 341.438 296.927 356.883 292.296C483.466 254.35 586.585 308.947 642.731 299.69C651.052 298.318 658.26 295.54 664.846 291.8C676.85 284.982 686.783 274.966 697.599 264.448C708.419 253.929 720.12 242.91 735.669 234.078C753.593 223.898 776.631 216.627 809.306 216.395C868.784 215.974 931.322 239.999 988.601 271.341C1032.36 295.285 1073.05 323.501 1106.97 348.352C1172.57 396.419 1232.01 446.881 1249.58 461.991M424.53 462.845C423.787 463.266 423.917 464.005 424.82 464.498C425.724 464.993 427.053 465.053 427.795 464.631L433.232 461.544C433.972 461.123 433.842 460.383 432.937 459.888C432.035 459.394 430.707 459.336 429.966 459.757L424.53 462.845M416.96 458.704C416.218 459.126 416.35 459.865 417.253 460.359C418.155 460.852 419.484 460.912 420.226 460.491L425.662 457.403C426.403 456.982 426.272 456.242 425.37 455.748C424.467 455.255 423.137 455.195 422.396 455.616L416.96 458.704M409.393 454.564C408.65 454.986 408.781 455.724 409.685 456.219C410.588 456.712 411.916 456.772 412.659 456.351L418.095 453.263C418.836 452.842 418.705 452.102 417.803 451.608C416.898 451.113 415.57 451.056 414.829 451.476L409.393 454.564" fill="#92E3A9"/>
</g>
</g>
</g>
</svg>
