<svg width="643" height="1221" viewBox="0 0 643 1221" fill="none" xmlns="http://www.w3.org/2000/svg">
<g opacity="0.328497">
<g opacity="0.507045">
<mask id="mask0_33_738" style="mask-type:luminance" maskUnits="userSpaceOnUse" x="-312" y="292" width="724" height="929">
<path fill-rule="evenodd" clip-rule="evenodd" d="M-312 1220.73L-312 292.158H411.245V1220.73H-312Z" fill="white"/>
</mask>
<g mask="url(#mask0_33_738)">
<path fill-rule="evenodd" clip-rule="evenodd" d="M-499.251 945.578C-481.522 964.977 -421.615 1029.59 -356.476 1089.22C-278.727 1160.39 -166.188 1251.32 -71.9341 1227.64C-17.115 1213.87 4.32794 1169.68 22.3769 1129.95C35.3602 1101.37 46.5847 1075.1 67.2136 1064.12C116.52 1037.86 216.229 1099.44 325.211 1014.05C434.193 928.667 376.347 804.401 356.287 722.923C336.228 641.449 412.668 614.209 404.836 508.967C397.091 404.869 89.8655 291.069 -8.52144 300.996L-499.251 945.578Z" fill="#89CFF3"/>
<path fill-rule="evenodd" clip-rule="evenodd" d="M-499.709 945.922L-212.583 569.455C-212.487 569.501 -212.386 569.547 -212.281 569.595L-338.893 735.603C-339.131 735.915 -339.178 736.317 -339.02 736.668C-338.865 737.018 -338.519 737.271 -338.112 737.337C-338.106 737.337 -336.254 737.637 -332.907 738.198C-321.193 740.161 -291.305 745.326 -259.622 752.017C-227.947 758.699 -194.433 766.937 -175.651 774.95C-153.942 784.2 -135.467 791.072 -117.298 795.067C-99.1314 799.06 -81.277 800.161 -60.912 797.886C-51.2002 796.797 -39.4775 793.751 -26.8191 789.109C-24.9961 791.102 -23.1472 793.076 -21.292 795.019C-9.39681 807.472 2.65124 818.612 7.83982 824.745C13.2643 831.138 25.0501 841.006 35.5391 849.358C37.7794 851.141 39.9571 852.85 41.9982 854.437C41.5269 854.574 41.0804 854.714 40.6573 854.858C38.986 855.453 37.7013 856.041 36.8923 857.051C36.8909 857.053 36.8909 857.053 36.8909 857.053C36.6781 857.332 36.509 857.658 36.4318 858.019C36.2475 858.885 36.4147 859.75 36.7746 860.542C37.6708 862.455 39.6093 864.188 41.9028 865.812C38.5155 864.855 34.987 864.079 31.8198 863.864C30.1177 863.752 28.5156 863.798 27.0697 864.097C25.6286 864.394 24.3169 864.959 23.3365 865.919C23.0538 866.197 22.792 866.494 22.5555 866.804C20.0825 870.104 19.9646 874.932 21.2387 879.571C22.5444 884.211 25.2984 888.718 29.2433 891.273C30.4808 892.069 31.8458 892.666 33.3101 892.983C41.4514 894.728 52.5604 896.528 56.4586 897.145C56.0215 898.326 55.3639 900.239 54.7828 902.469C53.8214 906.206 53.0294 910.802 53.9775 914.554C54.3228 915.888 54.6354 916.978 55.0016 917.866C55.3761 918.743 55.7747 919.472 56.5543 919.992C57.1719 920.411 58.0396 920.509 58.7446 920.329C59.8171 920.07 60.7621 919.443 61.9738 918.509C63.1755 917.569 64.6044 916.289 66.3941 914.647C69.9754 911.347 75.3006 909.635 81.6546 908.555C87.9986 907.468 95.301 907.008 102.678 906.02C112.406 904.714 125.037 902.204 132.5 900.649C131.999 900.996 131.507 901.351 131.042 901.705C130.093 902.434 129.275 903.135 128.716 903.86C128.449 904.221 128.212 904.591 128.134 905.111C128.099 905.369 128.126 905.68 128.265 905.973C128.4 906.266 128.64 906.513 128.893 906.673C129.6 907.095 130.295 907.126 131.204 907.115C132.112 907.087 133.251 906.939 134.728 906.654C138.397 905.935 143.991 903.584 150.784 900.107C160.943 894.894 173.639 887.145 185.398 878.617C197.158 870.084 207.972 860.801 214.375 852.413C214.383 852.402 214.393 852.389 214.4 852.38C226.374 836.68 226.778 823.807 225.944 817.511C225.988 817.555 226.03 817.596 226.075 817.638C227.907 819.406 230.237 821.502 232.388 822.89C233.399 823.532 234.357 824.039 235.354 824.267C235.853 824.376 236.385 824.418 236.936 824.289C237.476 824.166 237.998 823.838 238.329 823.404C238.335 823.397 238.341 823.389 238.346 823.382C238.631 823.008 238.799 822.583 238.897 822.121C239.252 820.384 238.862 818.412 238.185 816.335C236.539 811.382 233.024 805.798 231.67 803.734C231.923 803.53 232.226 803.279 232.569 802.985C232.433 803.648 232.717 804.353 233.358 804.764C234.234 805.328 235.437 805.131 236.05 804.326L247.869 788.831C248.482 788.026 248.273 786.921 247.396 786.358C246.522 785.795 245.317 785.991 244.703 786.796L242.043 790.283C242.257 789.519 242.392 788.741 242.432 787.956C242.546 785.613 242.398 783.607 242.017 782.002C241.616 780.407 241.066 779.165 239.927 778.394C239.541 778.144 239.069 777.973 238.572 777.942C237.823 777.89 237.107 778.142 236.503 778.539C235.891 778.943 235.338 779.498 234.79 780.216C233.311 782.155 231.843 783.65 230.706 784.691L230.747 784.161C230.851 783.842 231.146 782.928 231.554 781.556L233.198 779.4C233.787 778.628 233.618 777.579 232.834 776.999C233.788 773.369 234.877 768.697 235.667 763.728C236.54 758.235 237.051 752.379 236.598 747.13C236.133 741.891 234.739 737.2 231.509 734.115C230.611 733.266 229.498 732.431 228.193 731.592C223.969 728.88 217.726 726.111 210.589 723.366C199.893 719.258 187.206 715.24 176.605 711.864C171.306 710.178 166.528 708.653 162.795 707.365C160.928 706.722 159.325 706.138 158.057 705.627C156.792 705.118 155.851 704.671 155.391 704.37L155.201 704.24C153.629 703.022 152.392 701.374 151.016 699.624C149.641 697.881 148.112 696.037 145.861 694.59C144.691 693.835 143.331 693.2 141.729 692.746C142.211 691.292 142.135 689.761 141.602 688.204C152.605 678.641 165.136 664.878 179.848 645.599C191.133 630.802 203.698 612.747 217.821 590.831C239.885 556.581 257.675 526.354 265.357 501.551C269.193 489.147 270.512 478.078 268.476 468.51C266.448 458.942 260.984 450.912 251.513 444.837C247.905 442.518 243.72 440.475 238.925 438.713C225.462 433.772 202.906 423.268 176.72 410.316C137.433 390.886 89.9179 365.933 52.2334 345.84C33.3902 335.793 17.0043 326.961 5.32709 320.639C-0.509499 317.48 -5.17008 314.949 -8.37181 313.206C-11.5715 311.464 -13.3065 310.515 -13.3105 310.512C-13.8519 310.219 -14.5503 310.351 -14.9179 310.822L-13.9332 311.468L-14.9179 310.822L-33.3983 334.518L-8.09371 301.339C58.1507 294.612 218.949 343.795 319.4 408.383C368.241 439.785 402.814 474.833 405.318 508.865C413.057 614.038 336.546 641.322 356.542 722.733C374.099 794.212 420.772 898.616 358.051 980.853C349.335 992.281 338.493 1003.29 325.179 1013.71C216.054 1099.13 116.343 1037.67 66.9822 1063.95C59.6665 1067.85 53.5304 1073.66 48.0769 1080.81C38.1354 1093.84 30.4626 1111.33 22.0581 1129.78C13.6508 1148.23 4.51452 1167.64 -8.36247 1184.52C-23.2066 1203.99 -43.0207 1220.09 -72.399 1227.48C-125.876 1240.94 -185.198 1217.59 -240.713 1181.89C-283.127 1154.62 -323.318 1120.14 -356.983 1089.36C-422.105 1029.83 -481.988 965.295 -499.709 945.922ZM242.725 766.909C243.34 766.102 243.13 764.999 242.255 764.437C241.378 763.873 240.175 764.068 239.56 764.874L235.058 770.777C234.445 771.581 234.656 772.687 235.533 773.251C236.407 773.813 237.61 773.616 238.224 772.811L242.725 766.909ZM250.062 771.625C250.677 770.818 250.464 769.714 249.589 769.152C248.715 768.589 247.511 768.784 246.896 769.59L242.394 775.493C241.781 776.297 241.992 777.403 242.867 777.966C243.742 778.528 244.946 778.332 245.56 777.527L250.062 771.625ZM257.396 776.339C258.011 775.533 257.8 774.43 256.923 773.866C256.049 773.304 254.845 773.498 254.23 774.305L249.728 780.207C249.115 781.012 249.326 782.118 250.201 782.68C251.078 783.244 252.28 783.047 252.894 782.242L257.396 776.339Z" fill="#89CFF3"/>
</g>
</g>
<g opacity="0.543225">
<mask id="mask1_33_738" style="mask-type:luminance" maskUnits="userSpaceOnUse" x="-81" y="-1" width="724" height="930">
<path fill-rule="evenodd" clip-rule="evenodd" d="M-80.5618 928.572L-80.5618 -0.000244141H642.683V928.572H-80.5618Z" fill="white"/>
</mask>
<g mask="url(#mask1_33_738)">
<path opacity="0.097261" fill-rule="evenodd" clip-rule="evenodd" d="M-267.813 653.42C-250.084 672.819 -190.177 737.437 -125.039 797.058C-47.2893 868.227 65.2497 959.158 159.504 935.482C214.323 921.71 235.766 877.522 253.815 837.792C266.798 809.216 278.023 782.946 298.652 771.961C347.958 745.704 447.667 807.28 556.649 721.896C665.631 636.509 607.785 512.243 587.725 430.765C567.666 349.291 644.106 322.051 636.274 216.809C628.529 112.71 321.304 -1.08888 222.917 8.83763L-267.813 653.42Z" fill="#89CFF3"/>
<path opacity="0.097261" fill-rule="evenodd" clip-rule="evenodd" d="M-268.271 653.764L18.8557 277.298C18.9513 277.343 19.0523 277.389 19.1572 277.437L-107.455 443.445C-107.693 443.757 -107.74 444.159 -107.582 444.51C-107.426 444.86 -107.081 445.113 -106.673 445.179C-106.668 445.18 -104.815 445.479 -101.469 446.04C-89.7543 448.003 -59.8661 453.168 -28.1832 459.859C3.49108 466.541 37.0057 474.779 55.7872 482.792C77.4965 492.042 95.9714 498.914 114.14 502.909C132.307 506.902 150.161 508.004 170.526 505.728C180.238 504.639 191.961 501.593 204.619 496.951C206.442 498.944 208.291 500.918 210.146 502.861C222.042 515.314 234.09 526.454 239.278 532.587C244.703 538.98 256.489 548.848 266.978 557.2C269.218 558.983 271.396 560.692 273.437 562.279C272.965 562.416 272.519 562.556 272.096 562.7C270.424 563.295 269.14 563.883 268.331 564.893C268.329 564.895 268.329 564.895 268.329 564.895C268.117 565.174 267.947 565.5 267.87 565.861C267.686 566.727 267.853 567.592 268.213 568.384C269.109 570.297 271.048 572.03 273.341 573.654C269.954 572.697 266.426 571.921 263.258 571.707C261.556 571.594 259.954 571.64 258.508 571.939C257.067 572.236 255.755 572.801 254.775 573.761C254.492 574.039 254.23 574.336 253.994 574.646C251.521 577.946 251.403 582.775 252.677 587.413C253.983 592.053 256.737 596.56 260.682 599.115C261.919 599.911 263.284 600.508 264.749 600.825C272.89 602.57 283.999 604.37 287.897 604.987C287.46 606.168 286.802 608.081 286.221 610.311C285.26 614.048 284.468 618.644 285.416 622.396C285.761 623.73 286.074 624.82 286.44 625.708C286.815 626.585 287.213 627.314 287.993 627.834C288.61 628.253 289.478 628.351 290.183 628.171C291.256 627.912 292.201 627.285 293.412 626.351C294.614 625.411 296.043 624.131 297.833 622.489C301.414 619.189 306.739 617.477 313.093 616.397C319.437 615.31 326.739 614.85 334.117 613.862C343.844 612.556 356.475 610.046 363.939 608.491C363.438 608.838 362.945 609.193 362.481 609.547C361.531 610.276 360.713 610.977 360.154 611.702C359.887 612.063 359.65 612.433 359.572 612.953C359.538 613.211 359.564 613.522 359.704 613.816C359.838 614.108 360.078 614.355 360.332 614.515C361.038 614.937 361.733 614.968 362.643 614.957C363.551 614.929 364.69 614.781 366.166 614.496C369.835 613.777 375.43 611.426 382.222 607.949C392.381 602.736 405.077 594.987 416.837 586.459C428.597 577.926 439.41 568.643 445.814 560.255C445.822 560.244 445.832 560.231 445.839 560.222C457.813 544.522 458.217 531.649 457.383 525.353C457.426 525.397 457.469 525.438 457.513 525.48C459.345 527.248 461.675 529.344 463.826 530.732C464.838 531.374 465.796 531.881 466.793 532.109C467.292 532.218 467.824 532.26 468.375 532.131C468.915 532.008 469.437 531.68 469.768 531.246C469.773 531.239 469.779 531.231 469.785 531.224C470.07 530.85 470.237 530.425 470.335 529.963C470.691 528.226 470.3 526.254 469.623 524.177C467.977 519.224 464.463 513.64 463.108 511.576C463.361 511.372 463.665 511.121 464.007 510.827C463.871 511.49 464.155 512.195 464.796 512.606C465.673 513.17 466.875 512.973 467.489 512.168L479.307 496.673C479.921 495.868 479.711 494.763 478.835 494.2C477.96 493.637 476.755 493.833 476.142 494.638L473.482 498.126C473.696 497.361 473.831 496.583 473.871 495.798C473.985 493.455 473.836 491.449 473.455 489.844C473.055 488.249 472.504 487.007 471.365 486.237C470.98 485.986 470.507 485.815 470.011 485.784C469.261 485.732 468.546 485.984 467.941 486.381C467.33 486.785 466.776 487.34 466.228 488.058C464.749 489.997 463.281 491.492 462.144 492.533L462.185 492.003C462.29 491.684 462.585 490.77 462.992 489.398L464.637 487.242C465.225 486.47 465.056 485.421 464.272 484.841C465.226 481.211 466.315 476.539 467.105 471.57C467.978 466.077 468.49 460.221 468.037 454.972C467.572 449.733 466.178 445.042 462.948 441.957C462.049 441.108 460.937 440.273 459.632 439.434C455.408 436.722 449.164 433.953 442.027 431.208C431.331 427.1 418.645 423.082 408.044 419.706C402.744 418.02 397.966 416.495 394.234 415.207C392.366 414.564 390.764 413.98 389.495 413.469C388.231 412.96 387.289 412.513 386.83 412.212L386.64 412.082C385.068 410.864 383.831 409.216 382.454 407.466C381.079 405.723 379.551 403.879 377.3 402.432C376.129 401.677 374.769 401.042 373.167 400.588C373.65 399.134 373.573 397.603 373.041 396.046C384.044 386.483 396.574 372.72 411.286 353.441C422.572 338.644 435.136 320.589 449.26 298.673C471.324 264.423 489.113 234.196 496.796 209.393C500.632 196.989 501.951 185.92 499.914 176.352C497.886 166.784 492.422 158.754 482.951 152.679C479.344 150.36 475.159 148.317 470.364 146.555C456.901 141.614 434.345 131.11 408.158 118.158C368.871 98.7282 321.356 73.7753 283.672 53.682C264.829 43.6347 248.443 34.8028 236.766 28.4814C230.929 25.322 226.268 22.7908 223.067 21.0479C219.867 19.3063 218.132 18.3568 218.128 18.3543C217.587 18.0606 216.888 18.1934 216.521 18.6638L217.505 19.3104L216.521 18.6638L198.04 42.3596L223.345 9.1814C289.589 2.45436 450.387 51.6365 550.839 116.225C599.68 147.627 634.252 182.675 636.756 216.707C644.496 321.88 567.985 349.164 587.981 430.575C605.537 502.054 652.21 606.458 589.489 688.695C580.773 700.123 569.932 711.133 556.617 721.556C447.493 806.975 347.781 745.513 298.421 771.793C291.105 775.688 284.969 781.497 279.515 788.648C269.574 801.683 261.901 819.172 253.497 837.62C245.089 856.072 235.953 875.48 223.076 892.364C208.232 911.827 188.418 927.932 159.039 935.325C105.562 948.781 46.2405 925.431 -9.27487 889.736C-51.6882 862.465 -91.8791 827.987 -125.544 797.206C-190.666 737.67 -250.55 673.137 -268.271 653.764ZM474.164 474.751C474.779 473.944 474.568 472.841 473.693 472.279C472.817 471.715 471.613 471.909 470.999 472.716L466.497 478.618C465.883 479.423 466.094 480.529 466.971 481.093C467.846 481.655 469.048 481.458 469.662 480.653L474.164 474.751ZM481.5 479.467C482.115 478.66 481.902 477.556 481.028 476.994C480.153 476.431 478.95 476.625 478.335 477.432L473.833 483.334C473.219 484.139 473.431 485.245 474.305 485.807C475.18 486.37 476.385 486.174 476.998 485.369L481.5 479.467ZM488.834 484.181C489.449 483.375 489.238 482.272 488.362 481.708C487.487 481.146 486.284 481.34 485.669 482.146L481.167 488.049C480.553 488.854 480.765 489.96 481.639 490.522C482.516 491.086 483.719 490.888 484.332 490.084L488.834 484.181Z" fill="#89CFF3"/>
</g>
</g>
<g opacity="0.223354">
<mask id="mask2_33_738" style="mask-type:luminance" maskUnits="userSpaceOnUse" x="-203" y="160" width="724" height="929">
<path fill-rule="evenodd" clip-rule="evenodd" d="M-202.957 1088.95L-202.957 160.38H520.288V1088.95H-202.957Z" fill="white"/>
</mask>
<g mask="url(#mask2_33_738)">
<path fill-rule="evenodd" clip-rule="evenodd" d="M-390.208 813.801C-372.479 833.2 -312.572 897.817 -247.434 957.439C-169.684 1028.61 -57.1453 1119.54 37.1089 1095.86C91.928 1082.09 113.371 1037.9 131.42 998.173C144.403 969.596 155.628 943.326 176.257 932.341C225.563 906.084 325.272 967.661 434.254 882.276C543.236 796.89 485.39 672.623 465.33 591.146C445.271 509.672 521.711 482.431 513.879 377.189C506.134 273.091 198.908 159.292 100.522 169.218L-390.208 813.801Z" fill="#89CFF3"/>
<path fill-rule="evenodd" clip-rule="evenodd" d="M-390.666 814.144L-103.54 437.678C-103.444 437.723 -103.343 437.769 -103.238 437.817L-229.85 603.825C-230.088 604.137 -230.135 604.539 -229.977 604.891C-229.822 605.241 -229.476 605.493 -229.069 605.559C-229.063 605.56 -227.211 605.859 -223.864 606.42C-212.15 608.383 -182.262 613.548 -150.579 620.239C-118.904 626.922 -85.3898 635.16 -66.6083 643.172C-44.899 652.422 -26.4241 659.294 -8.25528 663.289C9.91156 667.282 27.7659 668.384 48.131 666.108C57.8427 665.02 69.5655 661.973 82.2239 657.331C84.0468 659.324 85.8958 661.298 87.7509 663.241C99.6462 675.694 111.694 686.834 116.883 692.967C122.307 699.36 134.093 709.228 144.582 717.58C146.822 719.363 149 721.073 151.041 722.659C150.57 722.797 150.123 722.937 149.7 723.081C148.029 723.675 146.744 724.263 145.935 725.273C145.934 725.275 145.934 725.275 145.934 725.275C145.721 725.554 145.552 725.881 145.475 726.241C145.29 727.107 145.458 727.973 145.818 728.764C146.714 730.678 148.652 732.411 150.946 734.034C147.558 733.077 144.03 732.302 140.863 732.087C139.161 731.974 137.559 732.021 136.113 732.32C134.672 732.617 133.36 733.182 132.379 734.142C132.097 734.419 131.835 734.716 131.598 735.026C129.125 738.327 129.008 743.155 130.282 747.793C131.587 752.433 134.341 756.941 138.286 759.496C139.524 760.291 140.889 760.889 142.353 761.205C150.494 762.951 161.603 764.751 165.502 765.367C165.064 766.549 164.407 768.461 163.826 770.692C162.864 774.429 162.072 779.025 163.021 782.777C163.366 784.11 163.678 785.2 164.045 786.088C164.419 786.965 164.818 787.694 165.597 788.214C166.215 788.633 167.083 788.732 167.788 788.551C168.86 788.292 169.805 787.665 171.017 786.732C172.218 785.792 173.647 784.511 175.437 782.87C179.018 779.569 184.344 777.858 190.698 776.777C197.042 775.69 204.344 775.231 211.721 774.243C221.449 772.936 234.08 770.427 241.543 768.872C241.042 769.219 240.55 769.573 240.085 769.927C239.136 770.657 238.318 771.357 237.759 772.082C237.492 772.444 237.255 772.813 237.177 773.334C237.142 773.592 237.169 773.902 237.308 774.196C237.443 774.489 237.683 774.736 237.936 774.896C238.643 775.318 239.338 775.348 240.247 775.338C241.155 775.31 242.294 775.161 243.771 774.876C247.44 774.158 253.034 771.806 259.827 768.33C269.985 763.117 282.682 755.368 294.441 746.84C306.201 738.307 317.015 729.023 323.418 720.635C323.426 720.624 323.436 720.612 323.443 720.602C335.417 704.903 335.821 692.03 334.987 685.733C335.03 685.777 335.073 685.818 335.118 685.861C336.95 687.628 339.28 689.724 341.431 691.112C342.442 691.754 343.4 692.262 344.397 692.489C344.896 692.598 345.428 692.641 345.979 692.511C346.519 692.388 347.041 692.06 347.372 691.626C347.378 691.619 347.384 691.612 347.389 691.604C347.674 691.23 347.842 690.805 347.94 690.344C348.295 688.607 347.904 686.635 347.228 684.558C345.582 679.604 342.067 674.02 340.713 671.956C340.966 671.752 341.269 671.501 341.612 671.208C341.476 671.87 341.76 672.575 342.4 672.987C343.277 673.55 344.48 673.353 345.093 672.549L356.912 657.053C357.525 656.249 357.316 655.144 356.439 654.58C355.565 654.018 354.36 654.214 353.746 655.018L351.086 658.506C351.3 657.741 351.435 656.963 351.475 656.179C351.589 653.835 351.441 651.829 351.06 650.225C350.659 648.63 350.109 647.387 348.97 646.617C348.584 646.366 348.112 646.196 347.615 646.165C346.866 646.113 346.15 646.365 345.546 646.762C344.934 647.165 344.381 647.72 343.833 648.439C342.354 650.378 340.886 651.872 339.749 652.914L339.79 652.383C339.894 652.064 340.189 651.15 340.597 649.778L342.241 647.622C342.83 646.851 342.661 645.801 341.877 645.221C342.831 641.591 343.92 636.92 344.71 631.95C345.583 626.457 346.094 620.602 345.641 615.352C345.176 610.114 343.782 605.423 340.552 602.338C339.654 601.489 338.541 600.654 337.236 599.815C333.012 597.102 326.768 594.333 319.632 591.588C308.936 587.48 296.249 583.462 285.648 580.086C280.349 578.4 275.571 576.875 271.838 575.588C269.971 574.944 268.368 574.36 267.1 573.849C265.835 573.341 264.894 572.893 264.434 572.592L264.244 572.462C262.672 571.245 261.435 569.596 260.059 567.847C258.684 566.104 257.155 564.26 254.904 562.813C253.734 562.057 252.374 561.422 250.772 560.969C251.254 559.515 251.177 557.984 250.645 556.426C261.648 546.863 274.179 533.1 288.891 513.822C300.176 499.025 312.741 480.97 326.864 459.053C348.928 424.803 366.718 394.577 374.4 369.773C378.236 357.369 379.555 346.3 377.519 336.732C375.491 327.165 370.027 319.134 360.556 313.059C356.948 310.74 352.763 308.697 347.968 306.936C334.505 301.994 311.949 291.49 285.763 278.539C246.476 259.109 198.961 234.156 161.276 214.062C142.433 204.015 126.047 195.183 114.37 188.862C108.533 185.702 103.873 183.171 100.671 181.428C97.4714 179.687 95.7365 178.737 95.7325 178.735C95.191 178.441 94.4927 178.574 94.125 179.044L95.1097 179.691L94.125 179.044L75.6446 202.74L100.949 169.562C167.194 162.835 327.992 212.017 428.443 276.605C477.284 308.008 511.857 343.055 514.361 377.088C522.1 482.261 445.589 509.545 465.585 590.955C483.142 662.435 529.815 766.838 467.094 849.075C458.378 860.503 447.536 871.513 434.222 881.937C325.097 967.356 225.386 905.893 176.025 932.173C168.709 936.069 162.573 941.878 157.12 949.028C147.178 962.063 139.506 979.552 131.101 998.001C122.694 1016.45 113.557 1035.86 100.681 1052.74C85.8363 1072.21 66.0223 1088.31 36.6439 1095.71C-16.833 1109.16 -76.155 1085.81 -131.67 1050.12C-174.084 1022.85 -214.275 988.367 -247.94 957.586C-313.062 898.05 -372.945 833.518 -390.666 814.144ZM351.768 635.131C352.383 634.325 352.172 633.221 351.298 632.659C350.421 632.096 349.218 632.29 348.603 633.096L344.101 638.999C343.488 639.803 343.699 640.91 344.576 641.473C345.45 642.035 346.653 641.838 347.266 641.034L351.768 635.131ZM359.104 639.847C359.719 639.041 359.507 637.936 358.632 637.374C357.757 636.812 356.554 637.006 355.939 637.812L351.437 643.715C350.824 644.519 351.035 645.626 351.91 646.188C352.784 646.75 353.989 646.554 354.603 645.75L359.104 639.847ZM366.439 644.562C367.054 643.755 366.843 642.652 365.966 642.089C365.092 641.526 363.888 641.721 363.273 642.527L358.771 648.43C358.158 649.234 358.369 650.34 359.244 650.903C360.12 651.466 361.323 651.269 361.937 650.464L366.439 644.562Z" fill="#89CFF3"/>
</g>
</g>
</g>
</svg>
