<svg width="800" height="600" viewBox="0 0 800 600" fill="none" xmlns="http://www.w3.org/2000/svg">
<g clip-path="url(#clip0_10_157)">
<g filter="url(#filter0_d_10_157)">
<path d="M386.46 574.84L27 362.4C15.56 356 5.74001 345.42 16.9 338.5L377.64 130.5C383.06 127.14 391.28 124.94 396.78 128.14L774 347.22C785.44 353.86 787.5 372.42 776 379.08L433.84 574.5C426.653 578.67 418.504 580.894 410.195 580.954C401.887 581.013 393.706 578.906 386.46 574.84Z" fill="#DD6F31"/>
</g>
<path d="M208.74 345.5C217.58 340.08 259.62 313.3 268.3 307.66C283.18 298 302.18 284 302.18 284L207.4 239.46L127.88 291.68C142.28 299.22 185.7 351.26 192.9 355.28C196.12 353.38 205.58 347.44 208.74 345.5Z" fill="url(#paint0_linear_10_157)"/>
<path d="M419.18 473.04C449.18 456.9 541.38 382.92 543.18 377.72L442 312.52L295.14 390.14C326.48 406.56 375.84 446.22 419.18 473.04Z" fill="url(#paint1_linear_10_157)"/>
<path d="M480 294.22L442 312.52C440.572 313.211 439.358 314.277 438.488 315.604C437.619 316.931 437.126 318.469 437.062 320.054C436.998 321.639 437.366 323.212 438.127 324.605C438.887 325.997 440.012 327.157 441.38 327.96L531.5 380.52C533.449 381.658 535.761 381.999 537.956 381.474C540.151 380.949 542.058 379.597 543.28 377.7L565.18 343.7" fill="#56403D"/>
<path d="M670.98 196.78L360.6 18C359.071 17.0833 357.324 16.5921 355.541 16.5775C353.758 16.5628 352.003 17.0251 350.459 17.9166C348.915 18.8081 347.637 20.0962 346.758 21.6476C345.879 23.199 345.431 24.9572 345.46 26.74V216.74C345.461 218.107 345.821 219.45 346.506 220.633C347.191 221.816 348.175 222.798 349.36 223.48L679.72 414.18C680.292 414.51 680.941 414.684 681.601 414.684C682.261 414.684 682.91 414.51 683.482 414.179C684.053 413.849 684.528 413.373 684.858 412.801C685.187 412.229 685.361 411.58 685.36 410.92V221.64C685.358 216.598 684.028 211.646 681.503 207.282C678.979 202.918 675.349 199.296 670.98 196.78Z" fill="#68E1FD"/>
<path d="M366 34.78L660 204C663.141 205.806 665.75 208.408 667.565 211.543C669.38 214.679 670.337 218.237 670.34 221.86V358C670.341 359.304 669.999 360.586 669.348 361.717C668.697 362.847 667.761 363.787 666.632 364.441C665.504 365.096 664.223 365.442 662.919 365.445C661.614 365.449 660.332 365.109 659.2 364.46L359.38 192.46C358.24 191.814 357.293 190.873 356.639 189.737C355.985 188.601 355.647 187.311 355.66 186V40.78C355.657 39.5682 355.973 38.3769 356.576 37.326C357.179 36.275 358.049 35.4015 359.097 34.7933C360.145 34.1851 361.335 33.8637 362.547 33.8613C363.759 33.859 364.95 34.1759 366 34.78Z" fill="white"/>
<path d="M492.834 291.134C494.57 290.8 495.975 290.52 495.973 290.51C495.971 290.499 494.562 290.761 492.827 291.095C491.091 291.429 489.686 291.709 489.688 291.72C489.69 291.731 491.099 291.469 492.834 291.134Z" fill="#AB643C"/>
<path d="M648.02 211.6C649.787 211.6 651.22 210.042 651.22 208.12C651.22 206.198 649.787 204.64 648.02 204.64C646.253 204.64 644.82 206.198 644.82 208.12C644.82 210.042 646.253 211.6 648.02 211.6Z" fill="#659FE4"/>
<path d="M637.82 206.52C639.587 206.52 641.02 204.962 641.02 203.04C641.02 201.118 639.587 199.56 637.82 199.56C636.053 199.56 634.62 201.118 634.62 203.04C634.62 204.962 636.053 206.52 637.82 206.52Z" fill="#C5E9FF"/>
<path d="M369.44 69.9L440.28 107.78C443.68 109.6 446.72 104.42 443.3 102.6L372.48 64.72C369.08 62.9 366.04 68.08 369.46 69.9H369.44Z" fill="#00A99D"/>
<path d="M92.3 400.94C101.14 395.513 109.913 389.98 118.62 384.34C133.48 374.68 139.8 372.82 153.62 361.28L94.32 335.28L33.52 366.24C47.92 373.78 85.12 396.94 92.3 400.94C95.52 399.06 89.12 402.9 92.3 400.94Z" fill="url(#paint2_linear_10_157)"/>
<path d="M123.84 252.86C96.52 252.86 74.36 260.1 74.36 269.04H173.32C173.32 260 151.18 252.86 123.84 252.86Z" fill="#0A1D23"/>
<path d="M74.52 270.28L74.36 269.02C74.3643 269.445 74.418 269.868 74.52 270.28Z" fill="#06489E"/>
<path d="M173.32 269.04L173.12 270.46C173.248 269.997 173.315 269.52 173.32 269.04Z" fill="#06489E"/>
<path d="M123.84 285.2C149.7 285.2 170.92 278.72 173.12 270.44L173.32 269.02H74.36L74.52 270.28C76.48 278.62 97.8 285.2 123.84 285.2Z" fill="#0A1D23"/>
<path d="M142.76 185.52H131.62V300.36H142.76V185.52Z" fill="#25B000"/>
<path d="M137.2 187.88C140.271 187.88 142.76 186.823 142.76 185.52C142.76 184.217 140.271 183.16 137.2 183.16C134.129 183.16 131.64 184.217 131.64 185.52C131.64 186.823 134.129 187.88 137.2 187.88Z" fill="#25B000"/>
<path d="M167.501 207.445L156.587 205.216L133.613 317.735L144.527 319.963L167.501 207.445Z" fill="#FF8F02"/>
<path d="M167.493 207.423C167.754 206.146 165.526 204.612 162.518 203.998C159.509 203.384 156.859 203.921 156.598 205.198C156.337 206.475 158.565 208.008 161.574 208.623C164.582 209.237 167.233 208.7 167.493 207.423Z" fill="#FF8F02"/>
<path d="M110.4 271.56L100.24 277.38C100.033 277.499 99.7873 277.532 99.5566 277.47C99.326 277.408 99.1293 277.257 99.01 277.05C98.8906 276.843 98.8584 276.597 98.9202 276.367C98.9821 276.136 99.1331 275.939 99.34 275.82L109.74 269.82C109.838 269.76 109.947 269.72 110.06 269.7L108.06 258.7L97.8 264.6C97.5931 264.719 97.3473 264.752 97.1166 264.69C96.886 264.628 96.6893 264.477 96.57 264.27C96.4506 264.063 96.4184 263.817 96.4802 263.587C96.5421 263.356 96.6931 263.159 96.9 263.04L107.3 257.04C107.416 256.972 107.546 256.931 107.68 256.92L105.8 246.74L95.8 252.48C95.5931 252.599 95.3473 252.632 95.1166 252.57C94.886 252.508 94.6893 252.357 94.57 252.15C94.4506 251.943 94.4184 251.697 94.4802 251.467C94.5421 251.236 94.6931 251.039 94.9 250.92L105.3 244.92H105.5L103.4 233.58L93.4 239.3C93.1931 239.419 92.9473 239.452 92.7166 239.39C92.486 239.328 92.2893 239.177 92.17 238.97C92.0506 238.763 92.0184 238.517 92.0803 238.287C92.1421 238.056 92.2931 237.859 92.5 237.74L102.9 231.74H103.06L101.06 220.66L90.9 226.48C90.6931 226.599 90.4473 226.632 90.2166 226.57C89.986 226.508 89.7893 226.357 89.67 226.15C89.5506 225.943 89.5184 225.697 89.5803 225.467C89.6421 225.236 89.7931 225.039 90 224.92L100.4 218.92C100.498 218.86 100.607 218.82 100.72 218.8L98.94 209.18L88.76 215C88.5531 215.119 88.3073 215.152 88.0766 215.09C87.846 215.028 87.6493 214.877 87.53 214.67C87.4106 214.463 87.3784 214.217 87.4403 213.987C87.5021 213.756 87.6531 213.559 87.86 213.44L98.26 207.44C98.3643 207.378 98.4799 207.337 98.6 207.32L96.82 197.72L86.66 203.52C86.4531 203.639 86.2073 203.672 85.9766 203.61C85.746 203.548 85.5493 203.397 85.43 203.19C85.3106 202.983 85.2784 202.737 85.3402 202.507C85.4021 202.276 85.5531 202.079 85.76 201.96L96.16 195.96C96.2414 195.963 96.3221 195.976 96.4 196L94.4 185.44L84.4 191.18C84.1931 191.299 83.9473 191.332 83.7166 191.27C83.486 191.208 83.2893 191.057 83.17 190.85C83.0506 190.643 83.0184 190.397 83.0803 190.167C83.1421 189.936 83.2931 189.739 83.5 189.62L93.9 183.62H94.1L93.18 178.7L71.18 192.38C71.18 192.38 86.86 279.68 87.18 279.86C96.34 284.64 113 285.2 113 285.2L110.4 271.56Z" fill="#68E1FD"/>
<path d="M83.48 189.66C83.2731 189.779 83.1221 189.976 83.0602 190.207C82.9984 190.437 83.0306 190.683 83.15 190.89C83.2693 191.097 83.466 191.248 83.6966 191.31C83.9273 191.372 84.1731 191.339 84.38 191.22L94.38 185.48L94 183.62H93.8L83.48 189.66Z" fill="#CA4300"/>
<path d="M85.68 202C85.4731 202.119 85.3221 202.316 85.2603 202.547C85.1984 202.777 85.2306 203.023 85.35 203.23C85.4693 203.437 85.666 203.588 85.8966 203.65C86.1273 203.712 86.3731 203.679 86.58 203.56L96.74 197.76L96.4 196C96.295 196.016 96.1935 196.05 96.1 196.1L85.68 202Z" fill="#CA4300"/>
<path d="M87.78 213.52C87.5731 213.639 87.4221 213.836 87.3602 214.067C87.2983 214.297 87.3306 214.543 87.45 214.75C87.5693 214.957 87.766 215.108 87.9966 215.17C88.2273 215.232 88.4731 215.199 88.68 215.08L98.86 209.26L98.52 207.46C98.3998 207.477 98.2843 207.518 98.18 207.58L87.78 213.52Z" fill="#CA4300"/>
<path d="M90 224.92C89.7931 225.039 89.6421 225.236 89.5803 225.467C89.5184 225.697 89.5507 225.943 89.67 226.15C89.7893 226.357 89.986 226.508 90.2167 226.57C90.4473 226.632 90.6931 226.599 90.9 226.48L101.06 220.66L100.72 218.86C100.607 218.88 100.498 218.92 100.4 218.98L90 224.92Z" fill="#CA4300"/>
<path d="M92.46 237.76C92.2532 237.879 92.1022 238.076 92.0403 238.307C91.9784 238.537 92.0107 238.783 92.13 238.99C92.2494 239.197 92.446 239.348 92.6767 239.41C92.9074 239.472 93.1532 239.439 93.36 239.32L103.36 233.6L103.02 231.74H102.86L92.46 237.76Z" fill="#CA4300"/>
<path d="M94.86 250.98C94.6531 251.099 94.5021 251.296 94.4402 251.527C94.3784 251.757 94.4106 252.003 94.53 252.21C94.6493 252.417 94.846 252.568 95.0766 252.63C95.3073 252.692 95.5531 252.659 95.76 252.54L105.76 246.8L105.42 244.96H105.22L94.86 250.98Z" fill="#CA4300"/>
<path d="M107.3 257.1L96.9 263.1C96.6931 263.219 96.5421 263.416 96.4802 263.647C96.4183 263.877 96.4506 264.123 96.57 264.33C96.6893 264.537 96.886 264.688 97.1166 264.75C97.3473 264.812 97.5931 264.779 97.8 264.66L108 258.76L107.66 256.98C107.533 256.994 107.41 257.035 107.3 257.1Z" fill="#CA4300"/>
<path d="M99.34 275.8C99.1332 275.919 98.9822 276.116 98.9203 276.347C98.8584 276.577 98.8907 276.823 99.01 277.03C99.1294 277.237 99.326 277.388 99.5567 277.45C99.7874 277.512 100.033 277.479 100.24 277.36L110.4 271.54L110.06 269.74C109.947 269.76 109.838 269.8 109.74 269.86L99.34 275.8Z" fill="#CA4300"/>
<path d="M156.58 205.2C156.58 205.2 157.14 208.12 161.56 208.62C165.98 209.12 167.56 207.42 167.56 207.42L166.12 185.42L156.58 205.2Z" fill="#FFD8BD"/>
<path d="M166 185.52L161.6 194.66C162.228 195.343 163.075 195.787 163.994 195.915C164.914 196.042 165.849 195.846 166.64 195.36L166 185.52Z" fill="#653200"/>
<path d="M131.62 184.84C131.62 184.84 132.64 187.64 137.08 187.44C141.52 187.24 142.74 185.32 142.74 185.32L137.88 164L131.62 184.84Z" fill="#FFD8BD"/>
<path d="M137.88 164L134.98 173.72C135.711 174.268 136.608 174.549 137.522 174.516C138.435 174.484 139.31 174.139 140 173.54L137.88 164Z" fill="#653200"/>
<path d="M123.84 285.2C97.84 285.2 76.48 278.62 74.52 270.28C75.82 280.28 84.7 348.92 85.04 349.32C85.04 349.32 89.58 368.68 123.84 368.66C152.98 368.66 161.3 354.02 161.3 354.02L173.12 270.44C170.92 278.72 149.7 285.2 123.84 285.2Z" fill="#173743"/>
<path d="M214.6 106.32L196.86 115.78L245.28 161.38L287.98 174.78L302.18 155.5" fill="#FFE8BC"/>
<path d="M281.44 165.08L297.9 155.7L214.6 106.32L216.56 105.18L302.18 155.5V284L283.5 294.64L276.38 287.2" fill="#68E1FD"/>
<path opacity="0.42" d="M281.44 165.08L297.9 155.7L214.6 106.32L216.56 105.18L302.18 155.5V284L283.5 294.64L276.38 287.2" fill="#1371A5"/>
<path d="M196.86 115.78L283.5 166.28V294.64L195.5 242.04L196.86 115.78Z" fill="#68E1FD"/>
<path d="M280.24 157.86L274.94 161.22V188.58L271.58 184.28L269.22 186.94V157.96L274.18 154.4L280.24 157.86Z" fill="#E85858"/>
<path d="M190.36 143.18L174.54 151.62L217.7 192.26L255.74 204.22L268.42 187.04" fill="#FFE8BC"/>
<path d="M249.92 195.56L264.6 187.22L190.36 143.18L192.1 142.18L268.42 187.04V301.56L251.76 311.04L245.42 304.42" fill="#68E1FD"/>
<path opacity="0.42" d="M249.92 195.56L264.6 187.22L190.36 143.18L192.1 142.18L268.42 187.04V301.56L251.76 311.04L245.42 304.42" fill="#1371A5"/>
<path d="M174.54 151.62L251.76 196.64V311.04L173.32 264.16L174.54 151.62Z" fill="#68E1FD"/>
<path d="M248.84 189.14L244.14 192.12V216.5L241.14 212.68L239.04 215.04V189.22L243.44 186.06L248.84 189.14Z" fill="#E85858"/>
<path d="M283.86 460C283.86 460 282.92 467.32 284 467.76C285.954 468.943 288.262 469.403 290.52 469.06C293.742 468.016 297.021 467.154 300.34 466.48C304.34 465.9 314.7 467.12 316.48 464.36C318.26 461.6 316.48 455.86 316.48 455.86" fill="#FFE0DE"/>
<path d="M316.46 455.9C315.66 451.44 309.06 453.3 305.96 451.28C300.26 447.6 299.96 439.5 300.48 433.44L287.8 429.04L285.3 443.6L283.86 460.08C284.5 460.982 285.35 461.715 286.336 462.217C287.321 462.718 288.414 462.973 289.52 462.96L297.98 461.08C303.36 460.58 317.02 459.02 316.46 455.9Z" fill="#56403D"/>
<path d="M301.54 468.7C301.54 468.7 300.6 476.02 301.68 476.46C303.634 477.643 305.941 478.103 308.2 477.76C311.422 476.716 314.701 475.854 318.02 475.18C322.02 474.6 332.38 475.82 334.16 473.06C335.94 470.3 334.16 464.56 334.16 464.56" fill="#FFE0DE"/>
<path d="M334.14 464.52C333.34 460.06 326.74 461.92 323.64 459.9C317.94 456.22 317.64 448.12 318.16 442.06L305.48 437.66L302.98 452.22L301.54 468.7C302.18 469.602 303.03 470.335 304.016 470.837C305.001 471.338 306.094 471.593 307.2 471.58L315.66 469.7C321.04 469.2 334.7 467.66 334.14 464.52Z" fill="#56403D"/>
<path d="M283.22 420L280 437.1C280 437.1 284.92 442.16 301.5 441.56C318.08 440.96 301.5 411.28 301.5 411.28" fill="#E85B5B"/>
<path d="M261.7 468.66C274.734 468.66 285.3 464.738 285.3 459.9C285.3 455.062 274.734 451.14 261.7 451.14C248.666 451.14 238.1 455.062 238.1 459.9C238.1 464.738 248.666 468.66 261.7 468.66Z" fill="#56403D"/>
<path d="M257.72 420.68L258.64 455.98H265.68V420.68" fill="#56403D"/>
<path d="M307.08 369.74C300.013 371.287 292.887 372.48 285.7 373.32C285.541 373.335 285.386 373.382 285.246 373.457C285.105 373.533 284.98 373.636 284.88 373.76C284.053 371.28 283.347 368.753 282.76 366.18C282.44 364.72 280.2 365.34 280.52 366.8C281.843 372.633 283.808 378.301 286.38 383.7C287.02 385.06 289.02 383.88 288.38 382.52C287.32 380.26 286.38 377.98 285.52 375.64H285.68C293.067 374.773 300.4 373.547 307.68 371.96C309.16 371.66 308.54 369.42 307.08 369.74Z" fill="#008074"/>
<path d="M288 386.12C286.114 389.259 283.691 392.041 280.84 394.34C279.68 395.28 281.34 396.92 282.48 395.98C285.475 393.548 288.02 390.611 290 387.3C290.077 387.169 290.128 387.023 290.15 386.872C290.171 386.721 290.162 386.568 290.124 386.42C290.086 386.272 290.019 386.134 289.928 386.012C289.836 385.89 289.721 385.787 289.59 385.71C289.459 385.633 289.313 385.582 289.162 385.56C289.011 385.539 288.858 385.548 288.71 385.586C288.562 385.624 288.424 385.691 288.302 385.782C288.18 385.874 288.077 385.989 288 386.12Z" fill="#008074"/>
<path d="M273.52 378.56C273.52 378.56 292.02 363.72 304.3 361.96C316.58 360.2 323 373.54 322.12 382.46C321.24 391.38 291.84 396.26 291.84 396.26" fill="#EDBAB9"/>
<path d="M283.38 383.5C285.78 381.28 317.18 366.62 328.24 373.32C339.3 380.02 338.6 384.96 337.2 393.12C335.8 401.28 325.2 445.12 325.2 445.12C317.171 448.204 308.362 448.617 300.08 446.3L303.18 413.68L261.34 390.84" fill="#FF7E7B"/>
<path d="M260.5 331.02C262.16 332.24 276.5 333.96 279.5 340.58C282.5 347.2 287.06 381.26 287.06 381.26C287.06 381.26 278.46 394.08 263.56 389.52C259.14 388.16 236.22 346.26 235.56 341.92C234 330.6 260.5 331.02 260.5 331.02Z" fill="#FCCA4C"/>
<path d="M232.22 404.64C231.496 402.92 230.901 401.148 230.44 399.34C226.92 385.56 224.62 333.82 247.88 335.94C273.4 338.24 264.78 402.14 290.64 400.18C316.5 398.22 327.1 404.94 316.52 414.96C295.38 434.98 245.18 435.44 232.22 404.64Z" fill="#68E1FD"/>
<path d="M269.66 312.56C269.82 313.6 271.66 328.42 267.28 331.76C262.9 335.1 253.04 327.22 252.8 323.3C252.56 319.38 249.22 311.3 253.42 309.18C257.62 307.06 268.48 305.24 269.66 312.56Z" fill="#FFE0DE"/>
<path d="M266 302.16L265.5 301.84C259.88 298.54 250.62 299.36 245.96 304.1C244.706 305.459 243.618 306.963 242.72 308.58C242.038 309.779 241.284 310.934 240.46 312.04C240.361 317.997 242.626 323.75 246.76 328.04C250.783 330.589 255.419 332.005 260.18 332.14C262.02 326.64 259.36 320.38 261.98 314.86C263.251 312.387 265.304 310.404 267.82 309.22C267.93 306.738 267.296 304.28 266 302.16Z" fill="#E0902F"/>
<path d="M264.26 322.8C263.975 321.983 263.521 321.235 262.929 320.605C262.336 319.974 261.618 319.475 260.82 319.14C259.36 318.54 257.36 318.36 256.48 319.96C254.48 323.5 259.32 325.96 261.88 326.96C263.08 327.42 263.6 325.48 262.42 324.96L262 324.8H262.14C262.265 324.808 262.39 324.791 262.508 324.748C262.625 324.705 262.733 324.638 262.823 324.552C262.913 324.465 262.985 324.361 263.032 324.245C263.08 324.129 263.103 324.005 263.1 323.88C263.76 324.12 264.56 323.64 264.26 322.8Z" fill="#FFE0DE"/>
<path d="M303.2 316.64L344.46 342.48L337.62 371.58L299.08 345.26L303.2 316.64Z" fill="#68E1FD"/>
<path d="M299.08 345.24C299.08 345.24 278 355.74 278.26 356C278.52 356.26 315.5 384 315.5 384L337.62 371.64L299.08 345.24Z" fill="#3129A3"/>
<path d="M308 367.46C308 367.46 313.6 362.44 314.44 362.04C315.084 361.917 315.748 361.945 316.38 362.122C317.012 362.299 317.594 362.62 318.08 363.06C318.98 363.9 320.24 363.6 321.24 364.68C322.24 365.76 324.78 369.56 324.06 370.56C323.34 371.56 321.32 369.14 320.64 368.56C319.96 367.98 320.64 370.56 319.68 372.1C318.72 373.64 312.9 375.1 311.34 374.8" fill="#FFE0DE"/>
<path d="M280.44 345.24C280.44 345.24 287.3 368.66 291.32 368.74C295.34 368.82 307.96 364.56 307.96 364.56C307.96 364.56 313.4 370.12 312.78 373.64C312.16 377.16 289.8 389.64 280.46 387.36C271.12 385.08 266.6 352.8 266.8 352.18C267 351.56 280.44 345.24 280.44 345.24Z" fill="#FCCA4C"/>
<path d="M304.32 353.46C303.231 352.638 302.089 351.889 300.9 351.22C299.86 350.74 298.9 350.2 297.98 349.68C297.571 349.42 297.114 349.248 296.636 349.172C296.157 349.096 295.669 349.119 295.2 349.24C293.186 350.726 291.25 352.315 289.4 354C288.28 354.8 287.14 355.58 285.96 356.32C285.754 356.445 285.6 356.64 285.527 356.87C285.454 357.099 285.465 357.347 285.56 357.568C285.655 357.79 285.827 357.97 286.043 358.075C286.26 358.18 286.508 358.203 286.74 358.14C287.32 358 287.88 357.82 288.44 357.62C288.416 357.973 288.416 358.327 288.44 358.68C288.216 359.899 288.444 361.157 289.08 362.22C289.146 362.354 289.242 362.47 289.36 362.56L288.62 362.84C287.42 363.28 287.94 365.22 289.16 364.84L296.04 362.32C297.711 361.887 299.237 361.018 300.46 359.8C300.622 359.645 300.728 359.439 300.759 359.217C300.79 358.994 300.746 358.768 300.633 358.574C300.519 358.379 300.344 358.229 300.135 358.147C299.926 358.065 299.695 358.055 299.48 358.12C298.98 358.24 298.5 358.4 298.02 358.56C299.12 357.06 300.8 355.26 301.38 355.76C302.037 356.257 302.831 356.539 303.655 356.568C304.478 356.597 305.29 356.37 305.98 355.92C307.06 354.84 305.14 354 304.32 353.46Z" fill="#FFE0DE"/>
<path d="M289.36 354.2C289.36 354.2 282.22 355.14 276.88 355.28C274.7 358.24 272.72 361.28 270.88 364.48C271.28 366.48 271.44 368.48 271.88 370.48C271.933 370.865 271.933 371.255 271.88 371.64C281.38 370.08 291.5 366.16 292.32 364.06C293.6 360.7 289.36 354.2 289.36 354.2Z" fill="#FCCA4C"/>
<path d="M250.46 308C250.268 307.176 249.847 306.423 249.246 305.829C248.644 305.234 247.886 304.822 247.06 304.64C242.1 303.32 235.56 306.34 234.08 311.46C233.499 314.202 234.03 317.063 235.556 319.414C237.082 321.765 239.479 323.414 242.22 324C243.592 324.121 244.974 323.958 246.28 323.52C247.586 323.082 248.787 322.379 249.808 321.456C250.83 320.532 251.65 319.407 252.216 318.151C252.782 316.896 253.083 315.537 253.1 314.16C253.091 313.009 252.853 311.872 252.4 310.814C251.947 309.757 251.287 308.8 250.46 308Z" fill="#CC781D"/>
<path d="M420.98 492.96C420.98 493.8 420.32 503.84 421.44 504.96C422.56 506.08 425.44 511.8 429.14 512.06C432.84 512.32 436.16 511.58 436.84 515.48C437.52 519.38 416.2 520.7 416.2 520.7C416.2 520.7 413.96 511.78 413 512.04C412.04 512.3 412 522 412 522L408 522.84L404 520.2L405.6 503.08L408.18 488.54" fill="#3129A3"/>
<path d="M436.96 507.32C436.44 513.32 436.74 521.48 442.44 525.16C445.56 527.16 452.14 525.32 452.94 529.78C453.64 533.68 432.32 535.12 432.32 535.12C432.32 535.12 430.02 526.2 429.06 526.48C428.1 526.76 428.2 536.34 428.2 536.34L424.2 537.22L420.2 534.6L421.7 517.48L424.2 502.92" fill="#3129A3"/>
<path d="M402 485.22L398.86 502.34C398.86 502.34 403.78 507.4 420.36 506.8C436.94 506.2 420.36 476.52 420.36 476.52" fill="#EDBAB9"/>
<path d="M380.52 533.92C393.554 533.92 404.12 529.998 404.12 525.16C404.12 520.322 393.554 516.4 380.52 516.4C367.486 516.4 356.92 520.322 356.92 525.16C356.92 529.998 367.486 533.92 380.52 533.92Z" fill="#56403D"/>
<path d="M376.54 485.92L377.46 521.22H384.5V485.92" fill="#56403D"/>
<path d="M426 434.98C418.933 436.527 411.807 437.72 404.62 438.56C404.461 438.575 404.306 438.622 404.166 438.697C404.025 438.773 403.9 438.876 403.8 439C402.973 436.52 402.267 433.993 401.68 431.42C401.36 429.96 399.12 430.58 399.44 432.04C400.763 437.873 402.728 443.541 405.3 448.94C405.94 450.3 407.94 449.12 407.3 447.76C406.24 445.5 405.3 443.22 404.44 440.88H404.6C411.987 440.013 419.32 438.787 426.6 437.2C428 436.9 427.38 434.66 426 434.98Z" fill="#008074"/>
<path d="M406.82 451.36C404.934 454.499 402.511 457.281 399.66 459.58C398.5 460.52 400.16 462.16 401.3 461.22C404.295 458.788 406.84 455.851 408.82 452.54C408.898 452.409 408.948 452.263 408.97 452.112C408.991 451.961 408.982 451.808 408.944 451.66C408.906 451.513 408.839 451.374 408.748 451.252C408.656 451.13 408.541 451.028 408.41 450.95C408.279 450.873 408.133 450.822 407.982 450.8C407.831 450.779 407.678 450.788 407.53 450.826C407.382 450.864 407.244 450.931 407.122 451.022C407 451.114 406.898 451.229 406.82 451.36Z" fill="#008074"/>
<path d="M392.34 443.8C392.34 443.8 410.84 428.96 423.12 427.2C435.4 425.44 441.82 438.78 440.94 447.7C440.06 456.62 410.66 461.5 410.66 461.5" fill="#EDBAB9"/>
<path d="M402.2 448.74C404.6 446.52 436 431.86 447.06 438.56C458.12 445.26 457.42 450.2 456.02 458.36C454.62 466.52 444.02 510.36 444.02 510.36C435.991 513.444 427.182 513.858 418.9 511.54L422 479L380 456.14" fill="#FFE0DE"/>
<path d="M379.32 396.28C380.98 397.5 395.32 399.22 398.32 405.84C401.32 412.46 405.88 446.52 405.88 446.52C405.88 446.52 397.28 459.34 382.38 454.78C377.96 453.42 355.04 411.52 354.38 407.18C352.8 395.84 379.32 396.28 379.32 396.28Z" fill="#006D29"/>
<path d="M351.04 469.88C350.316 468.16 349.721 466.388 349.26 464.58C345.74 450.8 343.44 399.06 366.7 401.18C392.22 403.48 383.6 467.38 409.46 465.42C435.32 463.46 445.92 470.18 435.34 480.2C414.2 500.22 364 500.68 351.04 469.88Z" fill="#68E1FD"/>
<path d="M388.48 377.8C388.64 378.84 390.48 393.66 386.1 397C381.72 400.34 371.86 392.46 371.62 388.54C371.38 384.62 368.04 376.54 372.24 374.42C376.44 372.3 387.3 370.48 388.48 377.8Z" fill="#FFE0DE"/>
<path d="M384.3 367.1C378.68 363.8 369.42 364.62 364.76 369.36C363.506 370.719 362.418 372.223 361.52 373.84C360.838 375.039 360.084 376.194 359.26 377.3C359.161 383.257 361.426 389.01 365.56 393.3C370.266 396.333 375.838 397.738 381.42 397.3C380.94 395.3 380.52 393.3 380.2 391.3C379.68 388.04 378.9 384.06 381.32 381.3C381.727 380.798 382.268 380.422 382.881 380.216C383.494 380.011 384.153 379.985 384.78 380.14L384.94 380.04L389.74 380.34C390.588 377.848 390.504 375.134 389.504 372.699C388.504 370.265 386.655 368.276 384.3 367.1Z" fill="#E0902F"/>
<path d="M361.42 376C356.08 366.4 339.9 371.12 338.7 381.28C338.206 386.14 339.508 391.014 342.36 394.98C346.2 399.78 346.36 410.48 339.72 418.28C333.08 426.08 338.5 435.46 346.2 438.78C353.9 442.1 370.58 442 370 428.52C369.42 415.04 353.16 397.82 353.4 388.52C353.64 379.22 363 384.52 363 384.52" fill="#E0902F"/>
<path d="M364 376.38C364 375.319 363.579 374.302 362.828 373.552C362.078 372.801 361.061 372.38 360 372.38C358.947 372.405 357.944 372.835 357.2 373.58C356.455 374.324 356.025 375.327 356 376.38C355.857 377.982 355.817 379.592 355.88 381.2C355.88 382.261 356.301 383.278 357.052 384.028C357.802 384.779 358.819 385.2 359.88 385.2C360.941 385.2 361.958 384.779 362.708 384.028C363.459 383.278 363.88 382.261 363.88 381.2C363.817 379.592 363.857 377.982 364 376.38Z" fill="#3129A3"/>
<path d="M383.08 388C382.795 387.183 382.341 386.435 381.749 385.805C381.156 385.174 380.438 384.675 379.64 384.34C378.18 383.74 376.18 383.56 375.3 385.16C373.3 388.7 378.14 391.16 380.7 392.16C381.9 392.62 382.42 390.68 381.24 390.16L380.82 390H380.96C381.085 390.008 381.21 389.991 381.328 389.948C381.445 389.905 381.553 389.838 381.643 389.752C381.733 389.665 381.805 389.561 381.852 389.445C381.9 389.329 381.923 389.205 381.92 389.08C382.58 389.36 383.38 388.88 383.08 388Z" fill="#FFE0DE"/>
<path d="M422.02 381.88L463.28 407.72L456.44 436.82L417.9 410.5L422.02 381.88Z" fill="#68E1FD"/>
<path d="M417.9 410.5C417.9 410.5 396.84 421 397.08 421.28C397.32 421.56 434.32 449.18 434.32 449.18L456.44 436.82L417.9 410.5Z" fill="#3129A3"/>
<path d="M426.76 432.7C426.76 432.7 432.36 427.68 433.2 427.28C433.844 427.157 434.508 427.185 435.14 427.362C435.772 427.539 436.354 427.86 436.84 428.3C437.74 429.14 439 428.84 440 429.92C441 431 443.54 434.8 442.82 435.8C442.1 436.8 440.08 434.38 439.4 433.8C438.72 433.22 439.4 435.8 438.44 437.34C437.48 438.88 431.66 440.34 430.1 440.04" fill="#FFE0DE"/>
<path d="M399.26 410.5C399.26 410.5 406.12 434 410.12 434C414.12 434 426.76 429.82 426.76 429.82C426.76 429.82 432.2 435.38 431.58 438.9C430.96 442.42 408.6 454.9 399.26 452.62C389.92 450.34 385.4 418.06 385.6 417.44C385.8 416.82 399.26 410.5 399.26 410.5Z" fill="#006D29"/>
<path d="M423.14 418.7C422.051 417.878 420.909 417.129 419.72 416.46C418.68 415.98 417.72 415.44 416.8 414.92C416.391 414.66 415.934 414.487 415.456 414.412C414.977 414.336 414.489 414.359 414.02 414.48C411.997 415.991 410.055 417.607 408.2 419.32C407.08 420.12 405.94 420.9 404.76 421.64C404.554 421.765 404.4 421.96 404.327 422.19C404.254 422.419 404.265 422.667 404.36 422.888C404.455 423.11 404.627 423.29 404.843 423.395C405.06 423.499 405.307 423.523 405.54 423.46C406.12 423.32 406.68 423.14 407.24 422.94C407.216 423.293 407.216 423.647 407.24 424C407.016 425.219 407.244 426.477 407.88 427.54C407.946 427.673 408.042 427.79 408.16 427.88L407.42 428.16C406.22 428.6 406.74 430.54 407.96 430.16L414.84 427.64C416.511 427.207 418.037 426.338 419.26 425.12C419.422 424.965 419.528 424.759 419.559 424.537C419.59 424.314 419.546 424.088 419.432 423.894C419.319 423.699 419.144 423.549 418.935 423.467C418.726 423.385 418.495 423.375 418.28 423.44C417.78 423.56 417.3 423.72 416.82 423.88C417.92 422.38 419.6 420.58 420.18 421.08C420.837 421.577 421.631 421.859 422.455 421.888C423.278 421.917 424.09 421.69 424.78 421.24C425.88 420 424 419.2 423.14 418.7Z" fill="#FFE0DE"/>
<path d="M408.18 419.44C408.18 419.44 401.04 420.38 395.7 420.52C393.52 423.48 391.54 426.52 389.7 429.72C390.1 431.72 390.26 433.72 390.7 435.72C390.753 436.105 390.753 436.495 390.7 436.88C400.2 435.32 410.32 431.4 411.14 429.3C412.42 426 408.18 419.44 408.18 419.44Z" fill="#006D29"/>
<path d="M500.4 159.56L489.62 157.46L489.46 157.88C488.835 157.514 488.162 157.238 487.46 157.06C486.428 156.771 485.325 156.884 484.374 157.378C483.424 157.872 482.696 158.709 482.34 159.72C482.033 160.532 482.033 161.428 482.34 162.24C481.997 162.595 481.728 163.015 481.549 163.475C481.37 163.935 481.286 164.426 481.3 164.92C481.296 165.975 481.697 166.992 482.42 167.76C482.08 168.367 481.946 169.068 482.04 169.757C482.134 170.446 482.45 171.086 482.94 171.58C484.237 172.658 485.809 173.351 487.48 173.58C490.32 179.14 497.2 186.48 499.3 185.32C502.04 183.8 506.02 176.62 506.02 176.62L500.4 159.56Z" fill="#E89C89"/>
<path d="M497.6 163.38L448.44 91.66L446.5 92.5L499.4 178.08" fill="#935A4E"/>
<path d="M509.88 175.18C509.88 175.18 508 160 505.16 158.28C502.32 156.56 493.02 152.72 491.28 154.74C489.54 156.76 487.94 160.74 489.62 162.32C491.3 163.9 494.54 160 494.54 160L497.36 162C497.36 162 493.68 165.18 493.9 172.76C494.149 177.481 496.104 181.951 499.4 185.34L509.88 175.18Z" fill="#FFB7A2"/>
<path d="M548.38 246.24L543.64 175.18C541.64 176.92 535.04 217.18 531.76 244.58C537.32 244.88 542.84 245.54 548.38 246.24Z" fill="#27D9D3"/>
<path d="M656.8 174.36L658 172.2C657.589 171.954 657.28 171.568 657.129 171.112C656.979 170.657 656.997 170.163 657.18 169.72C658.2 167.38 659.28 165.08 660.36 162.76C660.294 162.477 660.294 162.183 660.36 161.9C661.774 156.69 662.367 151.292 662.12 145.9C661.66 141.58 660.36 137.44 659.94 133.12C659.78 131.58 661.56 131.12 662.7 131.54C663.684 132.014 664.459 132.832 664.88 133.84C666.217 135.785 667.073 138.02 667.38 140.36C667.478 139.355 667.727 138.37 668.12 137.44C668.413 136.267 668.7 135.093 668.98 133.92C669.391 132.057 670.008 130.246 670.82 128.52C671.64 126.9 673.48 126.16 674.4 127.22C675.8 128.82 674.4 131.72 674.18 133.58C673.96 135.44 673.62 137.08 673.14 138.96C673.86 137.22 675.34 134.18 676.3 132.08C677.04 130.46 679.14 125.18 681.46 125.9C683.78 126.62 682.68 130.22 682.04 131.9L680.22 136.8C679.68 138.26 679.08 140.16 678.46 141.5C678.46 141.5 680.9 137.94 682.12 136.04C683.1 134.54 684.12 132.36 686.34 133.02C687.76 133.46 687.66 135.56 687 136.82C685.24 140.16 683.28 143.36 681.24 146.5C682.56 145.28 683.82 144.02 685.24 142.84C685.537 142.639 685.882 142.522 686.24 142.5C686.598 142.478 686.955 142.553 687.273 142.717C687.592 142.88 687.861 143.127 688.053 143.43C688.244 143.733 688.35 144.082 688.36 144.44C688.377 144.789 688.279 145.133 688.08 145.42L671.2 169.68C669.548 173.538 667.226 177.073 664.34 180.12C662.72 181.82 660.12 179.24 661.76 177.54L661.98 177.28C661.918 177.192 661.865 177.098 661.82 177C661.547 176.937 661.29 176.817 661.066 176.648C660.842 176.479 660.656 176.265 660.52 176.02H660.4C660.223 176.14 660.027 176.228 659.82 176.28C659.53 176.591 659.141 176.791 658.719 176.845C658.298 176.898 657.871 176.803 657.512 176.575C657.153 176.347 656.886 176.001 656.756 175.596C656.626 175.192 656.641 174.754 656.8 174.36Z" fill="#FFB7A2"/>
<path d="M669.8 141.84C671.228 142.975 672.354 144.445 673.076 146.12C673.798 147.795 674.095 149.623 673.94 151.44C673.94 152.26 672.58 152.28 672.64 151.44C672.793 149.791 672.528 148.13 671.871 146.61C671.214 145.089 670.186 143.759 668.88 142.74C668.22 142.24 669.14 141.34 669.8 141.84Z" fill="#42342D"/>
<path d="M671.58 139.86C672.513 136.46 673.293 133.02 673.92 129.54C674.06 128.72 675.32 129.06 675.16 129.88C674.533 133.347 673.753 136.787 672.82 140.2C672.775 140.364 672.666 140.504 672.518 140.589C672.37 140.673 672.194 140.695 672.03 140.65C671.866 140.605 671.726 140.496 671.641 140.348C671.557 140.2 671.535 140.024 671.58 139.86Z" fill="#42342D"/>
<path d="M677.04 142.72C678.788 138.933 680.213 135.006 681.3 130.98C681.345 130.816 681.454 130.676 681.602 130.591C681.75 130.507 681.926 130.485 682.09 130.53C682.254 130.575 682.394 130.684 682.479 130.832C682.563 130.98 682.585 131.156 682.54 131.32C681.418 135.436 679.953 139.45 678.16 143.32C677.8 144.14 676.7 143.48 677.04 142.72Z" fill="#42342D"/>
<path d="M679.06 147.8C681.816 144.621 684.149 141.098 686 137.32C686.36 136.58 687.48 137.32 687.12 137.98C685.22 141.852 682.827 145.462 680 148.72C679.42 149.36 678.5 148.44 679.06 147.8Z" fill="#42342D"/>
<path d="M620.64 301.82C615.906 285.986 609.664 270.642 602 256L550.96 255.52C549.84 262.48 547.84 269.28 546.6 276.34C545.265 283.842 544.768 291.469 545.12 299.08C559.54 307.2 578.48 318.22 592.18 326.1L630.18 347.9C626.96 332.78 624.86 316.76 620.64 301.82Z" fill="#159E97"/>
<path d="M604.64 210.3C603.893 199.1 602.847 187.913 601.5 176.74C595.12 168.84 586.36 162.74 576.74 161.46C567.12 160.18 553.1 162.7 546.54 170.44C540.34 177.82 541.38 188.44 541.76 197.3C541.98 202.7 542.26 208.1 542.56 213.5C545.38 228 549.46 242.22 550.32 257.02C564.5 263.66 585.9 260.26 601.92 255.94C602.86 240.72 604 225.52 604.64 210.3Z" fill="#27D9D3"/>
<path d="M578 162.94C585.657 163.325 593.094 165.637 599.62 169.66C604.58 172.9 607.42 178.14 612.78 180.82C619.98 184.44 630.54 184.4 636.46 178.3C639.655 174.805 642.66 171.139 645.46 167.32C647.68 164.48 656.8 149.68 661.6 151.5C667.22 153.62 675.32 161.5 675.6 166C675.88 170.5 652.16 217.36 631.14 220.66C618.03 222.409 604.725 219.462 593.58 212.34" fill="#27D9D3"/>
<path d="M583.16 154.72V168.14C577.884 169.777 572.236 169.777 566.96 168.14V156" fill="#FCAA97"/>
<path d="M542.66 216C542.66 216 513.44 174.22 509.88 175.22C506.32 176.22 495.04 181.8 495.88 186.32C496.72 190.84 519.76 257.28 551.18 253.42" fill="#27D9D3"/>
<path d="M583.46 160.4C582.407 162.947 580.895 165.279 579 167.28C577 169.54 574.12 168.8 571 168.98L573.12 185.36L587.3 165.36L583.46 160.4Z" fill="#159E97"/>
<path d="M570.92 168.98L564 184.18L562.92 170L567.54 160.8C567.54 160.8 566 168.56 570.92 168.98Z" fill="#159E97"/>
<path d="M555.12 124C554.18 124.24 548.24 164.2 564.82 164.52C581.4 164.84 584.6 151.8 585.1 148.52C585.6 145.24 580.32 135.04 578.7 131.24C577.08 127.44 559.18 122.9 555.12 124Z" fill="#FFB7A2"/>
<path d="M553.06 119.86C558.06 110.84 577.42 108.78 590.88 121.14C594.357 124.8 596.304 129.651 596.32 134.7C595.972 139.698 594.308 144.515 591.499 148.663C588.689 152.811 584.832 156.143 580.32 158.32C580.32 158.32 580.32 158.32 580.32 158.16C580.32 158 580.32 157.66 580.46 157.42C580.6 157.18 580.46 157.06 580.56 156.88C581.98 149.9 581.66 141.1 578.36 134.88C575.06 128.66 568.36 126.88 561.86 125.78C559.754 125.228 557.574 125.012 555.4 125.14L553.26 135.4C551.675 133.127 550.808 130.431 550.773 127.661C550.737 124.89 551.534 122.173 553.06 119.86Z" fill="#EDB033"/>
<path d="M615.416 125.68C615.906 118.65 610.603 112.554 603.573 112.065C596.543 111.576 590.447 116.878 589.958 123.908C589.469 130.939 594.771 137.034 601.802 137.523C608.832 138.012 614.927 132.71 615.416 125.68Z" fill="#EDB033"/>
<path d="M553.18 132.16H568.9L570.36 127.44L571.72 133.3L576.2 133.58C576.2 133.58 576.42 157.72 579.86 158.26C583.3 158.8 588.12 148.42 588.64 142.26C589.16 136.1 585.82 123.12 574.48 119.6C560.2 115.28 553.84 120.98 553.18 132.16Z" fill="#EDB033"/>
<path d="M544 191.88C544.12 190.52 542 190.54 541.9 191.88C539.74 215.3 550 237.38 550.74 260.6C550.74 261.96 552.9 261.96 552.84 260.6C552 237.38 541.78 215.28 544 191.88Z" fill="#159E97"/>
<path d="M608.76 217.16C604.105 216.285 599.789 214.124 596.3 210.92C595.3 210 593.8 211.5 594.8 212.42C598.548 215.884 603.189 218.232 608.2 219.2C609.52 219.46 610 217.42 608.76 217.16Z" fill="#159E97"/>
<path d="M369.44 94.74L440.28 132.62C443.68 134.44 446.72 129.26 443.3 127.44L372.48 89.56C369.08 87.74 366.04 92.92 369.46 94.74H369.44Z" fill="#00A99D"/>
<path d="M369.44 118.72L440.28 156.6C443.68 158.42 446.72 153.24 443.3 151.42L372.48 113.54C369.08 111.72 366.04 116.9 369.46 118.72H369.44Z" fill="#00A99D"/>
<path d="M392.645 189.923C400.142 187.405 403.011 175.807 399.052 164.016C395.093 152.225 385.806 144.708 378.308 147.225C370.811 149.742 367.942 161.341 371.901 173.132C375.86 184.923 385.147 192.44 392.645 189.923Z" fill="#68E1FD"/>
<path d="M432.408 212.188C439.906 209.671 442.774 198.072 438.816 186.282C434.857 174.491 425.57 166.974 418.072 169.491C410.575 172.008 407.706 183.607 411.665 195.398C415.624 207.188 424.911 214.706 432.408 212.188Z" fill="#68E1FD"/>
</g>
<defs>
<filter id="filter0_d_10_157" x="-38.007" y="101.582" width="871.677" height="554.373" filterUnits="userSpaceOnUse" color-interpolation-filters="sRGB">
<feFlood flood-opacity="0" result="BackgroundImageFix"/>
<feColorMatrix in="SourceAlpha" type="matrix" values="0 0 0 0 0 0 0 0 0 0 0 0 0 0 0 0 0 0 127 0" result="hardAlpha"/>
<feOffset dy="25"/>
<feGaussianBlur stdDeviation="25"/>
<feComposite in2="hardAlpha" operator="out"/>
<feColorMatrix type="matrix" values="0 0 0 0 0 0 0 0 0 0 0 0 0 0 0 0 0 0 0.15 0"/>
<feBlend mode="normal" in2="BackgroundImageFix" result="effect1_dropShadow_10_157"/>
<feBlend mode="normal" in="SourceGraphic" in2="effect1_dropShadow_10_157" result="shape"/>
</filter>
<linearGradient id="paint0_linear_10_157" x1="184.74" y1="319.56" x2="239.82" y2="261.88" gradientUnits="userSpaceOnUse">
<stop stop-color="#DD6F31"/>
<stop offset="1" stop-color="#532A12"/>
</linearGradient>
<linearGradient id="paint1_linear_10_157" x1="402.24" y1="434.86" x2="451.68" y2="286.52" gradientUnits="userSpaceOnUse">
<stop stop-color="#DD6F31"/>
<stop offset="1" stop-color="#532A12"/>
</linearGradient>
<linearGradient id="paint2_linear_10_157" x1="73.32" y1="384.96" x2="110.74" y2="345.78" gradientUnits="userSpaceOnUse">
<stop stop-color="#DD6F31"/>
<stop offset="1" stop-color="#532A12"/>
</linearGradient>
<clipPath id="clip0_10_157">
<rect width="800" height="600" fill="white"/>
</clipPath>
</defs>
</svg>
