<svg width="350" height="300" viewBox="0 0 350 300" fill="none" xmlns="http://www.w3.org/2000/svg">
<path d="M0 10C0 4.47716 4.47715 0 10 0H340C345.523 0 350 4.47715 350 10V290C350 295.523 345.523 300 340 300H10C4.47715 300 0 295.523 0 290V10Z" fill="#89CFF3" fill-opacity="0.6"/>
<path d="M60.7097 216.806H286.418" stroke="#263238" stroke-width="0.56" stroke-miterlimit="10"/>
<path d="M60.7097 174.078H286.418" stroke="#263238" stroke-width="0.56" stroke-miterlimit="10"/>
<path d="M60.7097 131.345H286.418" stroke="#263238" stroke-width="0.56" stroke-miterlimit="10"/>
<path d="M60.7097 88.6112H286.418" stroke="#263238" stroke-width="0.56" stroke-miterlimit="10"/>
<path d="M112.028 64.3464V216.913" stroke="#263238" stroke-width="0.56" stroke-miterlimit="10"/>
<path d="M247.694 64.3464V216.913" stroke="#263238" stroke-width="0.56" stroke-miterlimit="10"/>
<path d="M117.062 120.901L115.388 122.67" stroke="#263238" stroke-width="0.56" stroke-miterlimit="10"/>
<path d="M145.673 90.728L119.09 118.767" stroke="#263238" stroke-width="0.56" stroke-miterlimit="10"/>
<path d="M147.33 95.2921L132.395 110.642" stroke="#263238" stroke-width="0.56" stroke-miterlimit="10"/>
<path d="M253.495 120.901L251.821 122.67" stroke="#263238" stroke-width="0.56" stroke-miterlimit="10"/>
<path d="M282.106 90.728L255.522 118.767" stroke="#263238" stroke-width="0.56" stroke-miterlimit="10"/>
<path d="M283.763 95.2921L268.828 110.642" stroke="#263238" stroke-width="0.56" stroke-miterlimit="10"/>
<path d="M57.3216 207.197L55.6472 208.967" stroke="#263238" stroke-width="0.56" stroke-miterlimit="10"/>
<path d="M85.9321 177.018L59.3489 205.063" stroke="#263238" stroke-width="0.56" stroke-miterlimit="10"/>
<path d="M87.5895 181.583L72.6543 196.932" stroke="#263238" stroke-width="0.56" stroke-miterlimit="10"/>
<path d="M79.3128 84.3944L77.6328 86.164" stroke="#263238" stroke-width="0.56" stroke-miterlimit="10"/>
<path d="M107.918 54.2161L81.3345 82.2553" stroke="#263238" stroke-width="0.56" stroke-miterlimit="10"/>
<path d="M109.581 58.78L94.6455 74.1296" stroke="#263238" stroke-width="0.56" stroke-miterlimit="10"/>
<path d="M203.633 84.3944L201.953 86.164" stroke="#263238" stroke-width="0.56" stroke-miterlimit="10"/>
<path d="M232.238 54.2161L205.655 82.2553" stroke="#263238" stroke-width="0.56" stroke-miterlimit="10"/>
<path d="M233.901 58.78L218.966 74.1296" stroke="#263238" stroke-width="0.56" stroke-miterlimit="10"/>
<path d="M165.189 165.292L163.514 167.062" stroke="#263238" stroke-width="0.56" stroke-miterlimit="10"/>
<path d="M193.799 135.119L167.216 163.158" stroke="#263238" stroke-width="0.56" stroke-miterlimit="10"/>
<path d="M195.457 139.683L180.521 155.033" stroke="#263238" stroke-width="0.56" stroke-miterlimit="10"/>
<path d="M196.067 72.7352H220.853C221.554 72.7352 222.226 73.0137 222.722 73.5094C223.218 74.0051 223.496 74.6774 223.496 75.3784V86.8808C223.496 87.5819 223.218 88.2542 222.722 88.7499C222.226 89.2456 221.554 89.524 220.853 89.524H213.41L215.354 94.788L209.233 89.524H196.067C195.72 89.524 195.376 89.4557 195.056 89.3228C194.735 89.19 194.444 88.9953 194.198 88.7499C193.953 88.5044 193.758 88.213 193.625 87.8923C193.492 87.5717 193.424 87.2279 193.424 86.8808V75.3784C193.424 75.0313 193.492 74.6876 193.625 74.3669C193.758 74.0462 193.953 73.7549 194.198 73.5094C194.444 73.264 194.735 73.0693 195.056 72.9364C195.376 72.8036 195.72 72.7352 196.067 72.7352Z" fill="#263238" stroke="#263238" stroke-width="0.56" stroke-linecap="round" stroke-linejoin="round"/>
<path d="M214.665 82.2552C215.46 82.2552 216.104 81.6109 216.104 80.816C216.104 80.0212 215.46 79.3768 214.665 79.3768C213.87 79.3768 213.226 80.0212 213.226 80.816C213.226 81.6109 213.87 82.2552 214.665 82.2552Z" fill="#407BFF"/>
<path d="M207.771 82.2552C208.566 82.2552 209.21 81.6109 209.21 80.816C209.21 80.0212 208.566 79.3768 207.771 79.3768C206.976 79.3768 206.332 80.0212 206.332 80.816C206.332 81.6109 206.976 82.2552 207.771 82.2552Z" fill="#407BFF"/>
<path d="M200.883 82.2552C201.678 82.2552 202.322 81.6109 202.322 80.816C202.322 80.0212 201.678 79.3768 200.883 79.3768C200.088 79.3768 199.444 80.0212 199.444 80.816C199.444 81.6109 200.088 82.2552 200.883 82.2552Z" fill="#407BFF"/>
<path d="M99.7753 166.328L95.4241 175.518H107.761L112.112 166.776L99.7753 166.328Z" fill="#263238" stroke="#263238" stroke-width="0.56" stroke-linecap="round" stroke-linejoin="round"/>
<path d="M126.862 166.328H99.7751L104.132 175.518H131.214L126.862 166.328Z" fill="white" stroke="#263238" stroke-width="0.56" stroke-linecap="round" stroke-linejoin="round"/>
<path d="M78.7249 188.174H72.6208V266.736H78.7249V188.174Z" fill="#A3A3A3" stroke="#263238" stroke-width="0.56" stroke-linecap="round" stroke-linejoin="round"/>
<path d="M274.109 188.375H268.005V266.938H274.109V188.375Z" fill="#A3A3A3" stroke="#263238" stroke-width="0.56" stroke-linecap="round" stroke-linejoin="round"/>
<path d="M276.791 175.266H71.2937V250.983H276.791V175.266Z" fill="#A3A3A3" stroke="#263238" stroke-width="0.56" stroke-linecap="round" stroke-linejoin="round"/>
<path d="M276.791 175.266H71.2937V183.145H276.791V175.266Z" fill="#263238" stroke="#263238" stroke-width="0.56" stroke-linecap="round" stroke-linejoin="round"/>
<path d="M282.027 175.266H66.0632V179.964H282.027V175.266Z" fill="white" stroke="#263238" stroke-width="0.56" stroke-linecap="round" stroke-linejoin="round"/>
<path d="M74.5865 244.638C74.5865 244.638 60.7153 215.093 63.7337 214.236C66.7521 213.379 73.0801 218.089 73.0801 218.089C73.0801 218.089 54.5217 168.4 59.3209 164.57C64.1201 160.739 73.0801 180.412 73.0801 180.412C73.0801 180.412 63.5096 150.01 64.6352 138.446C65.7608 126.882 77.9185 138.02 77.9185 138.02C77.9185 138.02 68.1801 96.4848 77.2185 94.34C86.2568 92.1952 85.9601 141.873 85.9601 141.873C85.9601 141.873 88.928 106.335 92.5512 116.18C96.1744 126.025 88.5585 159.003 88.5585 159.003C88.5585 159.003 93.5256 147.87 96.2864 158.146C99.0472 168.422 90.7985 209.952 90.7985 209.952C90.7985 209.952 97.8096 203.103 98.4648 211.666C99.12 220.228 83.9552 246.8 83.9552 246.8L75.376 247.634L74.5865 244.638Z" fill="#407BFF"/>
<path opacity="0.6" d="M74.5865 244.638C74.5865 244.638 60.7153 215.093 63.7337 214.236C66.7521 213.379 73.0801 218.089 73.0801 218.089C73.0801 218.089 54.5217 168.4 59.3209 164.57C64.1201 160.739 73.0801 180.412 73.0801 180.412C73.0801 180.412 63.5096 150.01 64.6352 138.446C65.7608 126.882 77.9185 138.02 77.9185 138.02C77.9185 138.02 68.1801 96.4848 77.2185 94.34C86.2568 92.1952 85.9601 141.873 85.9601 141.873C85.9601 141.873 88.928 106.335 92.5512 116.18C96.1744 126.025 88.5585 159.003 88.5585 159.003C88.5585 159.003 93.5256 147.87 96.2864 158.146C99.0472 168.422 90.7985 209.952 90.7985 209.952C90.7985 209.952 97.8096 203.103 98.4648 211.666C99.12 220.228 83.9552 246.8 83.9552 246.8L75.376 247.634L74.5865 244.638Z" fill="white"/>
<path d="M77.5601 245.921C77.5601 245.921 65.9961 225.369 68.1409 221.516C70.2857 217.663 76.6921 226.64 76.6921 226.64C76.6921 226.64 62.1321 190.24 64.2769 186.824C66.4217 183.408 73.2369 198.382 73.2369 198.382C73.2369 198.382 70.6721 148.285 74.9505 149.998C79.2289 151.712 79.6881 175.68 79.6881 175.68C79.6881 175.68 77.1177 118.728 80.9761 120.442C84.8345 122.155 84.3977 185.525 84.3977 185.525C84.3977 185.525 92.1201 161.12 93.3913 172.275C94.6625 183.43 83.5409 213.379 83.5409 213.379C83.5409 213.379 94.2481 189.831 95.5305 202.246C96.8129 214.662 86.9681 237.784 86.9681 237.784C86.9681 237.784 90.8209 228.365 90.8209 233.506C90.8209 238.646 87.8249 245.064 87.8249 245.064" stroke="#263238" stroke-width="0.56" stroke-linecap="round" stroke-linejoin="round"/>
<path d="M93.1785 245.758H68.7009V266.938H93.1785V245.758Z" fill="#263238" stroke="#263238" stroke-width="0.56" stroke-miterlimit="10"/>
<path d="M149.733 107.741H181.059C183.807 107.741 186.442 108.832 188.385 110.775C190.328 112.718 191.419 115.353 191.419 118.101V208.546H139.373V118.095C139.374 115.348 140.466 112.715 142.409 110.773C144.352 108.831 146.986 107.741 149.733 107.741Z" fill="#263238" stroke="#263238" stroke-width="0.56" stroke-linecap="round" stroke-linejoin="round"/>
<path d="M197.557 261.472L170.066 253.386V244.386H168.515V211.161H163.632V244.386H162.081V253.145L134.59 261.472V262.788H134.96C134.748 263.176 134.638 263.611 134.641 264.054C134.639 264.518 134.758 264.975 134.987 265.38C135.216 265.785 135.546 266.123 135.944 266.361C136.343 266.6 136.798 266.73 137.262 266.74C137.727 266.749 138.186 266.638 138.594 266.416C139.003 266.194 139.347 265.87 139.592 265.475C139.837 265.08 139.975 264.629 139.992 264.164C140.01 263.7 139.906 263.239 139.692 262.827C139.477 262.414 139.159 262.065 138.768 261.814L138.824 261.758L164.024 258.728V262.357C163.701 262.748 163.497 263.224 163.434 263.727C163.371 264.231 163.453 264.742 163.67 265.201C163.886 265.66 164.229 266.048 164.657 266.319C165.086 266.591 165.583 266.735 166.09 266.735C166.598 266.735 167.095 266.591 167.523 266.319C167.952 266.048 168.294 265.66 168.511 265.201C168.728 264.742 168.809 264.231 168.747 263.727C168.684 263.224 168.479 262.748 168.157 262.357V258.728L193.301 261.752C192.849 262.018 192.485 262.412 192.255 262.883C192.024 263.355 191.938 263.884 192.006 264.404C192.073 264.925 192.293 265.414 192.636 265.81C192.98 266.207 193.432 266.494 193.938 266.636C194.443 266.777 194.979 266.767 195.479 266.607C195.978 266.446 196.42 266.142 196.748 265.733C197.076 265.323 197.277 264.826 197.325 264.304C197.374 263.781 197.267 263.256 197.019 262.794H197.579L197.557 261.472Z" fill="#263238" stroke="#263238" stroke-width="0.56" stroke-linecap="round" stroke-linejoin="round"/>
<path d="M189.806 208.49H141.949C139.697 208.49 137.872 210.316 137.872 212.567V216.672C137.872 218.924 139.697 220.749 141.949 220.749H189.806C192.058 220.749 193.883 218.924 193.883 216.672V212.567C193.883 210.316 192.058 208.49 189.806 208.49Z" fill="white" stroke="#263238" stroke-width="0.56" stroke-linecap="round" stroke-linejoin="round"/>
<path d="M185.797 188.61H146.894V210.243H185.797V188.61Z" fill="white" stroke="#263238" stroke-width="0.56" stroke-linecap="round" stroke-linejoin="round"/>
<path d="M162.781 126.35L156.822 128.685C156.822 128.685 158.978 142.074 161.862 148.985C164.746 155.895 175.252 166.866 175.252 166.866C175.252 166.866 180.695 158.919 182.593 152.614C184.492 146.308 182.509 128.595 182.509 128.595C181.151 127.804 179.656 127.276 178.102 127.038C175.397 126.607 162.781 126.35 162.781 126.35Z" fill="white" stroke="#263238" stroke-width="0.56" stroke-linecap="round" stroke-linejoin="round"/>
<path d="M168.571 135.769L171.326 141.061L166.757 151.146L174.098 162.201L178.59 152.093L173.146 140.865L175.997 135.937L171.937 131.877L168.571 135.769Z" fill="#263238" stroke="#263238" stroke-width="0.56" stroke-linecap="round" stroke-linejoin="round"/>
<path d="M163.649 125.745L161.745 126.266L159.93 129.458L164.41 142.158L171.758 134.559L179.788 142.763C179.788 142.763 180.74 129.978 180.74 128.511C180.74 127.044 179.446 126.523 178.5 126.271C177.554 126.019 163.649 125.745 163.649 125.745Z" fill="white" stroke="#263238" stroke-width="0.56" stroke-linecap="round" stroke-linejoin="round"/>
<path d="M161.745 126.266C161.745 126.266 162.568 137.751 167.345 147.859C169.814 153.067 174.429 160.386 174.429 160.129C174.429 159.871 179.004 146.308 179.178 141.727C179.351 137.146 180.214 127.386 180.214 127.386C180.214 127.386 189.073 130.914 191.19 132.14C194.471 134.038 198.615 134.47 198.531 136.715C198.498 137.533 199.058 142.875 199.769 149.388C199.881 150.424 205.442 159.311 205.559 160.386C206.752 171.234 202.703 175.803 202.502 175.853C202.16 175.937 194.986 175.853 194.986 175.853C194.986 175.853 198.878 193.561 199.466 194.513L200.071 195.459H169.21L167.922 191.573L166.774 195.459H135.05L139.283 176.195H134.618C134.618 176.195 133.409 173.776 135.05 164.704C136.69 155.632 142.223 132.913 142.223 132.14C142.223 131.367 159.93 128.164 161.745 126.266Z" fill="#407BFF" stroke="#263238" stroke-width="0.56" stroke-linecap="round" stroke-linejoin="round"/>
<path d="M168.342 171.15L167.922 191.573" stroke="#263238" stroke-width="0.56" stroke-linecap="round" stroke-linejoin="round"/>
<path d="M180.23 163.41C185.332 158.662 187.578 149.158 187.578 149.158L182.997 147.17L187.404 145.009L183.596 128.769C181.44 126.91 180.174 126.96 180.236 127.369C180.236 127.369 179.374 137.13 179.2 141.71C179.026 146.291 174.44 159.871 174.44 160.129C174.44 160.386 169.361 153.263 167.356 147.859C162.686 135.282 161.79 127.699 161.655 126.249C161.654 126.225 161.646 126.202 161.632 126.182C161.619 126.162 161.6 126.146 161.578 126.136C161.557 126.125 161.533 126.121 161.509 126.123C161.485 126.125 161.462 126.134 161.442 126.148C160.798 126.529 159.202 126.842 158.082 127.828C157.769 130.068 157.366 133.316 157.086 136.889C156.57 143.542 156.57 146.476 156.57 146.476L162.529 147.949L158.295 150.368C158.295 150.368 162.96 155.117 166.846 158.662C170.733 162.206 173.32 163.494 173.32 163.494L168.342 171.15C168.342 171.15 175.134 168.165 180.23 163.41Z" fill="#407BFF" stroke="#263238" stroke-width="0.56" stroke-linecap="round" stroke-linejoin="round"/>
<path d="M162.781 120.044V127.475C162.781 127.475 164.685 133.691 171.422 134.122C178.506 134.582 179.715 127.733 179.715 127.733V121.164C179.715 121.164 166.6 124.362 162.781 120.044Z" fill="white" stroke="#263238" stroke-width="0.56" stroke-linecap="round" stroke-linejoin="round"/>
<path d="M181.356 110.02C181.356 110.02 181.614 106.66 183.686 106.66C185.758 106.66 185.763 110.546 185.242 112.103C184.722 113.66 182.045 114.78 181.182 113.57" fill="white"/>
<path d="M181.356 110.02C181.356 110.02 181.614 106.66 183.686 106.66C185.758 106.66 185.763 110.546 185.242 112.103C184.722 113.66 182.045 114.78 181.182 113.57" stroke="#263238" stroke-width="0.56" stroke-linecap="round" stroke-linejoin="round"/>
<path d="M172.76 93.2032C172.76 93.2032 165.127 92.9232 162.49 94.8832C159.852 96.8432 160.406 102.102 160.406 103.765C160.406 105.428 161.655 119.725 162.49 121.808C163.324 123.891 169.4 127.061 174.698 125.84C179.995 124.619 181.636 120.845 181.91 118.902C182.185 116.958 182.19 102.102 181.91 98.2264C181.63 94.3512 176.501 93.6176 172.76 93.2032Z" fill="white" stroke="#263238" stroke-width="0.56" stroke-linecap="round" stroke-linejoin="round"/>
<path d="M181.989 99.744C181.989 99.128 181.944 98.624 181.91 98.1984C181.636 94.312 176.501 93.6176 172.754 93.2032C172.754 93.2032 165.122 92.9232 162.484 94.8832C159.846 96.8432 160.401 102.102 160.401 103.765C160.401 104.431 160.602 107.125 160.899 110.238C161.033 110.314 161.182 110.357 161.335 110.364C161.489 110.372 161.641 110.343 161.782 110.281C161.922 110.219 162.046 110.125 162.144 110.007C162.241 109.889 162.31 109.749 162.344 109.6C162.904 108.071 162.07 106.688 162.764 104.745C163.458 102.802 163.733 101.553 165.402 100.578C166.448 99.9789 167.565 99.5142 168.728 99.1952C168.728 99.1952 165.262 103.216 172.894 103.076C177.85 102.964 180.645 101.934 181.989 99.744Z" fill="#263238" stroke="#263238" stroke-width="0.56" stroke-linecap="round" stroke-linejoin="round"/>
<path d="M174.272 106.828C174.272 106.828 175.566 112.96 174.356 113.548C173.146 114.136 172.374 114.326 171.332 112.254" stroke="#263238" stroke-width="0.56" stroke-linecap="round" stroke-linejoin="round"/>
<path d="M167.535 113.475C167.535 113.475 167.272 116.331 173.062 115.894" stroke="#263238" stroke-width="0.56" stroke-linecap="round" stroke-linejoin="round"/>
<path d="M169.349 106.957C169.349 107.55 169.097 108.038 168.789 108.038C168.481 108.038 168.229 107.55 168.229 106.957C168.229 106.363 168.481 105.876 168.789 105.876C169.097 105.876 169.349 106.358 169.349 106.957Z" fill="#263238"/>
<path d="M178.03 106.957C178.03 107.55 177.778 108.038 177.47 108.038C177.162 108.038 176.91 107.55 176.91 106.957C176.91 106.363 177.162 105.876 177.47 105.876C177.778 105.876 178.03 106.358 178.03 106.957Z" fill="#263238"/>
<path d="M170.671 109.505H165.978C165.735 109.504 165.5 109.418 165.313 109.263C165.126 109.108 164.999 108.892 164.954 108.654L164.338 105.355H172.11L171.707 108.592C171.675 108.844 171.552 109.075 171.361 109.243C171.17 109.411 170.925 109.504 170.671 109.505Z" stroke="#263238" stroke-width="1.12" stroke-linecap="round" stroke-linejoin="round"/>
<path d="M180.695 109.505H176.002C175.759 109.505 175.523 109.42 175.336 109.264C175.149 109.109 175.022 108.893 174.978 108.654L174.356 105.355H182.134L181.72 108.592C181.688 108.842 181.566 109.072 181.378 109.24C181.19 109.407 180.947 109.501 180.695 109.505Z" stroke="#263238" stroke-width="1.12" stroke-linecap="round" stroke-linejoin="round"/>
<path d="M172.11 105.355H174.356" stroke="#263238" stroke-width="1.12" stroke-linecap="round" stroke-linejoin="round"/>
<path d="M164.338 105.355L160.625 106.996" stroke="#263238" stroke-width="1.12" stroke-linecap="round" stroke-linejoin="round"/>
<path d="M161.487 110.02C161.487 110.02 161.23 106.66 159.152 106.66C157.074 106.66 157.08 110.546 157.601 112.103C158.122 113.66 160.793 114.78 161.661 113.57" fill="white"/>
<path d="M161.487 110.02C161.487 110.02 161.23 106.66 159.152 106.66C157.074 106.66 157.08 110.546 157.601 112.103C158.122 113.66 160.793 114.78 161.661 113.57" stroke="#263238" stroke-width="0.56" stroke-linecap="round" stroke-linejoin="round"/>
<path d="M183.859 153.129C182.691 152.026 181.267 151.232 179.715 150.816C179.213 150.643 178.676 150.6 178.153 150.693C177.458 150.693 174.014 149.449 173.152 149.192C172.29 148.934 171.769 149.797 172.032 150.749C172.295 151.701 174.138 152.507 174.832 152.681C175.526 152.854 175.23 152.871 175.23 152.871C175.23 152.871 176.35 155.637 175.834 156.673C175.319 157.709 173.499 160.033 174.104 161.685C174.709 163.337 175.661 164.189 177.559 164.189C179.458 164.189 180.583 164.273 181.014 164.189C181.446 164.105 189.134 167.901 188.294 167.991C187.454 168.081 187.947 160.302 187.947 160.302L183.859 153.129Z" fill="white" stroke="#263238" stroke-width="0.56" stroke-linecap="round" stroke-linejoin="round"/>
<path d="M166.41 157.71C166.41 157.71 170.47 155.722 172.458 153.734C174.446 151.746 175.134 151.23 175.818 151.057C176.501 150.883 179.273 150.105 179.962 149.5C180.65 148.895 181.171 150.021 180.135 150.883C179.378 151.499 178.568 152.048 177.716 152.524C177.285 152.787 176.854 153.997 176.854 153.997C176.854 153.997 181.087 152.182 182.554 152.614C184.022 153.045 185.478 154.355 185.388 155.128C185.298 155.901 185.03 155.531 184.078 155.442C183.126 155.352 181.776 154.943 180.718 155.374C179.659 155.806 178.478 156.847 178.478 157.278C178.478 157.71 179.687 157.967 180.639 157.883C181.591 157.799 182.28 157.536 183.226 157.71C184.173 157.883 184.957 158.398 185.041 158.919C185.125 159.44 184.699 159.434 183.658 159.524C182.616 159.614 180.807 159.698 180.202 160.129C179.598 160.56 176.49 162.027 177.01 162.548C177.531 163.069 177.839 163.069 178.875 163.069C179.911 163.069 181.02 162.274 181.625 162.318C182.437 162.38 182.874 162.442 182.874 162.442C182.874 162.442 184.313 162.503 184.184 163.069C183.982 163.976 183.501 164.004 181.412 164.099C179.777 164.178 179.34 164.015 177.873 164.362C176.615 164.767 175.307 164.999 173.986 165.051C171.478 165.225 166.986 164.015 166.986 164.015L166.41 157.71Z" fill="white" stroke="#263238" stroke-width="0.56" stroke-linecap="round" stroke-linejoin="round"/>
<path d="M182.711 152.07C182.711 152.07 180.964 150.441 179.962 150.39C178.959 150.34 175.902 153.017 175.482 154.019C175.062 155.022 176.042 154.641 176.854 154.394C177.666 154.148 179.855 153.14 180.606 152.832C181.219 152.53 181.92 152.456 182.583 152.625" fill="white"/>
<path d="M182.711 152.07C182.711 152.07 180.964 150.441 179.962 150.39C178.959 150.34 175.902 153.017 175.482 154.019C175.062 155.022 176.042 154.641 176.854 154.394C177.666 154.148 179.855 153.14 180.606 152.832C181.219 152.53 181.92 152.456 182.583 152.625" stroke="#263238" stroke-width="0.56" stroke-linecap="round" stroke-linejoin="round"/>
<path d="M184.962 155.632C184.962 155.632 182.465 154.383 180.902 155.072C179.34 155.761 177.402 157.138 177.402 157.76C177.402 158.382 177.716 158.264 179.082 158.197C180.449 158.13 182.918 157.732 183.249 157.715C183.744 157.772 184.233 157.871 184.71 158.012" fill="white"/>
<path d="M184.962 155.632C184.962 155.632 182.465 154.383 180.902 155.072C179.34 155.761 177.402 157.138 177.402 157.76C177.402 158.382 177.716 158.264 179.082 158.197C180.449 158.13 182.918 157.732 183.249 157.715C183.744 157.772 184.233 157.871 184.71 158.012" stroke="#263238" stroke-width="0.56" stroke-linecap="round" stroke-linejoin="round"/>
<path d="M149.912 148.122L147.75 159.698C147.75 159.698 166.499 155.979 167.188 156.5C167.877 157.021 168.504 170.757 168.504 170.757C168.504 170.757 144.295 174.985 141.445 175.937C138.594 176.889 135.654 177.058 134.618 176.195C133.582 175.333 133.498 173.171 134.271 168.915C135.044 164.659 142.481 133.758 142.481 133.758" fill="#407BFF"/>
<path d="M149.912 148.122L147.75 159.698C147.75 159.698 166.499 155.979 167.188 156.5C167.877 157.021 168.504 170.757 168.504 170.757C168.504 170.757 144.295 174.985 141.445 175.937C138.594 176.889 135.654 177.058 134.618 176.195C133.582 175.333 133.498 173.171 134.271 168.915C135.044 164.659 142.481 133.758 142.481 133.758" stroke="#263238" stroke-width="0.56" stroke-linecap="round" stroke-linejoin="round"/>
<path d="M193.362 147.344L194.141 160.56L187.919 160.302L187.32 171.256C187.32 171.256 204.467 175.249 205.419 175.736C206.371 176.223 206.198 175.221 207.318 173.574C208.438 171.928 209.395 168.394 209.306 166.854C209.216 165.314 205.677 160.134 205.593 160.375" fill="#407BFF"/>
<path d="M193.362 147.344L194.141 160.56L187.919 160.302L187.32 171.256C187.32 171.256 204.467 175.249 205.419 175.736C206.371 176.223 206.198 175.221 207.318 173.574C208.438 171.928 209.395 168.394 209.306 166.854C209.216 165.314 205.677 160.134 205.593 160.375" stroke="#263238" stroke-width="0.56" stroke-linecap="round" stroke-linejoin="round"/>
<path d="M194.141 160.56H199.931" stroke="#263238" stroke-width="0.56" stroke-linecap="round" stroke-linejoin="round"/>
<path d="M147.75 159.698L140.062 162.374" stroke="#263238" stroke-width="0.56" stroke-linecap="round" stroke-linejoin="round"/>
<path d="M149.587 253.358C149.587 253.358 148.333 258.75 146.58 260.638C144.827 262.525 143.22 263.774 143.321 265.274L143.444 266.781H161.487V262.256C161.487 259.624 160.367 254.976 160.367 253.111C160.367 251.246 149.089 253.234 149.089 253.234" fill="#263238"/>
<path d="M149.587 253.358C149.587 253.358 148.333 258.75 146.58 260.638C144.827 262.525 143.22 263.774 143.321 265.274L143.444 266.781H161.487V262.256C161.487 259.624 160.367 254.976 160.367 253.111C160.367 251.246 149.089 253.234 149.089 253.234" stroke="#263238" stroke-width="0.56" stroke-linecap="round" stroke-linejoin="round"/>
<path d="M143.752 263.762C143.445 264.201 143.294 264.729 143.321 265.263L143.444 266.77H161.487V263.762H143.752Z" fill="#586166" stroke="#263238" stroke-width="0.56" stroke-linecap="round" stroke-linejoin="round"/>
<path d="M165.25 205.494C165.25 205.494 167.003 194.345 163.996 189.21C160.989 184.074 150.461 183.946 144.575 187.451C138.69 190.957 136.399 196.708 138.527 204.1C140.655 211.492 145.578 211.638 145.578 211.638C145.578 211.638 144.323 221.785 144.323 225.794C144.323 229.804 148.585 254.741 148.585 254.741H161C161 254.741 164.998 210.758 165.25 205.494Z" fill="#586166" stroke="#263238" stroke-width="0.56" stroke-linecap="round" stroke-linejoin="round"/>
<path d="M145.578 211.638L146.826 201.362" stroke="#263238" stroke-width="0.56" stroke-linecap="round" stroke-linejoin="round"/>
<path d="M186.06 253.358C186.06 253.358 187.314 258.75 189.067 260.638C190.82 262.525 192.427 263.774 192.326 265.274L192.203 266.781H174.16V262.256C174.16 259.624 175.28 254.976 175.28 253.111C175.28 251.246 186.558 253.234 186.558 253.234" fill="#263238"/>
<path d="M186.06 253.358C186.06 253.358 187.314 258.75 189.067 260.638C190.82 262.525 192.427 263.774 192.326 265.274L192.203 266.781H174.16V262.256C174.16 259.624 175.28 254.976 175.28 253.111C175.28 251.246 186.558 253.234 186.558 253.234" stroke="#263238" stroke-width="0.56" stroke-linecap="round" stroke-linejoin="round"/>
<path d="M191.89 263.762C192.198 264.2 192.351 264.728 192.326 265.263L192.203 266.77H174.16V263.762H191.89Z" fill="#586166" stroke="#263238" stroke-width="0.56" stroke-linecap="round" stroke-linejoin="round"/>
<path d="M170.397 205.494C170.397 205.494 168.644 194.345 171.651 189.21C174.658 184.074 185.186 183.946 191.072 187.451C196.958 190.957 199.298 196.708 197.165 204.1C195.031 211.492 190.07 211.638 190.07 211.638C190.07 211.638 191.324 221.785 191.324 225.794C191.324 229.804 187.062 254.741 187.062 254.741H174.658C174.658 254.741 170.649 210.758 170.397 205.494Z" fill="#586166" stroke="#263238" stroke-width="0.56" stroke-linecap="round" stroke-linejoin="round"/>
<path d="M190.07 211.638L188.815 201.362" stroke="#263238" stroke-width="0.56" stroke-linecap="round" stroke-linejoin="round"/>
<path d="M227.522 102.421C227.522 102.421 225.014 106.559 224.638 108.435C224.263 110.311 224.89 111.067 224.386 112.445C223.882 113.822 221.76 113.828 221.76 115.206C221.76 116.583 223.261 117.838 223.765 118.213C224.269 118.588 223.384 120.218 224.263 122.598C225.142 124.978 225.518 127.985 227.018 127.985C228.572 127.903 230.12 127.735 231.655 127.481L232.406 132.056L242.76 131.115C242.76 131.115 242.637 126.635 245.392 124.726C248.147 122.816 253.602 112.07 250.342 105.053C247.083 98.036 233.408 96.6584 227.522 102.421Z" fill="white" stroke="#263238" stroke-width="0.56" stroke-linecap="round" stroke-linejoin="round"/>
<path d="M224.09 97.224C223.75 98.3252 223.614 99.4788 223.686 100.629C223.842 102.84 224.53 104.98 225.691 106.867C226.968 108.978 230.026 110.322 230.782 112.574C231.028 113.324 231.655 115.329 233.408 115.833C235.161 116.337 234.791 116.331 234.287 119.714C233.783 123.096 235.29 126.478 238.297 127.358C239.713 127.769 241.209 127.824 242.652 127.518C244.095 127.212 245.44 126.555 246.568 125.605C248.948 123.723 253.456 115.956 253.585 108.939C253.803 96.524 241.567 90.4592 230.53 91.9712C229.059 92.117 227.664 92.6931 226.518 93.6273C225.373 94.5615 224.528 95.8125 224.09 97.224Z" fill="#263238" stroke="#263238" stroke-width="0.56" stroke-linecap="round" stroke-linejoin="round"/>
<path d="M237.362 128.847C235.691 128.875 234.046 129.256 232.534 129.967C231.134 130.706 226.268 135.354 225.014 136.127C223.759 136.9 221.379 136.502 222.774 137.13C224.168 137.757 225.154 137.88 227.534 137.006C229.914 136.133 234.926 134.374 236.426 134.374C237.927 134.374 243.443 135.125 243.947 135.254C244.451 135.382 247.705 136.878 247.705 136.878C247.705 136.878 246.075 133.372 244.199 131.619C242.323 129.866 239.994 128.718 237.362 128.847Z" fill="white" stroke="#263238" stroke-width="0.56" stroke-linecap="round" stroke-linejoin="round"/>
<path d="M233.29 113.257C233.025 113.363 232.802 113.554 232.657 113.8C232.512 114.046 232.453 114.334 232.49 114.618C232.703 116.27 232.674 117.946 232.406 119.59C231.907 121.718 234.567 121.718 235.15 118.23C235.53 115.922 234.657 112.77 233.29 113.257Z" fill="white" stroke="#263238" stroke-width="0.56" stroke-linecap="round" stroke-linejoin="round"/>
<path d="M212.358 142.142C212.358 142.142 210.857 142.892 210.734 146.526C210.61 150.161 204.338 175.725 203.963 179.734C203.588 183.744 205.722 186.37 209.35 187.754C212.979 189.137 219.878 191.382 221.11 190.761C222.342 190.139 224.745 177.226 225.618 171.586C226.492 165.947 215.97 146.386 215.471 145.653C214.973 144.919 213.237 142.27 212.358 142.142Z" fill="white" stroke="#263238" stroke-width="0.56" stroke-linecap="round" stroke-linejoin="round"/>
<path d="M220.506 172.09L213.612 182.366" stroke="#263238" stroke-width="0.56" stroke-linecap="round" stroke-linejoin="round"/>
<path d="M233.8 217.708L242.502 265.868C242.53 266.019 242.59 266.162 242.677 266.288C242.764 266.414 242.877 266.519 243.009 266.598C243.14 266.677 243.287 266.727 243.439 266.745C243.591 266.763 243.745 266.749 243.891 266.702C244.131 266.624 244.336 266.464 244.471 266.25C244.606 266.037 244.663 265.783 244.63 265.532L238.207 216.666L233.8 217.708Z" fill="white" stroke="#263238" stroke-width="0.56" stroke-linecap="round" stroke-linejoin="round"/>
<path d="M224.14 207.186C224.14 207.186 220.881 251.162 220.881 252.417C220.881 253.671 217.521 266.826 217.521 266.826H226.52C226.52 266.826 227.394 265.073 227.394 261.438C227.394 257.804 227.774 250.037 227.774 249.286C227.774 248.536 237.798 209.689 237.798 209.689C237.798 209.689 237.294 205.802 232.406 203.529C227.517 201.255 224.89 206.183 224.14 207.186Z" fill="white" stroke="#263238" stroke-width="0.56" stroke-linecap="round" stroke-linejoin="round"/>
<path d="M227.394 261.438C227.394 258.118 227.707 251.358 227.763 249.634C223.591 247.293 221.004 250.412 221.004 250.412C220.931 251.532 220.886 252.26 220.886 252.406C220.886 253.66 217.526 266.814 217.526 266.814H226.52C226.52 266.814 227.394 265.073 227.394 261.438Z" fill="#263238" stroke="#263238" stroke-width="0.56" stroke-linecap="round" stroke-linejoin="round"/>
<path d="M226.52 266.826C226.52 266.826 227.394 265.073 227.394 261.438C227.394 260.089 227.45 258.162 227.511 256.242C226.643 255.228 224.767 253.677 222.762 256.051C221.883 257.087 219.57 263.628 218.467 266.826H226.52Z" fill="#4F4F4F" stroke="#263238" stroke-width="0.56" stroke-linecap="round" stroke-linejoin="round"/>
<path d="M222.762 256.051L223.513 266.826H225.753L227.64 255.799C227.64 255.799 225.142 252.792 222.762 256.051Z" fill="#263238" stroke="#263238" stroke-width="0.56" stroke-linecap="round" stroke-linejoin="round"/>
<path d="M205.845 201.44C205.845 201.44 201.958 205.702 201.583 209.336C201.208 212.97 214.614 251.437 214.614 251.437C214.283 253.053 213.551 254.561 212.486 255.822C210.605 258.202 207.973 261.584 207.598 263.841C207.222 266.098 207.598 266.848 207.598 266.848H216.496C216.496 266.848 219.626 258.829 220.881 256.824C222.135 254.819 221.379 250.933 221.004 249.18C220.629 247.427 217.246 206.956 217.246 206.956C217.246 206.956 214.614 198.41 205.845 201.44Z" fill="white" stroke="#263238" stroke-width="0.56" stroke-linecap="round" stroke-linejoin="round"/>
<path d="M220.881 256.802C221.967 255.06 221.547 251.907 221.166 249.958C220.698 249.569 220.146 249.294 219.553 249.154C218.96 249.015 218.343 249.017 217.75 249.158C215.118 249.785 214.614 251.398 214.614 251.398C214.283 253.014 213.552 254.522 212.486 255.782C210.605 258.162 207.973 261.545 207.598 263.802C207.222 266.058 207.598 266.809 207.598 266.809H216.496C216.496 266.809 219.626 258.806 220.881 256.802Z" fill="#263238" stroke="#263238" stroke-width="0.56" stroke-linecap="round" stroke-linejoin="round"/>
<path d="M211.921 266.826H216.496C216.496 266.826 219.296 259.691 220.651 257.199C219.979 256.583 217.946 255.01 215.992 256.55C213.612 258.431 213.36 263.068 212.738 264.821C212.441 265.644 212.145 266.327 211.921 266.826Z" fill="#4F4F4F" stroke="#263238" stroke-width="0.56" stroke-linecap="round" stroke-linejoin="round"/>
<path d="M215.992 256.55L216.496 266.826H218.12L220.875 256.802C220.875 256.802 218.372 254.298 215.992 256.55Z" fill="#263238" stroke="#263238" stroke-width="0.56" stroke-linecap="round" stroke-linejoin="round"/>
<path d="M215.958 159.126C218.042 166.16 219.912 179.348 219.912 180.58C219.912 182.82 213.36 195.773 213.36 195.773C213.36 195.773 206.08 199.53 204.338 202.162C203.53 203.326 203.056 204.688 202.968 206.102C202.88 207.516 203.182 208.927 203.84 210.182C205.094 212.685 206.97 213.816 211.12 214.566C215.27 215.317 253.719 214.566 253.719 214.566C253.719 214.566 257.729 209.678 255.847 201.91C254.974 198.293 254.022 195.151 252.969 190.761C252.969 190.761 257.102 190.884 260.109 188.375C263.116 185.866 263.245 181.986 263.245 179.107C263.245 176.229 261.352 152.16 261.352 149.786C261.352 147.411 261.24 144.398 259 142.64C256.76 140.882 251.451 138.16 246.68 135.629C242.928 133.652 240.167 133.999 237.16 133.999C234.153 133.999 230.518 136.239 230.518 136.239C230.518 136.239 213.853 140.624 212.598 141.374C211.344 142.125 211.792 142.886 212.251 145.653" fill="white"/>
<path d="M215.958 159.126C218.042 166.16 219.912 179.348 219.912 180.58C219.912 182.82 213.36 195.773 213.36 195.773C213.36 195.773 206.08 199.53 204.338 202.162C203.53 203.326 203.056 204.688 202.968 206.102C202.88 207.516 203.182 208.927 203.84 210.182C205.094 212.685 206.97 213.816 211.12 214.566C215.27 215.317 253.719 214.566 253.719 214.566C253.719 214.566 257.729 209.678 255.847 201.91C254.974 198.293 254.022 195.151 252.969 190.761C252.969 190.761 257.102 190.884 260.109 188.375C263.116 185.866 263.245 181.986 263.245 179.107C263.245 176.229 261.352 152.16 261.352 149.786C261.352 147.411 261.24 144.398 259 142.64C256.76 140.882 251.451 138.16 246.68 135.629C242.928 133.652 240.167 133.999 237.16 133.999C234.153 133.999 230.518 136.239 230.518 136.239C230.518 136.239 213.853 140.624 212.598 141.374C211.344 142.125 211.792 142.886 212.251 145.653" stroke="#263238" stroke-width="0.56" stroke-linecap="round" stroke-linejoin="round"/>
<path d="M254.962 149.158C254.962 149.158 249.833 178.962 249.833 180.591C249.833 182.221 252.958 190.761 252.958 190.761" stroke="#263238" stroke-width="0.56" stroke-linecap="round" stroke-linejoin="round"/>
<path d="M219.643 181.84C218.411 185.799 213.36 195.773 213.36 195.773C213.36 195.773 206.08 199.53 204.338 202.162C203.53 203.326 203.056 204.688 202.968 206.102C202.88 207.516 203.182 208.927 203.84 210.182C205.094 212.685 206.97 213.816 211.12 214.566C215.27 215.317 253.719 214.566 253.719 214.566C253.719 214.566 257.729 209.678 255.847 201.91C254.974 198.293 254.022 195.151 252.969 190.761L249.833 181.84H219.643Z" fill="#263238" stroke="#263238" stroke-width="0.56" stroke-miterlimit="10"/>
<path d="M208.852 217.198L202.373 265.722C202.353 265.874 202.365 266.029 202.41 266.176C202.455 266.322 202.53 266.458 202.632 266.573C202.733 266.688 202.858 266.78 202.997 266.843C203.137 266.906 203.289 266.938 203.442 266.938C203.694 266.939 203.938 266.852 204.132 266.691C204.325 266.53 204.456 266.306 204.501 266.058L213.36 217.574L208.852 217.198Z" fill="white" stroke="#263238" stroke-width="0.56" stroke-linecap="round" stroke-linejoin="round"/>
<path d="M251.72 217.198L258.199 265.722C258.219 265.874 258.206 266.029 258.162 266.176C258.117 266.322 258.042 266.458 257.94 266.573C257.839 266.688 257.714 266.78 257.574 266.843C257.435 266.906 257.283 266.938 257.13 266.938C256.878 266.939 256.634 266.852 256.44 266.691C256.247 266.53 256.116 266.306 256.071 266.058L247.24 217.574L251.72 217.198Z" fill="white" stroke="#263238" stroke-width="0.56" stroke-linecap="round" stroke-linejoin="round"/>
<path d="M226.52 217.198L220.041 265.722C220.021 265.874 220.033 266.029 220.078 266.176C220.123 266.322 220.198 266.458 220.3 266.573C220.401 266.688 220.526 266.78 220.665 266.843C220.805 266.906 220.957 266.938 221.11 266.938C221.362 266.938 221.605 266.85 221.799 266.689C221.992 266.529 222.123 266.306 222.169 266.058L231.028 217.574L226.52 217.198Z" fill="white" stroke="#263238" stroke-width="0.56" stroke-linecap="round" stroke-linejoin="round"/>
<path d="M258.72 161.68H218.249C218.249 161.68 217.129 171.2 217.75 179.348C218.372 187.496 219.755 197.89 219.503 204.548C219.251 211.206 215.493 214.824 215.493 214.824H206.472C206.258 214.823 206.046 214.865 205.849 214.946C205.651 215.027 205.471 215.147 205.32 215.298C205.169 215.448 205.048 215.628 204.966 215.825C204.884 216.023 204.842 216.234 204.842 216.448C204.842 216.662 204.884 216.874 204.966 217.072C205.048 217.269 205.168 217.449 205.32 217.6C205.471 217.752 205.651 217.872 205.848 217.953C206.046 218.035 206.258 218.078 206.472 218.078H255.192C258.145 213.314 259.586 207.767 259.325 202.168C258.949 192.648 255.192 181.868 256.441 174.224C257.689 166.58 258.72 161.68 258.72 161.68Z" fill="#407BFF" stroke="#263238" stroke-width="0.56" stroke-linecap="round" stroke-linejoin="round"/>
<path d="M248.007 103.49C248.007 103.49 245.504 104.493 245.375 106.85C245.246 109.208 244.502 117.373 241.494 122.01C238.487 126.646 241.494 134.038 248.886 135.164C256.278 136.29 262.293 125.14 259.526 113.615C256.76 102.09 250.516 102.488 248.007 103.49Z" fill="#263238" stroke="#263238" stroke-width="0.56" stroke-linecap="round" stroke-linejoin="round"/>
<path d="M47.8799 266.938H292.785" stroke="#263238" stroke-width="0.56" stroke-linecap="round" stroke-linejoin="round"/>
</svg>
