<svg width="350" height="300" viewBox="0 0 350 300" fill="none" xmlns="http://www.w3.org/2000/svg">
<path d="M0 10C0 4.47716 4.47715 0 10 0H340C345.523 0 350 4.47715 350 10V290C350 295.523 345.523 300 340 300H10C4.47715 300 0 295.523 0 290V10Z" fill="#89CFF3" fill-opacity="0.6"/>
<g opacity="0.2">
<path d="M302.422 53.1016H195.597L191.805 62.1904H302.422V53.1016Z" stroke="black" stroke-width="0.56" stroke-linejoin="round"/>
<path d="M302.422 62.1904H195.597L191.805 71.2848H302.422V62.1904Z" stroke="black" stroke-width="0.56" stroke-linejoin="round"/>
<path d="M302.422 71.2849H195.597L191.805 80.3737H302.422V71.2849Z" stroke="black" stroke-width="0.56" stroke-linejoin="round"/>
<path d="M302.422 80.3735H195.597L191.805 89.4679H302.422V80.3735Z" stroke="black" stroke-width="0.56" stroke-linejoin="round"/>
<path d="M302.422 89.468H195.597L191.805 98.5568H302.422V89.468Z" stroke="black" stroke-width="0.56" stroke-linejoin="round"/>
<path d="M302.422 98.5569H195.597L191.805 107.651H302.422V98.5569Z" stroke="black" stroke-width="0.56" stroke-linejoin="round"/>
<path d="M302.422 107.651H195.597L191.805 116.74H302.422V107.651Z" stroke="black" stroke-width="0.56" stroke-linejoin="round"/>
<path d="M302.422 116.74H195.597L191.805 125.834H302.422V116.74Z" stroke="black" stroke-width="0.56" stroke-linejoin="round"/>
<path d="M302.422 125.834H195.597L191.805 134.923H302.422V125.834Z" stroke="black" stroke-width="0.56" stroke-linejoin="round"/>
<path d="M302.422 134.923H195.597L191.805 144.018H302.422V134.923Z" stroke="black" stroke-width="0.56" stroke-linejoin="round"/>
<path d="M302.422 144.018H195.597L191.805 153.106H302.422V144.018Z" stroke="black" stroke-width="0.56" stroke-linejoin="round"/>
<path d="M302.422 153.106H195.597L191.805 162.201H302.422V153.106Z" stroke="black" stroke-width="0.56" stroke-linejoin="round"/>
<path d="M302.422 162.201H195.597L191.805 171.29H302.422V162.201Z" stroke="black" stroke-width="0.56" stroke-linejoin="round"/>
<path d="M302.422 171.29H195.597L191.805 180.384H302.422V171.29Z" stroke="black" stroke-width="0.56" stroke-linejoin="round"/>
<path d="M302.422 180.384H195.597L191.805 189.473H302.422V180.384Z" stroke="black" stroke-width="0.56" stroke-linejoin="round"/>
<path d="M302.422 189.473H195.597L191.805 198.567H302.422V189.473Z" stroke="black" stroke-width="0.56" stroke-linejoin="round"/>
<path d="M304.69 50.072H190.669V201.597H304.69V50.072Z" stroke="black" stroke-width="0.56" stroke-linejoin="round"/>
</g>
<g opacity="0.2">
<path d="M94.1975 256.247H55.8823V276.469H94.1975V256.247Z" stroke="black" stroke-width="0.56" stroke-linejoin="round"/>
<path d="M78.1479 263.992H71.9263V267.005H78.1479V263.992Z" stroke="black" stroke-width="0.56" stroke-linejoin="round"/>
<path d="M96.1575 229.967H53.9167V281.705H96.1575V229.967Z" stroke="black" stroke-width="0.56" stroke-linejoin="round"/>
<path d="M94.1975 232.587H55.8823V252.809H94.1975V232.587Z" stroke="black" stroke-width="0.56" stroke-linejoin="round"/>
<path d="M78.1479 240.332H71.9263V243.345H78.1479V240.332Z" stroke="black" stroke-width="0.56" stroke-linejoin="round"/>
<path d="M79.24 226.69H64.176V229.966H79.24V226.69Z" stroke="black" stroke-width="0.56" stroke-linejoin="round"/>
<path d="M72.3632 216.543H69.7424V226.696H72.3632V216.543Z" stroke="black" stroke-width="0.56" stroke-linejoin="round"/>
<path d="M84.8064 192.962H56.644V216.538H84.8064V192.962Z" stroke="black" stroke-width="0.56" stroke-linejoin="round"/>
</g>
<g opacity="0.2">
<path d="M252.784 257.21V213.978C252.785 213.162 252.624 212.353 252.312 211.599C252 210.844 251.542 210.159 250.965 209.581C250.388 209.004 249.702 208.546 248.948 208.234C248.193 207.922 247.384 207.762 246.568 207.762H189.773V257.642" stroke="black" stroke-width="0.56" stroke-linejoin="round"/>
<path d="M190.249 207.762H132.395C131.579 207.762 130.771 207.923 130.017 208.236C129.263 208.548 128.579 209.006 128.002 209.583C127.425 210.161 126.968 210.846 126.656 211.6C126.344 212.354 126.184 213.162 126.185 213.978V257.21" stroke="black" stroke-width="0.56" stroke-linejoin="round"/>
<path d="M258.395 261.36V275.92H189.801V257.21H254.262C254.807 257.21 255.346 257.317 255.849 257.525C256.352 257.734 256.808 258.04 257.192 258.425C257.576 258.811 257.881 259.269 258.087 259.772C258.293 260.276 258.398 260.816 258.395 261.36Z" stroke="black" stroke-width="0.56" stroke-linejoin="round"/>
<path d="M190.321 257.21H124.701C124.158 257.21 123.621 257.317 123.12 257.525C122.619 257.733 122.164 258.037 121.78 258.421C121.397 258.805 121.093 259.261 120.886 259.762C120.679 260.263 120.573 260.801 120.573 261.343V275.903H190.321" stroke="black" stroke-width="0.56" stroke-linejoin="round"/>
<path d="M120.573 281.99V275.881H258.513V281.99" stroke="black" stroke-width="0.56" stroke-linejoin="round"/>
<path d="M126.185 232.403C125.796 231.997 125.329 231.675 124.812 231.455C124.295 231.234 123.739 231.12 123.178 231.12H110.684C110.137 231.119 109.595 231.226 109.09 231.435C108.585 231.644 108.125 231.95 107.738 232.337C107.351 232.723 107.044 233.182 106.835 233.687C106.625 234.193 106.518 234.734 106.518 235.281V281.694" stroke="black" stroke-width="0.56" stroke-linejoin="round"/>
<path d="M271.001 281.391V235.281C271.001 234.177 270.562 233.119 269.782 232.339C269.002 231.559 267.943 231.12 266.84 231.12H254.346C253.81 231.118 253.279 231.222 252.784 231.428" stroke="black" stroke-width="0.56" stroke-linejoin="round"/>
</g>
<path d="M280.538 49.1537V184.114C280.538 185.747 279.889 187.314 278.733 188.469C277.578 189.625 276.011 190.274 274.378 190.274H79.4976C77.8639 190.274 76.2971 189.625 75.1419 188.469C73.9866 187.314 73.3376 185.747 73.3376 184.114V49.1537C73.3376 47.6685 73.9276 46.2441 74.9778 45.1939C76.0281 44.1437 77.4524 43.5537 78.9376 43.5537H274.938C276.423 43.5537 277.847 44.1437 278.897 45.1939C279.948 46.2441 280.538 47.6685 280.538 49.1537Z" fill="#407BFF" stroke="#263238" stroke-width="0.56" stroke-miterlimit="10"/>
<path d="M280.538 49.1537V60.8017H73.3376V49.1537C73.3376 47.6685 73.9276 46.2441 74.9778 45.1939C76.0281 44.1437 77.4524 43.5537 78.9376 43.5537H274.938C276.423 43.5537 277.847 44.1437 278.897 45.1939C279.948 46.2441 280.538 47.6685 280.538 49.1537Z" fill="#C9C9C9" stroke="#263238" stroke-width="0.56" stroke-miterlimit="10"/>
<path d="M206.875 58.5449H96.3426C95.8445 58.5435 95.3673 58.3446 95.0157 57.9919C94.664 57.6391 94.4666 57.1614 94.4666 56.6633C94.4666 56.1653 94.664 55.6875 95.0157 55.3348C95.3673 54.9821 95.8445 54.7832 96.3426 54.7817H206.875C207.374 54.7817 207.853 54.98 208.206 55.3328C208.559 55.6857 208.757 56.1643 208.757 56.6633C208.757 57.1624 208.559 57.641 208.206 57.9938C207.853 58.3467 207.374 58.5449 206.875 58.5449Z" fill="white" stroke="#263238" stroke-width="0.56" stroke-miterlimit="10"/>
<path d="M270.038 55.157H277.183" stroke="#263238" stroke-width="0.56" stroke-miterlimit="10"/>
<path d="M270.038 56.6633H277.183" stroke="#263238" stroke-width="0.56" stroke-miterlimit="10"/>
<path d="M270.038 58.1697H277.183" stroke="#263238" stroke-width="0.56" stroke-miterlimit="10"/>
<path d="M280.538 49.1537V52.5137H73.3376V49.1537C73.3376 47.6685 73.9276 46.2441 74.9778 45.1939C76.0281 44.1437 77.4524 43.5537 78.9376 43.5537H274.938C276.423 43.5537 277.847 44.1437 278.897 45.1939C279.948 46.2441 280.538 47.6685 280.538 49.1537Z" fill="#263238" stroke="#263238" stroke-width="0.56" stroke-miterlimit="10"/>
<path d="M259.896 48.2186C259.903 47.8781 259.808 47.5433 259.623 47.257C259.439 46.9707 259.173 46.7459 258.861 46.6112C258.548 46.4765 258.202 46.438 257.867 46.5008C257.532 46.5635 257.224 46.7245 256.981 46.9634C256.738 47.2022 256.572 47.5079 256.504 47.8416C256.436 48.1753 256.468 48.5217 256.598 48.8367C256.727 49.1517 256.948 49.4209 257.231 49.6101C257.514 49.7992 257.848 49.8997 258.188 49.8986C258.411 49.9023 258.633 49.8616 258.84 49.7789C259.047 49.6961 259.235 49.573 259.394 49.4166C259.553 49.2602 259.679 49.0737 259.766 48.8681C259.852 48.6624 259.896 48.4416 259.896 48.2186Z" fill="white" stroke="#263238" stroke-width="0.56" stroke-miterlimit="10"/>
<path d="M266.974 48.2184C266.98 47.8795 266.884 47.5465 266.7 47.262C266.516 46.9775 266.251 46.7542 265.94 46.6206C265.628 46.487 265.284 46.4492 264.951 46.5119C264.618 46.5746 264.311 46.735 264.069 46.9727C263.827 47.2105 263.662 47.5147 263.594 47.8468C263.525 48.1788 263.557 48.5237 263.686 48.8374C263.814 49.1511 264.033 49.4196 264.315 49.6085C264.596 49.7975 264.927 49.8984 265.266 49.8984C265.489 49.9021 265.711 49.8614 265.918 49.7787C266.125 49.6959 266.313 49.5727 266.472 49.4164C266.631 49.26 266.758 49.0735 266.844 48.8679C266.93 48.6622 266.974 48.4414 266.974 48.2184Z" fill="white" stroke="#263238" stroke-width="0.56" stroke-miterlimit="10"/>
<path d="M274.053 48.2184C274.058 47.8795 273.963 47.5465 273.779 47.262C273.594 46.9775 273.33 46.7542 273.018 46.6206C272.706 46.487 272.362 46.4492 272.029 46.5119C271.696 46.5746 271.389 46.735 271.147 46.9727C270.906 47.2105 270.74 47.5147 270.672 47.8468C270.604 48.1788 270.636 48.5237 270.764 48.8374C270.893 49.1511 271.112 49.4196 271.393 49.6085C271.674 49.7975 272.006 49.8984 272.345 49.8984C272.568 49.9021 272.789 49.8614 272.996 49.7787C273.203 49.6959 273.392 49.5727 273.551 49.4164C273.71 49.26 273.836 49.0735 273.922 48.8679C274.008 48.6622 274.053 48.4414 274.053 48.2184Z" fill="white" stroke="#263238" stroke-width="0.56" stroke-miterlimit="10"/>
<path d="M269.371 66.553H85.0696V181.891H269.371V66.553Z" fill="white" stroke="#263238" stroke-width="0.56" stroke-miterlimit="10"/>
<path d="M264.667 71.3298H89.7681V177.103H264.667V71.3298Z" stroke="#407BFF" stroke-width="2.8" stroke-miterlimit="10"/>
<path d="M260.198 76.6218H94.2368V171.822H260.198V76.6218Z" stroke="#407BFF" stroke-width="0.56" stroke-miterlimit="10"/>
<path d="M149.464 87.7601V88.7401H148.31V87.6985C148.31 86.7185 147.924 86.1305 147.039 86.1305C146.154 86.1305 145.768 86.6905 145.768 87.6985V93.4441C145.768 94.4185 146.171 95.0121 147.039 95.0121C147.907 95.0121 148.31 94.4185 148.31 93.4441V92.0273H149.464V93.3601C149.464 95.0065 148.686 96.0929 147.006 96.0929C145.326 96.0929 144.57 95.0065 144.57 93.3601V87.7601C144.57 86.1137 145.348 85.0273 147.006 85.0273C148.663 85.0273 149.464 86.1081 149.464 87.7601Z" fill="#263238"/>
<path d="M154.431 89.9442V91.0306H151.771V94.8946H155.036V96.0146H150.556V85.1282H155.036V86.2482H151.771V89.961L154.431 89.9442Z" fill="#263238"/>
<path d="M158.575 85.1282C160.283 85.1282 160.994 86.0018 160.994 87.6146V88.4994C160.994 89.6978 160.574 90.4426 159.645 90.7394C160.636 91.0362 161.011 91.8594 161.011 93.0074V94.6874C160.976 95.1336 161.051 95.5818 161.23 95.9922H160.003C159.831 95.5761 159.762 95.1247 159.802 94.6762V92.9682C159.802 91.7362 159.242 91.3498 158.217 91.3498H157.36V95.9922H156.15V85.1282H158.575ZM158.262 90.2522C159.225 90.2522 159.802 89.9442 159.802 88.7626V87.721C159.802 86.7466 159.443 86.2314 158.542 86.2314H157.36V90.2522H158.262Z" fill="#263238"/>
<path d="M163.851 95.9977V86.2313H161.851V85.1113H167.065V86.2313H165.066V95.9977H163.851Z" fill="#263238"/>
<path d="M169.114 85.1282V95.9978H167.905V85.1282H169.114Z" fill="#263238"/>
<path d="M174.07 90.1906V91.3106H171.567V96.0146H170.358V85.1282H174.675V86.2482H171.567V90.2074L174.07 90.1906Z" fill="#263238"/>
<path d="M176.848 85.1282V95.9978H175.633V85.1282H176.848Z" fill="#263238"/>
<path d="M182.885 87.7601V88.7401H181.72V87.6985C181.72 86.7185 181.334 86.1305 180.449 86.1305C179.564 86.1305 179.172 86.6905 179.172 87.6985V93.4441C179.172 94.4185 179.575 95.0121 180.449 95.0121C181.322 95.0121 181.72 94.4185 181.72 93.4441V92.0273H182.868V93.3601C182.868 95.0065 182.095 96.0929 180.415 96.0929C178.735 96.0929 177.979 95.0065 177.979 93.3601V87.7601C177.979 86.1137 178.752 85.0273 180.415 85.0273C182.078 85.0273 182.885 86.1081 182.885 87.7601Z" fill="#263238"/>
<path d="M185.214 93.8082L184.794 95.9978H183.674L185.752 85.1282H187.505L189.588 95.9978H188.384L187.964 93.8082H185.214ZM185.371 92.7666H187.79L186.564 86.4946L185.371 92.7666Z" fill="#263238"/>
<path d="M192.125 95.9977V86.2313H190.12V85.1113H195.339V86.2313H193.335V95.9977H192.125Z" fill="#263238"/>
<path d="M197.4 85.1282V95.9978H196.19V85.1282H197.4Z" fill="#263238"/>
<path d="M198.52 87.7601C198.52 86.0801 199.343 85.0273 201.001 85.0273C202.658 85.0273 203.504 86.0969 203.504 87.7601V93.3601C203.504 95.0065 202.681 96.0929 201.001 96.0929C199.321 96.0929 198.52 95.0401 198.52 93.3601V87.7601ZM199.713 93.4441C199.713 94.4353 200.133 95.0121 201.001 95.0121C201.869 95.0121 202.289 94.4521 202.289 93.4441V87.6929C202.289 86.7129 201.886 86.1249 201.001 86.1249C200.116 86.1249 199.713 86.6849 199.713 87.6929V93.4441Z" fill="#263238"/>
<path d="M205.738 95.9978H204.68V85.1282H206.214L208.729 92.9682V85.1282H209.804V95.9978H208.544L205.744 87.2114L205.738 95.9978Z" fill="#263238"/>
<path d="M136.5 102.057H219.867" stroke="#263238" stroke-width="0.56" stroke-miterlimit="10"/>
<path d="M248.976 112.691H254.744" stroke="#263238" stroke-width="0.56" stroke-miterlimit="10"/>
<path d="M199.623 112.691H245.93" stroke="#263238" stroke-width="0.56" stroke-miterlimit="10"/>
<path d="M172.816 112.691H196.98" stroke="#263238" stroke-width="0.56" stroke-miterlimit="10"/>
<path d="M136.864 112.691H170.374" stroke="#263238" stroke-width="0.56" stroke-miterlimit="10"/>
<path d="M115.13 112.691H133.409" stroke="#263238" stroke-width="0.56" stroke-miterlimit="10"/>
<path d="M101.623 112.691H112.493" stroke="#263238" stroke-width="0.56" stroke-miterlimit="10"/>
<path d="M170.985 117.793H254.744" stroke="#263238" stroke-width="0.56" stroke-miterlimit="10"/>
<path d="M105.991 117.793H168.347" stroke="#263238" stroke-width="0.56" stroke-miterlimit="10"/>
<path d="M101.623 117.793H103.555" stroke="#263238" stroke-width="0.56" stroke-miterlimit="10"/>
<path d="M248.366 122.895H254.744" stroke="#263238" stroke-width="0.56" stroke-miterlimit="10"/>
<path d="M214.043 122.895H245.319" stroke="#263238" stroke-width="0.56" stroke-miterlimit="10"/>
<path d="M166.718 122.895H211.607" stroke="#263238" stroke-width="0.56" stroke-miterlimit="10"/>
<path d="M159.813 122.895H164.08" stroke="#263238" stroke-width="0.56" stroke-miterlimit="10"/>
<path d="M101.623 122.895H156.156" stroke="#263238" stroke-width="0.56" stroke-miterlimit="10"/>
<path d="M229.275 128.002H254.744" stroke="#263238" stroke-width="0.56" stroke-miterlimit="10"/>
<path d="M138.286 128.002H226.839" stroke="#263238" stroke-width="0.56" stroke-miterlimit="10"/>
<path d="M130.161 128.002H135.038" stroke="#263238" stroke-width="0.56" stroke-miterlimit="10"/>
<path d="M101.623 128.002H127.523" stroke="#263238" stroke-width="0.56" stroke-miterlimit="10"/>
<path d="M238.823 133.103H254.744" stroke="#263238" stroke-width="0.56" stroke-miterlimit="10"/>
<path d="M170.783 133.103H235.575" stroke="#263238" stroke-width="0.56" stroke-miterlimit="10"/>
<path d="M144.782 133.103H167.737" stroke="#263238" stroke-width="0.56" stroke-miterlimit="10"/>
<path d="M108.427 133.103H141.736" stroke="#263238" stroke-width="0.56" stroke-miterlimit="10"/>
<path d="M101.623 133.103H106.4" stroke="#263238" stroke-width="0.56" stroke-miterlimit="10"/>
<path d="M107.811 155.582L113.064 169.229L115.606 163.058L121.783 165.572L115.746 152.759L107.811 155.582Z" fill="#263238" stroke="#263238" stroke-width="0.56" stroke-linecap="round" stroke-linejoin="round"/>
<path d="M105.935 152.614L99.5793 165.779L105.818 163.422L108.209 169.643L113.428 156.478L105.935 152.614Z" fill="#263238" stroke="#263238" stroke-width="0.56" stroke-linecap="round" stroke-linejoin="round"/>
<path d="M121.766 149.299C121.766 148.8 122.847 148.229 122.78 147.747C122.713 147.266 121.514 147.014 121.374 146.549C121.234 146.084 122.108 145.222 121.906 144.779C121.705 144.337 120.484 144.438 120.226 144.023C119.969 143.609 120.557 142.545 120.226 142.175C119.896 141.806 118.765 142.248 118.395 141.923C118.026 141.599 118.306 140.417 117.891 140.148C117.477 139.879 116.514 140.63 116.06 140.423C115.606 140.215 115.55 139 115.074 138.86C114.598 138.72 113.893 139.711 113.394 139.644C112.896 139.577 112.504 138.423 112.006 138.423C111.507 138.423 111.098 139.577 110.617 139.644C110.135 139.711 109.407 138.726 108.937 138.86C108.466 138.995 108.377 140.221 107.946 140.423C107.514 140.624 106.534 139.863 106.12 140.148C105.706 140.434 105.986 141.604 105.616 141.929C105.246 142.254 104.104 141.806 103.785 142.175C103.466 142.545 104.059 143.609 103.785 144.023C103.51 144.438 102.301 144.331 102.105 144.779C101.909 145.227 102.777 146.073 102.637 146.549C102.497 147.025 101.304 147.26 101.231 147.747C101.158 148.235 102.245 148.8 102.245 149.299C102.245 149.797 101.164 150.363 101.231 150.844C101.298 151.326 102.497 151.578 102.637 152.048C102.777 152.519 101.898 153.37 102.105 153.812C102.312 154.255 103.527 154.159 103.785 154.568C104.042 154.977 103.449 156.047 103.785 156.416C104.121 156.786 105.241 156.343 105.616 156.668C105.991 156.993 105.706 158.175 106.12 158.443C106.534 158.712 107.498 157.962 107.946 158.169C108.394 158.376 108.461 159.591 108.937 159.731C109.413 159.871 110.118 158.88 110.617 158.953C111.115 159.026 111.507 160.168 112.006 160.168C112.504 160.168 112.913 159.02 113.394 158.953C113.876 158.886 114.604 159.866 115.074 159.731C115.545 159.597 115.634 158.371 116.066 158.169C116.497 157.967 117.477 158.729 117.891 158.443C118.306 158.158 118.026 156.987 118.395 156.668C118.765 156.349 119.907 156.786 120.226 156.416C120.546 156.047 119.952 154.983 120.226 154.568C120.501 154.154 121.71 154.26 121.906 153.812C122.102 153.364 121.234 152.519 121.374 152.043C121.514 151.567 122.707 151.337 122.78 150.844C122.853 150.351 121.766 149.797 121.766 149.299Z" fill="#407BFF" stroke="#263238" stroke-width="0.56" stroke-miterlimit="10"/>
<path d="M112.017 156.052C115.747 156.052 118.77 153.028 118.77 149.299C118.77 145.569 115.747 142.545 112.017 142.545C108.287 142.545 105.263 145.569 105.263 149.299C105.263 153.028 108.287 156.052 112.017 156.052Z" fill="#263238" stroke="#263238" stroke-width="0.56" stroke-linecap="round" stroke-linejoin="round"/>
<path d="M112.017 144.656L113.058 147.865H116.43L113.702 149.842L114.744 153.05L112.017 151.068L109.29 153.05L110.331 149.842L107.604 147.865H110.975L112.017 144.656Z" fill="#407BFF"/>
<path d="M129.713 146.062H155.473" stroke="#263238" stroke-width="0.56" stroke-miterlimit="10"/>
<path d="M129.713 152.216H155.473" stroke="#263238" stroke-width="0.56" stroke-miterlimit="10"/>
<path d="M240.347 160.672C245.635 160.672 249.923 156.385 249.923 151.096C249.923 145.807 245.635 141.52 240.347 141.52C235.058 141.52 230.771 145.807 230.771 151.096C230.771 156.385 235.058 160.672 240.347 160.672Z" stroke="#407BFF" stroke-width="0.56" stroke-miterlimit="10"/>
<path d="M241.733 157.455C245.237 156.688 247.456 153.225 246.689 149.72C245.922 146.216 242.459 143.997 238.954 144.764C235.449 145.531 233.23 148.994 233.998 152.499C234.765 156.004 238.228 158.223 241.733 157.455Z" fill="#407BFF"/>
<path d="M271.88 258.84C271.88 258.84 269.92 255.48 268.94 253.66C268.256 252.343 267.649 250.987 267.12 249.6C267.12 249.6 269.5 251 270.2 251.56C270.9 252.12 273.84 255.62 273.84 255.62L274.68 254.64L273.7 251.42L276.92 255.06L278.46 248.48L280.84 254.78L285.32 249.18L285.6 254.78L291.06 250.44L289.1 257.3L287 260.24H272.02L271.88 258.84Z" fill="#407BFF" stroke="#263238" stroke-width="0.56" stroke-miterlimit="10"/>
<path d="M271.04 258.84C271.04 258.84 269.78 258.28 267.68 255.76C266.339 254.127 265.122 252.395 264.04 250.58C264.04 250.58 268.8 253.24 270.48 254.5C271.913 255.725 273.226 257.085 274.4 258.56C274.4 258.56 273 255.06 272.86 253.38C272.72 251.7 272.58 248.06 272.58 248.06C272.58 248.06 276.64 252.12 276.92 253.24C277.2 254.36 278.74 258.14 278.74 258.14C279.204 256.434 279.578 254.705 279.86 252.96C280.14 250.86 282.38 247.5 282.38 247.5C282.38 247.5 282.66 249.88 282.8 252.26C282.94 254.64 281.54 259.12 281.54 259.12C281.54 259.12 283.36 254.78 285.18 252.68C286.609 251.119 288.153 249.669 289.8 248.34C289.8 248.34 288.4 252.68 287.84 254.64C287.317 256.166 286.612 257.623 285.74 258.98C287.054 257.319 288.456 255.73 289.94 254.22C291.307 253.127 292.758 252.144 294.28 251.28C294.28 251.28 292.74 254.22 291.62 255.9C290.575 257.358 289.453 258.76 288.26 260.1H271.04V258.84Z" fill="#407BFF" stroke="#263238" stroke-width="0.56" stroke-miterlimit="10"/>
<path d="M290.752 258.56L289.783 267.1L288.12 281.705H270.575L268.912 267.1L267.943 258.56H290.752Z" fill="white" stroke="#263238" stroke-width="0.56" stroke-miterlimit="10"/>
<path d="M289.783 267.1L288.12 281.705H270.575L268.912 267.1H289.783Z" fill="#407BFF" stroke="#263238" stroke-width="0.56" stroke-miterlimit="10"/>
<path d="M272.16 271.16C272.624 271.16 273 270.784 273 270.32C273 269.856 272.624 269.48 272.16 269.48C271.696 269.48 271.32 269.856 271.32 270.32C271.32 270.784 271.696 271.16 272.16 271.16Z" fill="#263238"/>
<path d="M278.32 271.16C278.784 271.16 279.16 270.784 279.16 270.32C279.16 269.856 278.784 269.48 278.32 269.48C277.856 269.48 277.48 269.856 277.48 270.32C277.48 270.784 277.856 271.16 278.32 271.16Z" fill="#263238"/>
<path d="M274.54 275.5C275.004 275.5 275.38 275.124 275.38 274.66C275.38 274.196 275.004 273.82 274.54 273.82C274.076 273.82 273.7 274.196 273.7 274.66C273.7 275.124 274.076 275.5 274.54 275.5Z" fill="#263238"/>
<path d="M281.96 275.5C282.424 275.5 282.8 275.124 282.8 274.66C282.8 274.196 282.424 273.82 281.96 273.82C281.496 273.82 281.12 274.196 281.12 274.66C281.12 275.124 281.496 275.5 281.96 275.5Z" fill="#263238"/>
<path d="M286.86 275.5C287.324 275.5 287.7 275.124 287.7 274.66C287.7 274.196 287.324 273.82 286.86 273.82C286.396 273.82 286.02 274.196 286.02 274.66C286.02 275.124 286.396 275.5 286.86 275.5Z" fill="#263238"/>
<path d="M284.48 271.16C284.944 271.16 285.32 270.784 285.32 270.32C285.32 269.856 284.944 269.48 284.48 269.48C284.016 269.48 283.64 269.856 283.64 270.32C283.64 270.784 284.016 271.16 284.48 271.16Z" fill="#263238"/>
<path d="M272.16 279C272.624 279 273 278.624 273 278.16C273 277.696 272.624 277.32 272.16 277.32C271.696 277.32 271.32 277.696 271.32 278.16C271.32 278.624 271.696 279 272.16 279Z" fill="#263238"/>
<path d="M278.32 279C278.784 279 279.16 278.624 279.16 278.16C279.16 277.696 278.784 277.32 278.32 277.32C277.856 277.32 277.48 277.696 277.48 278.16C277.48 278.624 277.856 279 278.32 279Z" fill="#263238"/>
<path d="M284.48 279C284.944 279 285.32 278.624 285.32 278.16C285.32 277.696 284.944 277.32 284.48 277.32C284.016 277.32 283.64 277.696 283.64 278.16C283.64 278.624 284.016 279 284.48 279Z" fill="#263238"/>
<path d="M186.861 187.083C186.871 182.815 184.616 179.349 181.823 179.342C179.03 179.335 176.758 182.79 176.747 187.058C176.737 191.326 178.992 194.791 181.785 194.798C184.578 194.805 186.85 191.351 186.861 187.083Z" fill="white" stroke="#263238" stroke-width="0.56" stroke-linecap="round" stroke-linejoin="round"/>
<path d="M188.155 167.722C188.155 167.722 185.427 169.285 182.829 167.594C180.231 165.902 182.051 165.13 182.571 164.088C183.092 163.046 181.793 162.789 181.53 161.361C181.267 159.933 182.179 158.762 182.7 158.634C183.221 158.505 183.092 157.071 183.092 155.643C183.092 154.215 184.772 152.916 185.556 152.916C186.34 152.916 186.855 151.88 187.376 150.581C187.897 149.282 188.939 148.111 190.736 148.901C192.534 149.69 193.463 149.679 194.376 148.38C195.289 147.081 197.49 146.823 198.296 147.473C199.103 148.122 199.461 149.422 201.023 148.122C202.586 146.823 204.529 147.086 205.436 147.994C206.343 148.901 206.215 149.942 207.676 149.422C209.138 148.901 211.439 149.679 211.96 151.242C212.481 152.804 215.32 154.49 216.379 154.098C217.437 153.706 219.235 154.098 218.322 156.046C217.409 157.995 218.456 159.294 219.235 159.294C220.013 159.294 221.704 159.815 220.791 161.501C219.879 163.186 219.235 164.491 220.271 165.006C221.307 165.522 222.998 165.656 221.704 167.868C220.411 170.08 219.363 169.946 219.755 171.228C220.147 172.51 220.92 172.908 219.755 173.826C218.591 174.745 217.157 175.126 217.157 175.904C217.157 176.682 218.714 177.069 216.894 177.718C215.844 178.102 214.755 178.365 213.646 178.502C213.646 178.502 211.053 171.486 203.644 169.15C196.235 166.815 191.957 167.067 190.266 167.98C188.575 168.893 188.155 167.722 188.155 167.722Z" fill="#263238" stroke="#263238" stroke-width="0.56" stroke-linecap="round" stroke-linejoin="round"/>
<path d="M190.77 215.345L181.25 219.735C181.25 219.735 176.327 246.985 176.68 254.545C177.033 262.105 181.25 280.915 181.25 280.915H204.12C204.12 280.915 200.603 257.882 202.362 249.622C204.12 241.362 208.343 218.682 208.343 218.682C208.343 218.682 201.309 216.75 199.198 216.398C197.087 216.045 190.77 215.345 190.77 215.345Z" fill="white" stroke="#263238" stroke-width="0.56" stroke-miterlimit="10"/>
<path d="M179.85 228.073L206.17 230.347C205.957 231.467 205.744 232.587 205.526 233.707L179.318 231.467C179.48 230.28 179.676 229.143 179.85 228.073ZM202.373 249.6C202.574 248.648 202.81 247.505 203.067 246.24L177.498 244.033C177.352 245.209 177.223 246.346 177.106 247.427L202.373 249.617V249.6ZM204.613 238.277L178.578 236.037C178.41 237.157 178.242 238.277 178.086 239.43L203.952 241.67C204.193 240.584 204.411 239.453 204.635 238.299L204.613 238.277ZM176.697 252.411C176.663 253.217 176.658 253.929 176.697 254.522C176.697 254.931 176.747 255.374 176.786 255.838L201.88 257.44C201.88 256.241 201.88 255.088 201.88 254.013L176.697 252.411ZM181.412 219.64L181.255 219.713C181.255 219.713 181.031 220.967 180.695 223.011L207.105 225.296C207.34 224.025 207.558 222.882 207.738 221.936L181.412 219.64ZM202.692 269.715L178.92 269.463C179.144 270.65 179.374 271.798 179.592 272.89L203.112 273.159C203 272.084 202.854 270.93 202.731 269.76L202.692 269.715ZM177.901 264.07L202.3 265.504C202.203 264.358 202.119 263.21 202.048 262.06L177.346 260.609C177.548 261.746 177.738 262.911 177.94 264.093L177.901 264.07Z" fill="#263238"/>
<path d="M189.364 210.4C189.364 210.4 187.432 217.781 187.259 221.65C187.085 225.52 191.123 228.678 196.924 228.152C202.726 227.626 203.779 221.298 203.779 219.713C203.779 218.128 204.12 204.8 204.12 204.8C202.175 206.464 200.117 207.991 197.96 209.37C194.639 211.475 189.364 210.4 189.364 210.4Z" fill="#B5B5B5" stroke="#263238" stroke-width="0.56" stroke-miterlimit="10"/>
<path d="M194.639 216.75C200.133 214.118 202.871 208.95 204.109 205.668C204.109 205.108 204.109 204.794 204.109 204.794C202.164 206.459 200.106 207.985 197.949 209.364C194.589 211.475 189.336 210.422 189.336 210.422C189.336 210.422 188.132 215.037 187.539 218.878C190.007 218.568 192.407 217.849 194.639 216.75Z" fill="#263238" stroke="#263238" stroke-width="0.56" stroke-miterlimit="10"/>
<path d="M213.467 182.198C213.467 182.198 213.243 174.403 210.347 169.946C207.452 165.488 201.348 162.761 194.533 163.92C186.077 165.376 182.28 171.715 180.942 177.063C179.603 182.411 181.166 190.206 181.166 195.543C181.166 200.88 187.404 210.467 189.185 212.03C190.966 213.592 193.715 214.107 196.857 212.517C199.741 211.05 204.484 206.06 207.379 203.165C210.275 200.27 211.999 191.657 212.447 189.652C212.895 187.647 213.467 182.198 213.467 182.198Z" fill="#B5B5B5" stroke="#263238" stroke-width="0.56" stroke-linecap="round" stroke-linejoin="round"/>
<path d="M189.846 197.341C189.846 197.341 189.583 199.021 193.48 198.769" stroke="#263238" stroke-width="0.56" stroke-linecap="round" stroke-linejoin="round"/>
<path d="M188.675 201.754C188.675 201.754 193.222 204.873 197.77 201.888" stroke="#263238" stroke-width="0.56" stroke-linecap="round" stroke-linejoin="round"/>
<path d="M197.77 191.36C197.77 191.36 198.935 189.411 202.317 191.097" stroke="#263238" stroke-width="1.12" stroke-linecap="round" stroke-linejoin="round"/>
<path d="M188.675 190.195C188.675 191.13 188.239 191.875 187.701 191.875C187.163 191.875 186.727 191.119 186.727 190.195C186.727 189.271 187.163 188.515 187.701 188.515C188.239 188.515 188.675 189.266 188.675 190.195Z" fill="#263238"/>
<path d="M184.52 184.87C184.52 184.87 185.69 182.271 189.56 183.57" stroke="#263238" stroke-width="0.56" stroke-linecap="round" stroke-linejoin="round"/>
<path d="M196.079 184.64C196.079 184.64 199.719 182.691 203.745 185.676" stroke="#263238" stroke-width="0.56" stroke-linecap="round" stroke-linejoin="round"/>
<path d="M194.533 163.92C186.077 165.376 182.28 171.715 180.942 177.063C180.662 178.25 180.497 179.462 180.449 180.681C180.886 179.32 183.154 173.35 189.583 171.721C196.863 169.906 203.224 172.242 205.431 175.361C207.637 178.48 207.111 182.506 207.9 184.455C208.393 185.687 210.868 187.546 212.621 188.745C213.024 186.354 213.467 182.17 213.467 182.17C213.467 182.17 213.243 174.375 210.347 169.918C207.452 165.46 201.348 162.761 194.533 163.92Z" fill="#263238" stroke="#263238" stroke-width="0.56" stroke-linecap="round" stroke-linejoin="round"/>
<path d="M211.277 183.57C211.277 183.57 211.926 176.688 209.978 172.141C208.029 167.594 205.694 165.645 205.694 165.645C205.694 165.645 211.148 168.506 213.097 171.245C215.046 173.983 215.303 180.597 214.777 185.144L210.75 184.494L211.277 183.57Z" fill="#407BFF" stroke="#263238" stroke-width="0.56" stroke-miterlimit="10"/>
<path d="M216.513 190.324C215.729 194.518 212.867 197.503 210.118 196.994C207.368 196.484 205.783 192.659 206.567 188.465C207.351 184.27 210.213 181.286 212.957 181.795C215.701 182.305 217.297 186.13 216.513 190.324Z" fill="white" stroke="#263238" stroke-width="0.56" stroke-linecap="round" stroke-linejoin="round"/>
<path d="M216.016 190.863C216.611 187.68 215.405 184.784 213.322 184.395C211.239 184.006 209.069 186.271 208.475 189.454C207.88 192.637 209.086 195.533 211.169 195.922C213.252 196.311 215.422 194.046 216.016 190.863Z" fill="#407BFF" stroke="#263238" stroke-width="0.56" stroke-miterlimit="10"/>
<path d="M184.268 263.779C185.579 273.075 187.191 281.414 187.191 281.414H177.587C177.587 281.414 175.129 268.752 172.139 261.724C170.459 257.726 170.05 256.124 170.022 255.469C168.717 258.577 160.586 277.779 159.13 278.429C157.545 279.129 151.743 277.869 149.61 277.197C147.476 276.525 147.331 273.506 147.683 272.274C148.036 271.042 162.803 235.354 164.203 233.074C165.516 230.752 166.521 228.269 167.194 225.688C167.367 224.635 167.015 222.171 168.599 221.298C169.557 220.766 176.288 219.209 181.479 218.055C184.873 217.299 187.6 216.722 187.6 216.722C187.6 216.722 183.4 232.363 182.683 243.44C182.375 248.351 183.243 256.37 184.268 263.774C184.274 263.774 184.274 263.774 184.268 263.779Z" fill="#407BFF" stroke="#263238" stroke-width="0.56" stroke-miterlimit="10"/>
<path d="M184.268 263.774C183.059 261.786 178.153 253.251 177.498 244.364C176.91 236.39 180.091 223.302 181.491 218.044C184.884 217.288 187.611 216.711 187.611 216.711C187.611 216.711 183.4 232.363 182.683 243.44C182.375 248.351 183.221 256.37 184.268 263.774Z" fill="#407BFF" stroke="#263238" stroke-width="0.56" stroke-miterlimit="10"/>
<path d="M171.377 237.045C171.814 235.146 172.139 234.122 172.139 234.122" stroke="#263238" stroke-width="0.56" stroke-miterlimit="10"/>
<path d="M170.207 255.043C170.207 255.043 169.148 251.347 170.027 244.672C170.263 242.908 170.515 241.34 170.767 239.99" stroke="#263238" stroke-width="0.56" stroke-miterlimit="10"/>
<path d="M247.554 256.583C243.511 256.404 223.295 243.81 223.295 243.81C223.295 243.81 216.961 256.219 216.787 258.739C216.614 261.259 221.71 281.414 221.71 281.414H200.088C200.088 281.414 199.433 274.341 199.299 266.585C199.237 263.006 199.299 259.305 199.562 256.04C200.441 245.786 203.952 216.84 203.952 216.84L207.475 217.198C207.475 217.198 208.471 217.534 210.034 218.078C214.195 219.522 222.354 222.479 225.932 224.574C230.849 227.452 237.692 232.134 241.052 234.295C244.412 236.457 252.303 241.312 253.882 247.791C255.461 254.27 251.597 256.762 247.554 256.583Z" fill="#407BFF" stroke="#263238" stroke-width="0.56" stroke-miterlimit="10"/>
<path d="M210.034 218.055C209.558 225.257 208.158 242.41 205.139 250.709C202.25 258.644 200.172 264.238 199.299 266.585C199.237 263.006 199.299 259.305 199.562 256.04C200.441 245.786 203.952 216.84 203.952 216.84L207.475 217.198C207.475 217.198 208.471 217.512 210.034 218.055Z" stroke="#263238" stroke-width="0.56" stroke-miterlimit="10"/>
<path d="M223.294 243.804L215.208 241.29" stroke="#263238" stroke-width="0.56" stroke-miterlimit="10"/>
<path d="M211.792 235.841C212.027 238.501 212.761 241.441 214.682 243.087" stroke="#263238" stroke-width="0.56" stroke-miterlimit="10"/>
<path d="M211.865 230.314C211.752 231.322 211.694 232.335 211.691 233.349" stroke="#263238" stroke-width="0.56" stroke-miterlimit="10"/>
<path d="M210.84 239.666C210.84 239.666 212.772 243.266 215.057 244.526" stroke="#263238" stroke-width="0.56" stroke-miterlimit="10"/>
<path d="M222.953 213.894C222.628 212.575 222.458 211.222 222.449 209.862C222.449 207.695 222.953 206.474 222.163 206.547C221.374 206.62 219.996 207.628 219.565 209.347C219.134 211.066 220.069 212.662 220.214 213.239C220.303 213.593 220.352 213.956 220.36 214.32C220.36 214.32 214.088 214.533 212.934 214.533C211.781 214.533 210.627 215.182 210.627 216.263C210.627 217.344 211.854 217.943 211.854 217.943L212.414 218.234C212.414 218.234 211.691 219.601 212.195 220.323C212.474 220.735 212.816 221.1 213.209 221.404C213.057 221.623 212.965 221.876 212.939 222.141C212.914 222.406 212.956 222.673 213.063 222.916C213.25 223.407 213.574 223.833 213.998 224.142C213.998 224.142 213.063 225.01 214.29 226.164C215.516 227.318 218.182 227.39 220.052 227.39C221.922 227.39 223.513 227.458 223.513 227.458L224.308 227.53L230.938 237.409L237.21 230.414C237.21 230.414 227.982 221.454 226.755 219.892C225.529 218.33 222.953 213.894 222.953 213.894Z" fill="#B5B5B5" stroke="#263238" stroke-width="0.56" stroke-miterlimit="10"/>
<path d="M237.003 229.58L228.39 237.666C228.39 237.666 236.303 248.217 240.52 253.52C244.737 258.823 252.476 259.68 255.814 257.031C259.151 254.382 259.51 248.418 256.519 244.711C253.529 241.004 237.003 229.58 237.003 229.58Z" fill="#407BFF" stroke="#263238" stroke-width="0.56" stroke-miterlimit="10"/>
<path d="M179.368 272.056C179.368 272.056 192.013 274.24 193.194 274.24C194.376 274.24 206.853 271.037 207.693 271.709C208.533 272.381 214.099 277.107 215.449 278.457C216.251 279.253 216.932 280.163 217.47 281.156H205.839L202.3 280.31C202.3 280.31 199.298 281.699 197.613 281.699C195.927 281.699 190.282 281.374 190.282 281.374L180.348 281.212C180.348 281.212 177.005 275.595 179.368 272.056Z" fill="#B5B5B5" stroke="#263238" stroke-width="0.56" stroke-miterlimit="10"/>
<path d="M209.378 281.162C209.378 281.162 206.511 277.958 205.335 277.113C204.623 276.598 203.835 276.195 203 275.92" stroke="#263238" stroke-width="0.56" stroke-miterlimit="10"/>
<path d="M213.259 281.33C213.259 281.33 207.693 275.259 207.021 274.75C206.277 274.318 205.484 273.98 204.658 273.742" stroke="#263238" stroke-width="0.56" stroke-miterlimit="10"/>
<path d="M151.715 266.322C151.715 266.322 146.675 270.37 145.813 273.042C144.95 275.713 146.149 278.944 148.848 279.958C151.547 280.971 181.653 281.52 181.653 281.52C181.16 281.75 178.954 279.683 180.208 276.922C181.059 275.052 183.411 272.37 183.411 272.37L158.29 265.963" fill="#407BFF"/>
<path d="M151.715 266.322C151.715 266.322 146.675 270.37 145.813 273.042C144.95 275.713 146.149 278.944 148.848 279.958C151.547 280.971 181.653 281.52 181.653 281.52C181.16 281.75 178.954 279.683 180.208 276.922C181.059 275.052 183.411 272.37 183.411 272.37L158.29 265.963" stroke="#263238" stroke-width="0.56" stroke-miterlimit="10"/>
<path d="M194.186 280.377H90.8657V281.705H194.186V280.377Z" fill="#263238" stroke="#263238" stroke-width="0.56" stroke-miterlimit="10"/>
<path d="M156.705 281.705H92.2655L86.3071 236.894H150.746L156.705 281.705Z" fill="white" stroke="#263238" stroke-width="0.56" stroke-miterlimit="10"/>
<path d="M155.394 281.705H90.9608L85.0024 236.894H149.436L155.394 281.705Z" fill="white" stroke="#263238" stroke-width="0.56" stroke-miterlimit="10"/>
<path d="M95.9392 281.705H155.198L150.718 247.881C142.789 252.921 133.129 259.445 122.601 267.481C114.576 273.687 105.563 278.496 95.9392 281.705Z" fill="#263238" stroke="#263238" stroke-width="0.56" stroke-miterlimit="10"/>
<path d="M118.149 262.788C120.487 262.788 122.382 261.038 122.382 258.879C122.382 256.72 120.487 254.97 118.149 254.97C115.811 254.97 113.915 256.72 113.915 258.879C113.915 261.038 115.811 262.788 118.149 262.788Z" fill="white" stroke="#263238" stroke-width="0.56" stroke-miterlimit="10"/>
<path d="M41.2551 281.705H299.88" stroke="#263238" stroke-width="0.56" stroke-miterlimit="10"/>
</svg>
