<svg width="664" height="1133" viewBox="0 0 664 1133" fill="none" xmlns="http://www.w3.org/2000/svg">
<g opacity="0.328497">
<g opacity="0.507045">
<mask id="mask0_20_37" style="mask-type:luminance" maskUnits="userSpaceOnUse" x="-312" y="204" width="724" height="929">
<path fill-rule="evenodd" clip-rule="evenodd" d="M-312 1132.73L-312 204.158H411.245V1132.73H-312Z" fill="white"/>
</mask>
<g mask="url(#mask0_20_37)">
<path fill-rule="evenodd" clip-rule="evenodd" d="M-499.251 857.578C-481.522 876.977 -421.615 941.595 -356.476 1001.22C-278.727 1072.39 -166.188 1163.32 -71.9341 1139.64C-17.115 1125.87 4.32794 1081.68 22.3769 1041.95C35.3602 1013.37 46.5847 987.104 67.2136 976.119C116.52 949.862 216.229 1011.44 325.211 926.054C434.193 840.667 376.347 716.401 356.287 634.923C336.228 553.449 412.668 526.209 404.836 420.967C397.091 316.869 89.8655 203.069 -8.52144 212.996L-499.251 857.578Z" fill="#327EA4"/>
<path fill-rule="evenodd" clip-rule="evenodd" d="M-499.709 857.922L-212.583 481.455C-212.487 481.501 -212.386 481.547 -212.281 481.595L-338.893 647.603C-339.131 647.915 -339.178 648.317 -339.02 648.668C-338.865 649.018 -338.519 649.271 -338.112 649.337C-338.106 649.337 -336.254 649.637 -332.907 650.198C-321.193 652.161 -291.305 657.326 -259.622 664.017C-227.947 670.699 -194.433 678.937 -175.651 686.95C-153.942 696.2 -135.467 703.072 -117.298 707.067C-99.1314 711.06 -81.277 712.161 -60.912 709.886C-51.2002 708.797 -39.4775 705.751 -26.8191 701.109C-24.9961 703.102 -23.1472 705.076 -21.292 707.019C-9.39681 719.472 2.65124 730.612 7.83982 736.745C13.2643 743.138 25.0501 753.006 35.5391 761.358C37.7794 763.141 39.9571 764.85 41.9982 766.437C41.5269 766.574 41.0804 766.714 40.6573 766.858C38.986 767.453 37.7013 768.041 36.8923 769.051C36.8909 769.053 36.8909 769.053 36.8909 769.053C36.6781 769.332 36.509 769.658 36.4318 770.019C36.2475 770.885 36.4147 771.75 36.7746 772.542C37.6708 774.455 39.6093 776.188 41.9028 777.812C38.5155 776.855 34.987 776.079 31.8198 775.864C30.1177 775.752 28.5156 775.798 27.0697 776.097C25.6286 776.394 24.3169 776.959 23.3365 777.919C23.0538 778.197 22.792 778.494 22.5555 778.804C20.0825 782.104 19.9646 786.932 21.2387 791.571C22.5444 796.211 25.2984 800.718 29.2433 803.273C30.4808 804.069 31.8458 804.666 33.3101 804.983C41.4514 806.728 52.5604 808.528 56.4586 809.145C56.0215 810.326 55.3639 812.239 54.7828 814.469C53.8214 818.206 53.0294 822.802 53.9775 826.554C54.3228 827.888 54.6354 828.978 55.0016 829.866C55.3761 830.743 55.7747 831.472 56.5543 831.992C57.1719 832.411 58.0396 832.509 58.7446 832.329C59.8171 832.07 60.7621 831.443 61.9738 830.509C63.1755 829.569 64.6044 828.289 66.3941 826.647C69.9754 823.347 75.3006 821.635 81.6546 820.555C87.9986 819.468 95.301 819.008 102.678 818.02C112.406 816.714 125.037 814.204 132.5 812.649C131.999 812.996 131.507 813.351 131.042 813.705C130.093 814.434 129.275 815.135 128.716 815.86C128.449 816.221 128.212 816.591 128.134 817.111C128.099 817.369 128.126 817.68 128.265 817.973C128.4 818.266 128.64 818.513 128.893 818.673C129.6 819.095 130.295 819.126 131.204 819.115C132.112 819.087 133.251 818.939 134.728 818.654C138.397 817.935 143.991 815.584 150.784 812.107C160.943 806.894 173.639 799.145 185.398 790.617C197.158 782.084 207.972 772.801 214.375 764.413C214.383 764.402 214.393 764.389 214.4 764.38C226.374 748.68 226.778 735.807 225.944 729.511C225.988 729.555 226.03 729.596 226.075 729.638C227.907 731.406 230.237 733.502 232.388 734.89C233.399 735.532 234.357 736.039 235.354 736.267C235.853 736.376 236.385 736.418 236.936 736.289C237.476 736.166 237.998 735.838 238.329 735.404C238.335 735.397 238.341 735.389 238.346 735.382C238.631 735.008 238.799 734.583 238.897 734.121C239.252 732.384 238.862 730.412 238.185 728.335C236.539 723.382 233.024 717.798 231.67 715.734C231.923 715.53 232.226 715.279 232.569 714.985C232.433 715.648 232.717 716.353 233.358 716.764C234.234 717.328 235.437 717.131 236.05 716.326L247.869 700.831C248.482 700.026 248.273 698.921 247.396 698.358C246.522 697.795 245.317 697.991 244.703 698.796L242.043 702.283C242.257 701.519 242.392 700.741 242.432 699.956C242.546 697.613 242.398 695.607 242.017 694.002C241.616 692.407 241.066 691.165 239.927 690.394C239.541 690.144 239.069 689.973 238.572 689.942C237.823 689.89 237.107 690.142 236.503 690.539C235.891 690.943 235.338 691.498 234.79 692.216C233.311 694.155 231.843 695.65 230.706 696.691L230.747 696.161C230.851 695.842 231.146 694.928 231.554 693.556L233.198 691.4C233.787 690.628 233.618 689.579 232.834 688.999C233.788 685.369 234.877 680.697 235.667 675.728C236.54 670.235 237.051 664.379 236.598 659.13C236.133 653.891 234.739 649.2 231.509 646.115C230.611 645.266 229.498 644.431 228.193 643.592C223.969 640.88 217.726 638.111 210.589 635.366C199.893 631.258 187.206 627.24 176.605 623.864C171.306 622.178 166.528 620.653 162.795 619.365C160.928 618.722 159.325 618.138 158.057 617.627C156.792 617.118 155.851 616.671 155.391 616.37L155.201 616.24C153.629 615.022 152.392 613.374 151.016 611.624C149.641 609.881 148.112 608.037 145.861 606.59C144.691 605.835 143.331 605.2 141.729 604.746C142.211 603.292 142.135 601.761 141.602 600.204C152.605 590.641 165.136 576.878 179.848 557.599C191.133 542.802 203.698 524.747 217.821 502.831C239.885 468.581 257.675 438.354 265.357 413.551C269.193 401.147 270.512 390.078 268.476 380.51C266.448 370.942 260.984 362.912 251.513 356.837C247.905 354.518 243.72 352.475 238.925 350.713C225.462 345.772 202.906 335.268 176.72 322.316C137.433 302.886 89.9179 277.933 52.2334 257.84C33.3902 247.793 17.0043 238.961 5.32709 232.639C-0.509499 229.48 -5.17008 226.949 -8.37181 225.206C-11.5715 223.464 -13.3065 222.515 -13.3105 222.512C-13.8519 222.219 -14.5503 222.351 -14.9179 222.822L-13.9332 223.468L-14.9179 222.822L-33.3983 246.518L-8.09371 213.339C58.1507 206.612 218.949 255.795 319.4 320.383C368.241 351.785 402.814 386.833 405.318 420.865C413.057 526.038 336.546 553.322 356.542 634.733C374.099 706.212 420.772 810.616 358.051 892.853C349.335 904.281 338.493 915.291 325.179 925.714C216.054 1011.13 116.343 949.671 66.9822 975.951C59.6665 979.846 53.5304 985.655 48.0769 992.806C38.1354 1005.84 30.4626 1023.33 22.0581 1041.78C13.6508 1060.23 4.51452 1079.64 -8.36247 1096.52C-23.2066 1115.99 -43.0207 1132.09 -72.399 1139.48C-125.876 1152.94 -185.198 1129.59 -240.713 1093.89C-283.127 1066.62 -323.318 1032.14 -356.983 1001.36C-422.105 941.828 -481.988 877.295 -499.709 857.922ZM242.725 678.909C243.34 678.102 243.13 676.999 242.255 676.437C241.378 675.873 240.175 676.068 239.56 676.874L235.058 682.777C234.445 683.581 234.656 684.687 235.533 685.251C236.407 685.813 237.61 685.616 238.224 684.811L242.725 678.909ZM250.062 683.625C250.677 682.818 250.464 681.714 249.589 681.152C248.715 680.589 247.511 680.784 246.896 681.59L242.394 687.493C241.781 688.297 241.992 689.403 242.867 689.966C243.742 690.528 244.946 690.332 245.56 689.527L250.062 683.625ZM257.396 688.339C258.011 687.533 257.8 686.43 256.923 685.866C256.049 685.304 254.845 685.498 254.23 686.305L249.728 692.207C249.115 693.012 249.326 694.118 250.201 694.68C251.078 695.244 252.28 695.047 252.894 694.242L257.396 688.339Z" fill="#327EA4"/>
</g>
</g>
<g opacity="0.543225">
<mask id="mask1_20_37" style="mask-type:luminance" maskUnits="userSpaceOnUse" x="-102" y="21" width="766" height="839">
<path fill-rule="evenodd" clip-rule="evenodd" d="M-58.4416 859.51L-101.627 60.6761L620.563 21.6339L663.749 820.467L-58.4416 859.51Z" fill="white"/>
</mask>
<g mask="url(#mask1_20_37)">
<path opacity="0.097261" fill-rule="evenodd" clip-rule="evenodd" d="M-258.216 632.91C-239.611 648.641 -176.786 700.997 -108.97 748.772C-28.0239 805.8 88.5799 877.951 181.596 852.495C235.694 837.688 255.051 798.517 271.226 763.363C282.861 738.079 292.847 714.873 312.935 704.309C360.949 679.059 463.377 726.65 568.228 647.312C673.081 567.973 609.54 464.191 585.719 395.18C561.9 326.173 636.962 298.612 624.247 208.497C611.672 119.361 299.602 38.0462 201.82 51.8969L-258.216 632.91Z" fill="#327EA4"/>
<path opacity="0.097261" fill-rule="evenodd" clip-rule="evenodd" d="M-258.658 633.231L10.5418 293.864C10.6394 293.897 10.7423 293.931 10.8494 293.967L-107.858 443.616C-108.081 443.897 -108.109 444.245 -107.935 444.539C-107.763 444.832 -107.406 445.03 -106.996 445.065C-106.991 445.065 -105.127 445.223 -101.759 445.525C-89.9708 446.581 -59.886 449.411 -27.9381 453.457C4.00084 457.496 37.8497 462.774 56.9765 468.653C79.0843 475.439 97.8519 480.353 116.18 482.809C134.506 485.264 152.386 485.248 172.615 482.191C182.262 480.73 193.826 477.476 206.25 472.799C208.163 474.415 210.101 476.014 212.044 477.585C224.501 487.656 237.05 496.59 242.516 501.585C248.23 506.792 260.457 514.645 271.319 521.264C273.639 522.677 275.893 524.03 278.005 525.285C277.541 525.429 277.102 525.573 276.686 525.72C275.045 526.322 273.789 526.897 273.028 527.81C273.027 527.811 273.027 527.811 273.027 527.811C272.828 528.063 272.674 528.353 272.614 528.667C272.47 529.422 272.677 530.158 273.073 530.819C274.057 532.417 276.073 533.803 278.439 535.076C275.012 534.436 271.453 533.959 268.28 533.945C266.575 533.94 264.978 534.066 263.548 534.402C262.123 534.735 260.839 535.292 259.905 536.171C259.635 536.425 259.388 536.694 259.166 536.974C256.85 539.947 256.957 544.107 258.445 548.028C259.965 551.949 262.924 555.678 266.982 557.663C268.255 558.281 269.646 558.721 271.123 558.914C279.333 559.977 290.51 560.925 294.431 561.245C294.049 562.285 293.482 563.966 293.005 565.916C292.219 569.183 291.642 573.18 292.763 576.356C293.17 577.485 293.533 578.406 293.94 579.15C294.354 579.884 294.786 580.49 295.589 580.895C296.225 581.222 297.096 581.26 297.792 581.067C298.851 580.786 299.765 580.196 300.932 579.327C302.088 578.454 303.455 577.275 305.166 575.766C308.588 572.733 313.826 570.973 320.121 569.701C326.405 568.424 333.675 567.634 340.996 566.386C350.648 564.736 363.144 561.896 370.525 560.155C370.041 560.481 369.565 560.813 369.118 561.142C368.204 561.821 367.419 562.468 366.895 563.122C366.645 563.447 366.426 563.777 366.372 564.23C366.35 564.453 366.39 564.719 366.543 564.964C366.691 565.209 366.943 565.408 367.203 565.532C367.928 565.857 368.624 565.846 369.531 565.788C370.437 565.715 371.567 565.525 373.028 565.201C376.659 564.384 382.135 562.059 388.756 558.702C398.658 553.669 410.975 546.317 422.321 538.346C433.667 530.37 444.033 521.801 450.037 514.239C450.045 514.229 450.054 514.217 450.06 514.209C461.287 500.056 461.092 488.96 459.966 483.589C460.011 483.624 460.056 483.657 460.102 483.691C462.014 485.113 464.437 486.79 466.65 487.868C467.69 488.366 468.67 488.751 469.676 488.893C470.18 488.959 470.713 488.967 471.257 488.826C471.791 488.691 472.297 488.381 472.607 487.99C472.612 487.983 472.617 487.976 472.623 487.97C472.89 487.633 473.038 487.258 473.114 486.856C473.388 485.342 472.906 483.667 472.134 481.916C470.26 477.744 466.491 473.13 465.042 471.427C465.286 471.238 465.577 471.006 465.905 470.735C465.8 471.312 466.117 471.903 466.775 472.223C467.677 472.66 468.869 472.426 469.444 471.7L480.524 457.732C481.1 457.007 480.839 456.067 479.938 455.63C479.038 455.193 477.844 455.427 477.269 456.152L474.775 459.296C474.953 458.627 475.052 457.95 475.055 457.273C475.06 455.251 474.819 453.533 474.363 452.174C473.889 450.823 473.282 449.784 472.109 449.183C471.712 448.988 471.232 448.867 470.735 448.867C469.984 448.862 469.282 449.118 468.697 449.492C468.104 449.872 467.578 450.379 467.064 451.027C465.677 452.775 464.281 454.14 463.194 455.097L463.21 454.639C463.3 454.359 463.552 453.556 463.895 452.354L465.437 450.411C465.989 449.715 465.771 448.822 464.961 448.365C465.745 445.19 466.615 441.113 467.173 436.795C467.789 432.023 468.028 426.957 467.331 422.466C466.623 417.984 465.013 414.024 461.644 411.545C460.708 410.862 459.558 410.204 458.216 409.553C453.872 407.447 447.508 405.403 440.254 403.426C429.383 400.469 416.528 397.698 405.785 395.365C400.415 394.201 395.573 393.147 391.787 392.241C389.892 391.789 388.264 391.372 386.974 391.001C385.687 390.632 384.727 390.298 384.254 390.064L384.058 389.962C382.432 389 381.12 387.648 379.664 386.218C378.21 384.793 376.598 383.288 374.283 382.165C373.079 381.579 371.691 381.106 370.071 380.802C370.485 379.525 370.337 378.212 369.733 376.901C380.275 368.08 392.147 355.564 405.942 338.184C416.522 324.846 428.229 308.635 441.312 289.018C461.751 258.363 478.109 231.399 484.627 209.646C487.88 198.769 488.683 189.175 486.204 181.053C483.734 172.932 477.905 166.318 468.165 161.604C464.455 159.803 460.181 158.272 455.311 157.015C441.638 153.491 418.626 145.672 391.876 135.944C351.742 121.349 303.136 102.448 264.572 87.1959C245.289 79.5696 228.516 72.8562 216.562 68.0484C210.587 65.6455 205.816 63.7195 202.537 62.393C199.261 61.0675 197.485 60.3443 197.481 60.3423C196.926 60.1189 196.235 60.2708 195.89 60.6954L196.903 61.1985L195.89 60.6954L178.539 82.0781L202.263 52.1695C268.098 42.8063 430.949 76.4366 534.258 126.578C584.488 150.957 620.64 179.241 624.723 208.383C637.343 298.444 562.212 326.046 585.966 395.003C606.821 455.548 658.281 542.845 599.476 616.977C591.305 627.279 580.991 637.336 568.181 647.022C463.188 726.397 360.763 678.905 312.697 704.177C305.573 707.923 299.716 713.252 294.603 719.698C285.282 731.448 278.434 746.908 270.9 763.233C263.363 779.561 255.143 796.75 243.07 811.97C229.152 829.515 210.116 844.439 181.124 852.385C128.351 866.848 68.0297 849.963 10.9352 822.251C-32.6845 801.081 -74.4203 773.589 -109.468 748.926C-177.264 701.224 -240.061 648.94 -258.658 633.231M474.369 439.15C474.946 438.424 474.684 437.486 473.784 437.049C472.883 436.612 471.69 436.844 471.114 437.571L466.893 442.892C466.318 443.617 466.58 444.557 467.482 444.995C468.381 445.431 469.573 445.197 470.148 444.471L474.369 439.15M481.914 442.812C482.49 442.085 482.227 441.146 481.327 440.71C480.428 440.273 479.235 440.505 478.659 441.232L474.438 446.553C473.863 447.278 474.125 448.218 475.025 448.655C475.924 449.091 477.118 448.858 477.693 448.133L481.914 442.812M489.456 446.472C490.033 445.745 489.771 444.807 488.87 444.37C487.97 443.933 486.778 444.165 486.201 444.892L481.98 450.213C481.405 450.938 481.668 451.878 482.567 452.315C483.469 452.752 484.66 452.518 485.236 451.793L489.456 446.472" fill="#327EA4"/>
</g>
</g>
<g opacity="0.223354">
<mask id="mask2_20_37" style="mask-type:luminance" maskUnits="userSpaceOnUse" x="-303" y="0" width="923" height="1074">
<path fill-rule="evenodd" clip-rule="evenodd" d="M-83.1252 1073.2L-302.345 170.877L400.456 0.131401L619.676 902.455L-83.1252 1073.2Z" fill="white"/>
</mask>
<g mask="url(#mask2_20_37)">
<path fill-rule="evenodd" clip-rule="evenodd" d="M-330.041 850.034C-308.234 864.699 -234.765 913.347 -157.393 955.905C-65.0392 1006.71 65.7858 1068.5 151.786 1023.24C201.804 996.916 212.209 948.915 220.368 906.047C226.238 875.213 230.944 847.036 248.396 831.491C290.11 794.336 401.538 830.632 487.281 721.933C573.025 613.231 487.477 506.133 448.748 431.695C410.021 357.26 477.87 312.743 445.413 212.325C413.312 112.998 87.9042 74.9458 -5.3582 107.819L-330.041 850.034Z" fill="#327EA4"/>
<path fill-rule="evenodd" clip-rule="evenodd" d="M-330.406 850.476L-140.273 416.866C-140.169 416.887 -140.06 416.908 -139.947 416.93L-223.788 608.136C-223.946 608.495 -223.896 608.897 -223.66 609.202C-223.426 609.505 -223.031 609.668 -222.619 609.637C-222.614 609.636 -220.743 609.489 -217.359 609.244C-205.512 608.387 -175.249 606.349 -142.882 605.371C-110.526 604.387 -76.0137 604.48 -55.8715 607.832C-32.592 611.696 -13.017 614.012 5.5813 613.604C24.1774 613.196 41.7871 610.051 61.0393 603.032C70.2196 599.682 80.8916 593.953 92.0964 586.454C94.3383 587.961 96.601 589.442 98.8624 590.892C113.361 600.185 127.699 608.166 134.189 612.901C140.969 617.832 154.751 624.639 166.916 630.279C169.513 631.482 172.033 632.63 174.391 633.689C173.966 633.934 173.565 634.175 173.188 634.415C171.704 635.388 170.594 636.262 170.047 637.435C170.046 637.437 170.046 637.437 170.046 637.437C169.905 637.758 169.818 638.115 169.828 638.484C169.853 639.369 170.22 640.171 170.757 640.855C172.079 642.503 174.372 643.729 176.984 644.765C173.467 644.635 169.855 644.714 166.726 645.253C165.046 645.546 163.5 645.969 162.165 646.601C160.835 647.23 159.694 648.089 158.968 649.253C158.759 649.589 158.574 649.939 158.418 650.297C156.794 654.088 157.819 658.807 160.152 663.014C162.516 667.214 166.257 670.944 170.693 672.496C172.084 672.977 173.551 673.235 175.049 673.197C183.372 672.971 194.592 672.097 198.525 671.776C198.38 673.027 198.192 675.041 198.154 677.346C198.102 681.204 198.417 685.857 200.225 689.279C200.875 690.494 201.436 691.479 202.002 692.255C202.572 693.019 203.132 693.634 204.012 693.955C204.711 694.216 205.578 694.107 206.22 693.765C207.201 693.26 207.972 692.428 208.929 691.235C209.874 690.038 210.961 688.456 212.312 686.438C215.013 682.386 219.784 679.465 225.703 676.915C231.611 674.362 238.598 672.191 245.534 669.489C254.678 665.923 266.359 660.503 273.245 657.23C272.84 657.685 272.446 658.146 272.077 658.599C271.327 659.533 270.697 660.406 270.325 661.243C270.152 661.657 270.008 662.072 270.055 662.596C270.083 662.855 270.182 663.151 270.387 663.403C270.586 663.656 270.878 663.839 271.162 663.935C271.948 664.178 272.631 664.044 273.512 663.819C274.388 663.577 275.46 663.164 276.827 662.538C280.223 660.974 285.104 657.368 290.884 652.386C299.525 644.923 310.033 634.395 319.446 623.332C328.86 612.264 337.175 600.69 341.418 591.027C341.423 591.015 341.43 591 341.434 590.99C349.363 572.907 346.717 560.302 344.42 554.381C344.473 554.413 344.524 554.443 344.577 554.474C346.775 555.759 349.533 557.245 351.951 558.086C353.086 558.472 354.137 558.738 355.159 558.724C355.67 558.712 356.197 558.628 356.702 558.372C357.197 558.125 357.627 557.683 357.846 557.183C357.85 557.175 357.854 557.166 357.857 557.158C358.046 556.727 358.109 556.275 358.095 555.803C358.03 554.031 357.185 552.207 356.037 550.349C353.268 545.924 348.535 541.327 346.731 539.641C346.929 539.383 347.165 539.068 347.428 538.702C347.452 539.378 347.895 539.995 348.615 540.244C349.599 540.585 350.722 540.109 351.128 539.183L358.954 521.335C359.36 520.409 358.896 519.384 357.911 519.044C356.928 518.704 355.804 519.179 355.398 520.105L353.636 524.122C353.664 523.328 353.611 522.541 353.465 521.769C353.022 519.465 352.404 517.55 351.655 516.081C350.89 514.626 350.061 513.548 348.773 513.069C348.339 512.917 347.839 512.862 347.35 512.949C346.609 513.076 345.973 513.49 345.48 514.018C344.98 514.554 344.574 515.224 344.211 516.052C343.232 518.285 342.158 520.084 341.299 521.365L341.214 520.839C341.24 520.505 341.311 519.547 341.383 518.118L342.472 515.634C342.862 514.746 342.449 513.766 341.551 513.387C341.621 509.635 341.576 504.838 341.171 499.822C340.722 494.279 339.837 488.468 338.157 483.474C336.469 478.493 334.007 474.264 330.139 472.029C329.066 471.416 327.788 470.867 326.322 470.36C321.577 468.721 314.856 467.505 307.273 466.522C295.909 465.055 282.633 464.146 271.534 463.368C265.987 462.981 260.984 462.627 257.053 462.257C255.086 462.073 253.391 461.883 252.038 461.686C250.689 461.491 249.668 461.278 249.151 461.094L248.935 461.012C247.12 460.201 245.529 458.891 243.779 457.516C242.031 456.147 240.111 454.715 237.582 453.841C236.266 453.383 234.794 453.087 233.13 453.025C233.256 451.498 232.82 450.028 231.935 448.641C240.369 436.75 249.296 420.418 259.041 398.211C266.515 381.168 274.461 360.657 283.011 336.026C296.366 297.535 306.517 263.963 308.127 238.047C308.926 225.088 307.594 214.02 303.356 205.204C299.127 196.386 291.921 189.872 281.284 186.205C277.231 184.803 272.682 183.805 267.607 183.226C253.358 181.603 228.96 176.721 200.456 170.317C157.692 160.711 105.629 147.681 64.2663 137.053C43.5837 131.738 25.5759 127.024 12.7364 123.638C6.31895 121.946 1.19255 120.587 -2.33015 119.649C-5.8506 118.712 -7.76064 118.199 -7.76514 118.197C-8.36062 118.04 -9.00786 118.334 -9.25408 118.877L-8.14455 119.273L-9.25408 118.877L-21.6179 146.266L-4.86138 108.052C57.9224 85.876 225.786 95.7063 338.646 134.754C393.52 153.739 435.39 179.633 445.857 212.112C478.208 312.486 410.301 357.061 448.951 431.449C482.887 496.764 552.888 587.198 511.355 681.917C505.583 695.08 497.647 708.338 487.17 721.611C401.296 830.377 289.892 794.193 248.132 831.383C241.942 836.895 237.351 843.989 233.74 852.224C227.157 867.238 223.83 886.044 220.018 905.955C216.205 925.871 211.909 946.887 203.381 966.333C193.552 988.751 178.1 1009.08 151.297 1023.2C102.509 1048.9 39.3511 1040.21 -23.0221 1018.63C-70.6747 1002.15 -117.869 978.131 -157.85 956.168C-235.186 913.689 -308.612 865.118 -330.406 850.476ZM348.781 501.247C349.188 500.318 348.722 499.296 347.74 498.956C346.755 498.616 345.632 499.088 345.224 500.017L342.243 506.816C341.837 507.742 342.303 508.767 343.288 509.108C344.271 509.448 345.393 508.972 345.799 508.046L348.781 501.247ZM357.023 504.098C357.43 503.169 356.962 502.146 355.98 501.806C354.997 501.466 353.874 501.939 353.466 502.868L350.485 509.666C350.079 510.593 350.546 511.618 351.528 511.958C352.511 512.298 353.635 511.823 354.042 510.896L357.023 504.098ZM365.263 506.948C365.67 506.019 365.204 504.997 364.22 504.656C363.237 504.316 362.114 504.789 361.706 505.718L358.725 512.516C358.319 513.443 358.786 514.468 359.768 514.808C360.753 515.149 361.875 514.673 362.281 513.746L365.263 506.948Z" fill="#327EA4"/>
</g>
</g>
</g>
</svg>
