<svg width="643" height="1093" viewBox="0 0 643 1093" fill="none" xmlns="http://www.w3.org/2000/svg">
<g opacity="0.328497">
<g opacity="0.507045">
<mask id="mask0_20_38" style="mask-type:luminance" maskUnits="userSpaceOnUse" x="-312" y="164" width="724" height="929">
<path fill-rule="evenodd" clip-rule="evenodd" d="M-312 1092.73L-312 164.158H411.245V1092.73H-312Z" fill="white"/>
</mask>
<g mask="url(#mask0_20_38)">
<path fill-rule="evenodd" clip-rule="evenodd" d="M-499.251 817.578C-481.522 836.977 -421.615 901.595 -356.476 961.216C-278.727 1032.39 -166.188 1123.32 -71.9341 1099.64C-17.115 1085.87 4.32794 1041.68 22.3769 1001.95C35.3602 973.374 46.5847 947.104 67.2136 936.119C116.52 909.862 216.229 971.438 325.211 886.054C434.193 800.667 376.347 676.401 356.287 594.923C336.228 513.449 412.668 486.209 404.836 380.967C397.091 276.869 89.8655 163.069 -8.52146 172.996L-499.251 817.578" fill="#92E3A9"/>
<path fill-rule="evenodd" clip-rule="evenodd" d="M-499.709 817.922L-212.583 441.456C-212.487 441.501 -212.386 441.547 -212.281 441.595L-338.893 607.603C-339.131 607.915 -339.178 608.317 -339.02 608.668C-338.865 609.018 -338.519 609.27 -338.112 609.337C-338.106 609.338 -336.254 609.637 -332.907 610.198C-321.193 612.161 -291.305 617.326 -259.622 624.017C-227.947 630.699 -194.433 638.937 -175.651 646.95C-153.942 656.2 -135.467 663.072 -117.298 667.067C-99.1314 671.06 -81.277 672.161 -60.912 669.886C-51.2002 668.797 -39.4775 665.751 -26.8191 661.109C-24.9961 663.102 -23.1472 665.076 -21.292 667.019C-9.39682 679.472 2.65123 690.612 7.83982 696.745C13.2643 703.138 25.0501 713.006 35.5391 721.358C37.7794 723.141 39.9571 724.85 41.9982 726.437C41.5269 726.574 41.0804 726.714 40.6573 726.858C38.986 727.453 37.7013 728.041 36.8923 729.051C36.8909 729.053 36.8909 729.053 36.8909 729.053C36.678 729.332 36.509 729.658 36.4318 730.019C36.2475 730.885 36.4147 731.75 36.7746 732.542C37.6708 734.455 39.6093 736.188 41.9028 737.812C38.5155 736.855 34.987 736.079 31.8198 735.865C30.1177 735.752 28.5156 735.798 27.0697 736.097C25.6285 736.394 24.3169 736.959 23.3365 737.919C23.0537 738.197 22.792 738.494 22.5555 738.804C20.0825 742.104 19.9646 746.932 21.2387 751.571C22.5444 756.211 25.2984 760.718 29.2433 763.273C30.4808 764.069 31.8458 764.666 33.3101 764.983C41.4514 766.728 52.5604 768.528 56.4586 769.145C56.0215 770.326 55.3639 772.239 54.7828 774.469C53.8214 778.206 53.0293 782.802 53.9775 786.554C54.3228 787.888 54.6354 788.978 55.0016 789.866C55.3762 790.743 55.7747 791.472 56.5543 791.992C57.1719 792.411 58.0396 792.509 58.7446 792.329C59.8171 792.07 60.7621 791.443 61.9738 790.509C63.1755 789.569 64.6044 788.289 66.3941 786.647C69.9753 783.347 75.3006 781.635 81.6546 780.555C87.9986 779.468 95.301 779.008 102.678 778.02C112.406 776.714 125.037 774.204 132.5 772.649C131.999 772.996 131.507 773.351 131.042 773.705C130.093 774.434 129.275 775.135 128.716 775.86C128.449 776.221 128.212 776.591 128.134 777.111C128.099 777.369 128.126 777.68 128.265 777.973C128.4 778.266 128.64 778.513 128.893 778.673C129.6 779.095 130.295 779.126 131.204 779.115C132.112 779.087 133.251 778.939 134.728 778.654C138.397 777.935 143.991 775.584 150.784 772.107C160.943 766.894 173.639 759.145 185.398 750.617C197.158 742.084 207.972 732.801 214.375 724.413C214.383 724.402 214.393 724.389 214.4 724.38C226.374 708.68 226.778 695.807 225.944 689.511C225.988 689.555 226.03 689.596 226.075 689.638C227.907 691.406 230.237 693.502 232.388 694.89C233.399 695.532 234.357 696.039 235.354 696.267C235.853 696.376 236.385 696.418 236.936 696.289C237.476 696.166 237.998 695.838 238.329 695.404C238.335 695.397 238.341 695.389 238.346 695.382C238.631 695.008 238.799 694.583 238.897 694.121C239.252 692.384 238.862 690.412 238.185 688.335C236.539 683.382 233.024 677.798 231.67 675.734C231.923 675.53 232.226 675.279 232.569 674.985C232.433 675.648 232.717 676.353 233.358 676.764C234.234 677.328 235.437 677.131 236.05 676.326L247.869 660.831C248.482 660.026 248.273 658.921 247.396 658.358C246.522 657.795 245.317 657.991 244.703 658.796L242.043 662.283C242.257 661.519 242.392 660.741 242.432 659.956C242.546 657.613 242.398 655.607 242.017 654.002C241.616 652.407 241.066 651.165 239.927 650.394C239.541 650.144 239.069 649.973 238.572 649.942C237.823 649.89 237.107 650.142 236.503 650.539C235.891 650.943 235.338 651.498 234.79 652.216C233.311 654.155 231.843 655.65 230.706 656.691L230.747 656.161C230.851 655.842 231.146 654.928 231.554 653.556L233.198 651.4C233.787 650.628 233.618 649.579 232.834 648.999C233.788 645.369 234.877 640.697 235.667 635.728C236.54 630.235 237.051 624.379 236.598 619.13C236.133 613.891 234.739 609.2 231.509 606.115C230.611 605.266 229.498 604.431 228.193 603.592C223.969 600.88 217.726 598.111 210.589 595.366C199.893 591.258 187.206 587.24 176.605 583.864C171.306 582.178 166.528 580.653 162.796 579.365C160.928 578.722 159.325 578.138 158.057 577.627C156.792 577.118 155.851 576.671 155.391 576.37L155.201 576.24C153.629 575.022 152.392 573.374 151.016 571.624C149.641 569.881 148.112 568.037 145.861 566.59C144.691 565.835 143.331 565.2 141.729 564.746C142.211 563.292 142.135 561.761 141.602 560.204C152.605 550.641 165.136 536.878 179.848 517.599C191.133 502.802 203.698 484.747 217.821 462.831C239.885 428.581 257.675 398.354 265.357 373.551C269.193 361.147 270.513 350.078 268.476 340.51C266.448 330.942 260.984 322.912 251.513 316.837C247.905 314.518 243.72 312.475 238.925 310.713C225.462 305.772 202.906 295.268 176.72 282.316C137.433 262.886 89.9179 237.933 52.2335 217.84C33.3902 207.793 17.0042 198.961 5.3271 192.639C-0.509496 189.48 -5.17008 186.949 -8.37181 185.206C-11.5715 183.464 -13.3065 182.515 -13.3105 182.512C-13.852 182.219 -14.5503 182.351 -14.9179 182.822L-13.9332 183.468L-14.9179 182.822L-33.3983 206.518L-8.09369 173.339C58.1507 166.612 218.949 215.795 319.4 280.383C368.241 311.785 402.814 346.833 405.318 380.865C413.057 486.038 336.546 513.322 356.542 594.733C374.099 666.212 420.772 770.616 358.051 852.853C349.335 864.281 338.493 875.291 325.179 885.714C216.054 971.133 116.343 909.671 66.9822 935.951C59.6665 939.846 53.5304 945.655 48.0769 952.806C38.1354 965.841 30.4626 983.33 22.0581 1001.78C13.6508 1020.23 4.51453 1039.64 -8.36246 1056.52C-23.2066 1075.99 -43.0207 1092.09 -72.399 1099.48C-125.876 1112.94 -185.198 1089.59 -240.713 1053.89C-283.127 1026.62 -323.318 992.145 -356.983 961.364C-422.105 901.828 -481.988 837.295 -499.709 817.922M242.725 638.909C243.34 638.102 243.13 636.999 242.255 636.437C241.378 635.873 240.175 636.068 239.56 636.874L235.058 642.777C234.445 643.581 234.656 644.687 235.533 645.251C236.407 645.813 237.61 645.616 238.224 644.811L242.725 638.909M250.062 643.625C250.677 642.818 250.464 641.714 249.589 641.152C248.715 640.589 247.511 640.784 246.896 641.59L242.394 647.493C241.781 648.297 241.992 649.403 242.867 649.966C243.742 650.528 244.946 650.332 245.56 649.527L250.062 643.625M257.396 648.339C258.011 647.533 257.8 646.43 256.923 645.866C256.049 645.304 254.845 645.498 254.23 646.305L249.728 652.207C249.115 653.012 249.326 654.118 250.201 654.68C251.078 655.244 252.28 655.047 252.894 654.242L257.396 648.339" fill="#92E3A9"/>
</g>
</g>
<g opacity="0.543225">
<mask id="mask1_20_38" style="mask-type:luminance" maskUnits="userSpaceOnUse" x="-81" y="0" width="724" height="801">
<path fill-rule="evenodd" clip-rule="evenodd" d="M-80.5616 800.572L-80.5616 0.571787H642.683V800.572H-80.5616Z" fill="white"/>
</mask>
<g mask="url(#mask1_20_38)">
<path opacity="0.097261" fill-rule="evenodd" clip-rule="evenodd" d="M-267.813 563.518C-250.084 580.231 -190.176 635.902 -125.038 687.268C-47.2889 748.583 65.25 826.923 159.504 806.525C214.323 794.66 235.766 756.591 253.815 722.362C266.798 697.742 278.023 675.109 298.652 665.645C347.959 643.024 447.668 696.074 556.649 622.512C665.632 548.949 607.786 441.888 587.725 371.693C567.666 301.5 644.106 278.031 636.274 187.361C628.53 97.6764 321.304 -0.366073 222.917 8.18599L-267.813 563.518Z" fill="#92E3A9"/>
<path opacity="0.097261" fill-rule="evenodd" clip-rule="evenodd" d="M-268.271 563.815L18.8558 239.474C18.9515 239.513 19.0524 239.553 19.1574 239.595L-107.455 382.616C-107.693 382.885 -107.739 383.232 -107.582 383.535C-107.426 383.836 -107.081 384.053 -106.673 384.11C-106.668 384.111 -104.815 384.369 -101.469 384.852C-89.7542 386.544 -59.866 390.993 -28.1831 396.758C3.49122 402.515 37.0058 409.612 55.7874 416.515C77.4967 424.485 95.9716 430.405 114.14 433.847C132.307 437.287 150.162 438.236 170.527 436.276C180.238 435.338 191.961 432.713 204.62 428.714C206.442 430.431 208.291 432.132 210.147 433.806C222.042 444.534 234.09 454.132 239.278 459.416C244.703 464.923 256.489 473.425 266.978 480.621C269.218 482.157 271.396 483.63 273.437 484.997C272.966 485.115 272.519 485.236 272.096 485.36C270.425 485.872 269.14 486.378 268.331 487.249C268.329 487.25 268.33 487.25 268.33 487.25C268.117 487.491 267.948 487.772 267.87 488.083C267.686 488.828 267.853 489.574 268.213 490.256C269.109 491.905 271.048 493.398 273.341 494.797C269.954 493.972 266.426 493.304 263.258 493.119C261.556 493.022 259.954 493.062 258.508 493.32C257.067 493.575 255.756 494.062 254.775 494.889C254.492 495.128 254.231 495.384 253.994 495.651C251.521 498.495 251.403 502.654 252.677 506.651C253.983 510.648 256.737 514.531 260.682 516.733C261.919 517.418 263.284 517.933 264.749 518.205C272.89 519.709 283.999 521.26 287.897 521.791C287.46 522.809 286.803 524.457 286.221 526.378C285.26 529.598 284.468 533.558 285.416 536.79C285.761 537.939 286.074 538.878 286.44 539.643C286.815 540.398 287.213 541.027 287.993 541.475C288.61 541.836 289.478 541.92 290.183 541.765C291.256 541.542 292.201 541.002 293.412 540.197C294.614 539.388 296.043 538.284 297.833 536.87C301.414 534.027 306.739 532.552 313.093 531.621C319.437 530.685 326.74 530.289 334.117 529.438C343.844 528.312 356.475 526.15 363.939 524.81C363.438 525.109 362.946 525.415 362.481 525.72C361.531 526.348 360.713 526.952 360.154 527.576C359.888 527.888 359.65 528.206 359.572 528.655C359.538 528.877 359.564 529.144 359.704 529.397C359.838 529.65 360.078 529.862 360.332 530C361.039 530.364 361.733 530.39 362.643 530.381C363.551 530.357 364.69 530.229 366.166 529.983C369.836 529.364 375.43 527.338 382.222 524.343C392.381 519.852 405.077 513.176 416.837 505.829C428.597 498.477 439.41 490.48 445.814 483.253C445.822 483.243 445.832 483.232 445.839 483.225C457.813 469.699 458.217 458.608 457.383 453.183C457.426 453.221 457.469 453.257 457.513 453.293C459.345 454.816 461.675 456.622 463.826 457.818C464.838 458.371 465.796 458.808 466.793 459.004C467.292 459.098 467.824 459.135 468.375 459.023C468.915 458.917 469.437 458.635 469.768 458.261C469.774 458.254 469.779 458.248 469.785 458.242C470.07 457.919 470.237 457.553 470.335 457.155C470.691 455.659 470.3 453.96 469.623 452.171C467.978 447.903 464.463 443.092 463.108 441.314C463.362 441.138 463.665 440.922 464.007 440.669C463.871 441.24 464.156 441.847 464.796 442.202C465.673 442.687 466.875 442.517 467.489 441.824L479.307 428.474C479.921 427.781 479.711 426.829 478.835 426.344C477.96 425.859 476.755 426.028 476.142 426.721L473.482 429.726C473.696 429.067 473.831 428.397 473.871 427.721C473.985 425.702 473.836 423.974 473.455 422.591C473.055 421.217 472.504 420.147 471.365 419.483C470.98 419.267 470.507 419.12 470.011 419.094C469.261 419.049 468.546 419.266 467.942 419.608C467.33 419.955 466.776 420.434 466.228 421.053C464.749 422.723 463.281 424.011 462.144 424.908L462.185 424.451C462.29 424.176 462.585 423.389 462.993 422.207L464.637 420.349C465.225 419.685 465.056 418.781 464.272 418.281C465.226 415.153 466.315 411.129 467.105 406.847C467.978 402.115 468.49 397.07 468.037 392.547C467.572 388.034 466.178 383.993 462.948 381.335C462.05 380.603 460.937 379.884 459.632 379.161C455.408 376.824 449.164 374.439 442.027 372.074C431.331 368.535 418.645 365.073 408.044 362.164C402.744 360.712 397.966 359.398 394.234 358.289C392.366 357.735 390.764 357.231 389.495 356.791C388.231 356.353 387.289 355.967 386.83 355.708L386.64 355.596C385.068 354.547 383.831 353.127 382.454 351.62C381.079 350.118 379.551 348.529 377.3 347.283C376.129 346.632 374.769 346.085 373.167 345.694C373.65 344.441 373.573 343.122 373.041 341.781C384.044 333.542 396.574 321.684 411.287 305.075C422.572 292.327 435.137 276.772 449.26 257.89C471.324 228.382 489.113 202.341 496.796 180.972C500.632 170.286 501.951 160.749 499.914 152.506C497.886 144.263 492.422 137.344 482.951 132.111C479.344 130.113 475.159 128.352 470.364 126.835C456.901 122.578 434.345 113.528 408.158 102.37C368.871 85.6301 321.357 64.1322 283.672 46.8211C264.829 38.1649 248.443 30.5559 236.766 25.1098C230.929 22.3878 226.269 20.2071 223.067 18.7056C219.867 17.2051 218.132 16.3871 218.128 16.3849C217.587 16.1318 216.888 16.2463 216.521 16.6516L217.505 17.2086L216.521 16.6516L198.04 37.0664L223.345 8.48213C289.589 2.68652 450.387 45.0588 550.839 100.704C599.68 127.759 634.252 157.953 636.756 187.273C644.496 277.884 567.985 301.39 587.981 371.528C605.538 433.111 652.21 523.059 589.489 593.909C580.774 603.754 569.932 613.24 556.618 622.22C447.493 695.812 347.781 642.86 298.421 665.501C291.105 668.857 284.969 673.862 279.516 680.022C269.574 691.252 261.901 706.32 253.497 722.214C245.089 738.111 235.953 754.832 223.076 769.378C208.232 786.146 188.418 800.021 159.04 806.39C105.563 817.983 46.2406 797.866 -9.27474 767.113C-51.688 743.618 -91.8789 713.914 -125.544 687.395C-190.666 636.103 -250.549 580.505 -268.271 563.815M474.164 409.588C474.779 408.893 474.568 407.943 473.693 407.458C472.817 406.973 471.614 407.14 470.999 407.835L466.497 412.92C465.883 413.613 466.095 414.566 466.971 415.052C467.846 415.536 469.049 415.366 469.662 414.673L474.164 409.588M481.5 413.651C482.115 412.956 481.902 412.004 481.028 411.52C480.153 411.036 478.95 411.203 478.335 411.898L473.833 416.983C473.219 417.676 473.431 418.629 474.305 419.114C475.18 419.598 476.385 419.429 476.998 418.736L481.5 413.651M488.834 417.713C489.449 417.018 489.238 416.067 488.362 415.582C487.487 415.098 486.284 415.265 485.669 415.959L481.167 421.045C480.553 421.738 480.765 422.691 481.639 423.175C482.516 423.661 483.719 423.491 484.332 422.798L488.834 417.713" fill="#92E3A9"/>
</g>
</g>
<g opacity="0.223354">
<mask id="mask2_20_38" style="mask-type:luminance" maskUnits="userSpaceOnUse" x="-203" y="32" width="724" height="929">
<path fill-rule="evenodd" clip-rule="evenodd" d="M-202.957 960.952L-202.957 32.3802H520.288V960.952H-202.957Z" fill="white"/>
</mask>
<g mask="url(#mask2_20_38)">
<path fill-rule="evenodd" clip-rule="evenodd" d="M-390.208 685.801C-372.479 705.2 -312.572 769.817 -247.434 829.439C-169.684 900.608 -57.1453 991.539 37.1089 967.862C91.928 954.091 113.371 909.903 131.42 870.173C144.403 841.596 155.628 815.326 176.257 804.341C225.563 778.084 325.272 839.661 434.254 754.276C543.236 668.89 485.39 544.623 465.33 463.146C445.271 381.672 521.711 354.431 513.879 249.189C506.134 145.091 198.908 31.2917 100.522 41.2182L-390.208 685.801" fill="#92E3A9"/>
<path fill-rule="evenodd" clip-rule="evenodd" d="M-390.666 686.144L-103.54 309.678C-103.444 309.723 -103.343 309.769 -103.238 309.817L-229.85 475.825C-230.088 476.137 -230.135 476.539 -229.977 476.891C-229.822 477.241 -229.476 477.493 -229.069 477.559C-229.063 477.56 -227.211 477.859 -223.864 478.42C-212.15 480.383 -182.262 485.548 -150.579 492.239C-118.904 498.922 -85.3897 507.16 -66.6082 515.172C-44.8989 524.422 -26.424 531.294 -8.2552 535.289C9.91162 539.282 27.766 540.384 48.131 538.108C57.8428 537.02 69.5655 533.973 82.224 529.331C84.0469 531.324 85.8959 533.298 87.751 535.241C99.6462 547.694 111.694 558.834 116.883 564.967C122.307 571.36 134.093 581.228 144.582 589.58C146.822 591.363 149 593.073 151.041 594.659C150.57 594.797 150.123 594.937 149.7 595.081C148.029 595.675 146.744 596.263 145.935 597.273C145.934 597.275 145.934 597.275 145.934 597.275C145.721 597.554 145.552 597.881 145.475 598.241C145.291 599.107 145.458 599.973 145.818 600.764C146.714 602.678 148.652 604.411 150.946 606.035C147.559 605.078 144.03 604.302 140.863 604.087C139.161 603.974 137.559 604.021 136.113 604.32C134.672 604.617 133.36 605.182 132.379 606.142C132.097 606.419 131.835 606.716 131.599 607.026C129.126 610.327 129.008 615.155 130.282 619.793C131.587 624.433 134.341 628.941 138.286 631.496C139.524 632.291 140.889 632.889 142.353 633.205C150.494 634.951 161.603 636.751 165.502 637.367C165.065 638.549 164.407 640.461 163.826 642.692C162.864 646.429 162.072 651.025 163.021 654.777C163.366 656.111 163.678 657.2 164.045 658.088C164.419 658.965 164.818 659.694 165.597 660.214C166.215 660.633 167.083 660.732 167.788 660.551C168.86 660.292 169.805 659.665 171.017 658.732C172.219 657.792 173.647 656.511 175.437 654.87C179.018 651.569 184.344 649.858 190.698 648.777C197.042 647.69 204.344 647.231 211.721 646.243C221.449 644.936 234.08 642.427 241.543 640.872C241.042 641.219 240.55 641.574 240.085 641.927C239.136 642.657 238.318 643.357 237.759 644.082C237.492 644.444 237.255 644.813 237.177 645.334C237.142 645.592 237.169 645.902 237.308 646.196C237.443 646.489 237.683 646.736 237.936 646.896C238.643 647.318 239.338 647.348 240.247 647.338C241.155 647.31 242.294 647.161 243.771 646.876C247.44 646.158 253.034 643.806 259.827 640.33C269.986 635.117 282.682 627.368 294.441 618.84C306.201 610.307 317.015 601.024 323.418 592.635C323.426 592.624 323.436 592.612 323.443 592.603C335.417 576.903 335.821 564.03 334.987 557.733C335.031 557.777 335.073 557.818 335.118 557.861C336.95 559.628 339.28 561.724 341.431 563.112C342.442 563.754 343.4 564.262 344.397 564.489C344.896 564.598 345.428 564.641 345.979 564.511C346.519 564.388 347.041 564.06 347.372 563.626C347.378 563.619 347.384 563.612 347.389 563.604C347.674 563.231 347.842 562.805 347.94 562.344C348.295 560.607 347.905 558.635 347.228 556.558C345.582 551.604 342.067 546.02 340.713 543.956C340.966 543.752 341.27 543.501 341.612 543.208C341.476 543.87 341.76 544.575 342.401 544.987C343.277 545.55 344.48 545.353 345.093 544.549L356.912 529.053C357.525 528.249 357.316 527.144 356.439 526.58C355.565 526.018 354.36 526.214 353.746 527.018L351.086 530.506C351.3 529.741 351.435 528.963 351.475 528.179C351.589 525.836 351.441 523.829 351.06 522.225C350.659 520.63 350.109 519.387 348.97 518.617C348.584 518.367 348.112 518.196 347.615 518.165C346.866 518.113 346.15 518.365 345.546 518.762C344.934 519.165 344.381 519.72 343.833 520.439C342.354 522.378 340.886 523.872 339.749 524.914L339.79 524.383C339.894 524.064 340.189 523.15 340.597 521.779L342.241 519.622C342.83 518.851 342.661 517.802 341.877 517.221C342.831 513.591 343.92 508.92 344.71 503.95C345.583 498.457 346.094 492.602 345.641 487.352C345.176 482.114 343.782 477.423 340.552 474.338C339.654 473.489 338.541 472.654 337.236 471.815C333.012 469.102 326.769 466.333 319.632 463.589C308.936 459.48 296.249 455.462 285.648 452.086C280.349 450.4 275.571 448.875 271.839 447.588C269.971 446.944 268.368 446.36 267.1 445.849C265.835 445.341 264.894 444.893 264.434 444.593L264.244 444.462C262.672 443.245 261.435 441.596 260.059 439.847C258.684 438.104 257.155 436.26 254.904 434.813C253.734 434.057 252.374 433.422 250.772 432.969C251.254 431.515 251.178 429.984 250.645 428.426C261.648 418.863 274.179 405.1 288.891 385.822C300.176 371.025 312.741 352.97 326.864 331.053C348.928 296.803 366.718 266.577 374.4 241.773C378.236 229.37 379.556 218.3 377.519 208.732C375.491 199.165 370.027 191.134 360.556 185.059C356.948 182.74 352.763 180.697 347.968 178.936C334.505 173.994 311.949 163.491 285.763 150.539C246.476 131.109 198.961 106.156 161.276 86.0624C142.433 76.0151 126.047 67.1832 114.37 60.8618C108.534 57.7024 103.873 55.1712 100.671 53.4283C97.4715 51.6867 95.7365 50.7373 95.7326 50.7347C95.1911 50.441 94.4928 50.5738 94.1251 51.0443L95.1098 51.6908L94.1251 51.0443L75.6447 74.74L100.949 41.5618C167.194 34.8348 327.992 84.017 428.443 148.605C477.284 180.008 511.857 215.055 514.361 249.088C522.1 354.261 445.589 381.545 465.585 462.955C483.142 534.435 529.815 638.838 467.094 721.075C458.378 732.503 447.536 743.513 434.222 753.937C325.097 839.356 225.386 777.893 176.025 804.173C168.709 808.069 162.573 813.878 157.12 821.028C147.178 834.063 139.506 851.552 131.101 870.001C122.694 888.453 113.558 907.861 100.681 924.745C85.8364 944.208 66.0224 960.313 36.644 967.706C-16.833 981.161 -76.155 957.812 -131.67 922.116C-174.084 894.845 -214.275 860.367 -247.94 829.586C-313.062 770.05 -372.945 705.518 -390.666 686.144M351.768 507.131C352.383 506.325 352.172 505.222 351.298 504.659C350.421 504.096 349.218 504.29 348.603 505.096L344.101 510.999C343.488 511.803 343.699 512.91 344.576 513.473C345.45 514.035 346.653 513.838 347.266 513.034L351.768 507.131M359.105 511.847C359.719 511.041 359.507 509.936 358.632 509.374C357.757 508.812 356.554 509.006 355.939 509.812L351.437 515.715C350.824 516.519 351.035 517.626 351.91 518.188C352.784 518.75 353.989 518.554 354.603 517.75L359.105 511.847M366.439 516.562C367.054 515.755 366.843 514.652 365.966 514.089C365.092 513.526 363.888 513.721 363.273 514.527L358.771 520.43C358.158 521.234 358.369 522.34 359.244 522.903C360.121 523.466 361.323 523.269 361.937 522.464L366.439 516.562" fill="#92E3A9"/>
</g>
</g>
</g>
</svg>
