<svg width="893" height="1103" viewBox="0 0 893 1103" fill="none" xmlns="http://www.w3.org/2000/svg">
<g opacity="0.328497">
<g opacity="0.507045">
<mask id="mask0_20_27" style="mask-type:luminance" maskUnits="userSpaceOnUse" x="-662" y="-256" width="1181" height="1206">
<path fill-rule="evenodd" clip-rule="evenodd" d="M-661.367 471.668L-50.7861 -255.994L518.501 221.695L-92.0798 949.357L-661.367 471.668Z" fill="white"/>
</mask>
<g mask="url(#mask0_20_27)">
<path fill-rule="evenodd" clip-rule="evenodd" d="M-627.832 132.374C-626.633 159.285 -621.967 249.489 -609.899 339.234C-595.497 446.356 -566.706 591.942 -476.948 635.642C-424.742 661.057 -378.808 640.592 -338.477 621.379C-309.467 607.561 -283.358 594.388 -259.898 599.405C-203.822 611.395 -165.827 725.505 -23.9002 730.574C118.029 735.643 154.208 600.057 191.993 522.96C229.777 445.865 307.858 475.005 370.894 387.361C433.248 300.671 266.25 8.5771 182.28 -48.6268L-627.832 132.374" fill="#92E3A9"/>
<path fill-rule="evenodd" clip-rule="evenodd" d="M-628.419 132.341L-154.868 26.9694C-154.823 27.0679 -154.774 27.1706 -154.723 27.2778L-363.541 73.7426C-363.933 73.8299 -364.235 74.1143 -364.342 74.4937C-364.449 74.8709 -364.343 75.2967 -364.066 75.6179C-364.062 75.622 -362.801 77.08 -360.535 79.7299C-352.606 89.0055 -332.476 112.793 -311.937 138.962C-291.399 165.119 -270.436 193.711 -260.921 212.394C-249.915 233.982 -239.892 251.569 -228.217 266.7C-216.544 281.828 -203.214 294.484 -185.688 306.151C-177.328 311.713 -166.097 317.068 -153.081 321.791C-152.956 324.556 -152.799 327.325 -152.617 330.072C-151.442 347.687 -149.284 364.375 -149.232 372.608C-149.166 381.2 -146.378 396.718 -143.614 410.19C-143.023 413.067 -142.433 415.845 -141.869 418.437C-142.331 418.233 -142.774 418.048 -143.202 417.881C-144.908 417.243 -146.306 416.855 -147.607 417.113C-147.609 417.113 -147.609 417.113 -147.609 417.113C-147.961 417.191 -148.308 417.335 -148.606 417.567C-149.32 418.124 -149.758 418.913 -149.995 419.771C-150.548 421.862 -150.162 424.5 -149.424 427.288C-151.461 424.3 -153.728 421.362 -156.08 419.102C-157.346 417.889 -158.637 416.868 -159.972 416.147C-161.302 415.428 -162.706 415.004 -164.109 415.109C-164.514 415.14 -164.915 415.199 -165.305 415.286C-169.422 416.239 -172.689 419.945 -174.737 424.421C-176.76 428.919 -177.556 434.271 -176.131 438.879C-175.68 440.319 -174.998 441.689 -174.054 442.904C-168.793 449.649 -161.233 458.397 -158.57 461.455C-159.691 462.092 -161.466 463.156 -163.39 464.52C-166.604 466.814 -170.249 469.892 -171.97 473.459C-172.575 474.732 -173.046 475.793 -173.342 476.73C-173.623 477.665 -173.789 478.499 -173.517 479.422C-173.307 480.158 -172.688 480.808 -172.015 481.133C-171 481.638 -169.844 481.771 -168.277 481.839C-166.713 481.896 -164.746 481.837 -162.258 481.733C-157.269 481.512 -151.952 483.687 -146.24 487.037C-140.532 490.376 -134.481 494.839 -128.025 498.937C-119.509 504.338 -107.917 510.714 -101.019 514.425C-101.642 514.366 -102.263 514.319 -102.861 514.289C-104.088 514.234 -105.193 514.242 -106.109 514.441C-106.557 514.548 -106.987 514.681 -107.39 515.038C-107.587 515.217 -107.771 515.478 -107.854 515.8C-107.941 516.118 -107.914 516.47 -107.82 516.763C-107.541 517.561 -107.014 518.044 -106.291 518.636C-105.558 519.214 -104.564 519.85 -103.214 520.601C-99.8537 522.462 -93.9039 524.314 -86.2717 526.076C-74.8475 528.701 -59.7585 531.014 -44.8947 532.098C-30.0271 533.179 -15.4116 533.046 -4.85554 530.702C-4.84177 530.699 -4.82573 530.695 -4.81426 530.693C14.9343 526.298 23.717 516.478 27.2007 510.993C27.2057 511.056 27.2123 511.116 27.2197 511.179C27.4994 513.774 27.9552 516.955 28.7355 519.463C29.1095 520.635 29.5302 521.665 30.1652 522.502C30.4865 522.917 30.8769 523.302 31.3959 523.564C31.902 523.824 32.5284 523.912 33.0744 523.791C33.0836 523.789 33.0928 523.787 33.102 523.785C33.5724 523.68 33.9838 523.458 34.3645 523.16C35.7863 522.034 36.7754 520.231 37.6084 518.156C39.5701 513.187 40.4754 506.49 40.7664 503.978C41.1 503.985 41.5038 503.989 41.9664 503.985C41.4234 504.415 41.1838 505.155 41.4173 505.9C41.7367 506.921 42.8131 507.561 43.825 507.336L63.3166 502.998C64.3285 502.773 64.8903 501.769 64.5709 500.748C64.2521 499.73 63.175 499.088 62.1631 499.313L57.7761 500.289C58.4475 499.831 59.0651 499.311 59.6123 498.723C61.243 496.962 62.4455 495.291 63.2003 493.782C63.9338 492.268 64.3176 490.93 63.9277 489.575C63.789 489.124 63.5291 488.678 63.1587 488.326C62.6032 487.79 61.8742 487.515 61.1373 487.427C60.3906 487.339 59.5902 487.408 58.6861 487.609C56.2471 488.152 54.1087 488.354 52.5289 488.419L52.9103 488.03C53.2022 487.849 54.0354 487.328 55.2583 486.522L57.9704 485.919C58.941 485.703 59.4978 484.769 59.2621 483.796C62.4 481.582 66.3289 478.64 70.2187 475.268C74.5176 471.54 78.7705 467.289 81.8657 462.876C84.9441 458.464 86.9316 453.868 86.4175 449.317C86.269 448.058 85.9421 446.668 85.4665 445.149C83.9254 440.234 80.8313 433.94 77.0185 427.075C71.3009 416.791 63.9572 405.264 57.8326 395.616C54.7699 390.795 52.0116 386.444 49.9204 382.97C48.8733 381.232 47.9961 379.716 47.3336 378.478C46.6726 377.244 46.2259 376.272 46.0621 375.733L45.9981 375.505C45.5611 373.513 45.6715 371.404 45.7384 369.124C45.8021 366.85 45.8118 364.395 44.9915 361.775C44.5666 360.409 43.9137 359.014 42.951 357.6C44.2868 356.779 45.2331 355.529 45.838 353.957C60.7873 353.73 79.7001 351.221 103.957 345.831C122.57 341.689 144.332 335.839 169.86 327.993C209.748 315.726 243.626 303.789 265.983 289.427C277.158 282.24 285.475 274.437 290.164 265.594C294.858 256.757 295.838 246.855 292.377 235.839C291.063 231.639 289.112 227.275 286.496 222.727C279.148 209.963 268.301 186.834 256.205 159.389C238.057 118.214 217.065 67.2778 200.614 26.6421C192.389 6.32309 185.298 -11.4205 180.264 -24.0867C177.747 -30.4175 175.743 -35.4792 174.369 -38.9597C172.995 -42.4378 172.254 -44.3278 172.252 -44.3324C172.019 -44.9202 171.382 -45.2773 170.784 -45.1515L171.133 -43.9945L170.784 -45.1515L140.656 -38.7886L182.39 -48.075C238.957 -9.59345 333.186 135.151 369.784 252.111C387.58 308.978 391.747 359.277 371.34 387.599C308.276 475.129 230.111 445.975 192.32 522.979C159.137 590.588 127.225 703.229 23.7803 726.247C9.40542 729.446 -6.36798 730.913 -23.7021 730.287C-165.765 725.15 -203.836 611.128 -259.969 599.121C-268.289 597.341 -276.939 597.841 -285.933 599.842C-302.329 603.491 -319.869 612.128 -338.615 621.034C-357.366 629.941 -377.319 639.115 -398.557 643.841C-423.039 649.288 -449.225 648.822 -477.211 635.212C-528.152 610.436 -559.492 552.957 -579.718 488.318C-595.171 438.935 -604.136 385.371 -610.395 339.015C-622.506 249.349 -627.209 159.227 -628.419 132.341M73.6831 482.423C74.6972 482.197 75.2568 481.193 74.938 480.175C74.6186 479.154 73.5437 478.512 72.5296 478.738L65.1046 480.39C64.0928 480.615 63.5316 481.621 63.8511 482.642C64.1698 483.66 65.2463 484.3 66.2581 484.075L73.6831 482.423M76.3566 490.964C77.3708 490.738 77.9296 489.732 77.6109 488.714C77.2921 487.696 76.2173 487.053 75.2031 487.279L67.7782 488.931C66.7663 489.156 66.2052 490.162 66.5239 491.181C66.8427 492.199 67.9198 492.841 68.9317 492.616L76.3566 490.964M79.0293 499.502C80.0435 499.277 80.603 498.273 80.2836 497.252C79.9648 496.234 78.89 495.592 77.8758 495.817L70.4509 497.469C69.439 497.695 68.8779 498.701 69.1967 499.719C69.5161 500.74 70.5925 501.38 71.6044 501.155L79.0293 499.502" fill="#92E3A9"/>
</g>
</g>
<g opacity="0.543225">
<mask id="mask1_20_27" style="mask-type:luminance" maskUnits="userSpaceOnUse" x="-288" y="-333" width="1181" height="1207">
<path fill-rule="evenodd" clip-rule="evenodd" d="M-287.087 395.583L323.494 -332.079L892.781 145.61L282.2 873.272L-287.087 395.583Z" fill="white"/>
</mask>
<g mask="url(#mask1_20_27)">
<path opacity="0.097261" fill-rule="evenodd" clip-rule="evenodd" d="M-253.552 56.2892C-252.353 83.2002 -247.687 173.404 -235.619 263.149C-221.218 370.271 -192.426 515.857 -102.668 559.557C-50.4625 584.972 -4.52851 564.507 35.8026 545.294C64.8126 531.476 90.9217 518.303 114.382 523.32C170.458 535.31 208.453 649.42 350.38 654.489C492.309 659.558 528.488 523.972 566.273 446.875C604.057 369.78 682.138 398.92 745.174 311.276C807.528 224.586 640.53 -67.5079 556.559 -124.712L-253.552 56.2892" fill="#92E3A9"/>
<path opacity="0.097261" fill-rule="evenodd" clip-rule="evenodd" d="M-254.139 56.256L219.412 -49.1151C219.457 -49.0166 219.507 -48.9139 219.557 -48.8067L10.7389 -2.34189C10.3466 -2.25459 10.0453 -1.97021 9.93833 -1.59074C9.83059 -1.21359 9.9369 -0.787747 10.2141 -0.466613C10.2179 -0.462506 11.4793 0.995507 13.7445 3.64541C21.6744 12.921 41.8041 36.7089 62.3431 62.878C82.8807 89.035 103.844 117.626 113.359 136.31C124.365 157.897 134.388 175.485 146.063 190.615C157.736 205.744 171.066 218.399 188.592 230.067C196.952 235.628 208.183 240.983 221.199 245.706C221.324 248.472 221.481 251.24 221.663 253.988C222.838 271.603 224.996 288.29 225.048 296.523C225.114 305.116 227.902 320.633 230.666 334.106C231.257 336.983 231.847 339.761 232.411 342.352C231.949 342.149 231.506 341.963 231.078 341.797C229.372 341.159 227.974 340.771 226.673 341.028C226.671 341.029 226.671 341.029 226.671 341.029C226.319 341.107 225.972 341.251 225.674 341.483C224.96 342.039 224.522 342.828 224.285 343.686C223.732 345.778 224.118 348.416 224.856 351.203C222.819 348.216 220.552 345.277 218.2 343.017C216.934 341.805 215.643 340.783 214.308 340.063C212.978 339.343 211.574 338.92 210.171 339.024C209.766 339.055 209.365 339.115 208.975 339.202C204.858 340.155 201.591 343.86 199.543 348.337C197.52 352.835 196.724 358.186 198.149 362.794C198.6 364.235 199.282 365.605 200.226 366.82C205.487 373.565 213.048 382.312 215.71 385.37C214.589 386.007 212.814 387.072 210.89 388.436C207.676 390.729 204.031 393.808 202.31 397.374C201.705 398.648 201.234 399.708 200.939 400.646C200.657 401.58 200.491 402.415 200.763 403.337C200.973 404.073 201.592 404.724 202.265 405.048C203.28 405.553 204.436 405.686 206.003 405.755C207.567 405.812 209.534 405.752 212.022 405.648C217.011 405.427 222.329 407.603 228.04 410.953C233.748 414.292 239.799 418.754 246.255 422.852C254.771 428.253 266.363 434.63 273.261 438.341C272.638 438.282 272.017 438.234 271.419 438.205C270.192 438.149 269.088 438.158 268.171 438.357C267.723 438.464 267.293 438.597 266.89 438.953C266.693 439.133 266.509 439.393 266.426 439.716C266.339 440.034 266.366 440.386 266.46 440.679C266.739 441.476 267.266 441.959 267.989 442.552C268.722 443.129 269.716 443.765 271.066 444.517C274.426 446.377 280.376 448.23 288.008 449.992C299.432 452.616 314.521 454.93 329.385 456.014C344.253 457.094 358.868 456.961 369.424 454.617C369.438 454.614 369.454 454.611 369.466 454.608C389.214 450.214 397.997 440.393 401.481 434.908C401.486 434.971 401.492 435.032 401.5 435.094C401.779 437.689 402.235 440.87 403.016 443.379C403.39 444.55 403.81 445.581 404.445 446.417C404.767 446.832 405.157 447.217 405.676 447.48C406.182 447.74 406.808 447.828 407.354 447.706C407.364 447.704 407.373 447.702 407.382 447.7C407.852 447.596 408.264 447.373 408.644 447.076C410.066 445.95 411.055 444.146 411.888 442.072C413.85 437.103 414.755 430.406 415.046 427.894C415.38 427.901 415.784 427.905 416.246 427.901C415.703 428.33 415.464 429.07 415.697 429.816C416.017 430.837 417.093 431.476 418.105 431.251L437.597 426.914C438.609 426.689 439.17 425.685 438.851 424.664C438.532 423.646 437.455 423.004 436.443 423.229L432.056 424.205C432.728 423.747 433.345 423.227 433.892 422.638C435.523 420.877 436.725 419.207 437.48 417.698C438.214 416.184 438.598 414.846 438.208 413.49C438.069 413.04 437.809 412.594 437.439 412.241C436.883 411.706 436.154 411.431 435.417 411.343C434.671 411.254 433.87 411.324 432.966 411.525C430.527 412.068 428.389 412.269 426.809 412.334L427.19 411.946C427.482 411.765 428.315 411.243 429.538 410.438L432.25 409.834C433.221 409.618 433.778 408.684 433.542 407.712C436.68 405.497 440.609 402.556 444.499 399.183C448.798 395.456 453.05 391.205 456.146 386.792C459.224 382.38 461.212 377.783 460.698 373.232C460.549 371.973 460.222 370.584 459.747 369.065C458.205 364.149 455.111 357.856 451.299 350.991C445.581 340.707 438.237 329.179 432.113 319.532C429.05 314.71 426.292 310.36 424.2 306.886C423.153 305.148 422.276 303.632 421.614 302.393C420.953 301.16 420.506 300.187 420.342 299.648L420.278 299.421C419.841 297.428 419.952 295.319 420.018 293.04C420.082 290.765 420.092 288.311 419.271 285.69C418.847 284.325 418.194 282.929 417.231 281.516C418.567 280.695 419.513 279.445 420.118 277.872C435.067 277.646 453.98 275.137 478.237 269.746C496.85 265.605 518.612 259.755 544.14 251.909C584.028 239.642 617.906 227.705 640.263 213.342C651.438 206.156 659.755 198.353 664.444 189.51C669.138 180.673 670.118 170.771 666.658 159.755C665.343 155.555 663.392 151.19 660.776 146.642C653.428 133.878 642.581 110.749 630.485 83.3042C612.337 42.1299 591.345 -8.80672 574.894 -49.4424C566.669 -69.7614 559.578 -87.505 554.544 -100.171C552.027 -106.502 550.023 -111.564 548.649 -115.044C547.275 -118.522 546.534 -120.412 546.532 -120.417C546.299 -121.005 545.662 -121.362 545.064 -121.236L545.414 -120.079L545.064 -121.236L514.936 -114.873L556.67 -124.159C613.237 -85.6779 707.466 59.0669 744.064 176.027C761.86 232.893 766.027 283.192 745.62 311.515C682.556 399.044 604.391 369.891 566.6 446.894C533.417 514.504 501.505 627.145 398.06 650.163C383.685 653.361 367.912 654.828 350.578 654.203C208.516 649.065 170.444 535.044 114.311 523.036C105.991 521.257 97.3413 521.756 88.3469 523.758C71.9506 527.406 54.4112 536.043 35.665 544.949C16.9142 553.856 -3.03896 563.031 -24.2767 567.756C-48.7588 573.204 -74.9448 572.738 -102.931 559.127C-153.872 534.351 -185.212 476.873 -205.438 412.233C-220.891 362.85 -229.856 309.286 -236.115 262.93C-248.226 173.264 -252.929 83.1423 -254.139 56.256M447.963 406.338C448.977 406.112 449.537 405.108 449.218 404.09C448.898 403.07 447.824 402.427 446.809 402.653L439.385 404.305C438.373 404.53 437.812 405.537 438.131 406.557C438.45 407.575 439.526 408.215 440.538 407.99L447.963 406.338M450.637 414.879C451.651 414.653 452.209 413.647 451.891 412.629C451.572 411.611 450.497 410.968 449.483 411.194L442.058 412.846C441.046 413.071 440.485 414.078 440.804 415.096C441.123 416.114 442.2 416.756 443.212 416.531L450.637 414.879M453.309 423.418C454.323 423.192 454.883 422.188 454.563 421.168C454.245 420.149 453.17 419.507 452.156 419.732L444.731 421.385C443.719 421.61 443.158 422.616 443.477 423.635C443.796 424.655 444.872 425.295 445.884 425.07L453.309 423.418" fill="#92E3A9"/>
</g>
</g>
<g opacity="0.223354">
<mask id="mask2_20_27" style="mask-type:luminance" maskUnits="userSpaceOnUse" x="-489" y="-288" width="1180" height="1207">
<path fill-rule="evenodd" clip-rule="evenodd" d="M-488.886 440.423L121.695 -287.239L690.982 190.45L80.4014 918.112L-488.886 440.423Z" fill="white"/>
</mask>
<g mask="url(#mask2_20_27)">
<path fill-rule="evenodd" clip-rule="evenodd" d="M-455.351 101.129C-454.152 128.04 -449.486 218.245 -437.418 307.989C-423.016 415.111 -394.225 560.698 -304.467 604.397C-252.261 629.812 -206.327 609.347 -165.996 590.134C-136.986 576.316 -110.877 563.143 -87.4166 568.16C-31.3405 580.15 6.654 694.26 148.581 699.329C290.51 704.399 326.689 568.813 364.474 491.715C402.258 414.62 480.339 443.76 543.375 356.116C605.729 269.426 438.731 -22.6678 354.761 -79.8716L-455.351 101.129" fill="#92E3A9"/>
<path fill-rule="evenodd" clip-rule="evenodd" d="M-455.938 101.096L17.6126 -4.27549C17.6582 -4.17696 17.7075 -4.07431 17.7583 -3.96705L-191.06 42.4977C-191.452 42.585 -191.754 42.8694 -191.861 43.2489C-191.968 43.626 -191.862 44.0519 -191.585 44.373C-191.581 44.3771 -190.32 45.8351 -188.054 48.485C-180.125 57.7606 -159.995 81.5485 -139.456 107.718C-118.918 133.875 -97.9548 162.466 -88.4398 181.15C-77.4342 202.737 -67.4107 220.324 -55.7363 235.455C-44.0626 250.583 -30.7331 263.239 -13.2069 274.906C-4.8468 280.468 6.38398 285.823 19.4 290.546C19.5245 293.311 19.6818 296.08 19.8645 298.827C21.0392 316.443 23.1972 333.13 23.2488 341.363C23.3148 349.955 26.103 365.473 28.8673 378.945C29.4585 381.822 30.0483 384.6 30.6116 387.192C30.1503 386.988 29.7069 386.803 29.2793 386.636C27.5727 385.998 26.175 385.61 24.8738 385.868C24.8715 385.868 24.8715 385.868 24.8715 385.868C24.5205 385.946 24.1729 386.09 23.8749 386.322C23.1606 386.879 22.7228 387.668 22.4858 388.526C21.9329 390.617 22.3194 393.255 23.0569 396.043C21.0199 393.055 18.7527 390.117 16.4009 387.857C15.1353 386.644 13.8436 385.623 12.5087 384.902C11.1792 384.183 9.77526 383.759 8.37227 383.864C7.96716 383.895 7.5661 383.954 7.17604 384.041C3.05911 384.994 -0.20845 388.7 -2.25555 393.176C-4.27863 397.675 -5.07499 403.026 -3.64988 407.634C-3.19888 409.075 -2.51734 410.444 -1.57258 411.659C3.68768 418.404 11.2485 427.152 13.9114 430.21C12.7904 430.847 11.0154 431.911 9.09119 433.276C5.87727 435.569 2.23171 438.647 0.51092 442.214C-0.0943313 443.487 -0.564947 444.548 -0.860489 445.485C-1.14226 446.42 -1.30801 447.254 -1.03642 448.177C-0.825659 448.913 -0.207373 449.563 0.46601 449.888C1.48072 450.393 2.63666 450.526 4.20433 450.595C5.76838 450.652 7.73516 450.592 10.2231 450.488C15.2122 450.267 20.5295 452.443 26.2413 455.793C31.9495 459.131 37.9997 463.594 44.4562 467.692C52.9721 473.093 64.5643 479.469 71.4616 483.18C70.8393 483.121 70.2184 483.074 69.62 483.044C68.3927 482.989 67.2885 482.997 66.3716 483.196C65.924 483.303 65.4943 483.436 65.0905 483.793C64.8939 483.972 64.7105 484.233 64.6273 484.555C64.5403 484.873 64.5672 485.226 64.6612 485.518C64.9403 486.316 65.467 486.799 66.1899 487.391C66.923 487.969 67.9172 488.605 69.2668 489.357C72.6274 491.217 78.5772 493.069 86.2093 494.831C97.6335 497.456 112.723 499.769 127.586 500.853C142.454 501.934 157.069 501.801 167.625 499.457C167.639 499.454 167.655 499.45 167.667 499.448C187.415 495.054 196.198 485.233 199.682 479.748C199.687 479.811 199.693 479.871 199.701 479.934C199.98 482.529 200.436 485.71 201.217 488.219C201.591 489.39 202.011 490.42 202.646 491.257C202.968 491.672 203.358 492.057 203.877 492.319C204.383 492.58 205.009 492.667 205.555 492.546C205.565 492.544 205.574 492.542 205.583 492.54C206.053 492.435 206.465 492.213 206.845 491.916C208.267 490.789 209.256 488.986 210.089 486.911C212.051 481.943 212.956 475.245 213.247 472.733C213.581 472.74 213.985 472.744 214.447 472.74C213.904 473.17 213.665 473.91 213.898 474.656C214.218 475.676 215.294 476.316 216.306 476.091L235.798 471.754C236.81 471.528 237.371 470.524 237.052 469.504C236.733 468.485 235.656 467.843 234.644 468.068L230.257 469.045C230.929 468.586 231.546 468.066 232.093 467.478C233.724 465.717 234.926 464.046 235.681 462.537C236.415 461.023 236.799 459.686 236.409 458.33C236.27 457.879 236.01 457.433 235.64 457.081C235.084 456.545 234.355 456.27 233.618 456.182C232.872 456.094 232.071 456.163 231.167 456.365C228.728 456.907 226.59 457.109 225.01 457.174L225.391 456.785C225.683 456.604 226.516 456.083 227.739 455.277L230.451 454.674C231.422 454.458 231.979 453.524 231.743 452.551C234.881 450.337 238.81 447.395 242.7 444.023C246.999 440.295 251.251 436.044 254.347 431.631C257.425 427.219 259.413 422.623 258.899 418.072C258.75 416.813 258.423 415.424 257.948 413.904C256.406 408.989 253.312 402.695 249.5 395.83C243.782 385.546 236.438 374.019 230.314 364.371C227.251 359.55 224.493 355.199 222.401 351.725C221.354 349.988 220.477 348.471 219.815 347.233C219.154 345.999 218.707 345.027 218.543 344.488L218.479 344.26C218.042 342.268 218.153 340.159 218.219 337.879C218.283 335.605 218.293 333.15 217.472 330.53C217.048 329.165 216.395 327.769 215.432 326.355C216.768 325.534 217.714 324.284 218.319 322.712C233.268 322.485 252.181 319.976 276.438 314.586C295.051 310.444 316.813 304.594 342.341 296.748C382.229 284.481 416.107 272.544 438.464 258.182C449.639 250.995 457.956 243.192 462.645 234.35C467.339 225.513 468.319 215.611 464.859 204.595C463.544 200.395 461.593 196.03 458.977 191.482C451.629 178.718 440.782 155.589 428.686 128.144C410.538 86.9695 389.546 36.0329 373.095 -4.60279C364.87 -24.9218 357.779 -42.6654 352.745 -55.3316C350.228 -61.6624 348.224 -66.7241 346.85 -70.2046C345.476 -73.6827 344.735 -75.5727 344.733 -75.5773C344.5 -76.1651 343.863 -76.5222 343.265 -76.3964L343.615 -75.2394L343.265 -76.3964L313.137 -70.0335L354.871 -79.3199C411.438 -40.8383 505.667 103.906 542.265 220.866C560.061 277.733 564.228 328.032 543.821 356.355C480.757 443.884 402.592 414.731 364.801 491.734C331.618 559.343 299.706 671.984 196.261 695.002C181.886 698.201 166.113 699.668 148.779 699.042C6.71651 693.905 -31.3549 579.883 -87.4882 567.876C-95.808 566.096 -104.458 566.596 -113.452 568.597C-129.848 572.246 -147.388 580.883 -166.134 589.789C-184.885 598.696 -204.838 607.87 -226.076 612.596C-250.558 618.044 -276.744 617.577 -304.73 603.967C-355.671 579.191 -387.011 521.712 -407.237 457.073C-422.69 407.69 -431.655 354.126 -437.914 307.77C-450.025 218.104 -454.728 127.982 -455.938 101.096M246.164 451.178C247.178 450.952 247.738 449.948 247.419 448.93C247.099 447.909 246.025 447.267 245.01 447.492L237.585 449.145C236.574 449.37 236.013 450.376 236.332 451.397C236.651 452.415 237.727 453.055 238.739 452.83L246.164 451.178M248.838 459.719C249.852 459.493 250.411 458.487 250.092 457.469C249.773 456.451 248.698 455.808 247.684 456.034L240.259 457.686C239.247 457.911 238.686 458.918 239.005 459.936C239.324 460.954 240.401 461.596 241.413 461.371L248.838 459.719M251.51 468.258C252.524 468.032 253.084 467.028 252.764 466.008C252.446 464.989 251.371 464.347 250.357 464.572L242.932 466.225C241.92 466.45 241.359 467.456 241.678 468.475C241.997 469.495 243.073 470.135 244.085 469.91L251.51 468.258" fill="#92E3A9"/>
</g>
</g>
</g>
</svg>
