<svg width="769" height="1059" viewBox="0 0 769 1059" fill="none" xmlns="http://www.w3.org/2000/svg">
<g opacity="0.328497">
<g opacity="0.507045">
<mask id="mask0_60_3" style="mask-type:luminance" maskUnits="userSpaceOnUse" x="-663" y="-254" width="1180" height="1207">
<path fill-rule="evenodd" clip-rule="evenodd" d="M-663 474.607L-52.419 -253.055L516.868 224.634L-93.7127 952.296L-663 474.607Z" fill="white"/>
</mask>
<g mask="url(#mask0_60_3)">
<path fill-rule="evenodd" clip-rule="evenodd" d="M-629.465 135.313C-628.266 162.224 -623.6 252.428 -611.532 342.173C-597.13 449.295 -568.339 594.881 -478.581 638.581C-426.375 663.996 -380.441 643.531 -340.11 624.318C-311.1 610.5 -284.991 597.327 -261.531 602.344C-205.455 614.334 -167.46 728.444 -25.5332 733.513C116.396 738.582 152.575 602.996 190.36 525.899C228.144 448.804 306.225 477.944 369.261 390.3C431.615 303.61 264.617 11.5161 180.647 -45.6877L-629.465 135.313Z" fill="#89CFF3"/>
<path fill-rule="evenodd" clip-rule="evenodd" d="M-630.052 135.28L-156.501 29.9085C-156.456 30.0071 -156.406 30.1097 -156.356 30.2169L-365.174 76.6817C-365.566 76.769 -365.868 77.0534 -365.975 77.4329C-366.082 77.81 -365.976 78.2359 -365.699 78.557C-365.695 78.5611 -364.434 80.0191 -362.168 82.669C-354.239 91.9446 -334.109 115.733 -313.57 141.902C-293.032 168.059 -272.069 196.65 -262.554 215.334C-251.548 236.921 -241.525 254.508 -229.85 269.639C-218.176 284.767 -204.847 297.423 -187.321 309.09C-178.961 314.652 -167.73 320.007 -154.714 324.73C-154.589 327.495 -154.432 330.264 -154.249 333.011C-153.075 350.627 -150.917 367.314 -150.865 375.547C-150.799 384.139 -148.011 399.657 -145.247 413.129C-144.655 416.006 -144.066 418.784 -143.502 421.376C-143.964 421.172 -144.407 420.987 -144.835 420.82C-146.541 420.182 -147.939 419.794 -149.24 420.052C-149.242 420.052 -149.242 420.052 -149.242 420.052C-149.593 420.13 -149.941 420.274 -150.239 420.506C-150.953 421.063 -151.391 421.852 -151.628 422.71C-152.181 424.801 -151.795 427.439 -151.057 430.227C-153.094 427.239 -155.361 424.301 -157.713 422.041C-158.979 420.828 -160.27 419.807 -161.605 419.086C-162.935 418.367 -164.339 417.943 -165.742 418.048C-166.147 418.079 -166.548 418.138 -166.938 418.225C-171.055 419.178 -174.322 422.884 -176.369 427.36C-178.393 431.859 -179.189 437.21 -177.764 441.818C-177.313 443.259 -176.631 444.628 -175.686 445.843C-170.426 452.588 -162.865 461.336 -160.203 464.394C-161.324 465.031 -163.099 466.095 -165.023 467.46C-168.237 469.753 -171.882 472.831 -173.603 476.398C-174.208 477.671 -174.679 478.732 -174.974 479.669C-175.256 480.604 -175.422 481.438 -175.15 482.361C-174.94 483.097 -174.321 483.747 -173.648 484.072C-172.633 484.577 -171.477 484.71 -169.91 484.779C-168.346 484.836 -166.379 484.776 -163.891 484.672C-158.902 484.451 -153.584 486.627 -147.873 489.977C-142.164 493.315 -136.114 497.778 -129.658 501.876C-121.142 507.277 -109.55 513.653 -102.652 517.364C-103.275 517.305 -103.896 517.258 -104.494 517.228C-105.721 517.173 -106.825 517.181 -107.742 517.381C-108.19 517.488 -108.62 517.62 -109.023 517.977C-109.22 518.156 -109.403 518.417 -109.487 518.739C-109.574 519.057 -109.547 519.41 -109.453 519.702C-109.174 520.5 -108.647 520.983 -107.924 521.575C-107.191 522.153 -106.197 522.789 -104.847 523.541C-101.487 525.401 -95.5368 527.253 -87.9046 529.015C-76.4804 531.64 -61.3914 533.953 -46.5276 535.037C-31.66 536.118 -17.0445 535.985 -6.48844 533.641C-6.47468 533.638 -6.45862 533.634 -6.44715 533.632C13.3014 529.238 22.0841 519.417 25.5678 513.932C25.5728 513.995 25.5794 514.055 25.5867 514.118C25.8665 516.713 26.3223 519.894 27.1026 522.403C27.4766 523.574 27.8973 524.604 28.5323 525.441C28.8536 525.856 29.2441 526.241 29.763 526.503C30.2691 526.764 30.8955 526.851 31.4415 526.73C31.4507 526.728 31.4599 526.726 31.4691 526.724C31.9395 526.619 32.3509 526.397 32.7316 526.1C34.1534 524.973 35.1425 523.17 35.9755 521.095C37.9372 516.127 38.8425 509.43 39.1335 506.917C39.4671 506.924 39.8709 506.928 40.3335 506.924C39.7905 507.354 39.5509 508.094 39.7844 508.84C40.1038 509.86 41.1802 510.5 42.1921 510.275L61.6837 505.938C62.6956 505.712 63.2574 504.708 62.9379 503.688C62.6192 502.669 61.5421 502.027 60.5302 502.252L56.1432 503.229C56.8146 502.77 57.4322 502.25 57.9793 501.662C59.6101 499.901 60.8126 498.231 61.5674 496.721C62.3009 495.207 62.6847 493.87 62.2947 492.514C62.1561 492.063 61.8962 491.617 61.5258 491.265C60.9703 490.729 60.2413 490.454 59.5044 490.366C58.7577 490.278 57.9573 490.347 57.0532 490.549C54.6142 491.091 52.4758 491.293 50.896 491.358L51.2774 490.969C51.5693 490.788 52.4025 490.267 53.6254 489.461L56.3375 488.858C57.3081 488.642 57.8649 487.708 57.6292 486.736C60.7671 484.521 64.696 481.579 68.5858 478.207C72.8847 474.479 77.1376 470.228 80.2328 465.815C83.3112 461.403 85.2986 456.807 84.7846 452.256C84.6361 450.997 84.3092 449.608 83.8336 448.088C82.2925 443.173 79.1984 436.879 75.3856 430.015C69.668 419.73 62.3243 408.203 56.1997 398.555C53.137 393.734 50.3787 389.384 48.2875 385.909C47.2403 384.172 46.3632 382.655 45.7007 381.417C45.0397 380.183 44.593 379.211 44.4291 378.672L44.3652 378.444C43.9281 376.452 44.0386 374.343 44.1055 372.063C44.1692 369.789 44.1789 367.334 43.3586 364.714C42.9337 363.349 42.2808 361.953 41.318 360.539C42.6539 359.718 43.6001 358.468 44.2051 356.896C59.1544 356.669 78.0672 354.16 102.324 348.77C120.937 344.628 142.699 338.778 168.227 330.932C208.115 318.665 241.993 306.728 264.35 292.366C275.525 285.179 283.842 277.376 288.531 268.534C293.226 259.697 294.205 249.795 290.745 238.779C289.43 234.579 287.479 230.214 284.863 225.666C277.515 212.902 266.668 189.773 254.572 162.328C236.424 121.154 215.432 70.2169 198.981 29.5812C190.756 9.26224 183.665 -8.48139 178.631 -21.1476C176.114 -27.4783 174.11 -32.5401 172.736 -36.0206C171.362 -39.4987 170.621 -41.3887 170.62 -41.3933C170.386 -41.9811 169.749 -42.3382 169.151 -42.2124L169.501 -41.0554L169.151 -42.2124L139.023 -35.8494L180.757 -45.1359C237.324 -6.65432 331.553 138.09 368.151 255.05C385.947 311.917 390.114 362.216 369.707 390.539C306.643 478.068 228.478 448.915 190.687 525.918C157.505 593.527 125.592 706.168 22.1474 729.186C7.77253 732.385 -8.00089 733.852 -25.335 733.226C-167.397 728.089 -205.469 614.067 -261.602 602.06C-269.922 600.28 -278.572 600.78 -287.566 602.781C-303.962 606.43 -321.502 615.067 -340.248 623.973C-358.999 632.88 -378.952 642.054 -400.19 646.78C-424.672 652.228 -450.858 651.761 -478.844 638.151C-529.785 613.375 -561.125 555.896 -581.351 491.257C-596.804 441.874 -605.769 388.31 -612.028 341.954C-624.139 252.288 -628.842 162.166 -630.052 135.28ZM72.0502 485.362C73.0643 485.136 73.6239 484.132 73.3051 483.114C72.9857 482.094 71.9108 481.451 70.8967 481.677L63.4717 483.329C62.4598 483.554 61.8988 484.561 62.2182 485.581C62.537 486.599 63.6134 487.239 64.6252 487.014L72.0502 485.362ZM74.7237 493.903C75.7379 493.677 76.2967 492.671 75.978 491.653C75.6592 490.635 74.5844 489.992 73.5702 490.218L66.1453 491.87C65.1334 492.095 64.5723 493.102 64.8911 494.12C65.2098 495.138 66.2869 495.78 67.2988 495.555L74.7237 493.903ZM77.3965 502.442C78.4106 502.216 78.9701 501.212 78.6507 500.192C78.3319 499.173 77.2571 498.531 76.2429 498.756L68.818 500.409C67.8061 500.634 67.245 501.64 67.5638 502.659C67.8832 503.679 68.9596 504.319 69.9715 504.094L77.3965 502.442Z" fill="#89CFF3"/>
</g>
</g>
<g opacity="0.543225">
<mask id="mask1_60_3" style="mask-type:luminance" maskUnits="userSpaceOnUse" x="-411" y="-296" width="1180" height="1206">
<path fill-rule="evenodd" clip-rule="evenodd" d="M-411 431.662L199.581 -296L768.868 181.689L158.287 909.351L-411 431.662Z" fill="white"/>
</mask>
<g mask="url(#mask1_60_3)">
<path opacity="0.097261" fill-rule="evenodd" clip-rule="evenodd" d="M-377.465 92.368C-376.266 119.279 -371.6 209.483 -359.532 299.228C-345.13 406.35 -316.339 551.936 -226.581 595.635C-174.375 621.05 -128.441 600.586 -88.1103 581.373C-59.1004 567.555 -32.9912 554.382 -9.53061 559.399C46.5454 571.389 84.5399 685.498 226.467 690.568C368.396 695.637 404.575 560.051 442.36 482.953C480.144 405.858 558.225 434.999 621.261 347.355C683.615 260.665 516.617 -31.429 432.647 -88.6329L-377.465 92.368Z" fill="#89CFF3"/>
<path opacity="0.097261" fill-rule="evenodd" clip-rule="evenodd" d="M-378.052 92.3347L95.4987 -13.0364C95.5443 -12.9379 95.5936 -12.8352 95.6443 -12.728L-113.174 33.7368C-113.566 33.8241 -113.868 34.1085 -113.975 34.4879C-114.082 34.8651 -113.976 35.2909 -113.699 35.612C-113.695 35.6162 -112.434 37.0742 -110.168 39.7241C-102.239 48.9997 -82.1088 72.7876 -61.5698 98.9567C-41.0322 125.114 -20.0688 153.705 -10.5537 172.389C0.451858 193.976 10.4753 211.563 22.1498 226.694C33.8235 241.822 47.153 254.478 64.6792 266.145C73.0393 271.707 84.27 277.062 97.2861 281.785C97.4106 284.551 97.5678 287.319 97.7506 290.067C98.9253 307.682 101.083 324.369 101.135 332.602C101.201 341.194 103.989 356.712 106.753 370.185C107.345 373.061 107.934 375.839 108.498 378.431C108.036 378.227 107.593 378.042 107.165 377.875C105.459 377.237 104.061 376.849 102.76 377.107C102.758 377.107 102.758 377.107 102.758 377.107C102.407 377.185 102.059 377.33 101.761 377.561C101.047 378.118 100.609 378.907 100.372 379.765C99.819 381.856 100.205 384.494 100.943 387.282C98.906 384.295 96.6388 381.356 94.2869 379.096C93.0214 377.883 91.7297 376.862 90.3948 376.141C89.0653 375.422 87.6613 374.998 86.2584 375.103C85.8532 375.134 85.4522 375.194 85.0621 375.28C80.9452 376.233 77.6776 379.939 75.6306 384.415C73.6075 388.914 72.8111 394.265 74.2362 398.873C74.6872 400.314 75.3687 401.683 76.3135 402.898C81.5738 409.643 89.1346 418.391 91.7975 421.449C90.6765 422.086 88.9015 423.15 86.9773 424.515C83.7634 426.808 80.1178 429.886 78.397 433.453C77.7917 434.726 77.3211 435.787 77.0256 436.724C76.7438 437.659 76.5781 438.494 76.8496 439.416C77.0604 440.152 77.6787 440.802 78.3521 441.127C79.3668 441.632 80.5227 441.765 82.0904 441.834C83.6545 441.891 85.6212 441.831 88.1092 441.727C93.0983 441.506 98.4156 443.682 104.127 447.032C109.836 450.37 115.886 454.833 122.342 458.931C130.858 464.332 142.45 470.708 149.348 474.419C148.725 474.36 148.104 474.313 147.506 474.283C146.279 474.228 145.175 474.236 144.258 474.436C143.81 474.543 143.38 474.675 142.977 475.032C142.78 475.211 142.597 475.472 142.513 475.794C142.426 476.113 142.453 476.465 142.547 476.757C142.826 477.555 143.353 478.038 144.076 478.63C144.809 479.208 145.803 479.844 147.153 480.596C150.513 482.456 156.463 484.308 164.095 486.07C175.52 488.695 190.609 491.008 205.472 492.092C220.34 493.173 234.956 493.04 245.512 490.696C245.525 490.693 245.541 490.689 245.553 490.687C265.301 486.293 274.084 476.472 277.568 470.987C277.573 471.05 277.579 471.11 277.587 471.173C277.867 473.768 278.322 476.949 279.103 479.458C279.477 480.629 279.897 481.659 280.532 482.496C280.854 482.911 281.244 483.296 281.763 483.558C282.269 483.819 282.895 483.907 283.442 483.785C283.451 483.783 283.46 483.781 283.469 483.779C283.939 483.674 284.351 483.452 284.732 483.155C286.153 482.028 287.143 480.225 287.975 478.15C289.937 473.182 290.843 466.485 291.134 463.972C291.467 463.979 291.871 463.983 292.333 463.979C291.791 464.409 291.551 465.149 291.784 465.895C292.104 466.915 293.18 467.555 294.192 467.33L313.684 462.993C314.696 462.768 315.257 461.763 314.938 460.743C314.619 459.724 313.542 459.082 312.53 459.308L308.143 460.284C308.815 459.826 309.432 459.305 309.979 458.717C311.61 456.956 312.813 455.286 313.567 453.776C314.301 452.262 314.685 450.925 314.295 449.569C314.156 449.118 313.896 448.672 313.526 448.32C312.97 447.784 312.241 447.509 311.504 447.421C310.758 447.333 309.957 447.403 309.053 447.604C306.614 448.146 304.476 448.348 302.896 448.413L303.277 448.024C303.569 447.843 304.403 447.322 305.625 446.517L308.337 445.913C309.308 445.697 309.865 444.763 309.629 443.791C312.767 441.576 316.696 438.634 320.586 435.262C324.885 431.534 329.138 427.283 332.233 422.87C335.311 418.458 337.299 413.862 336.785 409.311C336.636 408.052 336.309 406.663 335.834 405.143C334.293 400.228 331.198 393.934 327.386 387.07C321.668 376.786 314.324 365.258 308.2 355.61C305.137 350.789 302.379 346.439 300.287 342.965C299.24 341.227 298.363 339.71 297.701 338.472C297.04 337.239 296.593 336.266 296.429 335.727L296.365 335.499C295.928 333.507 296.039 331.398 296.105 329.118C296.169 326.844 296.179 324.389 295.359 321.769C294.934 320.404 294.281 319.008 293.318 317.594C294.654 316.774 295.6 315.523 296.205 313.951C311.154 313.724 330.067 311.215 354.324 305.825C372.937 301.684 394.699 295.834 420.227 287.987C460.115 275.721 493.993 263.784 516.35 249.421C527.525 242.234 535.842 234.431 540.531 225.589C545.226 216.752 546.205 206.85 542.745 195.834C541.43 191.634 539.479 187.269 536.863 182.721C529.515 169.957 518.668 146.828 506.572 119.383C488.424 78.2086 467.432 27.272 450.981 -13.3637C442.756 -33.6827 435.665 -51.4263 430.631 -64.0925C428.114 -70.4233 426.11 -75.4851 424.736 -78.9655C423.362 -82.4437 422.621 -84.3336 422.62 -84.3382C422.386 -84.926 421.749 -85.2832 421.151 -85.1573L421.501 -84.0003L421.151 -85.1573L391.023 -78.7944L432.757 -88.0808C489.324 -49.5993 583.553 95.1455 620.151 212.105C637.947 268.972 642.114 319.271 621.707 347.594C558.643 435.123 480.478 405.97 442.687 482.973C409.505 550.583 377.592 663.224 274.147 686.241C259.773 689.44 243.999 690.907 226.665 690.281C84.6026 685.144 46.5311 571.122 -9.60207 559.115C-17.922 557.335 -26.5716 557.835 -35.566 559.836C-51.9624 563.485 -69.5017 572.122 -88.2479 581.028C-106.999 589.935 -126.952 599.109 -148.19 603.835C-172.672 609.283 -198.858 608.816 -226.844 595.206C-277.785 570.43 -309.125 512.951 -329.351 448.312C-344.804 398.929 -353.769 345.365 -360.028 299.009C-372.139 209.343 -376.842 119.221 -378.052 92.3347ZM324.05 442.417C325.064 442.191 325.624 441.187 325.305 440.169C324.986 439.148 323.911 438.506 322.897 438.731L315.472 440.384C314.46 440.609 313.899 441.615 314.218 442.636C314.537 443.654 315.613 444.294 316.625 444.069L324.05 442.417ZM326.724 450.958C327.738 450.732 328.297 449.726 327.978 448.708C327.659 447.689 326.584 447.047 325.57 447.272L318.145 448.925C317.133 449.15 316.572 450.156 316.891 451.175C317.21 452.193 318.287 452.835 319.299 452.61L326.724 450.958ZM329.396 459.496C330.41 459.271 330.97 458.267 330.651 457.246C330.332 456.228 329.257 455.585 328.243 455.811L320.818 457.463C319.806 457.688 319.245 458.695 319.564 459.713C319.883 460.734 320.959 461.373 321.971 461.148L329.396 459.496Z" fill="#89CFF3"/>
</g>
</g>
<g opacity="0.223354">
<mask id="mask2_60_3" style="mask-type:luminance" maskUnits="userSpaceOnUse" x="-531" y="-288" width="1180" height="1207">
<path fill-rule="evenodd" clip-rule="evenodd" d="M-531 440.662L79.581 -287L648.868 190.689L38.2873 918.351L-531 440.662Z" fill="white"/>
</mask>
<g mask="url(#mask2_60_3)">
<path fill-rule="evenodd" clip-rule="evenodd" d="M-497.465 101.368C-496.266 128.279 -491.6 218.483 -479.532 308.228C-465.13 415.35 -436.339 560.936 -346.581 604.636C-294.375 630.051 -248.441 609.586 -208.11 590.373C-179.1 576.555 -152.991 563.382 -129.531 568.399C-73.4546 580.389 -35.4601 694.498 106.467 699.568C248.396 704.637 284.575 569.051 322.36 491.953C360.144 414.858 438.225 443.999 501.261 356.355C563.615 269.665 396.617 -22.429 312.647 -79.6328L-497.465 101.368Z" fill="#89CFF3"/>
<path fill-rule="evenodd" clip-rule="evenodd" d="M-498.052 101.335L-24.5016 -4.03658C-24.456 -3.93807 -24.4067 -3.8354 -24.3559 -3.72818L-233.174 42.7366C-233.567 42.8239 -233.868 43.1083 -233.975 43.4877C-234.083 43.8649 -233.976 44.2907 -233.699 44.6119C-233.695 44.616 -232.434 46.074 -230.169 48.7239C-222.239 57.9995 -202.109 81.7874 -181.57 107.956C-161.032 134.114 -140.069 162.705 -130.554 181.388C-119.548 202.976 -109.525 220.563 -97.8505 235.694C-86.1767 250.822 -72.8473 263.478 -55.3211 275.145C-46.961 280.707 -35.7302 286.062 -22.7141 290.785C-22.5896 293.55 -22.4324 296.319 -22.2497 299.066C-21.075 316.681 -18.9169 333.369 -18.8654 341.602C-18.7994 350.194 -16.0112 365.712 -13.2469 379.184C-12.6557 382.061 -12.0659 384.839 -11.5025 387.431C-11.9639 387.227 -12.4072 387.042 -12.8349 386.875C-14.5415 386.237 -15.9392 385.849 -17.2403 386.107C-17.2426 386.107 -17.2426 386.107 -17.2426 386.107C-17.5937 386.185 -17.9413 386.329 -18.2393 386.561C-18.9535 387.118 -19.3913 387.907 -19.6284 388.765C-20.1812 390.856 -19.7948 393.494 -19.0573 396.282C-21.0943 393.294 -23.3615 390.356 -25.7133 388.096C-26.9789 386.883 -28.2705 385.862 -29.6054 385.141C-30.935 384.422 -32.3389 383.998 -33.7419 384.103C-34.147 384.134 -34.5481 384.193 -34.9381 384.28C-39.055 385.233 -42.3226 388.939 -44.3697 393.415C-46.3928 397.913 -47.1892 403.265 -45.7641 407.873C-45.3131 409.313 -44.6315 410.683 -43.6867 411.898C-38.4265 418.643 -30.8657 427.391 -28.2028 430.449C-29.3237 431.086 -31.0988 432.15 -33.023 433.514C-36.2369 435.808 -39.8825 438.886 -41.6033 442.453C-42.2085 443.726 -42.6791 444.787 -42.9747 445.724C-43.2564 446.659 -43.4222 447.493 -43.1506 448.416C-42.9398 449.152 -42.3215 449.802 -41.6482 450.127C-40.6334 450.632 -39.4775 450.765 -37.9098 450.833C-36.3458 450.891 -34.379 450.831 -31.8911 450.727C-26.9019 450.506 -21.5847 452.681 -15.8729 456.031C-10.1647 459.37 -4.11446 463.833 2.34202 467.931C10.858 473.332 22.4501 479.708 29.3474 483.419C28.7251 483.36 28.1042 483.313 27.5058 483.283C26.2785 483.228 25.1743 483.236 24.2574 483.435C23.8099 483.542 23.3801 483.675 22.9764 484.032C22.7798 484.211 22.5963 484.472 22.5131 484.794C22.4262 485.112 22.453 485.464 22.5471 485.757C22.8261 486.555 23.3528 487.038 24.0757 487.63C24.8089 488.208 25.803 488.844 27.1526 489.595C30.5132 491.456 36.463 493.308 44.0952 495.07C55.5193 497.695 70.6083 500.008 85.4721 501.092C100.34 502.173 114.955 502.04 125.511 499.696C125.525 499.693 125.541 499.689 125.553 499.687C145.301 495.292 154.084 485.472 157.568 479.987C157.573 480.05 157.579 480.11 157.586 480.173C157.866 482.768 158.322 485.949 159.102 488.458C159.476 489.629 159.897 490.659 160.532 491.496C160.853 491.911 161.244 492.296 161.763 492.558C162.269 492.819 162.895 492.906 163.441 492.785C163.45 492.783 163.46 492.781 163.469 492.779C163.939 492.674 164.351 492.452 164.731 492.154C166.153 491.028 167.142 489.225 167.975 487.15C169.937 482.181 170.842 475.484 171.133 472.972C171.467 472.979 171.871 472.983 172.333 472.979C171.79 473.409 171.551 474.149 171.784 474.894C172.104 475.915 173.18 476.555 174.192 476.33L193.683 471.992C194.695 471.767 195.257 470.763 194.938 469.742C194.619 468.724 193.542 468.082 192.53 468.307L188.143 469.283C188.814 468.825 189.432 468.305 189.979 467.717C191.61 465.956 192.812 464.285 193.567 462.776C194.301 461.262 194.684 459.925 194.295 458.569C194.156 458.118 193.896 457.672 193.526 457.32C192.97 456.784 192.241 456.509 191.504 456.421C190.757 456.333 189.957 456.402 189.053 456.603C186.614 457.146 184.476 457.348 182.896 457.413L183.277 457.024C183.569 456.843 184.402 456.322 185.625 455.516L188.337 454.913C189.308 454.697 189.865 453.763 189.629 452.79C192.767 450.576 196.696 447.634 200.586 444.262C204.884 440.534 209.137 436.283 212.233 431.87C215.311 427.458 217.298 422.862 216.784 418.311C216.636 417.052 216.309 415.663 215.833 414.143C214.292 409.228 211.198 402.934 207.385 396.069C201.668 385.785 194.324 374.258 188.199 364.61C185.137 359.789 182.378 355.438 180.287 351.964C179.24 350.226 178.363 348.71 177.7 347.472C177.039 346.238 176.593 345.266 176.429 344.727L176.365 344.499C175.928 342.507 176.038 340.398 176.105 338.118C176.169 335.844 176.179 333.389 175.358 330.769C174.933 329.403 174.281 328.008 173.318 326.594C174.654 325.773 175.6 324.523 176.205 322.951C191.154 322.724 210.067 320.215 234.324 314.825C252.937 310.683 274.699 304.833 300.227 296.987C340.115 284.72 373.993 272.783 396.35 258.421C407.525 251.234 415.842 243.431 420.53 234.588C425.225 225.751 426.205 215.849 422.744 204.833C421.43 200.633 419.479 196.269 416.863 191.721C409.515 178.957 398.667 155.828 386.572 128.383C368.424 87.2085 347.431 36.2718 330.981 -4.36389C322.756 -24.6829 315.665 -42.4265 310.63 -55.0927C308.114 -61.4235 306.11 -66.4852 304.735 -69.9657C303.362 -73.4438 302.621 -75.3338 302.619 -75.3384C302.386 -75.9262 301.749 -76.2833 301.15 -76.1575L301.5 -75.0005L301.15 -76.1575L271.023 -69.7946L312.757 -79.081C369.323 -40.5994 463.553 104.145 500.151 221.105C517.946 277.972 522.114 328.271 501.707 356.594C438.643 444.123 360.478 414.969 322.687 491.973C289.504 559.582 257.592 672.223 154.147 695.241C139.772 698.44 123.999 699.907 106.665 699.281C-35.3977 694.144 -73.4691 580.122 -129.602 568.115C-137.922 566.335 -146.572 566.835 -155.566 568.836C-171.963 572.485 -189.502 581.122 -208.248 590.028C-226.999 598.935 -246.952 608.109 -268.19 612.835C-292.672 618.282 -318.858 617.816 -346.844 604.206C-397.785 579.43 -429.126 521.951 -449.352 457.312C-464.805 407.929 -473.769 354.365 -480.028 308.009C-492.14 218.343 -496.842 128.221 -498.052 101.335ZM204.05 451.417C205.064 451.191 205.623 450.187 205.305 449.169C204.985 448.148 203.91 447.506 202.896 447.731L195.471 449.384C194.459 449.609 193.898 450.615 194.218 451.636C194.537 452.654 195.613 453.294 196.625 453.069L204.05 451.417ZM206.723 459.958C207.738 459.732 208.296 458.726 207.978 457.708C207.659 456.69 206.584 456.047 205.57 456.273L198.145 457.925C197.133 458.15 196.572 459.157 196.891 460.175C197.209 461.193 198.287 461.835 199.298 461.61L206.723 459.958ZM209.396 468.496C210.41 468.271 210.97 467.267 210.65 466.246C210.332 465.228 209.257 464.586 208.243 464.811L200.818 466.463C199.806 466.689 199.245 467.695 199.563 468.713C199.883 469.734 200.959 470.374 201.971 470.149L209.396 468.496Z" fill="#89CFF3"/>
</g>
</g>
</g>
</svg>
