<svg width="32" height="32" viewBox="0 0 32 32" fill="none" xmlns="http://www.w3.org/2000/svg">
<path d="M5.76 2.56006C4.00031 2.56006 2.56 4.00037 2.56 5.76006V26.2401C2.56 27.9997 4.00031 29.4401 5.76 29.4401H26.24C27.9997 29.4401 29.44 27.9997 29.44 26.2401V5.76006C29.44 4.00037 27.9997 2.56006 26.24 2.56006H5.76ZM5.76 3.84006H26.24C27.3078 3.84006 28.16 4.69223 28.16 5.76006V26.2401C28.16 27.3079 27.3078 28.1601 26.24 28.1601H5.76C4.69217 28.1601 3.84 27.3079 3.84 26.2401V5.76006C3.84 4.69223 4.69217 3.84006 5.76 3.84006ZM8.96 7.04756C8.25906 7.04756 7.6283 7.25707 7.16125 7.65006C6.6942 8.04305 6.4075 8.63015 6.4075 9.25881C6.4075 10.4538 7.44402 11.3854 8.7625 11.4776L8.765 11.4788C8.82782 11.5002 8.89363 11.5116 8.96 11.5126C10.4147 11.5126 11.5125 10.4936 11.5125 9.25881C11.5124 9.24755 11.512 9.23629 11.5112 9.22506C11.4461 8.00891 10.3619 7.04756 8.96 7.04756ZM8.96 8.31256C9.85103 8.31256 10.2029 8.71048 10.2412 9.27506C10.2335 9.82306 9.89446 10.2476 8.96 10.2476C8.07334 10.2476 7.6725 9.79348 7.6725 9.25881C7.6725 8.99147 7.77005 8.79001 7.975 8.61756C8.17995 8.44511 8.50894 8.31256 8.96 8.31256ZM7.04 12.1601C6.87026 12.1601 6.70749 12.2275 6.58747 12.3475C6.46745 12.4675 6.40001 12.6303 6.4 12.8001V24.9601C6.40001 25.1298 6.46745 25.2926 6.58747 25.4126C6.70749 25.5326 6.87026 25.6 7.04 25.6001H10.88C11.0497 25.6 11.2125 25.5326 11.3325 25.4126C11.4525 25.2926 11.52 25.1298 11.52 24.9601V21.2063V12.8001C11.52 12.6303 11.4525 12.4675 11.3325 12.3475C11.2125 12.2275 11.0497 12.1601 10.88 12.1601H7.04ZM12.8 12.1601C12.6303 12.1601 12.4675 12.2275 12.3475 12.3475C12.2274 12.4675 12.16 12.6303 12.16 12.8001V24.9601C12.16 25.1298 12.2274 25.2926 12.3475 25.4126C12.4675 25.5326 12.6303 25.6 12.8 25.6001H16.64C16.8097 25.6 16.9725 25.5326 17.0925 25.4126C17.2125 25.2926 17.28 25.1298 17.28 24.9601V18.5601C17.28 18.0291 17.4249 17.5009 17.68 17.1551C17.9351 16.8092 18.2569 16.6017 18.8687 16.6126C19.4996 16.6234 19.8336 16.8395 20.0862 17.1788C20.3389 17.5181 20.48 18.0267 20.48 18.5601V24.9601C20.48 25.1298 20.5474 25.2926 20.6675 25.4126C20.7875 25.5326 20.9503 25.6 21.12 25.6001H24.96C25.1297 25.6 25.2925 25.5326 25.4125 25.4126C25.5325 25.2926 25.6 25.1298 25.6 24.9601V18.0876C25.6 16.1922 25.0386 14.6908 24.0762 13.6751C23.1139 12.6593 21.7755 12.1601 20.36 12.1601C19.0147 12.1601 17.9909 12.6112 17.28 13.0713V12.8001C17.28 12.6303 17.2125 12.4675 17.0925 12.3475C16.9725 12.2275 16.8097 12.1601 16.64 12.1601H12.8ZM7.68 13.4401H10.24V21.2063V24.3201H7.68V13.4401ZM13.44 13.4401H16V14.4388C16 14.573 16.0423 14.7038 16.1207 14.8127C16.1991 14.9216 16.3098 15.0031 16.4371 15.0456C16.5643 15.0882 16.7018 15.0897 16.8299 15.0499C16.9581 15.0101 17.0705 14.931 17.1512 14.8238C17.1512 14.8238 18.1563 13.4401 20.36 13.4401C21.4821 13.4401 22.4444 13.8129 23.1475 14.5551C23.8506 15.2972 24.32 16.4405 24.32 18.0876V24.3201H21.76V18.5601C21.76 17.8134 21.5811 17.0414 21.1137 16.4138C20.6464 15.7862 19.8604 15.3492 18.8912 15.3326C17.9171 15.3153 17.1184 15.7613 16.65 16.3963C16.1816 17.0313 16 17.811 16 18.5601V24.3201H13.44V13.4401Z" fill="black"/>
</svg>
