<svg width="107" height="27" viewBox="0 0 107 27" fill="none" xmlns="http://www.w3.org/2000/svg">
<path d="M0.988 26V0.799998H6.82V21.248H19.456V26H0.988ZM34.5327 26.432C32.5407 26.432 30.6927 26.108 28.9887 25.46C27.3087 24.812 25.8447 23.9 24.5967 22.724C23.3727 21.548 22.4127 20.168 21.7167 18.584C21.0447 17 20.7087 15.272 20.7087 13.4C20.7087 11.528 21.0447 9.8 21.7167 8.216C22.4127 6.632 23.3847 5.252 24.6327 4.076C25.8807 2.9 27.3447 1.988 29.0247 1.34C30.7047 0.691999 32.5287 0.368 34.4967 0.368C36.4887 0.368 38.3127 0.691999 39.9687 1.34C41.6487 1.988 43.1007 2.9 44.3247 4.076C45.5727 5.252 46.5447 6.632 47.2407 8.216C47.9367 9.776 48.2847 11.504 48.2847 13.4C48.2847 15.272 47.9367 17.012 47.2407 18.62C46.5447 20.204 45.5727 21.584 44.3247 22.76C43.1007 23.912 41.6487 24.812 39.9687 25.46C38.3127 26.108 36.5007 26.432 34.5327 26.432ZM34.4967 21.464C35.6247 21.464 36.6567 21.272 37.5927 20.888C38.5527 20.504 39.3927 19.952 40.1127 19.232C40.8327 18.512 41.3847 17.66 41.7687 16.676C42.1767 15.692 42.3807 14.6 42.3807 13.4C42.3807 12.2 42.1767 11.108 41.7687 10.124C41.3847 9.14 40.8327 8.288 40.1127 7.568C39.4167 6.848 38.5887 6.296 37.6287 5.912C36.6687 5.528 35.6247 5.336 34.4967 5.336C33.3687 5.336 32.3247 5.528 31.3647 5.912C30.4287 6.296 29.6007 6.848 28.8807 7.568C28.1607 8.288 27.5967 9.14 27.1887 10.124C26.8047 11.108 26.6127 12.2 26.6127 13.4C26.6127 14.576 26.8047 15.668 27.1887 16.676C27.5967 17.66 28.1487 18.512 28.8447 19.232C29.5647 19.952 30.4047 20.504 31.3647 20.888C32.3247 21.272 33.3687 21.464 34.4967 21.464ZM64.8357 26.432C62.8437 26.432 61.0077 26.12 59.3277 25.496C57.6717 24.848 56.2197 23.936 54.9717 22.76C53.7477 21.584 52.7877 20.204 52.0917 18.62C51.4197 17.036 51.0837 15.296 51.0837 13.4C51.0837 11.504 51.4197 9.764 52.0917 8.18C52.7877 6.596 53.7597 5.216 55.0077 4.04C56.2557 2.864 57.7197 1.964 59.3997 1.34C61.0797 0.691999 62.9277 0.368 64.9437 0.368C67.1757 0.368 69.1797 0.739999 70.9557 1.484C72.7557 2.228 74.2677 3.308 75.4917 4.724L71.7477 8.18C70.8357 7.22 69.8397 6.512 68.7597 6.056C67.6797 5.576 66.5037 5.336 65.2317 5.336C64.0077 5.336 62.8917 5.528 61.8837 5.912C60.8757 6.296 59.9997 6.848 59.2557 7.568C58.5357 8.288 57.9717 9.14 57.5637 10.124C57.1797 11.108 56.9877 12.2 56.9877 13.4C56.9877 14.576 57.1797 15.656 57.5637 16.64C57.9717 17.624 58.5357 18.488 59.2557 19.232C59.9997 19.952 60.8637 20.504 61.8477 20.888C62.8557 21.272 63.9597 21.464 65.1597 21.464C66.3117 21.464 67.4277 21.284 68.5077 20.924C69.6117 20.54 70.6797 19.904 71.7117 19.016L75.0237 23.228C73.6557 24.26 72.0597 25.052 70.2357 25.604C68.4357 26.156 66.6357 26.432 64.8357 26.432ZM69.6957 22.472V13.004H75.0237V23.228L69.6957 22.472ZM92.6811 26.432C90.6891 26.432 88.8411 26.108 87.1371 25.46C85.4571 24.812 83.9931 23.9 82.7451 22.724C81.5211 21.548 80.5611 20.168 79.8651 18.584C79.1931 17 78.8571 15.272 78.8571 13.4C78.8571 11.528 79.1931 9.8 79.8651 8.216C80.5611 6.632 81.5331 5.252 82.7811 4.076C84.0291 2.9 85.4931 1.988 87.1731 1.34C88.8531 0.691999 90.6771 0.368 92.6451 0.368C94.6371 0.368 96.4611 0.691999 98.1171 1.34C99.7971 1.988 101.249 2.9 102.473 4.076C103.721 5.252 104.693 6.632 105.389 8.216C106.085 9.776 106.433 11.504 106.433 13.4C106.433 15.272 106.085 17.012 105.389 18.62C104.693 20.204 103.721 21.584 102.473 22.76C101.249 23.912 99.7971 24.812 98.1171 25.46C96.4611 26.108 94.6491 26.432 92.6811 26.432ZM92.6451 21.464C93.7731 21.464 94.8051 21.272 95.7411 20.888C96.7011 20.504 97.5411 19.952 98.2611 19.232C98.9811 18.512 99.5331 17.66 99.9171 16.676C100.325 15.692 100.529 14.6 100.529 13.4C100.529 12.2 100.325 11.108 99.9171 10.124C99.5331 9.14 98.9811 8.288 98.2611 7.568C97.5651 6.848 96.7371 6.296 95.7771 5.912C94.8171 5.528 93.7731 5.336 92.6451 5.336C91.5171 5.336 90.4731 5.528 89.5131 5.912C88.5771 6.296 87.7491 6.848 87.0291 7.568C86.3091 8.288 85.7451 9.14 85.3371 10.124C84.9531 11.108 84.7611 12.2 84.7611 13.4C84.7611 14.576 84.9531 15.668 85.3371 16.676C85.7451 17.66 86.2971 18.512 86.9931 19.232C87.7131 19.952 88.5531 20.504 89.5131 20.888C90.4731 21.272 91.5171 21.464 92.6451 21.464Z" fill="#D8FDD2"/>
</svg>
