<svg width="350" height="236" viewBox="0 0 350 236" fill="none" xmlns="http://www.w3.org/2000/svg">
<rect width="350" height="236" rx="10" fill="#92E3A9"/>
<path d="M309.617 80.8505C307.902 77.2799 305.93 73.7825 303.71 70.3738C284.226 40.4696 247.962 20.1934 203.321 14.8647C201.399 14.6328 199.469 14.4302 197.531 14.2571C161.095 10.9504 110.085 15.0733 89.2857 40.4882C78.4864 53.6872 82.918 70.3321 71.461 83.1554C56.6297 99.8003 37.5634 108.116 34.0354 134.092C31.4354 153.204 32.6463 173.86 50.557 189.105C71.6639 207.076 107.885 213.263 138.826 209.812C168.857 206.468 195.742 195.278 222.006 184.768C246.936 174.793 275.48 167.548 295.652 152.304C321.123 133.044 321.105 104.888 309.617 80.8505Z" fill="#92E3A9"/>
<path opacity="0.7" d="M309.617 80.8505C307.902 77.2799 305.93 73.7825 303.71 70.3738C284.226 40.4696 247.962 20.1934 203.321 14.8647C201.399 14.6328 199.469 14.4302 197.531 14.2571C161.095 10.9504 110.085 15.0733 89.2857 40.4882C78.4864 53.6872 82.918 70.3321 71.461 83.1554C56.6297 99.8003 37.5634 108.116 34.0354 134.092C31.4354 153.204 32.6463 173.86 50.557 189.105C71.6639 207.076 107.885 213.263 138.826 209.812C168.857 206.468 195.742 195.278 222.006 184.768C246.936 174.793 275.48 167.548 295.652 152.304C321.123 133.044 321.105 104.888 309.617 80.8505Z" fill="white"/>
<path d="M298 39.2729H67.8345C62.3116 39.2729 57.8345 43.7501 57.8345 49.273V198C57.8345 203.523 62.3116 208 67.8345 208H298C303.523 208 308 203.523 308 198V49.2729C308 43.7501 303.523 39.2729 298 39.2729Z" fill="#263238"/>
<path d="M66.7337 42.0658H65.0518C63.3516 42.0658 61.9733 43.4441 61.9733 45.1443C61.9733 46.8445 63.3516 48.2228 65.0518 48.2228H66.7337C68.4339 48.2228 69.8122 46.8445 69.8122 45.1443C69.8122 43.4441 68.4339 42.0658 66.7337 42.0658Z" fill="#5C5C5C" stroke="#263238" stroke-miterlimit="10" stroke-linecap="round"/>
<path d="M72.8513 47.7506H288.227" stroke="#5C5C5C" stroke-miterlimit="10" stroke-linecap="round"/>
<path d="M69.9665 50.1749V160.924" stroke="#5C5C5C" stroke-miterlimit="10" stroke-linecap="round"/>
<path d="M84.8537 47.7714V41.9933" stroke="#5C5C5C" stroke-miterlimit="10" stroke-linecap="round"/>
<path d="M101.223 47.7714V41.9933" stroke="#5C5C5C" stroke-miterlimit="10" stroke-linecap="round"/>
<path d="M117.593 47.7714V41.9933" stroke="#5C5C5C" stroke-miterlimit="10" stroke-linecap="round"/>
<path d="M133.963 47.7714V41.9933" stroke="#5C5C5C" stroke-miterlimit="10" stroke-linecap="round"/>
<path d="M150.332 47.7714V41.9933" stroke="#5C5C5C" stroke-miterlimit="10" stroke-linecap="round"/>
<path d="M166.702 47.7714V41.9933" stroke="#5C5C5C" stroke-miterlimit="10" stroke-linecap="round"/>
<path d="M183.072 47.7714V41.9933" stroke="#5C5C5C" stroke-miterlimit="10" stroke-linecap="round"/>
<path d="M199.441 47.7714V41.9933" stroke="#5C5C5C" stroke-miterlimit="10" stroke-linecap="round"/>
<path d="M215.811 47.7714V41.9933" stroke="#5C5C5C" stroke-miterlimit="10" stroke-linecap="round"/>
<path d="M232.181 47.7714V41.9933" stroke="#5C5C5C" stroke-miterlimit="10" stroke-linecap="round"/>
<path d="M248.55 47.7714V41.9933" stroke="#5C5C5C" stroke-miterlimit="10" stroke-linecap="round"/>
<path d="M264.92 47.7714V41.9933" stroke="#5C5C5C" stroke-miterlimit="10" stroke-linecap="round"/>
<path d="M281.29 47.7714V41.9933" stroke="#5C5C5C" stroke-miterlimit="10" stroke-linecap="round"/>
<path d="M69.9666 60.8176H62.5539" stroke="#5C5C5C" stroke-miterlimit="10" stroke-linecap="round"/>
<path d="M69.9666 74.5747H62.5539" stroke="#5C5C5C" stroke-miterlimit="10" stroke-linecap="round"/>
<path d="M69.9666 88.332H62.5539" stroke="#5C5C5C" stroke-miterlimit="10" stroke-linecap="round"/>
<path d="M69.9666 102.089H62.5539" stroke="#5C5C5C" stroke-miterlimit="10" stroke-linecap="round"/>
<path d="M69.9666 115.847H62.5539" stroke="#5C5C5C" stroke-miterlimit="10" stroke-linecap="round"/>
<path d="M69.9666 129.604H62.5539" stroke="#5C5C5C" stroke-miterlimit="10" stroke-linecap="round"/>
<path d="M69.9666 143.361H62.5539" stroke="#5C5C5C" stroke-miterlimit="10" stroke-linecap="round"/>
<path d="M69.9666 157.119H62.5539" stroke="#5C5C5C" stroke-miterlimit="10" stroke-linecap="round"/>
<path d="M288 45H198.317C192.794 45 188.317 49.4771 188.317 55V196C188.317 201.523 192.794 206 198.317 206H288C293.523 206 298 201.523 298 196V55C298 49.4772 293.523 45 288 45Z" fill="white" stroke="#263238" stroke-miterlimit="10" stroke-linecap="round"/>
<path d="M227.755 164.064C227.755 164.064 212.691 163.155 206.272 166.784C199.853 170.413 197.129 177.439 196.637 184.013C196.438 186.671 195.996 190.773 195.54 194.717C194.847 200.705 199.503 206 205.532 206H281.567C287.348 206 291.912 201.106 290.956 195.405C289.997 189.682 288.397 182.958 285.826 178.799C280.643 170.413 267.3 162.941 265.326 162.252C261.117 160.632 256.51 160.084 251.99 160.667C245.564 161.569 231.244 163.838 231.244 163.838" fill="white"/>
<path d="M227.755 164.064C227.755 164.064 212.691 163.155 206.272 166.784C199.853 170.413 197.129 177.439 196.637 184.013C196.438 186.671 195.996 190.773 195.54 194.717C194.847 200.705 199.503 206 205.532 206H281.567C287.348 206 291.912 201.106 290.956 195.405C289.997 189.682 288.397 182.958 285.826 178.799C280.643 170.413 267.3 162.941 265.326 162.252C261.117 160.632 256.51 160.084 251.99 160.667C245.564 161.569 231.244 163.838 231.244 163.838" stroke="#263238" stroke-miterlimit="10" stroke-linecap="round"/>
<path d="M244.056 60.9117C244.567 60.6087 245.03 60.2299 245.498 59.8634C247.463 58.3236 253.941 54.45 267.519 56.527C284.265 59.0886 286.491 84.1857 283.7 89.3088C283.1 90.4095 282.329 91.3605 281.487 92.1752C278.037 95.515 272.823 93.2099 270.224 89.1722C266.262 83.0176 259.876 74.6022 252.814 71.2072C247.071 68.446 244.277 66.2602 242.921 64.7489C241.74 63.4317 242.533 61.8139 244.056 60.9117Z" fill="white" stroke="#263238" stroke-miterlimit="10" stroke-linecap="round"/>
<path d="M244.056 60.9117C244.567 60.6087 245.03 60.2299 245.498 59.8634C247.463 58.3236 253.941 54.45 267.519 56.527C284.265 59.0886 286.491 84.1857 283.7 89.3088C283.1 90.4095 282.329 91.3605 281.487 92.1752C278.037 95.515 272.823 93.2099 270.224 89.1722C266.262 83.0176 259.876 74.6022 252.814 71.2072C247.071 68.446 244.277 66.2602 242.921 64.7489C241.74 63.4317 242.533 61.8139 244.056 60.9117Z" fill="#263238" stroke="#263238" stroke-miterlimit="10" stroke-linecap="round"/>
<path d="M229.51 182.202C229.51 182.202 229.51 179.25 227.516 174.944C225.523 170.638 222.081 161.569 219.363 156.812C218.585 155.45 217.851 153.809 217.199 152.16C215.365 147.514 210.308 145.001 205.995 142.483C205.669 142.293 205.356 142.079 205.063 141.839C202.95 140.138 200.863 131.41 198.418 123.475C195.972 115.541 196.424 106.471 198.663 104.209C200.903 101.946 199.654 97.6341 199.654 95.3653C199.654 93.0965 201.381 89.6993 207.555 79.508C212.745 70.9386 219.162 65.7241 221.073 64.2813C221.444 64.0012 221.805 63.7138 222.192 63.4562C223.697 62.4546 228.443 59.97 238.68 59.7901C251.525 59.5645 264.363 68.4018 271.526 76.1109C278.69 83.82 277.699 101.726 274.736 108.752C271.772 115.778 254.482 134.819 252.754 139.583C251.684 142.528 252.508 145.651 253.292 147.603C253.756 148.754 254.539 149.773 255.565 150.561C257.346 151.945 261.067 154.909 267.572 160.435C277.454 168.827 282.192 174.365 282.192 174.365" fill="white"/>
<path d="M229.51 182.202C229.51 182.202 229.51 179.25 227.516 174.944C225.523 170.638 222.081 161.569 219.363 156.812C218.585 155.45 217.851 153.809 217.199 152.16C215.365 147.514 210.308 145.001 205.995 142.483C205.669 142.293 205.356 142.079 205.063 141.839C202.95 140.138 200.863 131.41 198.418 123.475C195.972 115.541 196.424 106.471 198.663 104.209C200.903 101.946 199.654 97.6341 199.654 95.3653C199.654 93.0965 201.381 89.6993 207.555 79.508C212.745 70.9386 219.162 65.7241 221.073 64.2813C221.444 64.0012 221.805 63.7138 222.192 63.4562C223.697 62.4546 228.443 59.97 238.68 59.7901C251.525 59.5645 264.363 68.4018 271.526 76.1109C278.69 83.82 277.699 101.726 274.736 108.752C271.772 115.778 254.482 134.819 252.754 139.583C251.684 142.528 252.508 145.651 253.292 147.603C253.756 148.754 254.539 149.773 255.565 150.561C257.346 151.945 261.067 154.909 267.572 160.435C277.454 168.827 282.192 174.365 282.192 174.365" stroke="#263238" stroke-miterlimit="10" stroke-linecap="round"/>
<path d="M252.255 166.015C252.415 165.692 252.574 165.345 252.727 164.973" stroke="#263238" stroke-miterlimit="10" stroke-linecap="round"/>
<path d="M230.008 194.443C231.175 188.143 234.355 182.303 239.145 177.664C245.584 171.566 249.073 170.59 251.345 167.491" stroke="#263238" stroke-miterlimit="10" stroke-linecap="round"/>
<path d="M209.216 185.794C209.302 185.276 209.395 184.757 209.508 184.239" stroke="#263238" stroke-miterlimit="10" stroke-linecap="round"/>
<path d="M210.478 206C208.949 200.059 208.427 193.937 208.93 187.849" stroke="#263238" stroke-miterlimit="10" stroke-linecap="round"/>
<path d="M217.041 143.953C215.773 143.949 214.817 145.139 215.195 146.35C215.563 147.526 216.055 149.019 216.634 150.585C216.83 151.114 217.492 151.281 217.921 150.914C218.221 150.662 218.615 150.368 219.08 150.043C220.9 148.772 219.261 143.961 217.041 143.953Z" fill="#263238" stroke="#263238" stroke-miterlimit="10" stroke-linecap="round"/>
<path d="M221.007 92.5786C221.076 92.5876 221.144 92.5821 221.213 92.5788C221.893 92.5465 225.877 92.3789 231.709 92.584C235.203 92.7088 238.477 95.644 240.621 97.9376C242.196 99.6228 242.262 99.5682 240.869 97.7296C240.618 97.3987 240.447 97.1736 240.441 97.1643C239.524 95.9445 235.357 90.8458 230.998 90.8458C226.061 90.8458 220.133 89.4857 220.133 91.0714C220.133 92.3368 220.755 92.5458 221.007 92.5786Z" fill="#263238" stroke="#263238" stroke-miterlimit="10" stroke-linecap="round"/>
<path d="M209.661 93.3158C209.753 93.3691 209.861 93.3955 209.97 93.3914C210.079 93.3872 210.184 93.3528 210.271 93.2926C210.359 93.2324 210.424 93.1493 210.458 93.0543C210.493 92.9593 210.495 92.857 210.465 92.7607C210.291 92.0568 209.898 91.4147 209.332 90.9131C208.767 90.4115 208.054 90.0723 207.282 89.9369C205.286 89.7001 203.258 90.0018 201.447 90.8042C201.387 90.8307 201.339 90.8778 201.31 90.9365C201.159 91.2401 201.88 91.8285 202.187 91.6845C202.922 91.3391 203.827 91.1165 204.843 91.2848C206.57 91.6879 208.203 92.3761 209.661 93.3158Z" fill="#263238" stroke="#263238" stroke-miterlimit="10" stroke-linecap="round"/>
<path d="M212.226 95.8287C212.226 95.8287 213.209 100.141 209.754 102.861C206.299 105.581 203.109 107.392 203.109 110.112C203.109 112.833 206.817 114.418 206.817 114.418" stroke="#263238" stroke-miterlimit="10" stroke-linecap="round"/>
<path d="M243.776 74.0186C242.72 75.2384 239.298 75.952 243.511 76.4582C247.724 76.9644 252.734 78.6355 251.943 79.5991C251.152 80.5628 247.464 79.8431 251.152 81.2946C254.84 82.7462 257.738 84.9235 255.631 85.6432C253.525 86.3629 252.202 85.4053 254.84 89.9978C257.479 94.5903 261.16 96.2858 257.738 96.2858C254.315 96.2858 253.784 99.6708 255.89 101.116C257.997 102.562 255.1 104.019 255.631 106.434C256.163 108.85 255.365 110.545 258.289 111.515C261.213 112.485 262.243 111.997 262.502 116.107C262.761 120.218 255.917 123.359 256.183 125.536C256.203 125.702 256.208 125.884 256.202 126.079C256.069 130.376 259.158 130.279 261.818 126.901C267.142 120.142 273.104 112.647 274.736 108.795C277.699 101.769 278.689 83.8562 271.526 76.1532C264.363 68.4503 251.518 59.6007 238.68 59.8325C228.077 60.0239 223.362 62.682 222.041 63.602C221.759 63.7983 221.496 64.0145 221.223 64.2217C218.346 66.3999 215.734 68.8568 213.431 71.55C213.382 71.6068 213.378 71.689 213.419 71.751C213.469 71.8253 213.564 71.8498 213.641 71.8033C214.783 71.1105 222.88 66.236 221.409 68.2551C219.828 70.4263 217.728 71.64 221.409 70.1885C225.091 68.7369 229.576 67.2915 229.317 68.0173C229.058 68.743 226.659 69.9506 231.423 69.9506C236.188 69.9506 244.826 72.811 243.776 74.0186Z" fill="#263238" stroke="#263238" stroke-miterlimit="10" stroke-linecap="round"/>
<path d="M239.052 139.936C238.223 140.291 237.351 140.553 236.454 140.717L239.052 139.936Z" fill="white"/>
<path d="M239.052 139.936C238.223 140.291 237.351 140.553 236.454 140.717" stroke="#263238" stroke-miterlimit="10" stroke-linecap="round"/>
<path d="M255.664 113.516C255.664 113.516 261.346 108.301 265.054 109.204C268.762 110.106 267.519 118.273 263.572 123.036C263.161 123.532 262.708 123.946 262.225 124.291C257.455 127.697 250.689 130.301 246.853 134.731C246.235 135.445 245.551 136.103 244.8 136.661C243.538 137.594 242.193 138.429 240.78 139.156" fill="white"/>
<path d="M255.664 113.516C255.664 113.516 261.346 108.301 265.054 109.204C268.762 110.106 267.519 118.273 263.572 123.036C263.161 123.532 262.708 123.946 262.225 124.291C257.455 127.697 250.689 130.301 246.853 134.731C246.235 135.445 245.551 136.103 244.8 136.661C243.538 137.594 242.193 138.429 240.78 139.156" stroke="#263238" stroke-miterlimit="10" stroke-linecap="round"/>
<path d="M260.965 62.6705C260.91 63.2629 260.137 63.5493 259.666 63.1853C258.496 62.2802 256.52 61.0866 254.123 60.9669C250.216 60.7717 254.123 63.5285 256.17 64.7239C257.097 65.2235 256.709 66.5348 255.669 66.6998C254.201 66.9326 252.992 67.3606 254.123 68.1393C254.764 68.5803 255.649 68.9228 256.587 69.1872C258.594 69.7532 259.677 73.4025 261.565 74.287C261.917 74.4515 262.282 74.5841 262.651 74.6903C264.588 75.2476 266.204 78.5685 268.104 79.2393C269.782 79.8441 271.231 82.0559 271.083 83.8335C271.028 84.501 271.116 85.1154 271.453 85.5579C272.195 86.5302 274.72 86.8285 275.197 87.9544C275.952 89.7353 276.98 91.4676 277.959 90.8517C279.424 89.9292 282.168 88.8633 283.403 90.0771C284.734 91.3848 286.038 92.1962 286.517 91.0225C287.431 88.7869 289.573 85.4465 291.988 85.4385C293.286 85.4342 294.389 85.1982 294.89 84.5332C294.913 84.5024 294.935 84.4718 294.956 84.4412C295.821 83.16 295.719 79.5086 296.565 78.2147C297.789 76.3425 295.533 72.9075 296.156 70.7593C296.178 70.6832 296.199 70.6068 296.219 70.5301C296.963 67.6331 292.897 67.6331 292.126 67.6331C291.355 67.6331 293.986 65.5838 292.684 63.7053C292.635 63.6347 292.581 63.5681 292.522 63.5054C291.594 62.5215 288 58.7041 286.73 58.2407C286.385 58.1214 286.036 58.0167 285.683 57.9267C282.936 57.2255 281.129 51.4944 278.357 52.0929C277.526 52.2725 273.496 50.4052 272.723 50.7585C272.57 50.828 272.403 50.9299 272.217 51.0683C271.299 51.7545 270.646 52.8648 270.183 54.0716C269.846 54.9484 267.56 54.4889 266.635 54.6545C265.711 54.82 264.053 55.4666 263.483 54.7201C262.561 53.5112 261.402 52.5772 260.283 53.2883C258.065 54.6974 260.5 61.269 260.921 62.3524C260.961 62.4549 260.975 62.561 260.965 62.6705Z" fill="#92E3A9"/>
<path d="M264.87 65.2227C264.303 65.9148 266.25 67.9372 266.961 68.481C267.503 68.9333 267.965 69.452 268.337 70.0184C269.106 71.1895 271.661 71.8621 271.799 73.2565C271.888 74.8638 274.219 76.187 275.327 77.3549C276.536 78.6299 278.664 79.1788 280.42 79.252C280.588 79.2589 280.697 79.3567 280.723 79.575C280.761 79.8896 281.948 80.6571 282.189 80.4517C282.885 79.8598 283.54 79.3569 283.886 79.2334C284.843 78.8919 286.863 78.0136 284.63 72.7441C282.398 67.4747 275.885 63.3579 272.005 63.1871C269.313 63.0686 266.33 63.4432 264.87 65.2227Z" fill="#263238" stroke="#263238" stroke-miterlimit="10" stroke-linecap="round"/>
<path d="M214.306 114.394C214.023 115.428 214.589 113.36 214.306 114.394V114.394Z" fill="#263238" stroke="#263238" stroke-miterlimit="10" stroke-linecap="round"/>
<path d="M219.894 122.889C215.449 123.536 212.173 122.029 209.129 121.169C206.086 120.309 204.445 121.383 204.445 121.383" stroke="#263238" stroke-miterlimit="10" stroke-linecap="round"/>
<path d="M206.83 125.842C206.83 125.842 208.824 128.129 213.316 127.214" stroke="#263238" stroke-miterlimit="10" stroke-linecap="round"/>
<path d="M235.152 101.301C235.719 101.528 236.211 100.927 235.754 100.522C234.68 99.5675 233.214 98.6339 231.59 98.6339C231.093 98.6339 230.569 98.6948 230.035 98.7985C229.103 98.9793 229.504 100.324 230.453 100.323C230.579 100.323 230.639 100.499 230.553 100.591C230.433 100.72 230.332 100.865 230.256 101.022C230.121 101.298 230.066 101.602 230.095 101.904C230.125 102.206 230.238 102.496 230.424 102.746C230.61 102.996 230.863 103.199 231.158 103.334C231.454 103.469 231.782 103.533 232.112 103.519C232.442 103.505 232.762 103.413 233.042 103.253C233.323 103.093 233.554 102.87 233.714 102.605C233.873 102.34 233.957 102.041 233.955 101.738C233.955 101.4 234.297 100.983 234.616 101.097C234.796 101.162 234.975 101.23 235.152 101.301Z" fill="#263238" stroke="#263238" stroke-linecap="round" stroke-linejoin="round"/>
<path d="M210.372 99.8404C210.594 99.9718 210.858 99.803 210.782 99.5563C210.518 98.697 209.782 97.2554 207.807 97.0728C207.089 97.0065 206.308 97.1738 205.543 97.4607C204.996 97.666 205.494 98.7862 206.079 98.7691C206.49 98.7571 206.734 99.3094 206.687 99.7186C206.68 99.7775 206.677 99.8369 206.677 99.8966C206.663 100.096 206.694 100.295 206.767 100.483C206.84 100.67 206.955 100.842 207.103 100.988C207.252 101.133 207.431 101.249 207.631 101.328C207.83 101.408 208.045 101.449 208.262 101.449C208.479 101.449 208.694 101.408 208.894 101.328C209.093 101.249 209.272 101.133 209.421 100.988C209.569 100.842 209.684 100.67 209.757 100.483C209.83 100.295 209.861 100.096 209.847 99.8966C209.845 99.7504 210 99.6313 210.128 99.7017C210.21 99.7467 210.291 99.793 210.372 99.8404Z" fill="#263238" stroke="#263238" stroke-linecap="round" stroke-linejoin="round"/>
<path d="M225.563 98.6403C225.563 98.6403 232.633 94.9809 236.401 99.5002" stroke="#263238" stroke-miterlimit="10" stroke-linecap="round"/>
<path d="M211.196 97.5546C211.196 97.5546 208.133 94.9626 203.421 97.1277" stroke="#263238" stroke-miterlimit="10" stroke-linecap="round"/>
<path d="M194.171 52.404C193.877 52.404 193.623 52.6103 193.563 52.8981L193.505 53.1772C193.479 53.3024 193.369 53.3921 193.241 53.3921C193.07 53.3921 192.942 53.2347 192.977 53.067L193.844 48.8992C193.896 48.6529 194.113 48.4763 194.364 48.4763C194.616 48.4763 194.833 48.6529 194.884 48.8992L195.743 53.0239C195.782 53.2138 195.637 53.3921 195.443 53.3921C195.299 53.3921 195.174 53.2905 195.144 53.1487L195.092 52.8981C195.032 52.6103 194.778 52.404 194.484 52.404H194.171ZM193.861 51.3503C193.799 51.6516 194.028 51.9344 194.336 51.9344C194.645 51.9344 194.875 51.65 194.811 51.3482C194.701 50.8351 193.968 50.8367 193.861 51.3503Z" fill="#263238"/>
<path d="M197.87 50.7721C198.007 50.7708 198.119 50.8812 198.119 51.0179C198.119 51.1536 198.009 51.2637 197.873 51.2637H197.504C197.165 51.2637 196.889 51.5389 196.889 51.8783V53.1054C196.889 53.2705 196.755 53.4044 196.59 53.4044C196.425 53.4044 196.291 53.2705 196.291 53.1054V49.5519C196.291 48.9647 196.767 48.4886 197.354 48.4886H198.168C198.306 48.4886 198.418 48.6006 198.418 48.7387C198.418 48.8768 198.306 48.9888 198.168 48.9888H197.654C197.231 48.9888 196.889 49.3309 196.889 49.7529V50.1671C196.889 50.5056 197.166 50.7791 197.504 50.7757L197.87 50.7721Z" fill="#263238"/>
<path d="M199.973 53.4044C199.807 53.4044 199.674 53.2705 199.674 53.1054V49.4838C199.674 49.2104 199.452 48.9888 199.178 48.9888H198.933C198.795 48.9888 198.683 48.8768 198.683 48.7387C198.683 48.6006 198.795 48.4886 198.933 48.4886H201.005C201.143 48.4886 201.255 48.6006 201.255 48.7387C201.255 48.8768 201.143 48.9888 201.005 48.9888H200.763C200.492 48.9888 200.272 49.2089 200.272 49.4805V53.1054C200.272 53.2705 200.138 53.4044 199.973 53.4044Z" fill="#263238"/>
<path d="M203.326 50.656C203.463 50.6548 203.574 50.7652 203.574 50.9019C203.574 51.0377 203.464 51.1478 203.328 51.1478H202.91C202.543 51.1478 202.245 51.4453 202.245 51.8123V52.088C202.245 52.5321 202.605 52.8921 203.049 52.8921H203.597C203.739 52.8921 203.853 53.0068 203.853 53.1482C203.853 53.2897 203.739 53.4044 203.597 53.4044H202.753C202.146 53.4044 201.654 52.912 201.654 52.3046V49.5884C201.654 48.981 202.146 48.4886 202.753 48.4886H203.603C203.741 48.4886 203.853 48.6006 203.853 48.7387C203.853 48.8768 203.741 48.9888 203.603 48.9888H203.049C202.605 48.9888 202.245 49.3487 202.245 49.7928V50.0014C202.245 50.3675 202.544 50.6632 202.91 50.6599L203.326 50.656Z" fill="#263238"/>
<path d="M205.621 48.4763C206.458 48.4763 206.81 48.8728 206.81 49.5985V50.0011C206.81 50.3767 206.808 51.6467 206.81 52.0224C206.81 52.0276 206.81 52.0328 206.81 52.0381V52.7944C206.803 52.8595 206.802 52.9247 206.807 52.9896C206.82 53.1891 206.685 53.4043 206.485 53.4043C206.379 53.4043 206.281 53.3438 206.251 53.2425C206.208 53.0971 206.195 52.9451 206.212 52.7944V52.0259C206.212 51.4709 205.926 51.294 205.428 51.294C205.197 51.294 205.009 51.4815 205.009 51.7127V53.1052C205.009 53.2704 204.876 53.4043 204.71 53.4043C204.545 53.4043 204.411 53.2704 204.411 53.1052V49.698C204.411 49.028 204.951 48.4831 205.621 48.4763ZM205.468 50.7939C205.94 50.7939 206.225 50.6536 206.225 50.123V49.6534C206.225 49.2082 206.046 48.9764 205.601 48.9764C205.282 48.9764 205.023 49.2353 205.023 49.5545V50.3607C205.023 50.6047 205.224 50.8006 205.468 50.7939Z" fill="#263238"/>
<path d="M175 45H91C85.4772 45 81 49.4772 81 55V196C81 201.523 85.4772 206 91 206H175C180.523 206 185 201.523 185 196V55C185 49.4772 180.523 45 175 45Z" fill="white" stroke="#263238" stroke-miterlimit="10" stroke-linecap="round"/>
<path d="M118.42 164.063C118.42 164.063 104.136 163.185 98.0308 166.783C91.9254 170.382 89.3673 177.438 88.9011 184.013C88.7115 186.685 88.2888 190.818 87.8538 194.782C87.199 200.749 91.847 206 97.8494 206H168.901C174.669 206 179.23 201.128 178.325 195.432C177.415 189.704 175.895 182.964 173.451 178.798C168.53 170.412 155.891 162.941 154.013 162.252C150.022 160.631 145.653 160.083 141.367 160.666C135.281 161.569 121.696 163.838 121.696 163.838" fill="white"/>
<path d="M118.42 164.063C118.42 164.063 104.136 163.185 98.0308 166.783C91.9254 170.382 89.3673 177.438 88.9011 184.013C88.7115 186.685 88.2888 190.818 87.8538 194.782C87.199 200.749 91.847 206 97.8494 206H168.901C174.669 206 179.23 201.128 178.325 195.432C177.415 189.704 175.895 182.964 173.451 178.798C168.53 170.412 155.891 162.941 154.013 162.252C150.022 160.631 145.653 160.083 141.367 160.666C135.281 161.569 121.696 163.838 121.696 163.838" stroke="#595959" stroke-miterlimit="10" stroke-linecap="round"/>
<path d="M133.821 60.9233C134.321 60.6127 134.771 60.2276 135.226 59.854C137.109 58.3081 143.269 54.4542 156.092 56.527C171.939 59.0886 174.087 84.1857 171.441 89.3089C170.975 90.2114 170.399 91.0132 169.767 91.7218C166.48 95.4063 161.036 93.0197 158.445 88.8163C154.674 82.6972 148.719 74.5372 142.136 71.2072C136.606 68.4097 133.958 66.2028 132.693 64.6896C131.603 63.3856 132.377 61.82 133.821 60.9233Z" fill="white" stroke="#595959" stroke-miterlimit="10" stroke-linecap="round"/>
<path d="M133.821 60.9233C134.321 60.6127 134.771 60.2276 135.226 59.854C137.109 58.3081 143.269 54.4542 156.092 56.527C171.939 59.0886 174.087 84.1857 171.441 89.3089C170.975 90.2114 170.399 91.0132 169.767 91.7218C166.48 95.4063 161.036 93.0197 158.445 88.8163C154.674 82.6972 148.719 74.5372 142.136 71.2072C136.606 68.4097 133.958 66.2028 132.693 64.6896C131.603 63.3856 132.377 61.82 133.821 60.9233Z" fill="#808080" stroke="#808080" stroke-miterlimit="10" stroke-linecap="round"/>
<path d="M120.083 182.202C120.083 182.202 120.083 179.25 118.193 174.944C116.303 170.639 113.039 161.569 110.462 156.812C109.749 155.497 109.073 153.92 108.467 152.328C106.669 147.601 101.363 145.14 97.2748 142.164C97.1391 142.065 97.0066 141.961 96.8778 141.852C94.8804 140.15 92.902 131.422 90.577 123.488C88.252 115.553 88.6868 106.484 90.8101 104.221C92.9335 101.958 91.749 97.6464 91.749 95.3776C91.749 93.1088 93.3871 89.7117 99.2405 79.5203C104.142 70.9862 110.197 65.7794 112.036 64.3117C112.404 64.0186 112.759 63.7194 113.145 63.4508C114.599 62.438 119.102 59.9812 128.747 59.8025C140.92 59.5768 153.106 68.4142 159.898 76.1232C166.69 83.8323 165.751 101.739 162.941 108.765C160.131 115.791 143.711 134.819 142.073 139.583C141.059 142.529 141.84 145.651 142.577 147.603C143.019 148.753 143.761 149.772 144.732 150.561C146.42 151.945 149.949 154.909 156.124 160.435C165.493 168.827 169.985 174.365 169.985 174.365" fill="white"/>
<path d="M120.083 182.202C120.083 182.202 120.083 179.25 118.193 174.944C116.303 170.639 113.039 161.569 110.462 156.812C109.749 155.497 109.073 153.92 108.467 152.328C106.669 147.601 101.363 145.14 97.2748 142.164C97.1391 142.065 97.0066 141.961 96.8778 141.852C94.8804 140.15 92.902 131.422 90.577 123.488C88.252 115.553 88.6868 106.484 90.8101 104.221C92.9335 101.958 91.749 97.6464 91.749 95.3776C91.749 93.1088 93.3871 89.7117 99.2405 79.5203C104.142 70.9862 110.197 65.7794 112.036 64.3117C112.404 64.0186 112.759 63.7194 113.145 63.4508C114.599 62.438 119.102 59.9812 128.747 59.8025C140.92 59.5768 153.106 68.4142 159.898 76.1232C166.69 83.8323 165.751 101.739 162.941 108.765C160.131 115.791 143.711 134.819 142.073 139.583C141.059 142.529 141.84 145.651 142.577 147.603C143.019 148.753 143.761 149.772 144.732 150.561C146.42 151.945 149.949 154.909 156.124 160.435C165.493 168.827 169.985 174.365 169.985 174.365" stroke="#595959" stroke-miterlimit="10" stroke-linecap="round"/>
<path d="M141.619 166.016C141.779 165.694 141.93 165.347 142.073 164.973" stroke="#595959" stroke-miterlimit="10" stroke-linecap="round"/>
<path d="M120.525 194.443C121.632 188.142 124.65 182.301 129.194 177.664C135.3 171.566 138.608 170.59 140.763 167.491" stroke="#595959" stroke-miterlimit="10" stroke-linecap="round"/>
<path d="M100.816 185.794C100.891 185.276 100.986 184.757 101.087 184.239" stroke="#595959" stroke-miterlimit="10" stroke-linecap="round"/>
<path d="M102.026 206C100.573 200.059 100.076 193.937 100.551 187.849" stroke="#595959" stroke-miterlimit="10" stroke-linecap="round"/>
<path d="M108.285 143.951C107.041 143.949 106.099 145.108 106.452 146.301C106.803 147.49 107.276 149.01 107.834 150.605C108.012 151.114 108.649 151.274 109.051 150.914C109.385 150.621 109.837 150.272 110.376 149.883C112.145 148.607 110.466 143.955 108.285 143.951Z" fill="#808080" stroke="#808080" stroke-miterlimit="10" stroke-linecap="round"/>
<path d="M111.95 92.5736C112.033 92.5895 112.115 92.5818 112.199 92.5777C112.912 92.5424 116.662 92.3816 122.156 92.5841C125.391 92.7061 128.429 95.5135 130.464 97.782C132.056 99.557 132.124 99.506 130.733 97.5695C130.559 97.328 130.447 97.1721 130.442 97.1644C129.566 95.9446 125.622 90.8459 121.488 90.8459C116.807 90.8459 111.187 89.4858 111.187 91.0715C111.187 92.2832 111.705 92.5263 111.95 92.5736Z" fill="#808080" stroke="#808080" stroke-miterlimit="10" stroke-linecap="round"/>
<path d="M101.232 93.3156C101.319 93.3712 101.422 93.3993 101.527 93.3963C101.632 93.3932 101.733 93.3591 101.817 93.2985C101.9 93.2379 101.963 93.1538 101.996 93.0576C102.029 92.9614 102.03 92.8577 102 92.7606C101.833 92.0577 101.46 91.4168 100.924 90.9155C100.388 90.4143 99.7136 90.0743 98.9822 89.9368C97.0899 89.7 95.168 90.0015 93.4507 90.8036C93.3932 90.8304 93.3472 90.8769 93.3202 90.9344C93.1805 91.2321 93.9072 91.8012 94.2036 91.6588C94.8914 91.3281 95.7307 91.1206 96.6699 91.2847C98.3055 91.6872 99.8514 92.3755 101.232 93.3156Z" fill="#808080" stroke="#808080" stroke-miterlimit="10" stroke-linecap="round"/>
<path d="M103.664 95.8289C103.664 95.8289 104.602 100.141 101.326 102.861C98.0497 105.581 95.0254 107.392 95.0254 110.113C95.0254 112.833 98.5412 114.418 98.5412 114.418" stroke="#595959" stroke-miterlimit="10" stroke-linecap="round"/>
<path d="M133.586 74.0188C132.584 75.2386 129.339 75.9522 133.334 76.4584C137.329 76.9646 142.073 78.6357 141.323 79.5993C140.573 80.563 137.083 79.8433 140.573 81.2948C144.064 82.7464 146.824 84.9237 144.82 85.6434C142.817 86.3631 141.575 85.4055 144.07 89.998C146.566 94.5905 150.069 96.2861 146.824 96.2861C143.579 96.2861 143.075 99.671 145.072 101.116C147.07 102.562 144.322 104.02 144.82 106.435C145.318 108.85 144.574 110.545 147.34 111.515C150.107 112.485 151.083 111.997 151.335 116.108C151.587 120.218 145.091 123.359 145.343 125.537C145.349 125.588 145.354 125.641 145.357 125.696C145.622 130.144 148.297 130.097 150.964 126.527C155.938 119.867 161.416 112.576 162.935 108.795C165.745 101.769 166.715 83.8564 159.892 76.1534C153.068 68.4505 140.876 59.5582 128.722 59.79C118.72 59.9807 114.239 62.6207 112.966 63.5497C112.688 63.7522 112.43 63.9754 112.162 64.1897C109.436 66.3648 106.962 68.82 104.783 71.5124C104.739 71.5669 104.735 71.6434 104.773 71.7026C104.821 71.7791 104.918 71.8045 104.995 71.7556C106.107 71.0439 113.744 66.1985 112.352 68.2126C110.853 70.3838 108.856 71.5975 112.352 70.146C115.849 68.6944 120.096 67.249 119.844 67.9747C119.592 68.7005 117.324 69.9081 121.841 69.9081C126.359 69.9081 134.575 72.8112 133.586 74.0188Z" fill="#808080" stroke="#808080" stroke-miterlimit="10" stroke-linecap="round"/>
<path d="M129.075 139.936C128.291 140.291 127.466 140.554 126.617 140.717L129.075 139.936Z" fill="white"/>
<path d="M129.075 139.936C128.291 140.291 127.466 140.554 126.617 140.717" stroke="#595959" stroke-miterlimit="10" stroke-linecap="round"/>
<path d="M144.883 113.516C144.883 113.516 150.27 108.301 153.78 109.204C157.289 110.106 156.124 118.273 152.375 123.036C152.174 123.291 151.963 123.524 151.743 123.738C147.451 127.898 140.165 130.563 136.239 135.07C135.731 135.654 135.179 136.192 134.581 136.661C133.395 137.593 132.131 138.427 130.801 139.156" fill="white"/>
<path d="M144.883 113.516C144.883 113.516 150.27 108.301 153.78 109.204C157.289 110.106 156.124 118.273 152.375 123.036C152.174 123.291 151.963 123.524 151.743 123.738C147.451 127.898 140.165 130.563 136.239 135.07C135.731 135.654 135.179 136.192 134.581 136.661C133.395 137.593 132.131 138.427 130.801 139.156" stroke="#595959" stroke-miterlimit="10" stroke-linecap="round"/>
<path d="M149.951 62.6873C149.872 63.2794 149.09 63.54 148.626 63.1637C147.513 62.2614 145.651 61.0858 143.396 60.967C139.691 60.7719 143.396 63.5286 145.337 64.724C146.245 65.2398 145.844 66.5318 144.815 66.708C143.444 66.9425 142.336 67.3696 143.396 68.1394C143.963 68.5509 144.732 68.8767 145.555 69.1332C147.559 69.7581 148.571 73.3577 150.453 74.2871C150.728 74.4228 151.011 74.5367 151.299 74.632C153.209 75.2659 154.768 78.5357 156.653 79.2395C158.251 79.847 159.694 81.9351 159.497 83.6336C159.411 84.3777 159.477 85.0717 159.829 85.558C160.501 86.4875 162.925 86.8078 163.349 87.8734C164.069 89.6823 165.061 91.4771 166.003 90.8519C167.39 89.9311 170.053 88.9352 171.215 90.1278C172.46 91.4056 173.67 92.1811 174.119 91.0226C174.994 88.7618 177.203 85.5271 179.626 85.4318C180.714 85.3891 181.62 85.1394 182.051 84.5334C182.087 84.4834 182.119 84.4338 182.148 84.3846C182.934 83.0553 182.825 79.5275 183.639 78.2149C184.814 76.3188 182.624 72.9628 183.23 70.8159C183.257 70.7213 183.282 70.626 183.305 70.5302C184.011 67.6332 180.155 67.6332 179.43 67.6332C178.706 67.6332 181.194 65.5839 179.959 63.7055C179.943 63.6801 179.925 63.6553 179.907 63.6309C179.099 62.5355 175.585 58.7297 174.314 58.2408C174.076 58.1541 173.836 58.0751 173.594 58.0038C170.896 57.2086 169.118 51.4683 166.375 52.0931C165.603 52.2689 161.9 50.4293 161.158 50.7053C160.982 50.7708 160.781 50.8889 160.553 51.0684C159.67 51.7628 159.046 52.8916 158.606 54.1151C158.305 54.9485 156.131 54.4902 155.261 54.6546C154.4 54.8172 152.815 55.4282 152.302 54.7186C151.428 53.5104 150.329 52.5777 149.269 53.2885C147.174 54.6923 149.495 61.2256 149.912 62.3463C149.953 62.4561 149.966 62.571 149.951 62.6873Z" fill="#92E3A9"/>
<path opacity="0.5" d="M149.951 62.6873C149.872 63.2794 149.09 63.54 148.626 63.1637C147.513 62.2614 145.651 61.0858 143.396 60.967C139.691 60.7719 143.396 63.5286 145.337 64.724C146.245 65.2398 145.844 66.5318 144.815 66.708C143.444 66.9425 142.336 67.3696 143.396 68.1394C143.963 68.5509 144.732 68.8767 145.555 69.1332C147.559 69.7581 148.571 73.3577 150.453 74.2871C150.728 74.4228 151.011 74.5367 151.299 74.632C153.209 75.2659 154.768 78.5357 156.653 79.2395C158.251 79.847 159.694 81.9351 159.497 83.6336C159.411 84.3777 159.477 85.0717 159.829 85.558C160.501 86.4875 162.925 86.8078 163.349 87.8734C164.069 89.6823 165.061 91.4771 166.003 90.8519C167.39 89.9311 170.053 88.9352 171.215 90.1278C172.46 91.4056 173.67 92.1811 174.119 91.0226C174.994 88.7618 177.203 85.5271 179.626 85.4318C180.714 85.3891 181.62 85.1394 182.051 84.5334C182.087 84.4834 182.119 84.4338 182.148 84.3846C182.934 83.0553 182.825 79.5275 183.639 78.2149C184.814 76.3188 182.624 72.9628 183.23 70.8159C183.257 70.7213 183.282 70.626 183.305 70.5302C184.011 67.6332 180.155 67.6332 179.43 67.6332C178.706 67.6332 181.194 65.5839 179.959 63.7055C179.943 63.6801 179.925 63.6553 179.907 63.6309C179.099 62.5355 175.585 58.7297 174.314 58.2408C174.076 58.1541 173.836 58.0751 173.594 58.0038C170.896 57.2086 169.118 51.4683 166.375 52.0931C165.603 52.2689 161.9 50.4293 161.158 50.7053C160.982 50.7708 160.781 50.8889 160.553 51.0684C159.67 51.7628 159.046 52.8916 158.606 54.1151C158.305 54.9485 156.131 54.4902 155.261 54.6546C154.4 54.8172 152.815 55.4282 152.302 54.7186C151.428 53.5104 150.329 52.5777 149.269 53.2885C147.174 54.6923 149.495 61.2256 149.912 62.3463C149.953 62.4561 149.966 62.571 149.951 62.6873Z" fill="white"/>
<path d="M153.51 65.3202C153.017 65.9929 154.915 67.9563 155.563 68.4808C156.108 68.9545 156.569 69.5023 156.935 70.1026C157.628 71.2396 160.057 71.9365 160.181 73.2624C160.184 73.3127 160.186 73.363 160.189 73.4133C160.254 74.949 162.503 76.2207 163.533 77.3609C164.678 78.6272 167.047 78.4094 168.504 79.2978C168.582 79.3454 168.633 79.4369 168.65 79.5809C168.685 79.8913 169.861 80.6173 170.094 80.4092C170.733 79.8385 171.33 79.3595 171.649 79.2394C172.556 78.8978 174.471 78.0196 172.354 72.7501C170.237 67.4806 164.063 63.3638 160.383 63.1931C157.785 63.0725 154.873 63.4596 153.51 65.3202Z" fill="#808080" stroke="#808080" stroke-miterlimit="10" stroke-linecap="round"/>
<path d="M105.611 114.394C105.345 115.417 105.877 113.37 105.611 114.394V114.394Z" fill="#263238" stroke="#595959" stroke-miterlimit="10" stroke-linecap="round"/>
<path d="M110.941 122.889C106.726 123.536 103.613 122.029 100.728 121.169C97.8418 120.309 96.3171 121.383 96.3171 121.383" stroke="#595959" stroke-miterlimit="10" stroke-linecap="round"/>
<path d="M98.5476 125.842C98.5476 125.842 100.438 128.129 104.703 127.214" stroke="#595959" stroke-miterlimit="10" stroke-linecap="round"/>
<path d="M125.384 101.292C125.923 101.518 126.414 100.943 125.988 100.543C124.963 99.5816 123.564 98.6339 122.03 98.6339C121.55 98.6339 121.039 98.699 120.517 98.8091C119.622 98.998 120.038 100.324 120.953 100.323C121.075 100.323 121.134 100.492 121.052 100.582C120.904 100.745 120.788 100.934 120.709 101.139C120.584 101.466 120.561 101.82 120.642 102.159C120.723 102.498 120.905 102.806 121.165 103.046C121.425 103.286 121.752 103.447 122.105 103.509C122.459 103.572 122.824 103.532 123.154 103.396C123.485 103.26 123.767 103.033 123.966 102.744C124.165 102.454 124.272 102.115 124.274 101.767C124.276 101.417 124.634 100.997 124.961 101.122C125.103 101.176 125.244 101.233 125.384 101.292Z" fill="#808080" stroke="#808080" stroke-miterlimit="10" stroke-linecap="round"/>
<path d="M101.917 99.8407C102.125 99.9707 102.38 99.813 102.312 99.5769C102.065 98.7203 101.37 97.2569 99.4864 97.0728C98.7973 97.0055 98.0468 97.1786 97.3117 97.473C96.7878 97.6829 97.3083 98.7842 97.8725 98.7684C98.2638 98.7574 98.4903 99.2688 98.4324 99.6559C98.4206 99.7352 98.4148 99.8156 98.4153 99.8966C98.402 100.096 98.431 100.295 98.5005 100.483C98.5699 100.67 98.6785 100.842 98.8193 100.988C98.9602 101.133 99.1303 101.249 99.3193 101.328C99.5083 101.408 99.7121 101.449 99.918 101.449C100.124 101.449 100.328 101.408 100.517 101.328C100.706 101.249 100.876 101.133 101.017 100.988C101.158 100.842 101.266 100.67 101.336 100.483C101.405 100.295 101.434 100.096 101.421 99.8966C101.419 99.752 101.575 99.637 101.7 99.7099C101.773 99.7524 101.845 99.7961 101.917 99.8407Z" fill="#808080" stroke="#808080" stroke-miterlimit="10" stroke-linecap="round"/>
<path d="M116.303 98.6403C116.303 98.6403 123.007 94.9809 126.58 99.5002" stroke="#595959" stroke-miterlimit="10" stroke-linecap="round"/>
<path d="M102.693 97.5545C102.693 97.5545 99.7888 94.9625 95.3216 97.1276" stroke="#595959" stroke-miterlimit="10" stroke-linecap="round"/>
<path d="M86.8471 48.4763C87.641 48.4763 87.9497 48.8423 87.9497 49.568V49.7998C87.9497 50.1595 88.014 51.3461 88.0346 51.7052C88.0368 51.7441 88.0379 51.7839 88.0379 51.8246C88.0379 52.1007 88.089 52.3837 88.0183 52.6505C88.0137 52.6679 88.0087 52.6852 88.0031 52.7024C87.9546 52.852 87.8708 52.9887 87.7584 53.1017C87.646 53.2146 87.508 53.3008 87.3553 53.3533C87.2026 53.4058 87.0394 53.4232 86.8786 53.4043C86.2314 53.4043 85.7067 52.8796 85.7067 52.2323V49.629C85.7067 48.9972 86.2153 48.4831 86.8471 48.4763ZM86.7085 50.5622C87.1621 50.5622 87.389 50.4219 87.389 49.9096V49.6229C87.389 49.1899 87.2377 48.9764 86.8345 48.9764C86.5248 48.9764 86.2737 49.2275 86.2737 49.5372V50.1274C86.2737 50.3675 86.4684 50.5622 86.7085 50.5622ZM86.8786 52.892C87.2882 52.892 87.5087 52.6846 87.5087 52.2272V51.7941C87.5087 51.2452 87.2881 51.0623 86.7967 51.0623C86.5253 51.0623 86.3052 51.2823 86.3052 51.5537V52.3186C86.3052 52.6353 86.5619 52.892 86.8786 52.892Z" fill="#263238"/>
<path d="M90.1147 50.6564C90.2514 50.655 90.3629 50.7654 90.3629 50.9021C90.3629 51.0379 90.2529 51.1479 90.1172 51.1479H89.7328C89.3849 51.1479 89.1028 51.43 89.1028 51.778V52.133C89.1028 52.5523 89.4427 52.8922 89.862 52.8922H90.3651C90.5066 52.8922 90.6212 53.0069 90.6212 53.1484C90.6212 53.2898 90.5066 53.4045 90.3651 53.4045H89.6005C89.0368 53.4045 88.5798 52.9475 88.5798 52.3838V49.5315C88.5798 48.9556 89.0467 48.4888 89.6226 48.4888H90.4153C90.5534 48.4888 90.6654 48.6007 90.6654 48.7388C90.6654 48.8769 90.5534 48.9889 90.4153 48.9889H89.9061C89.4868 48.9889 89.1469 49.3288 89.1469 49.7481V50.058C89.1469 50.3929 89.4201 50.6634 89.7549 50.66L90.1147 50.6564Z" fill="#263238"/>
<path d="M92.6539 50.7724C92.7906 50.7709 92.9022 50.8814 92.9022 51.0181C92.9022 51.1538 92.7922 51.2638 92.6565 51.2638H92.3162C91.9926 51.2638 91.7303 51.5261 91.7303 51.8498V53.1241C91.7303 53.279 91.6047 53.4045 91.4499 53.4045C91.295 53.4045 91.1695 53.279 91.1695 53.1241V49.4969C91.1695 48.9401 91.6208 48.4888 92.1776 48.4888H92.9357C93.0738 48.4888 93.1857 48.6007 93.1857 48.7388C93.1857 48.8769 93.0738 48.9889 92.9357 48.9889H92.458C92.0561 48.9889 91.7303 49.3147 91.7303 49.7166V50.196C91.7303 50.5186 91.9936 50.7792 92.3162 50.7759L92.6539 50.7724Z" fill="#263238"/>
<path d="M93.6204 49.6657C93.6204 48.9155 94.0047 48.4459 94.7797 48.4459C95.5547 48.4459 95.9517 48.9338 95.9517 49.6657V52.1846C95.9733 52.3424 95.9587 52.5029 95.9087 52.6546C95.8588 52.8062 95.7748 52.9454 95.6628 53.0619C95.5508 53.1785 95.4136 53.2697 95.2609 53.3289C95.1082 53.3881 94.9439 53.4138 94.7797 53.4044C94.0047 53.4044 93.6204 52.9164 93.6204 52.1846V49.6657ZM94.1812 52.2334C94.1812 52.6847 94.3765 52.9408 94.8112 52.9408C95.246 52.9408 95.4413 52.6847 95.4413 52.2334V49.6352C95.4413 49.1961 95.2523 48.9277 94.8112 48.9277C94.3702 48.9277 94.1812 49.1961 94.1812 49.6352V52.2334Z" fill="#263238"/>
<path d="M97.5898 48.4763C98.3837 48.4763 98.7177 48.8728 98.7177 49.5985V50.0011C98.7177 50.3843 98.7152 51.6393 98.7176 52.0225C98.7176 52.0277 98.7177 52.0329 98.7177 52.0381V52.7944C98.7102 52.8681 98.7098 52.9421 98.7162 53.0154C98.7326 53.2039 98.6037 53.4043 98.4145 53.4043C98.3115 53.4043 98.2157 53.3441 98.1878 53.245C98.1466 53.0988 98.1338 52.946 98.1506 52.7944V52.0259C98.1506 51.4709 97.8797 51.294 97.4071 51.294C97.1879 51.294 97.0102 51.4718 97.0102 51.691V53.1207C97.0102 53.2773 96.8832 53.4043 96.7266 53.4043C96.57 53.4043 96.4431 53.2773 96.4431 53.1207V49.6353C96.4431 49 96.9545 48.4831 97.5898 48.4763ZM97.4449 50.7939C97.8923 50.7939 98.1632 50.6536 98.1632 50.123V49.6534C98.1632 49.2082 97.9931 48.9764 97.5772 48.9764C97.271 48.9764 97.0228 49.2247 97.0228 49.5309V50.3838C97.0228 50.615 97.2138 50.8006 97.4449 50.7939Z" fill="#263238"/>
<path d="M100.876 50.6563C101.013 50.655 101.125 50.7654 101.125 50.9021C101.125 51.0379 101.015 51.1479 100.879 51.1479H100.495C100.147 51.1479 99.8645 51.43 99.8645 51.778V52.1298C99.8645 52.5509 100.206 52.8922 100.627 52.8922H101.133C101.275 52.8922 101.389 53.0069 101.389 53.1484C101.389 53.2898 101.275 53.4045 101.133 53.4045H100.34C99.7608 53.4045 99.2911 52.9348 99.2911 52.3554V49.5347C99.2911 48.957 99.7594 48.4888 100.337 48.4888H101.133C101.271 48.4888 101.383 48.6007 101.383 48.7388C101.383 48.8769 101.271 48.9889 101.133 48.9889H100.621C100.2 48.9889 99.8582 49.3302 99.8582 49.7513V50.0328C99.8582 50.3816 100.143 50.6634 100.491 50.66L100.876 50.6563Z" fill="#263238"/>
<path d="M293.594 174.101H228.65C223.127 174.101 218.65 178.578 218.65 184.101V212C218.65 217.523 223.127 222 228.65 222H293.594C299.116 222 303.594 217.523 303.594 212V184.101C303.594 178.578 299.116 174.101 293.594 174.101Z" fill="#5C5C5C" stroke="#263238" stroke-miterlimit="10" stroke-linecap="round"/>
<path d="M300.586 174.101H221.657C219.996 174.101 218.65 175.448 218.65 177.109C218.65 178.77 219.996 180.116 221.657 180.116H300.586C302.247 180.116 303.594 178.77 303.594 177.109C303.594 175.448 302.247 174.101 300.586 174.101Z" fill="white" stroke="#263238" stroke-miterlimit="10" stroke-linecap="round"/>
<path d="M300.213 175.803L296.218 178.943" stroke="#263238" stroke-miterlimit="10" stroke-linecap="round"/>
<path d="M296.218 175.803L300.213 178.943" stroke="#263238" stroke-miterlimit="10" stroke-linecap="round"/>
<path d="M229.836 195.968H278.104" stroke="#878787" stroke-width="2" stroke-miterlimit="10" stroke-linecap="round"/>
<path d="M229.836 204.469H278.104" stroke="#878787" stroke-width="2" stroke-miterlimit="10" stroke-linecap="round"/>
<path d="M296.47 190.996H284.189C282.363 190.996 280.882 192.114 280.882 193.492V193.603C280.882 194.981 282.363 196.098 284.189 196.098H296.47C298.296 196.098 299.777 194.981 299.777 193.603V193.492C299.777 192.114 298.296 190.996 296.47 190.996Z" stroke="#878787" stroke-width="2" stroke-miterlimit="10" stroke-linecap="round"/>
<path d="M296.47 199.368H284.189C282.363 199.368 280.882 200.485 280.882 201.863V201.974C280.882 203.352 282.363 204.469 284.189 204.469H296.47C298.296 204.469 299.777 203.352 299.777 201.974V201.863C299.777 200.485 298.296 199.368 296.47 199.368Z" stroke="#878787" stroke-width="2" stroke-miterlimit="10" stroke-linecap="round"/>
<path d="M254.803 198.593C253.881 197.381 252.054 197.384 251.128 198.593C251.051 198.694 251.011 198.808 251.012 198.925C251.012 199.041 251.053 199.155 251.13 199.255C251.207 199.356 251.318 199.439 251.451 199.497C251.585 199.555 251.736 199.586 251.89 199.586H254.041C254.195 199.586 254.346 199.555 254.479 199.497C254.613 199.439 254.724 199.356 254.801 199.255C254.878 199.155 254.919 199.041 254.919 198.925C254.92 198.808 254.88 198.694 254.803 198.593Z" fill="white" stroke="#263238" stroke-miterlimit="10" stroke-linecap="round"/>
<path d="M229.836 212.738H278.104" stroke="#878787" stroke-width="2" stroke-miterlimit="10" stroke-linecap="round"/>
<path d="M255.725 215.359C254.798 214.147 252.972 214.149 252.043 215.359C251.965 215.46 251.924 215.574 251.924 215.691C251.924 215.808 251.964 215.923 252.041 216.024C252.119 216.125 252.23 216.209 252.364 216.267C252.499 216.326 252.651 216.356 252.806 216.356H254.963C255.118 216.356 255.27 216.326 255.404 216.267C255.538 216.209 255.65 216.125 255.727 216.024C255.805 215.923 255.845 215.808 255.845 215.691C255.844 215.574 255.803 215.46 255.725 215.359Z" fill="white" stroke="#263238" stroke-miterlimit="10" stroke-linecap="round"/>
<path d="M268.669 206.83C267.746 205.619 265.921 205.622 264.994 206.83C264.916 206.931 264.875 207.045 264.874 207.162C264.874 207.279 264.915 207.394 264.992 207.495C265.069 207.596 265.181 207.68 265.315 207.738C265.449 207.797 265.601 207.827 265.756 207.827H267.907C268.062 207.827 268.214 207.797 268.349 207.738C268.483 207.68 268.594 207.596 268.671 207.495C268.749 207.394 268.789 207.279 268.789 207.162C268.789 207.045 268.747 206.931 268.669 206.83Z" fill="white" stroke="#263238" stroke-miterlimit="10" stroke-linecap="round"/>
<path d="M288.436 192.963C288.436 192.569 288.695 192.314 289.217 192.314C289.74 192.314 290.004 192.569 290.004 192.963V194.299C290.004 194.688 289.746 194.948 289.217 194.948C288.688 194.948 288.436 194.688 288.436 194.299V192.963ZM288.811 194.313C288.811 194.549 288.94 194.688 289.217 194.688C289.494 194.688 289.623 194.549 289.623 194.313V192.949C289.623 192.717 289.494 192.578 289.217 192.578C288.94 192.578 288.811 192.717 288.811 192.949V194.313Z" fill="white"/>
<path d="M291.088 194.018C291.017 193.912 290.864 193.907 290.786 194.007C290.761 194.04 290.748 194.08 290.748 194.121V194.73C290.748 194.835 290.662 194.92 290.557 194.92C290.452 194.92 290.366 194.835 290.366 194.73V192.532C290.366 192.427 290.452 192.342 290.557 192.342C290.662 192.342 290.748 192.427 290.748 192.532V192.648C290.748 192.945 291.127 193.069 291.302 192.829L291.611 192.405C291.64 192.365 291.686 192.342 291.735 192.342C291.861 192.342 291.933 192.485 291.859 192.586L291.4 193.212C291.266 193.395 291.258 193.641 291.38 193.831L291.907 194.654C291.977 194.763 291.899 194.906 291.769 194.906C291.715 194.906 291.664 194.879 291.633 194.834L291.088 194.018Z" fill="white"/>
<path d="M286.955 201.13V201.181C286.955 201.281 286.874 201.362 286.774 201.362C286.674 201.362 286.592 201.281 286.592 201.181V201.13C286.592 200.898 286.476 200.759 286.193 200.759C285.91 200.759 285.793 200.898 285.793 201.13V202.493C285.793 202.725 285.923 202.869 286.193 202.869C286.463 202.869 286.592 202.725 286.592 202.493V202.341C286.592 202.241 286.674 202.16 286.774 202.16C286.874 202.16 286.955 202.241 286.955 202.341V202.48C286.955 202.869 286.715 203.129 286.187 203.129C285.658 203.129 285.419 202.869 285.419 202.48V201.13C285.419 200.74 285.664 200.481 286.187 200.481C286.709 200.481 286.955 200.731 286.955 201.13Z" fill="white"/>
<path d="M287.961 202.559C287.803 202.559 287.665 202.665 287.625 202.818L287.591 202.951C287.571 203.026 287.503 203.078 287.426 203.078C287.315 203.078 287.234 202.974 287.261 202.866L287.791 200.768C287.831 200.61 287.973 200.5 288.136 200.5C288.298 200.5 288.44 200.61 288.48 200.767L289.015 202.866C289.043 202.974 288.962 203.078 288.851 203.078C288.773 203.078 288.706 203.026 288.686 202.951L288.652 202.818C288.612 202.665 288.474 202.559 288.316 202.559H287.961ZM287.831 201.941C287.783 202.13 287.925 202.313 288.119 202.313C288.314 202.313 288.456 202.129 288.407 201.94C288.33 201.643 287.907 201.644 287.831 201.941Z" fill="white"/>
<path d="M289.701 202.893C289.702 202.995 289.62 203.078 289.518 203.078C289.416 203.078 289.334 202.996 289.334 202.894V200.792C289.334 200.63 289.465 200.5 289.626 200.5C289.743 200.5 289.849 200.569 289.895 200.677L290.007 200.939C290.142 201.254 290.612 201.158 290.612 200.815V200.669C290.612 200.575 290.688 200.5 290.781 200.5C290.875 200.5 290.95 200.575 290.95 200.669V202.846C290.95 202.974 290.846 203.078 290.718 203.078C290.624 203.078 290.54 203.022 290.503 202.935L290.362 202.597C290.217 202.249 289.698 202.355 289.701 202.732L289.701 202.893Z" fill="white"/>
<path d="M292.874 201.13V201.181C292.874 201.281 292.793 201.362 292.693 201.362C292.593 201.362 292.511 201.281 292.511 201.181V201.13C292.511 200.898 292.389 200.759 292.112 200.759C291.835 200.759 291.712 200.898 291.712 201.13V202.493C291.712 202.725 291.835 202.869 292.112 202.869C292.389 202.869 292.511 202.725 292.511 202.493V202.341C292.511 202.241 292.593 202.16 292.693 202.16C292.793 202.16 292.874 202.241 292.874 202.341V202.48C292.874 202.869 292.628 203.129 292.1 203.129C291.571 203.129 291.331 202.869 291.331 202.48V201.13C291.331 200.74 291.577 200.481 292.1 200.481C292.622 200.481 292.874 200.731 292.874 201.13Z" fill="white"/>
<path d="M294.305 201.642C294.377 201.641 294.435 201.699 294.435 201.771C294.435 201.842 294.378 201.9 294.306 201.9H294.017C293.787 201.9 293.599 202.087 293.599 202.318V202.364C293.599 202.62 293.807 202.828 294.063 202.828H294.496C294.568 202.828 294.626 202.886 294.626 202.957C294.626 203.029 294.568 203.087 294.496 203.087H293.922C293.533 203.087 293.218 202.772 293.218 202.383V201.212C293.218 200.824 293.533 200.509 293.922 200.509H294.496C294.568 200.509 294.626 200.567 294.626 200.639C294.626 200.71 294.568 200.768 294.496 200.768H294.038C293.796 200.768 293.599 200.965 293.599 201.207V201.232C293.599 201.462 293.787 201.647 294.017 201.645L294.305 201.642Z" fill="white"/>
<path d="M295.662 203.078C295.286 203.078 294.982 202.774 294.982 202.399V200.69C294.982 200.585 295.068 200.5 295.173 200.5C295.278 200.5 295.363 200.585 295.363 200.69V202.33C295.363 202.6 295.582 202.818 295.852 202.818H296.211C296.283 202.818 296.341 202.877 296.341 202.948C296.341 203.02 296.283 203.078 296.211 203.078H295.662Z" fill="white"/>
<path d="M223.615 202.586V193.666H226.628C227.325 193.666 227.897 193.785 228.345 194.023C228.792 194.259 229.123 194.582 229.338 194.995C229.552 195.407 229.66 195.876 229.66 196.401C229.66 196.927 229.552 197.393 229.338 197.8C229.123 198.206 228.793 198.525 228.349 198.758C227.905 198.987 227.337 199.102 226.646 199.102H224.207V198.126H226.611C227.087 198.126 227.471 198.057 227.761 197.917C228.054 197.778 228.266 197.58 228.397 197.325C228.53 197.066 228.597 196.759 228.597 196.401C228.597 196.044 228.53 195.732 228.397 195.465C228.263 195.198 228.05 194.992 227.757 194.847C227.463 194.698 227.076 194.624 226.594 194.624H224.695V202.586H223.615ZM227.813 198.579L230.008 202.586H228.754L226.594 198.579H227.813Z" fill="white"/>
<path d="M229.712 205.182C229.616 204.889 229.49 204.626 229.333 204.394C229.179 204.158 228.995 203.958 228.78 203.793C228.568 203.627 228.327 203.501 228.057 203.414C227.787 203.327 227.491 203.283 227.169 203.283C226.64 203.283 226.16 203.419 225.727 203.692C225.294 203.965 224.95 204.367 224.695 204.899C224.439 205.43 224.311 206.082 224.311 206.854C224.311 207.627 224.441 208.279 224.699 208.81C224.957 209.341 225.307 209.744 225.749 210.017C226.19 210.289 226.687 210.426 227.238 210.426C227.749 210.426 228.199 210.317 228.588 210.099C228.98 209.879 229.285 209.568 229.503 209.167C229.724 208.764 229.834 208.289 229.834 207.743L230.165 207.813H227.482V206.854H230.879V207.813C230.879 208.547 230.723 209.186 230.409 209.729C230.098 210.272 229.669 210.693 229.12 210.992C228.574 211.288 227.947 211.436 227.238 211.436C226.448 211.436 225.754 211.251 225.156 210.879C224.561 210.507 224.097 209.979 223.763 209.294C223.432 208.608 223.266 207.795 223.266 206.854C223.266 206.149 223.36 205.514 223.549 204.951C223.741 204.385 224.011 203.903 224.359 203.505C224.708 203.107 225.12 202.802 225.596 202.59C226.072 202.379 226.597 202.273 227.169 202.273C227.639 202.273 228.077 202.344 228.484 202.486C228.893 202.625 229.258 202.824 229.577 203.083C229.899 203.338 230.168 203.644 230.383 204.002C230.598 204.356 230.746 204.749 230.827 205.182H229.712Z" fill="white"/>
<path d="M223.615 220.043V211.123H226.733C227.354 211.123 227.867 211.23 228.27 211.445C228.674 211.657 228.975 211.943 229.172 212.303C229.37 212.66 229.468 213.056 229.468 213.492C229.468 213.875 229.4 214.192 229.264 214.441C229.13 214.691 228.953 214.889 228.732 215.034C228.514 215.179 228.278 215.286 228.022 215.356V215.443C228.295 215.461 228.57 215.556 228.845 215.731C229.121 215.905 229.352 216.155 229.538 216.48C229.724 216.805 229.817 217.203 229.817 217.673C229.817 218.12 229.715 218.523 229.512 218.88C229.309 219.237 228.988 219.52 228.549 219.729C228.111 219.938 227.54 220.043 226.838 220.043H223.615ZM224.695 219.084H226.838C227.543 219.084 228.044 218.948 228.34 218.675C228.639 218.399 228.789 218.065 228.789 217.673C228.789 217.371 228.712 217.093 228.558 216.837C228.404 216.579 228.185 216.372 227.9 216.219C227.616 216.062 227.279 215.983 226.89 215.983H224.695V219.084ZM224.695 215.043H226.698C227.023 215.043 227.317 214.979 227.578 214.851C227.842 214.723 228.051 214.543 228.205 214.311C228.362 214.079 228.44 213.806 228.44 213.492C228.44 213.1 228.304 212.768 228.031 212.495C227.758 212.219 227.325 212.081 226.733 212.081H224.695V215.043Z" fill="white"/>
<path d="M245.313 183.178H238.411C237.206 183.178 236.229 184.155 236.229 185.36C236.229 186.565 237.206 187.542 238.411 187.542H245.313C246.518 187.542 247.495 186.565 247.495 185.36C247.495 184.155 246.518 183.178 245.313 183.178Z" fill="#474747" stroke="#263238" stroke-miterlimit="10" stroke-linecap="round"/>
<path d="M264.951 183.178H258.049C256.843 183.178 255.866 184.155 255.866 185.36C255.866 186.565 256.843 187.542 258.049 187.542H264.951C266.156 187.542 267.133 186.565 267.133 185.36C267.133 184.155 266.156 183.178 264.951 183.178Z" fill="#474747" stroke="#263238" stroke-miterlimit="10" stroke-linecap="round"/>
<path d="M284.589 183.178H277.686C276.481 183.178 275.504 184.155 275.504 185.36C275.504 186.565 276.481 187.542 277.686 187.542H284.589C285.794 187.542 286.771 186.565 286.771 185.36C286.771 184.155 285.794 183.178 284.589 183.178Z" fill="#474747" stroke="#263238" stroke-miterlimit="10" stroke-linecap="round"/>
<path d="M213.567 13H143.632C138.109 13 133.632 17.4772 133.632 23V37.4863C133.632 43.0091 138.109 47.4863 143.632 47.4863H213.567C219.09 47.4863 223.567 43.0091 223.567 37.4863V23C223.567 17.4772 219.09 13 213.567 13Z" fill="#5C5C5C" stroke="#263238" stroke-miterlimit="10" stroke-linecap="round"/>
<path d="M220.381 13H136.818C135.059 13 133.632 14.4265 133.632 16.1861C133.632 17.9458 135.059 19.3723 136.818 19.3723H220.381C222.141 19.3723 223.567 17.9458 223.567 16.1861C223.567 14.4265 222.141 13 220.381 13Z" fill="white" stroke="#263238" stroke-miterlimit="10" stroke-linecap="round"/>
<path d="M219.99 14.7992L215.761 18.1245" stroke="#263238" stroke-miterlimit="10" stroke-linecap="round"/>
<path d="M215.761 14.7992L219.99 18.1245" stroke="#263238" stroke-miterlimit="10" stroke-linecap="round"/>
<path d="M139.502 29.3435H196.584" stroke="#878787" stroke-width="2" stroke-miterlimit="10" stroke-linecap="round"/>
<path d="M139.502 38.3452H196.584" stroke="#878787" stroke-width="2" stroke-miterlimit="10" stroke-linecap="round"/>
<path d="M216.511 24.0796H202.54C200.873 24.0796 199.522 25.0991 199.522 26.3567V27.2054C199.522 28.4631 200.873 29.4826 202.54 29.4826H216.511C218.178 29.4826 219.529 28.4631 219.529 27.2054V26.3567C219.529 25.0991 218.178 24.0796 216.511 24.0796Z" stroke="#878787" stroke-width="2" stroke-miterlimit="10" stroke-linecap="round"/>
<path d="M216.511 32.9423H202.54C200.873 32.9423 199.522 33.9618 199.522 35.2194V36.0681C199.522 37.3257 200.873 38.3452 202.54 38.3452H216.511C218.178 38.3452 219.529 37.3257 219.529 36.0681V35.2194C219.529 33.9618 218.178 32.9423 216.511 32.9423Z" stroke="#878787" stroke-width="2" stroke-miterlimit="10" stroke-linecap="round"/>
<path d="M171.937 32.177C170.948 30.8688 168.975 30.8747 167.979 32.177C167.901 32.2779 167.86 32.3926 167.859 32.5094C167.859 32.6262 167.899 32.741 167.977 32.8422C168.054 32.9434 168.165 33.0274 168.3 33.0857C168.434 33.144 168.586 33.1745 168.741 33.1741H171.199C171.352 33.1712 171.501 33.1384 171.632 33.0788C171.763 33.0192 171.871 32.935 171.945 32.8343C172.02 32.7337 172.058 32.6201 172.057 32.5048C172.055 32.3895 172.014 32.2765 171.937 32.177Z" fill="white" stroke="#263238" stroke-miterlimit="10" stroke-linecap="round"/>
<path d="M186.645 40.9054C185.642 39.5925 183.666 39.5925 182.663 40.9054C182.586 41.0062 182.546 41.1204 182.547 41.2365C182.547 41.3526 182.588 41.4667 182.665 41.5671C182.742 41.6676 182.853 41.7511 182.986 41.8091C183.12 41.8671 183.271 41.8977 183.425 41.8978H185.883C186.038 41.8992 186.19 41.8695 186.325 41.8118C186.459 41.7541 186.571 41.6705 186.648 41.5695C186.726 41.4685 186.766 41.3538 186.766 41.2371C186.765 41.1204 186.724 41.0059 186.645 40.9054Z" fill="white" stroke="#263238" stroke-miterlimit="10" stroke-linecap="round"/>
<path d="M141.205 23.6389C141.924 23.6389 142.207 23.8986 142.207 24.4134V24.5757C142.207 24.8079 142.257 25.6858 142.276 25.9172C142.279 25.9498 142.28 25.9835 142.28 26.0181C142.28 26.2124 142.323 26.4148 142.259 26.5982C142.254 26.6121 142.249 26.626 142.243 26.6397C142.196 26.7458 142.118 26.8423 142.013 26.9215C141.909 27.0008 141.782 27.0605 141.641 27.0961C141.501 27.1317 141.351 27.1421 141.205 27.1265C140.618 27.1265 140.141 26.6504 140.141 26.0632V24.7022C140.141 24.115 140.618 23.6389 141.205 23.6389ZM141.076 25.1184C141.488 25.1184 141.69 25.021 141.69 24.6546V24.432C141.69 24.1259 141.555 23.9682 141.18 23.9682C140.902 23.9682 140.676 24.1938 140.676 24.4722V24.695C140.676 24.9197 140.851 25.1053 141.076 25.1184ZM141.229 26.774C141.604 26.774 141.776 26.6256 141.776 26.3103V25.9995C141.776 25.61 141.574 25.4801 141.162 25.4801C140.914 25.4801 140.713 25.681 140.713 25.9288V26.2669C140.713 26.5506 140.946 26.7791 141.229 26.774Z" fill="white"/>
<path d="M143.756 23.6389C144.481 23.6389 144.788 23.9172 144.788 24.4366C144.788 24.6247 144.832 24.8217 144.765 24.9977C144.744 25.0537 144.713 25.1078 144.673 25.1583C144.586 25.2655 144.595 25.5938 144.681 25.7014C144.779 25.8241 144.825 25.9812 144.825 26.1665V26.7091C144.823 26.724 144.822 26.739 144.822 26.7539C144.815 26.9271 144.701 27.1265 144.527 27.1265C144.446 27.1265 144.367 27.0829 144.341 27.0054C144.308 26.9075 144.296 26.8058 144.309 26.7045V26.1572C144.309 25.763 144.063 25.6378 143.633 25.6378C143.432 25.6378 143.27 25.8001 143.27 26.0004V26.8684C143.27 27.0109 143.154 27.1265 143.012 27.1265C142.869 27.1265 142.754 27.0109 142.754 26.8684V24.6408C142.754 24.0875 143.202 23.6389 143.756 23.6389ZM143.62 25.2853C144.032 25.2853 144.278 25.1833 144.278 24.8215V24.4876C144.278 24.1723 144.124 24.0238 143.743 24.0238C143.465 24.0238 143.239 24.2495 143.239 24.5279V24.9353C143.239 25.1411 143.415 25.3028 143.62 25.2853Z" fill="white"/>
<path d="M145.587 23.6389C145.73 23.6389 145.845 23.7545 145.845 23.8971V26.8684C145.845 27.0109 145.73 27.1265 145.587 27.1265C145.445 27.1265 145.329 27.0109 145.329 26.8684V23.8971C145.329 23.7545 145.445 23.6389 145.587 23.6389Z" fill="white"/>
<path d="M148.415 24.483V24.5339C148.415 24.6697 148.304 24.7798 148.169 24.7798C148.033 24.7798 147.923 24.6697 147.923 24.5339V24.4598C147.923 24.1491 147.757 23.9589 147.382 23.9589C147.007 23.9589 146.841 24.1491 146.841 24.4598V26.3149C146.841 26.6303 147.013 26.8158 147.382 26.8158C147.751 26.8158 147.923 26.6303 147.923 26.3149V25.8419C147.923 25.7113 147.817 25.6053 147.686 25.6053H147.623C147.527 25.6053 147.45 25.5274 147.45 25.4314C147.45 25.3353 147.527 25.2575 147.623 25.2575H147.932C148.199 25.2575 148.415 25.4735 148.415 25.74V26.2871C148.415 26.8111 148.083 27.1636 147.37 27.1636C146.657 27.1636 146.331 26.8111 146.331 26.2871V24.483C146.331 23.9543 146.663 23.6064 147.37 23.6064C148.076 23.6064 148.415 23.9682 148.415 24.483Z" fill="white"/>
<path d="M149.985 25.5589C149.671 25.5589 149.416 25.8135 149.416 26.1275V26.8684C149.416 27.0109 149.301 27.1265 149.158 27.1265C149.016 27.1265 148.9 27.0109 148.9 26.8684V23.8971C148.9 23.7545 149.016 23.6389 149.158 23.6389C149.301 23.6389 149.416 23.7545 149.416 23.8971V24.6426C149.416 24.9566 149.671 25.2111 149.985 25.2111C150.299 25.2111 150.554 24.9566 150.554 24.6426V23.8971C150.554 23.7545 150.669 23.6389 150.812 23.6389C150.954 23.6389 151.07 23.7545 151.07 23.8971V26.8684C151.07 27.0109 150.954 27.1265 150.812 27.1265C150.669 27.1265 150.554 27.0109 150.554 26.8684V26.1275C150.554 25.8135 150.299 25.5589 149.985 25.5589Z" fill="white"/>
<path d="M152.52 27.1265C152.381 27.1265 152.268 27.0137 152.268 26.8745V24.4186C152.268 24.1826 152.077 23.9914 151.841 23.9914H151.59C151.493 23.9914 151.414 23.9125 151.414 23.8151C151.414 23.7178 151.493 23.6389 151.59 23.6389H153.451C153.548 23.6389 153.627 23.7178 153.627 23.8151C153.627 23.9125 153.548 23.9914 153.451 23.9914H153.2C152.964 23.9914 152.772 24.1826 152.772 24.4186V26.8745C152.772 27.0137 152.66 27.1265 152.52 27.1265Z" fill="white"/>
<path d="M207.519 26.1617C207.519 25.7443 207.795 25.4753 208.348 25.4753C208.902 25.4753 209.184 25.7443 209.184 26.1617V27.5762C209.194 27.6633 209.18 27.751 209.143 27.8337C209.105 27.9164 209.046 27.9924 208.967 28.0567C208.889 28.1211 208.794 28.1725 208.688 28.2077C208.582 28.2429 208.467 28.261 208.351 28.261C208.236 28.261 208.121 28.2429 208.015 28.2077C207.909 28.1725 207.814 28.1211 207.736 28.0567C207.657 27.9924 207.598 27.9164 207.56 27.8337C207.523 27.751 207.509 27.6633 207.519 27.5762V26.1617ZM207.918 27.5902C207.918 27.8406 208.06 27.9844 208.348 27.9844C208.637 27.9844 208.779 27.8406 208.779 27.5902V26.1478C208.779 25.902 208.643 25.7536 208.348 25.7536C208.053 25.7536 207.918 25.902 207.918 26.1478V27.5902Z" fill="white"/>
<path d="M210.33 27.2781C210.256 27.1647 210.093 27.1566 210.008 27.2623C209.98 27.2975 209.965 27.3412 209.965 27.3863V28.0444C209.965 28.1548 209.875 28.2442 209.765 28.2442C209.655 28.2442 209.565 28.1548 209.565 28.0444V25.7031C209.565 25.5927 209.655 25.5033 209.765 25.5033C209.875 25.5033 209.965 25.5927 209.965 25.7031V25.828C209.965 26.1418 210.366 26.273 210.551 26.0198L210.88 25.5712C210.911 25.5285 210.961 25.5033 211.014 25.5033C211.15 25.5033 211.228 25.6578 211.148 25.7674L210.661 26.4299C210.519 26.6234 210.511 26.8842 210.639 27.0868L211.2 27.9679C211.275 28.0856 211.19 28.2396 211.05 28.2396C210.991 28.2396 210.935 28.2093 210.902 28.1591L210.33 27.2781Z" fill="white"/>
<path d="M205.958 34.7976V34.8575C205.958 34.9627 205.872 35.048 205.767 35.048C205.662 35.048 205.576 34.9627 205.576 34.8575V34.7837C205.576 34.5379 205.441 34.3895 205.146 34.3895C204.851 34.3895 204.722 34.5379 204.722 34.7837V36.2307C204.722 36.4765 204.857 36.6249 205.146 36.6249C205.435 36.6249 205.576 36.4765 205.576 36.2307V36.0641C205.576 35.9589 205.662 35.8735 205.767 35.8735C205.872 35.8735 205.958 35.9589 205.958 36.0641V36.2121C205.958 36.6249 205.699 36.8985 205.14 36.8985C204.581 36.8985 204.329 36.6249 204.329 36.2121V34.7976C204.329 34.3848 204.587 34.1112 205.14 34.1112C205.693 34.1112 205.958 34.3848 205.958 34.7976Z" fill="white"/>
<path d="M207.014 36.3233C206.848 36.3233 206.703 36.4358 206.661 36.5969L206.625 36.7362C206.605 36.8153 206.533 36.8705 206.452 36.8705C206.335 36.8705 206.249 36.7607 206.278 36.6475L206.835 34.4363C206.879 34.2614 207.036 34.1389 207.217 34.1389C207.398 34.1389 207.555 34.2623 207.599 34.4379L208.141 36.6291C208.171 36.7519 208.079 36.8705 207.952 36.8705C207.863 36.8705 207.786 36.8105 207.764 36.7246L207.731 36.5969C207.689 36.4358 207.544 36.3233 207.377 36.3233H207.014ZM206.878 35.6705C206.829 35.8679 206.978 36.0589 207.181 36.0589C207.386 36.0589 207.536 35.8654 207.484 35.6672C207.402 35.3538 206.956 35.3563 206.878 35.6705Z" fill="white"/>
<path d="M208.865 36.6892C208.865 36.7894 208.784 36.8705 208.683 36.8705C208.583 36.8705 208.502 36.7894 208.502 36.6892V34.4461C208.502 34.2764 208.64 34.1389 208.809 34.1389C208.932 34.1389 209.044 34.2124 209.092 34.3257L209.211 34.6053C209.354 34.9408 209.854 34.8387 209.854 34.474V34.3172C209.854 34.2187 209.934 34.1389 210.033 34.1389C210.131 34.1389 210.211 34.2187 210.211 34.3172V36.616C210.211 36.7566 210.097 36.8705 209.956 36.8705C209.854 36.8705 209.761 36.8088 209.721 36.7141L209.573 36.3599C209.418 35.9883 208.865 36.0992 208.865 36.502V36.6892Z" fill="white"/>
<path d="M212.221 34.7976V34.8575C212.221 34.9627 212.135 35.048 212.03 35.048C211.925 35.048 211.84 34.9627 211.84 34.8575V34.7837C211.84 34.5379 211.711 34.3895 211.416 34.3895C211.12 34.3895 210.991 34.5379 210.991 34.7837V36.2307C210.991 36.4765 211.127 36.6249 211.416 36.6249C211.704 36.6249 211.84 36.4765 211.84 36.2307V36.0641C211.84 35.9589 211.925 35.8735 212.03 35.8735C212.135 35.8735 212.221 35.9589 212.221 36.0641V36.2121C212.221 36.6249 211.963 36.8985 211.403 36.8985C210.844 36.8985 210.592 36.6249 210.592 36.2121V34.7976C210.592 34.3848 210.85 34.1112 211.403 34.1112C211.956 34.1112 212.221 34.3848 212.221 34.7976Z" fill="white"/>
<path d="M213.738 35.3487C213.813 35.349 213.874 35.4103 213.874 35.4858C213.874 35.5616 213.813 35.623 213.737 35.623H213.431C213.187 35.623 212.989 35.8211 212.989 36.0655V36.11C212.989 36.3789 213.207 36.5969 213.476 36.5969H213.94C214.016 36.5969 214.077 36.6582 214.077 36.7337C214.077 36.8093 214.016 36.8705 213.94 36.8705H213.333C212.922 36.8705 212.589 36.5376 212.589 36.1268V34.8826C212.589 34.4719 212.922 34.1389 213.333 34.1389H213.938C214.015 34.1389 214.077 34.2012 214.077 34.278C214.077 34.3549 214.015 34.4172 213.938 34.4172H213.454C213.197 34.4172 212.989 34.6254 212.989 34.8822V34.9022C212.989 35.147 213.187 35.3458 213.431 35.347L213.738 35.3487Z" fill="white"/>
<path d="M215.171 36.8705C214.774 36.8705 214.452 36.5486 214.452 36.1514V34.3387C214.452 34.2284 214.541 34.1389 214.652 34.1389C214.762 34.1389 214.851 34.2284 214.851 34.3387V36.0775C214.851 36.3644 215.084 36.5969 215.371 36.5969H215.753C215.829 36.5969 215.89 36.6582 215.89 36.7337C215.89 36.8093 215.829 36.8705 215.753 36.8705H215.171Z" fill="white"/>
<path d="M142.176 34.1713V34.2408C142.176 34.3766 142.066 34.4867 141.93 34.4867C141.794 34.4867 141.684 34.3766 141.684 34.2408V34.1713C141.684 33.856 141.524 33.6658 141.143 33.6658C140.762 33.6658 140.59 33.8421 140.59 34.1713V36.0264C140.59 36.3418 140.762 36.5319 141.131 36.5319C141.5 36.5319 141.672 36.3418 141.672 36.0264V35.8085C141.672 35.6727 141.782 35.5627 141.918 35.5627C142.054 35.5627 142.164 35.6727 142.164 35.8085V35.9986C142.164 36.5273 141.832 36.8751 141.119 36.8751C140.406 36.8751 140.08 36.5273 140.08 35.9986V34.1713C140.08 33.6426 140.412 33.2948 141.119 33.2948C141.826 33.2948 142.176 33.6473 142.176 34.1713Z" fill="white"/>
<path d="M142.606 34.1713C142.606 33.638 142.956 33.2948 143.663 33.2948C144.37 33.2948 144.727 33.638 144.727 34.1713V35.9801C144.727 36.5088 144.376 36.8566 143.663 36.8566C142.95 36.8566 142.606 36.5088 142.606 35.9801V34.1713ZM143.116 35.994C143.116 36.314 143.295 36.4995 143.663 36.4995C144.032 36.4995 144.21 36.314 144.21 35.994V34.1713C144.21 33.856 144.038 33.6658 143.663 33.6658C143.288 33.6658 143.116 33.856 143.116 34.1713V35.994Z" fill="white"/>
<path d="M145.673 36.5859C145.673 36.7149 145.569 36.8195 145.44 36.8195C145.311 36.8195 145.206 36.7149 145.206 36.5859V33.7276C145.206 33.5091 145.383 33.3319 145.602 33.3319C145.761 33.3319 145.904 33.4269 145.966 33.5731L146.115 33.9243C146.296 34.3517 146.933 34.2223 146.933 33.758V33.5593C146.933 33.4337 147.035 33.3319 147.161 33.3319C147.286 33.3319 147.388 33.4337 147.388 33.5593V36.4984C147.388 36.6757 147.244 36.8195 147.067 36.8195C146.938 36.8195 146.821 36.7418 146.771 36.6224L146.58 36.1659C146.381 35.6908 145.673 35.8329 145.673 36.3479V36.5859Z" fill="white"/>
<path d="M148.823 36.8282C148.688 36.8232 148.58 36.7119 148.58 36.5763V34.1345C148.58 33.8986 148.389 33.7073 148.153 33.7073H147.905C147.806 33.7073 147.726 33.6274 147.726 33.5288C147.726 33.4302 147.806 33.3502 147.905 33.3502H149.76C149.859 33.3502 149.939 33.4302 149.939 33.5288C149.939 33.6274 149.859 33.7073 149.76 33.7073H149.512C149.276 33.7073 149.084 33.8986 149.084 34.1345V36.5763C149.084 36.7192 148.966 36.8334 148.823 36.8282Z" fill="white"/>
<path d="M151.328 33.3319C152.053 33.3319 152.36 33.6148 152.36 34.1296C152.36 34.3208 152.405 34.5215 152.335 34.6996C152.314 34.7534 152.284 34.8053 152.244 34.8538C152.157 34.9616 152.163 35.2924 152.243 35.4054C152.329 35.5269 152.367 35.6802 152.367 35.8595V36.4021C152.365 36.4167 152.364 36.4313 152.363 36.4459C152.355 36.619 152.241 36.8195 152.068 36.8195C151.987 36.8195 151.909 36.7765 151.883 36.6998C151.849 36.6015 151.838 36.4992 151.85 36.3975V35.8502C151.85 35.456 151.604 35.3308 151.174 35.3308C150.974 35.3308 150.812 35.4931 150.812 35.6934V36.5613C150.812 36.7039 150.696 36.8195 150.553 36.8195C150.411 36.8195 150.295 36.7039 150.295 36.5613V34.3645C150.295 33.7942 150.758 33.3319 151.328 33.3319ZM151.193 34.9783C151.604 34.9783 151.85 34.8763 151.85 34.5145V34.1713C151.85 33.856 151.697 33.7076 151.316 33.7076C151.037 33.7076 150.812 33.9332 150.812 34.2116V34.6153C150.812 34.823 150.985 34.9884 151.193 34.9783Z" fill="white"/>
<path d="M153.785 36.1192C153.573 36.1192 153.387 36.2634 153.335 36.4693L153.29 36.6444C153.264 36.7474 153.171 36.8195 153.065 36.8195C152.913 36.8195 152.802 36.6768 152.84 36.5299L153.559 33.6953C153.613 33.4816 153.806 33.3319 154.026 33.3319C154.247 33.3319 154.439 33.4816 154.493 33.6953L155.207 36.5076C155.247 36.6658 155.128 36.8195 154.965 36.8195C154.85 36.8195 154.75 36.7419 154.722 36.6309L154.681 36.4693C154.628 36.2634 154.443 36.1192 154.23 36.1192H153.785ZM153.612 35.2863C153.548 35.5394 153.739 35.7853 154 35.7853C154.262 35.7853 154.454 35.5377 154.388 35.2841C154.284 34.883 153.714 34.8846 153.612 35.2863Z" fill="white"/>
<path d="M157.689 34.1713C157.689 34.2226 157.648 34.2641 157.597 34.2641H157.278C157.227 34.2641 157.185 34.2226 157.185 34.1713C157.185 33.856 157.026 33.6705 156.657 33.6705C156.288 33.6705 156.128 33.856 156.128 34.1667C156.128 34.9458 157.677 35.02 157.677 36.0218C157.677 36.5505 157.339 36.8937 156.632 36.8937C155.925 36.8937 155.6 36.5505 155.6 36.0218C155.6 35.9117 155.689 35.8224 155.799 35.8224H155.875C155.988 35.8224 156.079 35.9137 156.079 36.0264C156.079 36.3418 156.251 36.5273 156.62 36.5273C156.989 36.5273 157.161 36.3418 157.161 36.0264C157.161 35.2519 155.618 35.1777 155.618 34.1713C155.618 33.6334 155.95 33.2994 156.638 33.2994C157.327 33.2994 157.689 33.6426 157.689 34.1713Z" fill="white"/>
<path d="M159.06 36.8282C158.923 36.8232 158.814 36.7105 158.814 36.5733V34.1345C158.814 33.8986 158.623 33.7073 158.387 33.7073H158.139C158.04 33.7073 157.96 33.6274 157.96 33.5288C157.96 33.4302 158.04 33.3502 158.139 33.3502H159.994C160.093 33.3502 160.173 33.4302 160.173 33.5288C160.173 33.6274 160.093 33.7073 159.994 33.7073H159.749C159.514 33.7073 159.324 33.8972 159.324 34.1314V36.5733C159.324 36.7178 159.205 36.8334 159.06 36.8282Z" fill="white"/>
<path d="M163.707 149.98H57.2441C51.7212 149.98 47.2441 154.458 47.2441 159.98V212C47.2441 217.523 51.7212 222 57.2441 222H163.707C169.23 222 173.707 217.523 173.707 212V159.98C173.707 154.458 169.23 149.98 163.707 149.98Z" fill="#5C5C5C" stroke="#263238" stroke-miterlimit="10" stroke-linecap="round"/>
<path d="M169.227 149.98H51.7241C49.2499 149.98 47.2441 151.986 47.2441 154.461C47.2441 156.935 49.2499 158.941 51.7241 158.941H169.227C171.701 158.941 173.707 156.935 173.707 154.461C173.707 151.986 171.701 149.98 169.227 149.98Z" fill="white" stroke="#263238" stroke-miterlimit="10" stroke-linecap="round"/>
<path d="M168.679 152.513L162.736 157.188" stroke="#263238" stroke-miterlimit="10" stroke-linecap="round"/>
<path d="M162.736 152.513L168.679 157.188" stroke="#263238" stroke-miterlimit="10" stroke-linecap="round"/>
<path d="M164.033 165.559H143.891C141.684 165.559 139.895 166.908 139.895 168.573V170.141C139.895 171.806 141.684 173.155 143.891 173.155H164.033C166.239 173.155 168.028 171.806 168.028 170.141V168.573C168.028 166.908 166.239 165.559 164.033 165.559Z" stroke="#878787" stroke-width="2" stroke-miterlimit="10" stroke-linecap="round"/>
<path d="M164.033 190.468H143.891C141.684 190.468 139.895 191.818 139.895 193.483V195.05C139.895 196.715 141.684 198.065 143.891 198.065H164.033C166.239 198.065 168.028 196.715 168.028 195.05V193.483C168.028 191.818 166.239 190.468 164.033 190.468Z" stroke="#878787" stroke-width="2" stroke-miterlimit="10" stroke-linecap="round"/>
<path d="M164.033 202.526H143.891C141.684 202.526 139.895 203.876 139.895 205.541V207.108C139.895 208.773 141.684 210.123 143.891 210.123H164.033C166.239 210.123 168.028 208.773 168.028 207.108V205.541C168.028 203.876 166.239 202.526 164.033 202.526Z" stroke="#878787" stroke-width="2" stroke-miterlimit="10" stroke-linecap="round"/>
<path d="M164.033 178.025H143.891C141.684 178.025 139.895 179.374 139.895 181.039V182.607C139.895 184.272 141.684 185.621 143.891 185.621H164.033C166.239 185.621 168.028 184.272 168.028 182.607V181.039C168.028 179.374 166.239 178.025 164.033 178.025Z" stroke="#878787" stroke-width="2" stroke-miterlimit="10" stroke-linecap="round"/>
<path d="M131.665 202.985C130.511 201.469 128.226 201.472 127.068 202.985C126.99 203.086 126.949 203.201 126.948 203.318C126.948 203.434 126.989 203.549 127.066 203.65C127.143 203.752 127.255 203.836 127.389 203.894C127.523 203.952 127.675 203.983 127.83 203.982H130.903C131.058 203.983 131.21 203.952 131.344 203.894C131.479 203.836 131.59 203.752 131.667 203.65C131.745 203.549 131.785 203.434 131.785 203.318C131.785 203.201 131.743 203.086 131.665 202.985Z" fill="white" stroke="#263238" stroke-miterlimit="10" stroke-linecap="round"/>
<path d="M96.3357 202.985C95.1628 201.47 92.8654 201.467 91.7013 202.99C91.6234 203.091 91.5821 203.205 91.5818 203.322C91.5814 203.439 91.622 203.554 91.6993 203.655C91.7767 203.756 91.8881 203.84 92.0223 203.899C92.1565 203.957 92.3087 203.987 92.4635 203.987H95.5367C95.6955 203.993 95.8535 203.966 95.9939 203.91C96.1342 203.854 96.2517 203.769 96.3337 203.667C96.4157 203.564 96.4592 203.446 96.4595 203.326C96.4599 203.206 96.4171 203.088 96.3357 202.985Z" fill="#8F8F8F" stroke="#263238" stroke-miterlimit="10" stroke-linecap="round"/>
<path d="M60.9445 202.985C59.7819 201.467 57.4931 201.469 56.3285 202.985C56.2506 203.086 56.2093 203.201 56.209 203.318C56.2086 203.434 56.2492 203.549 56.3265 203.65C56.4039 203.752 56.5153 203.836 56.6495 203.894C56.7837 203.952 56.9359 203.983 57.0907 203.982H60.1639C60.3203 203.985 60.4748 203.957 60.6116 203.899C60.7484 203.842 60.8625 203.758 60.942 203.657C61.0216 203.555 61.0638 203.439 61.0642 203.321C61.0646 203.203 61.0233 203.087 60.9445 202.985Z" fill="#454545" stroke="#263238" stroke-miterlimit="10" stroke-linecap="round"/>
<path d="M151.143 168.485C151.143 167.901 151.531 167.52 152.311 167.52C153.092 167.52 153.479 167.901 153.479 168.485V170.475C153.479 171.059 153.092 171.439 152.311 171.439C151.531 171.439 151.143 171.059 151.143 170.475V168.485ZM151.703 170.498C151.703 170.85 151.899 171.05 152.317 171.05C152.735 171.05 152.932 170.85 152.932 170.498V168.466C152.932 168.119 152.742 167.91 152.317 167.91C151.893 167.91 151.703 168.119 151.703 168.466V170.498Z" fill="white"/>
<path d="M155.09 170.058C154.988 169.899 154.759 169.889 154.643 170.039C154.606 170.087 154.585 170.146 154.585 170.207V171.119C154.585 171.276 154.459 171.402 154.303 171.402C154.147 171.402 154.02 171.276 154.02 171.119V167.84C154.02 167.684 154.147 167.557 154.303 167.557C154.459 167.557 154.585 167.684 154.585 167.84V168.013C154.585 168.455 155.15 168.638 155.41 168.282L155.868 167.653C155.912 167.593 155.982 167.557 156.056 167.557C156.246 167.557 156.356 167.774 156.243 167.928L155.558 168.858C155.357 169.13 155.346 169.499 155.529 169.783L156.314 171.004C156.425 171.176 156.302 171.402 156.097 171.402C156.009 171.402 155.927 171.358 155.88 171.284L155.09 170.058Z" fill="white"/>
<path d="M148.943 180.631V180.712C148.943 180.859 148.823 180.979 148.676 180.979C148.528 180.979 148.408 180.859 148.408 180.712V180.613C148.408 180.265 148.224 180.056 147.794 180.056C147.363 180.056 147.179 180.265 147.179 180.613V182.644C147.179 182.987 147.37 183.196 147.794 183.196C148.218 183.196 148.408 182.987 148.408 182.644V182.41C148.408 182.263 148.528 182.143 148.676 182.143C148.823 182.143 148.943 182.263 148.943 182.41V182.607C148.943 183.187 148.58 183.571 147.794 183.571C147.007 183.571 146.65 183.187 146.65 182.607V180.631C146.65 180.051 147.013 179.667 147.794 179.667C148.574 179.667 148.943 180.051 148.943 180.631Z" fill="white"/>
<path d="M150.437 182.774C150.202 182.774 149.997 182.933 149.939 183.161L149.89 183.355C149.861 183.469 149.758 183.548 149.641 183.548C149.474 183.548 149.352 183.391 149.393 183.229L150.188 180.103C150.247 179.868 150.459 179.704 150.701 179.704C150.943 179.704 151.155 179.868 151.214 180.103L152.002 183.203C152.047 183.378 151.915 183.548 151.734 183.548C151.607 183.548 151.497 183.462 151.465 183.34L151.42 183.161C151.362 182.933 151.157 182.774 150.922 182.774H150.437ZM150.249 181.861C150.179 182.138 150.389 182.407 150.675 182.407C150.962 182.407 151.172 182.136 151.101 181.858C150.987 181.417 150.36 181.419 150.249 181.861Z" fill="white"/>
<path d="M153.028 183.292C153.03 183.433 152.915 183.548 152.774 183.548C152.634 183.548 152.52 183.435 152.52 183.294V180.14C152.52 179.899 152.715 179.704 152.956 179.704C153.132 179.704 153.29 179.809 153.358 179.97L153.52 180.354C153.718 180.824 154.42 180.682 154.42 180.172V179.956C154.42 179.816 154.532 179.704 154.672 179.704C154.811 179.704 154.924 179.816 154.924 179.956V183.179C154.924 183.383 154.758 183.548 154.554 183.548C154.406 183.548 154.271 183.459 154.214 183.322L154.008 182.832C153.792 182.315 153.022 182.473 153.026 183.033L153.028 183.292Z" fill="white"/>
<path d="M157.751 180.631V180.712C157.751 180.859 157.631 180.979 157.484 180.979C157.336 180.979 157.216 180.859 157.216 180.712V180.613C157.216 180.265 157.032 180.056 156.602 180.056C156.171 180.056 155.987 180.265 155.987 180.613V182.644C155.987 182.987 156.171 183.196 156.602 183.196C157.032 183.196 157.216 182.987 157.216 182.644V182.41C157.216 182.263 157.336 182.143 157.484 182.143C157.631 182.143 157.751 182.263 157.751 182.41V182.607C157.751 183.187 157.388 183.571 156.602 183.571C155.815 183.571 155.464 183.187 155.464 182.607V180.631C155.464 180.051 155.827 179.667 156.602 179.667C157.376 179.667 157.751 180.051 157.751 180.631Z" fill="white"/>
<path d="M159.888 181.406C159.994 181.406 160.08 181.492 160.08 181.598C160.08 181.704 159.994 181.791 159.888 181.791H159.466C159.126 181.791 158.851 182.066 158.851 182.405V182.475C158.851 182.852 159.157 183.159 159.535 183.159H160.181C160.288 183.159 160.375 183.246 160.375 183.354C160.375 183.461 160.288 183.548 160.181 183.548H159.327C158.749 183.548 158.279 183.079 158.279 182.5V180.752C158.279 180.173 158.749 179.704 159.327 179.704H160.181C160.288 179.704 160.375 179.791 160.375 179.898C160.375 180.006 160.288 180.093 160.181 180.093H159.507C159.145 180.093 158.851 180.387 158.851 180.749V180.791C158.851 181.13 159.126 181.406 159.466 181.406H159.888Z" fill="white"/>
<path d="M161.909 183.548C161.337 183.548 160.873 183.085 160.873 182.513V180.011C160.873 179.841 161.011 179.704 161.181 179.704C161.35 179.704 161.488 179.841 161.488 180.011V182.43C161.488 182.833 161.814 183.159 162.216 183.159H162.75C162.857 183.159 162.945 183.246 162.945 183.354C162.945 183.461 162.857 183.548 162.75 183.548H161.909Z" fill="white"/>
<path d="M119.652 167.145H65.4592C63.8213 167.145 62.4934 168.473 62.4934 170.111C62.4934 171.749 63.8213 173.077 65.4592 173.077H119.652C121.29 173.077 122.618 171.749 122.618 170.111C122.618 168.473 121.29 167.145 119.652 167.145Z" fill="#474747" stroke="#263238" stroke-miterlimit="10" stroke-linecap="round"/>
<path d="M77.2145 205.689H70.5634C69.2532 205.689 68.1912 206.751 68.1912 208.061C68.1912 209.372 69.2532 210.434 70.5634 210.434H77.2145C78.5246 210.434 79.5867 209.372 79.5867 208.061C79.5867 206.751 78.5246 205.689 77.2145 205.689Z" fill="#474747" stroke="#263238" stroke-miterlimit="10" stroke-linecap="round"/>
<path d="M101.972 205.689H95.3212C94.011 205.689 92.949 206.751 92.949 208.061C92.949 209.372 94.011 210.434 95.3212 210.434H101.972C103.282 210.434 104.344 209.372 104.344 208.061C104.344 206.751 103.282 205.689 101.972 205.689Z" fill="#474747" stroke="#263238" stroke-miterlimit="10" stroke-linecap="round"/>
<path d="M127.91 205.689H121.259C119.949 205.689 118.887 206.751 118.887 208.061C118.887 209.372 119.949 210.434 121.259 210.434H127.91C129.22 210.434 130.282 209.372 130.282 208.061C130.282 206.751 129.22 205.689 127.91 205.689Z" fill="#474747" stroke="#263238" stroke-miterlimit="10" stroke-linecap="round"/>
<path d="M120.479 176.931H64.6321C59.1092 176.931 54.6321 181.408 54.6321 186.931V188.872C54.6321 194.395 59.1092 198.872 64.6321 198.872H120.479C126.002 198.872 130.479 194.395 130.479 188.872V186.931C130.479 181.408 126.002 176.931 120.479 176.931Z" fill="#474747" stroke="#263238" stroke-miterlimit="10" stroke-linecap="round"/>
<path d="M128.849 213.402H56.2622C55.3619 213.402 54.6321 214.131 54.6321 215.032C54.6321 215.932 55.3619 216.662 56.2622 216.662H128.849C129.749 216.662 130.479 215.932 130.479 215.032C130.479 214.131 129.749 213.402 128.849 213.402Z" fill="#ADADAD" stroke="#263238" stroke-miterlimit="10" stroke-linecap="round"/>
<path d="M60.2499 196.981V186.571C60.2499 186.016 59.8 185.566 59.245 185.566C58.69 185.566 58.2401 186.016 58.2401 186.571V196.981C58.2401 197.536 58.69 197.986 59.245 197.986C59.8 197.986 60.2499 197.536 60.2499 196.981Z" fill="#B8B8B8"/>
<path d="M62.2537 196.985V189.905C62.2537 189.35 61.8038 188.9 61.2488 188.9C60.6938 188.9 60.2438 189.35 60.2438 189.905V196.985C60.2438 197.54 60.6938 197.99 61.2488 197.99C61.8038 197.99 62.2537 197.54 62.2537 196.985Z" fill="#B8B8B8"/>
<path d="M63.4584 196.986V191.724C63.4584 191.169 63.0084 190.719 62.4534 190.719C61.8984 190.719 61.4485 191.169 61.4485 191.724V196.986C61.4485 197.541 61.8984 197.991 62.4534 197.991C63.0084 197.991 63.4584 197.541 63.4584 196.986Z" fill="#B8B8B8"/>
<path d="M66.4702 196.985V190.814C66.4702 190.259 66.0202 189.809 65.4652 189.809C64.9102 189.809 64.4603 190.259 64.4603 190.814V196.985C64.4603 197.54 64.9102 197.99 65.4652 197.99C66.0202 197.99 66.4702 197.54 66.4702 196.985Z" fill="#B8B8B8"/>
<path d="M65.2654 196.981V193.537C65.2654 192.982 64.8155 192.532 64.2605 192.532C63.7055 192.532 63.2556 192.982 63.2556 193.537V196.981C63.2556 197.536 63.7055 197.986 64.2605 197.986C64.8155 197.986 65.2654 197.536 65.2654 196.981Z" fill="#B8B8B8"/>
<path d="M67.2753 196.981V193.843C67.2753 193.288 66.8253 192.838 66.2703 192.838C65.7153 192.838 65.2654 193.288 65.2654 193.843V196.981C65.2654 197.536 65.7153 197.986 66.2703 197.986C66.8253 197.986 67.2753 197.536 67.2753 196.981Z" fill="#B8B8B8"/>
<path d="M69.6847 196.986V195.661C69.6847 195.106 69.2348 194.656 68.6797 194.656C68.1247 194.656 67.6748 195.106 67.6748 195.661V196.986C67.6748 197.541 68.1247 197.991 68.6797 197.991C69.2348 197.991 69.6847 197.541 69.6847 196.986Z" fill="#B8B8B8"/>
<path d="M70.3799 196.168H70.1881C69.686 196.168 69.2791 196.575 69.2791 197.077C69.2791 197.579 69.686 197.986 70.1881 197.986H70.3799C70.882 197.986 71.2889 197.579 71.2889 197.077C71.2889 196.575 70.882 196.168 70.3799 196.168Z" fill="#B8B8B8"/>
<path d="M89.2495 196.168H89.0576C88.5556 196.168 88.1486 196.575 88.1486 197.077C88.1486 197.579 88.5556 197.986 89.0576 197.986H89.2495C89.7515 197.986 90.1585 197.579 90.1585 197.077C90.1585 196.575 89.7515 196.168 89.2495 196.168Z" fill="#B8B8B8"/>
<path d="M92.6608 196.168H92.4689C91.9669 196.168 91.5599 196.575 91.5599 197.077C91.5599 197.579 91.9669 197.986 92.4689 197.986H92.6608C93.1628 197.986 93.5698 197.579 93.5698 197.077C93.5698 196.575 93.1628 196.168 92.6608 196.168Z" fill="#B8B8B8"/>
<path d="M95.1802 196.981V194.144C95.1802 193.589 94.7302 193.139 94.1752 193.139C93.6202 193.139 93.1703 193.589 93.1703 194.144V196.981C93.1703 197.536 93.6202 197.986 94.1752 197.986C94.7302 197.986 95.1802 197.536 95.1802 196.981Z" fill="#B8B8B8"/>
<path d="M97.5346 197.077H96.4337C96.1827 197.077 95.9792 197.28 95.9792 197.531C95.9792 197.782 96.1827 197.986 96.4337 197.986H97.5346C97.7856 197.986 97.9891 197.782 97.9891 197.531C97.9891 197.28 97.7856 197.077 97.5346 197.077Z" fill="#B8B8B8"/>
<path d="M100.398 196.981V195.962C100.398 195.407 99.9486 194.957 99.3936 194.957C98.8385 194.957 98.3886 195.407 98.3886 195.962V196.981C98.3886 197.536 98.8385 197.986 99.3936 197.986C99.9486 197.986 100.398 197.536 100.398 196.981Z" fill="#B8B8B8"/>
<path d="M102.402 196.981V193.843C102.402 193.288 101.952 192.838 101.397 192.838C100.842 192.838 100.392 193.288 100.392 193.843V196.981C100.392 197.536 100.842 197.986 101.397 197.986C101.952 197.986 102.402 197.536 102.402 196.981Z" fill="#B8B8B8"/>
<path d="M105.617 196.981V194.446C105.617 193.891 105.167 193.441 104.612 193.441C104.057 193.441 103.607 193.891 103.607 194.446V196.981C103.607 197.536 104.057 197.986 104.612 197.986C105.167 197.986 105.617 197.536 105.617 196.981Z" fill="#B8B8B8"/>
<path d="M106.821 196.981V196.263C106.821 195.708 106.372 195.259 105.817 195.259C105.262 195.259 104.812 195.708 104.812 196.263V196.981C104.812 197.536 105.262 197.986 105.817 197.986C106.372 197.986 106.821 197.536 106.821 196.981Z" fill="#B8B8B8"/>
<path d="M110.03 196.986V195.661C110.03 195.106 109.58 194.656 109.025 194.656C108.47 194.656 108.02 195.106 108.02 195.661V196.986C108.02 197.541 108.47 197.991 109.025 197.991C109.58 197.991 110.03 197.541 110.03 196.986Z" fill="#B8B8B8"/>
<path d="M111.64 196.981V196.263C111.64 195.708 111.19 195.259 110.635 195.259C110.08 195.259 109.63 195.708 109.63 196.263V196.981C109.63 197.536 110.08 197.986 110.635 197.986C111.19 197.986 111.64 197.536 111.64 196.981Z" fill="#B8B8B8"/>
<path d="M116.453 196.981V192.326C116.453 191.771 116.003 191.321 115.448 191.321C114.893 191.321 114.443 191.771 114.443 192.326V196.981C114.443 197.536 114.893 197.986 115.448 197.986C116.003 197.986 116.453 197.536 116.453 196.981Z" fill="#B8B8B8"/>
<path d="M118.862 196.981V195.962C118.862 195.407 118.412 194.957 117.857 194.957C117.302 194.957 116.852 195.407 116.852 195.962V196.981C116.852 197.536 117.302 197.986 117.857 197.986C118.412 197.986 118.862 197.536 118.862 196.981Z" fill="#B8B8B8"/>
<path d="M114.09 196.474H113.597C113.178 196.474 112.839 196.813 112.839 197.232C112.839 197.651 113.178 197.991 113.597 197.991H114.09C114.509 197.991 114.849 197.651 114.849 197.232C114.849 196.813 114.509 196.474 114.09 196.474Z" fill="#B8B8B8"/>
<path d="M117.658 196.981V184.753C117.658 184.198 117.208 183.748 116.653 183.748C116.098 183.748 115.648 184.198 115.648 184.753V196.981C115.648 197.536 116.098 197.986 116.653 197.986C117.208 197.986 117.658 197.536 117.658 196.981Z" fill="#B8B8B8"/>
<path d="M120.067 196.981V190.207C120.067 189.652 119.617 189.202 119.062 189.202C118.507 189.202 118.057 189.652 118.057 190.207V196.981C118.057 197.536 118.507 197.986 119.062 197.986C119.617 197.986 120.067 197.536 120.067 196.981Z" fill="#B8B8B8"/>
<path d="M122.077 196.985V196.57C122.077 196.015 121.627 195.565 121.072 195.565C120.517 195.565 120.067 196.015 120.067 196.57V196.985C120.067 197.54 120.517 197.99 121.072 197.99C121.627 197.99 122.077 197.54 122.077 196.985Z" fill="#B8B8B8"/>
<path d="M124.087 196.986V195.661C124.087 195.106 123.637 194.656 123.082 194.656C122.527 194.656 122.077 195.106 122.077 195.661V196.986C122.077 197.541 122.527 197.991 123.082 197.991C123.637 197.991 124.087 197.541 124.087 196.986Z" fill="#B8B8B8"/>
<path d="M126.592 197.383H125.19C125.022 197.383 124.886 197.519 124.886 197.687C124.886 197.854 125.022 197.99 125.19 197.99H126.592C126.76 197.99 126.896 197.854 126.896 197.687C126.896 197.519 126.76 197.383 126.592 197.383Z" fill="#B8B8B8"/>
<path d="M129.305 196.981V196.263C129.305 195.708 128.855 195.259 128.3 195.259C127.745 195.259 127.295 195.708 127.295 196.263V196.981C127.295 197.536 127.745 197.986 128.3 197.986C128.855 197.986 129.305 197.536 129.305 196.981Z" fill="#B8B8B8"/>
<path d="M57.0353 196.986V195.661C57.0353 195.106 56.5854 194.656 56.0304 194.656C55.4754 194.656 55.0255 195.106 55.0255 195.661V196.986C55.0255 197.541 55.4754 197.991 56.0304 197.991C56.5854 197.991 57.0353 197.541 57.0353 196.986Z" fill="#B8B8B8"/>
<path d="M72.9401 196.474H72.4468C72.028 196.474 71.6885 196.813 71.6885 197.232C71.6885 197.651 72.028 197.991 72.4468 197.991H72.9401C73.3589 197.991 73.6984 197.651 73.6984 197.232C73.6984 196.813 73.3589 196.474 72.9401 196.474Z" fill="#B8B8B8"/>
<path d="M75.9049 196.981V195.809C75.9049 195.254 75.455 194.804 74.9 194.804C74.3449 194.804 73.895 195.254 73.895 195.809V196.981C73.895 197.536 74.3449 197.986 74.9 197.986C75.455 197.986 75.9049 197.536 75.9049 196.981Z" fill="#B8B8B8"/>
<path d="M76.9537 196.474H76.4604C76.0416 196.474 75.7021 196.813 75.7021 197.232C75.7021 197.651 76.0416 197.991 76.4604 197.991H76.9537C77.3725 197.991 77.712 197.651 77.712 197.232C77.712 196.813 77.3725 196.474 76.9537 196.474Z" fill="#B8B8B8"/>
<path d="M78.9635 196.474H78.4702C78.0514 196.474 77.7119 196.813 77.7119 197.232C77.7119 197.651 78.0514 197.991 78.4702 197.991H78.9635C79.3823 197.991 79.7218 197.651 79.7218 197.232C79.7218 196.813 79.3823 196.474 78.9635 196.474Z" fill="#B8B8B8"/>
<path d="M80.9673 196.474H80.474C80.0552 196.474 79.7157 196.813 79.7157 197.232C79.7157 197.651 80.0552 197.991 80.474 197.991H80.9673C81.3861 197.991 81.7256 197.651 81.7256 197.232C81.7256 196.813 81.3861 196.474 80.9673 196.474Z" fill="#B8B8B8"/>
<path d="M82.9772 196.474H82.4839C82.0651 196.474 81.7256 196.813 81.7256 197.232C81.7256 197.651 82.0651 197.991 82.4839 197.991H82.9772C83.396 197.991 83.7355 197.651 83.7355 197.232C83.7355 196.813 83.396 196.474 82.9772 196.474Z" fill="#B8B8B8"/>
<path d="M84.987 196.474H84.4937C84.0749 196.474 83.7354 196.813 83.7354 197.232C83.7354 197.651 84.0749 197.991 84.4937 197.991H84.987C85.4058 197.991 85.7453 197.651 85.7453 197.232C85.7453 196.813 85.4058 196.474 84.987 196.474Z" fill="#B8B8B8"/>
<path d="M87.7491 196.981V195.962C87.7491 195.407 87.2992 194.957 86.7441 194.957C86.1891 194.957 85.7392 195.407 85.7392 195.962V196.981C85.7392 197.536 86.1891 197.986 86.7441 197.986C87.2992 197.986 87.7491 197.536 87.7491 196.981Z" fill="#B8B8B8"/>
</svg>
