<svg width="350" height="300" viewBox="0 0 350 300" fill="none" xmlns="http://www.w3.org/2000/svg">
<path d="M0 10C0 4.47716 4.47715 0 10 0H340C345.523 0 350 4.47715 350 10V290C350 295.523 345.523 300 340 300H10C4.47715 300 0 295.523 0 290V10Z" fill="#89CFF3" fill-opacity="0.6"/>
<g opacity="0.3">
<path d="M91.7466 99.68C91.7466 99.68 91.922 99.6053 92.2655 99.4709" stroke="black" stroke-width="0.373333" stroke-linecap="round" stroke-linejoin="round"/>
<path d="M94.009 98.8325C100.24 96.6933 118.679 91.5599 141.027 96.6933C171.61 103.719 221.368 160.026 264.227 146.347C291.644 137.596 288.71 99.4186 258.627 96.8501C223.395 93.841 212.397 111.149 209.951 116.23" stroke="black" stroke-width="0.373333" stroke-linecap="round" stroke-linejoin="round" stroke-dasharray="1.12 1.86"/>
<path d="M209.548 117.077C209.406 117.413 209.347 117.6 209.347 117.6" stroke="black" stroke-width="0.373333" stroke-linecap="round" stroke-linejoin="round"/>
</g>
<g opacity="0.3">
<path d="M208.682 239.419L209.828 241.741L212.393 242.114L210.538 243.921L210.974 246.475L208.682 245.273L206.386 246.475L206.827 243.921L204.971 242.114L207.536 241.741L208.682 239.419Z" stroke="black" stroke-width="0.373333" stroke-linecap="round" stroke-linejoin="round"/>
<path d="M219.654 239.419L220.8 241.741L223.365 242.114L221.51 243.921L221.947 246.475L219.654 245.273L217.362 246.475L217.799 243.921L215.943 242.114L218.508 241.741L219.654 239.419Z" stroke="black" stroke-width="0.373333" stroke-linecap="round" stroke-linejoin="round"/>
<path d="M230.627 239.419L231.773 241.741L234.338 242.114L232.482 243.921L232.919 246.475L230.627 245.273L228.334 246.475L228.771 243.921L226.916 242.114L229.481 241.741L230.627 239.419Z" stroke="black" stroke-width="0.373333" stroke-linecap="round" stroke-linejoin="round"/>
<path d="M241.599 239.419L242.745 241.741L245.31 242.114L243.454 243.921L243.891 246.475L241.599 245.273L239.307 246.475L239.743 243.921L237.888 242.114L240.453 241.741L241.599 239.419Z" stroke="black" stroke-width="0.373333" stroke-linecap="round" stroke-linejoin="round"/>
<path d="M252.571 239.419L253.717 241.741L256.282 242.114L254.427 243.921L254.864 246.475L252.571 245.273L250.279 246.475L250.716 243.921L248.86 242.114L251.425 241.741L252.571 239.419Z" stroke="black" stroke-width="0.373333" stroke-linecap="round" stroke-linejoin="round"/>
</g>
<g opacity="0.3">
<path d="M297.991 94.6362H272.47V113.926H297.991V94.6362Z" stroke="black" stroke-width="0.373333" stroke-linecap="round" stroke-linejoin="round"/>
<path d="M297.991 94.6362H272.47V97.649H297.991V94.6362Z" stroke="black" stroke-width="0.373333" stroke-linecap="round" stroke-linejoin="round"/>
<path d="M282.165 102.667C282.165 102.19 282.024 101.723 281.759 101.327C281.494 100.93 281.117 100.621 280.676 100.438C280.236 100.256 279.751 100.208 279.283 100.301C278.815 100.394 278.385 100.624 278.048 100.961C277.711 101.299 277.481 101.728 277.388 102.196C277.295 102.664 277.343 103.149 277.525 103.59C277.708 104.03 278.017 104.407 278.414 104.672C278.81 104.937 279.277 105.078 279.754 105.078C280.393 105.078 281.007 104.824 281.459 104.372C281.911 103.92 282.165 103.306 282.165 102.667Z" stroke="black" stroke-width="0.373333" stroke-linecap="round" stroke-linejoin="round"/>
<path d="M279.16 106.493H280.366C281.192 106.493 281.984 106.821 282.567 107.405C283.151 107.989 283.479 108.781 283.479 109.607V111.918H276.035V109.607C276.035 109.197 276.116 108.791 276.273 108.413C276.43 108.034 276.661 107.69 276.951 107.401C277.241 107.112 277.586 106.883 277.965 106.727C278.344 106.571 278.75 106.492 279.16 106.493Z" stroke="black" stroke-width="0.373333" stroke-linecap="round" stroke-linejoin="round"/>
<path d="M287.138 101.871H296.382" stroke="black" stroke-width="0.373333" stroke-linecap="round" stroke-linejoin="round"/>
<path d="M287.138 104.481H296.382" stroke="black" stroke-width="0.373333" stroke-linecap="round" stroke-linejoin="round"/>
<path d="M287.138 107.094H296.382" stroke="black" stroke-width="0.373333" stroke-linecap="round" stroke-linejoin="round"/>
<path d="M287.138 109.708H296.382" stroke="black" stroke-width="0.373333" stroke-linecap="round" stroke-linejoin="round"/>
</g>
<g opacity="0.3">
<path d="M55.9066 222.88H42.0933V203.84H53.7674L55.9066 206.737V222.88Z" stroke="black" stroke-width="0.373333" stroke-linecap="round" stroke-linejoin="round"/>
<path d="M53.7673 203.84V206.737H55.9065" stroke="black" stroke-width="0.373333" stroke-linecap="round" stroke-linejoin="round"/>
<path d="M45.3711 209.115H52.8154" stroke="black" stroke-width="0.373333" stroke-linecap="round" stroke-linejoin="round"/>
<path d="M45.3711 211.964H52.8154" stroke="black" stroke-width="0.373333" stroke-linecap="round" stroke-linejoin="round"/>
<path d="M45.3711 214.816H52.8154" stroke="black" stroke-width="0.373333" stroke-linecap="round" stroke-linejoin="round"/>
<path d="M45.3711 217.668H52.8154" stroke="black" stroke-width="0.373333" stroke-linecap="round" stroke-linejoin="round"/>
</g>
<g opacity="0.3">
<path d="M84.0906 93.2631L57.1072 106.781L65.2442 123.023L92.2276 109.505L84.0906 93.2631Z" fill="white" stroke="black" stroke-width="0.373333" stroke-linecap="round" stroke-linejoin="round"/>
<path d="M57.105 106.781L75.865 110.537L84.0895 93.2625" stroke="black" stroke-width="0.373333" stroke-linecap="round" stroke-linejoin="round"/>
<path d="M65.2437 123.025L70.6271 109.596" stroke="black" stroke-width="0.373333" stroke-linecap="round" stroke-linejoin="round"/>
<path d="M92.2243 109.506L78.635 105.213" stroke="black" stroke-width="0.373333" stroke-linecap="round" stroke-linejoin="round"/>
</g>
<path d="M264.6 250.88H298.2" stroke="#263238" stroke-width="0.373333" stroke-linecap="round" stroke-linejoin="round"/>
<path d="M98.0935 250.88H260.493" stroke="#263238" stroke-width="0.373333" stroke-linecap="round" stroke-linejoin="round"/>
<path d="M46.9468 250.88H94.7334" stroke="#263238" stroke-width="0.373333" stroke-linecap="round" stroke-linejoin="round"/>
<path d="M173.507 259.467C241.961 259.467 297.453 258.297 297.453 256.853C297.453 255.41 241.961 254.24 173.507 254.24C105.053 254.24 49.5601 255.41 49.5601 256.853C49.5601 258.297 105.053 259.467 173.507 259.467Z" fill="#CCCCCC"/>
<path d="M260.982 203.556C260.982 203.556 270.824 211.37 275.542 219.512C280.261 227.655 280.105 233.173 280.105 233.173C280.105 233.173 266.205 223.253 263.058 216.533C261.175 212.484 260.456 207.991 260.982 203.556Z" fill="#407BFF"/>
<path d="M302.568 192.662C302.568 192.662 304.722 206.692 299.559 215.331C294.396 223.97 280.187 232.96 280.187 232.96C280.187 232.96 278.145 226.654 285.593 217.075C293.041 207.495 302.568 192.662 302.568 192.662Z" fill="#407BFF"/>
<path d="M279.44 217.396C279.44 217.396 279.578 206.599 286.279 195.473C292.981 184.348 301.011 173.073 302.896 168.28C304.15 164.964 305.164 161.563 305.932 158.103C305.932 158.103 308.72 167.354 303.501 179.663C298.282 191.972 279.44 217.396 279.44 217.396Z" fill="#407BFF"/>
<path d="M279.948 212.96C279.948 212.96 272.037 202.899 266.571 191.393C261.106 179.887 261.987 167.94 261.987 167.94C261.987 167.94 272.246 181.238 275.509 191.624C278.772 202.011 279.948 212.96 279.948 212.96Z" fill="#407BFF"/>
<path d="M281.516 190.213C281.516 190.213 283.383 173.682 287.833 164.509C292.283 155.336 301.411 141.161 301.411 141.161C301.411 141.161 302.531 157.031 295.359 169.695C288.187 182.358 281.516 190.213 281.516 190.213Z" fill="#407BFF"/>
<path d="M281.882 180.72C281.882 180.72 272.608 166.906 270.077 157.028C267.546 147.149 265.347 130.439 265.347 130.439C265.347 130.439 276.465 141.818 279.182 156.113C281.9 170.408 281.882 180.72 281.882 180.72Z" fill="#407BFF"/>
<path d="M277.293 121.102C277.293 121.102 286 127.523 284.622 141.004C283.244 154.485 281.915 159.04 281.915 159.04C283.267 149.804 277.293 121.102 277.293 121.102Z" fill="#407BFF"/>
<path d="M280.347 237.459C280.347 237.459 279.533 235.327 279.533 219.064C279.533 202.802 281.665 196.407 281.665 180.413C281.665 164.42 282.733 149.49 282.733 149.49" stroke="#263238" stroke-width="0.28" stroke-miterlimit="10"/>
<path d="M281.568 188.638C281.568 188.638 287.362 176.154 289.815 171.465C292.089 167.126 294.721 160.093 294.721 160.093" stroke="#263238" stroke-width="0.28" stroke-miterlimit="10"/>
<path d="M292.6 193.76C289.035 200.353 280.907 215.324 279.44 217.403" stroke="#263238" stroke-width="0.28" stroke-miterlimit="10"/>
<path d="M294.276 190.643L293.265 192.509" stroke="#263238" stroke-width="0.28" stroke-miterlimit="10"/>
<path d="M271.006 190.542L269.084 185.961" stroke="#263238" stroke-width="0.28" stroke-miterlimit="10"/>
<path d="M279.56 210.929L271.858 192.576" stroke="#263238" stroke-width="0.28" stroke-miterlimit="10"/>
<path d="M273.478 224.847C271.824 222.79 270.084 220.498 268.625 218.288" stroke="#263238" stroke-width="0.28" stroke-miterlimit="10"/>
<path d="M289.136 221.263C285.275 225.915 279.56 231.888 279.56 231.888C279.56 231.888 277.551 229.742 275.039 226.744" stroke="#263238" stroke-width="0.28" stroke-miterlimit="10"/>
<path d="M292.044 217.396C291.603 218.095 291.126 218.77 290.614 219.419" stroke="#263238" stroke-width="0.28" stroke-miterlimit="10"/>
<path d="M276.405 160.929L275.102 156.535" stroke="#263238" stroke-width="0.28" stroke-miterlimit="10"/>
<path d="M281.568 178.382L277.092 163.262" stroke="#263238" stroke-width="0.28" stroke-miterlimit="10"/>
<path d="M268.882 229.682H292.148V237.993H289.953L287.119 256.275H273.907L271.077 237.993H268.882V229.682Z" fill="#263238"/>
<path d="M167.097 231.127C167.097 231.127 171.129 248.464 169.374 251.313C167.078 255.046 142.64 257.286 142.64 257.286H196.53C196.53 257.286 203.284 255.393 201.253 249.961C199.681 245.761 192.144 231.127 192.144 231.127H167.097Z" fill="white" stroke="#263238" stroke-width="0.373333" stroke-linecap="round" stroke-linejoin="round"/>
<path d="M165.917 231.127C165.917 231.127 170.218 248.61 168.194 251.313C166.171 254.016 142.64 256.084 142.64 256.084H196.773C196.773 256.084 201.328 254.244 200.062 249.961C198.796 245.679 190.953 231.127 190.953 231.127H165.917Z" fill="white" stroke="#263238" stroke-width="0.373333" stroke-linecap="round" stroke-linejoin="round"/>
<path d="M190.964 231.127H165.917C165.917 231.127 168.463 241.487 168.713 247.49H199.132C196.672 241.718 190.964 231.127 190.964 231.127Z" fill="#263238" stroke="#263238" stroke-width="0.373333" stroke-linecap="round" stroke-linejoin="round"/>
<path d="M196.53 256.174H142.64V257.286H196.53V256.174Z" fill="white" stroke="#263238" stroke-width="0.373333" stroke-linecap="round" stroke-linejoin="round"/>
<path d="M258.41 110.88H102.137C100.388 110.88 98.9707 112.297 98.9707 114.046V229.671C98.9707 231.419 100.388 232.837 102.137 232.837H258.41C260.159 232.837 261.576 231.419 261.576 229.671V114.046C261.576 112.297 260.159 110.88 258.41 110.88Z" fill="white" stroke="#263238" stroke-width="0.373333" stroke-linecap="round" stroke-linejoin="round"/>
<path d="M254.58 110.88H98.3063C96.5578 110.88 95.1404 112.297 95.1404 114.046V229.671C95.1404 231.419 96.5578 232.837 98.3063 232.837H254.58C256.328 232.837 257.746 231.419 257.746 229.671V114.046C257.746 112.297 256.328 110.88 254.58 110.88Z" fill="#263238" stroke="#263238" stroke-width="0.373333" stroke-linecap="round" stroke-linejoin="round"/>
<path d="M95.1404 213.879H257.746V229.667C257.746 230.507 257.412 231.312 256.818 231.906C256.225 232.499 255.419 232.833 254.58 232.833H98.3063C97.4666 232.833 96.6614 232.499 96.0676 231.906C95.4739 231.312 95.1404 230.507 95.1404 229.667V213.879Z" fill="white" stroke="#263238" stroke-width="0.373333" stroke-linecap="round" stroke-linejoin="round"/>
<path d="M179.443 223.358C179.443 222.767 179.268 222.19 178.939 221.698C178.611 221.207 178.145 220.824 177.599 220.598C177.053 220.372 176.453 220.313 175.873 220.428C175.294 220.544 174.762 220.828 174.344 221.246C173.927 221.664 173.642 222.196 173.527 222.775C173.412 223.354 173.471 223.955 173.697 224.501C173.923 225.046 174.306 225.513 174.797 225.841C175.288 226.169 175.865 226.344 176.456 226.344C177.248 226.344 178.008 226.03 178.568 225.47C179.128 224.91 179.443 224.15 179.443 223.358Z" fill="#263238" stroke="#263238" stroke-width="0.373333" stroke-linecap="round" stroke-linejoin="round"/>
<path d="M249.566 118.466H103.316V204.628H249.566V118.466Z" fill="#949494" stroke="#263238" stroke-width="0.373333" stroke-linejoin="round"/>
<path d="M232.856 118.466H155.68V204.628H232.856V118.466Z" fill="#EDEDED" stroke="#263238" stroke-width="0.373333" stroke-miterlimit="10"/>
<path d="M191.572 165.349C192.709 165.349 193.63 164.428 193.63 163.292C193.63 162.156 192.709 161.235 191.572 161.235C190.436 161.235 189.515 162.156 189.515 163.292C189.515 164.428 190.436 165.349 191.572 165.349Z" fill="white" stroke="#263238" stroke-width="0.373333" stroke-linecap="round" stroke-linejoin="round"/>
<path d="M200.316 165.349C201.452 165.349 202.373 164.428 202.373 163.292C202.373 162.156 201.452 161.235 200.316 161.235C199.18 161.235 198.259 162.156 198.259 163.292C198.259 164.428 199.18 165.349 200.316 165.349Z" fill="white" stroke="#263238" stroke-width="0.373333" stroke-linecap="round" stroke-linejoin="round"/>
<path d="M209.059 165.349C210.195 165.349 211.116 164.428 211.116 163.292C211.116 162.156 210.195 161.235 209.059 161.235C207.923 161.235 207.002 162.156 207.002 163.292C207.002 164.428 207.923 165.349 209.059 165.349Z" fill="white" stroke="#263238" stroke-width="0.373333" stroke-linecap="round" stroke-linejoin="round"/>
<path d="M217.803 165.349C218.939 165.349 219.86 164.428 219.86 163.292C219.86 162.156 218.939 161.235 217.803 161.235C216.667 161.235 215.746 162.156 215.746 163.292C215.746 164.428 216.667 165.349 217.803 165.349Z" fill="white" stroke="#263238" stroke-width="0.373333" stroke-linecap="round" stroke-linejoin="round"/>
<path d="M166.421 118.466H119.366V204.628H166.421V118.466Z" fill="white" stroke="#263238" stroke-width="0.373333" stroke-linecap="round" stroke-linejoin="round"/>
<path d="M232.852 118.466H119.366V148.919H232.852V118.466Z" fill="#407BFF" stroke="#263238" stroke-width="0.373333" stroke-linecap="round" stroke-linejoin="round"/>
<path d="M166.413 118.466H119.366V148.919H166.413V118.466Z" fill="#263238" stroke="#263238" stroke-width="0.373333" stroke-linecap="round" stroke-linejoin="round"/>
<path d="M249.566 118.466H245.56V204.628H249.566V118.466Z" fill="#D4D4D4" stroke="#263238" stroke-width="0.373333" stroke-linejoin="round"/>
<path d="M249.566 151.2H245.56V173.6H249.566V151.2Z" fill="#949494" stroke="#263238" stroke-width="0.373333" stroke-linejoin="round"/>
<path d="M249.566 118.466H103.316V125.432H249.566V118.466Z" fill="#D4D4D4" stroke="#263238" stroke-width="0.373333" stroke-linejoin="round"/>
<path d="M181.328 120.269H114.535V124.062H181.328V120.269Z" fill="white" stroke="#263238" stroke-width="0.373333" stroke-linecap="round" stroke-linejoin="round"/>
<path d="M150.427 152.851C155.549 147.729 155.549 139.425 150.427 134.303C145.305 129.181 137.001 129.181 131.879 134.303C126.758 139.425 126.758 147.729 131.879 152.851C137.001 157.973 145.305 157.973 150.427 152.851Z" fill="white" stroke="#263238" stroke-width="0.373333" stroke-linecap="round" stroke-linejoin="round"/>
<path d="M141.154 156.692C143.403 156.694 145.615 156.117 147.576 155.017C149.538 153.916 151.183 152.329 152.354 150.408L144.727 148.269L137.831 148.37L131.458 152.387C132.684 153.743 134.179 154.826 135.85 155.568C137.52 156.309 139.327 156.692 141.154 156.692Z" fill="white" stroke="#263238" stroke-width="0.373333" stroke-linecap="round" stroke-linejoin="round"/>
<path d="M141.475 156.68C141.923 156.671 142.37 156.638 142.815 156.583L142.617 155.769L143.916 153.156L142.315 150.655L139.701 153.354L141.602 155.654L141.475 156.68Z" fill="#263238" stroke="#263238" stroke-width="0.373333" stroke-linecap="round" stroke-linejoin="round"/>
<path d="M139.41 156.576L137.566 148.531L131.447 152.387C133.522 154.682 136.344 156.166 139.41 156.576Z" fill="#407BFF" stroke="#263238" stroke-width="0.373333" stroke-linecap="round" stroke-linejoin="round"/>
<path d="M152.343 150.408L146.836 148.866L145.343 156.005C148.26 155.018 150.737 153.037 152.343 150.408Z" fill="#407BFF" stroke="#263238" stroke-width="0.373333" stroke-linecap="round" stroke-linejoin="round"/>
<path d="M141.945 152.54L138.85 154.87L136.371 148.814L137.764 146.657L145.343 146.272L147.135 148.687L145.66 154.19L141.945 152.54Z" fill="white" stroke="#263238" stroke-width="0.373333" stroke-linecap="round" stroke-linejoin="round"/>
<path d="M138.395 144.331L139.093 148.176L141.945 152.54L144.566 147.396L144.398 144.148L138.395 144.331Z" fill="white" stroke="#263238" stroke-width="0.373333" stroke-linecap="round" stroke-linejoin="round"/>
<path d="M144.454 145.227L144.409 144.368L143.614 144.185L138.387 144.342L139.085 148.187L139.492 148.811C141.699 147.896 143.535 146.179 144.454 145.227Z" fill="#263238" stroke="#263238" stroke-width="0.373333" stroke-linecap="round" stroke-linejoin="round"/>
<path d="M135.979 139.832C135.979 139.832 134.93 138.712 134.792 139.533C134.654 140.354 135.083 141.773 135.74 142.277C136.398 142.781 136.987 141.945 136.987 141.945L135.979 139.832Z" fill="white" stroke="#263238" stroke-width="0.373333" stroke-linecap="round" stroke-linejoin="round"/>
<path d="M145.91 139.328C145.91 139.328 146.839 138.111 147.06 138.91C147.28 139.709 146.993 141.15 146.391 141.736C145.79 142.322 145.118 141.53 145.118 141.53L145.91 139.328Z" fill="white" stroke="#263238" stroke-width="0.373333" stroke-linecap="round" stroke-linejoin="round"/>
<path d="M136.397 140.985L135.389 138.88C134.584 137.745 134.026 136.452 133.754 135.087C133.276 132.768 134.079 130.834 135.128 130.233C135.718 129.88 136.414 129.748 137.092 129.86C137.092 129.86 137.293 128.497 140.571 127.34C143.849 126.183 147.467 128.251 147.411 128.975C147.355 129.7 146.474 130.013 146.474 130.013C146.474 130.013 149.046 130.965 148.116 132.182C147.543 132.924 146.801 133.519 145.951 133.914C146.137 134.528 146.289 135.151 146.406 135.781C146.537 136.588 145.813 140.048 145.813 140.048L144.032 135.195L138.458 135.479C138.458 135.479 138.13 137.838 137.54 138.678C137.163 139.318 136.952 140.042 136.927 140.784C136.927 140.784 136.703 141.687 136.397 140.985Z" fill="#696969" stroke="#263238" stroke-width="0.373333" stroke-linejoin="round"/>
<path d="M137.391 132.19C137.379 133.644 137.273 135.095 137.073 136.535C136.954 137.336 136.54 138.063 135.912 138.574C135.912 138.574 136.621 141.874 137.521 143.629C138.421 145.383 140.299 146.824 142.18 146.638C144.062 146.451 145.578 144.301 145.757 142.49C145.936 140.679 145.051 133.967 145.051 133.967C145.051 133.967 139.16 134.986 137.391 132.19Z" fill="white" stroke="#263238" stroke-width="0.373333" stroke-linecap="round" stroke-linejoin="round"/>
<path d="M140.019 142.583C140.019 142.583 141.034 143.457 143.312 142.68" stroke="#263238" stroke-width="0.373333" stroke-linecap="round" stroke-linejoin="round"/>
<path d="M137.812 137.461C137.812 137.461 137.928 136.453 139.593 136.367" stroke="#263238" stroke-width="0.373333" stroke-linecap="round" stroke-linejoin="round"/>
<path d="M142.259 136.147C142.636 135.991 143.054 135.961 143.45 136.061C143.846 136.161 144.2 136.387 144.458 136.703" stroke="#263238" stroke-width="0.373333" stroke-linecap="round" stroke-linejoin="round"/>
<path d="M141.673 137.76C141.673 137.76 141.942 139.75 141.953 140C141.964 140.25 142.804 140.291 142.58 140.806C142.356 141.321 141.628 141.866 141.027 141.493" stroke="#263238" stroke-width="0.373333" stroke-linecap="round" stroke-linejoin="round"/>
<path d="M143.875 138.406C143.894 138.779 143.726 139.081 143.502 139.093C143.278 139.104 143.069 138.816 143.05 138.451C143.032 138.085 143.203 137.771 143.424 137.76C143.644 137.749 143.857 138.04 143.875 138.406Z" fill="#263238"/>
<path d="M139.556 138.798C139.575 139.171 139.403 139.474 139.183 139.485C138.962 139.496 138.75 139.208 138.731 138.839C138.712 138.469 138.884 138.163 139.104 138.152C139.324 138.141 139.534 138.428 139.556 138.798Z" fill="#263238"/>
<path d="M170.52 133.47H212.8" stroke="#263238" stroke-width="0.373333" stroke-linecap="round" stroke-linejoin="round"/>
<path d="M170.52 137.454H199.45" stroke="#263238" stroke-width="0.373333" stroke-linecap="round" stroke-linejoin="round"/>
<path d="M170.52 143.924H228.01" stroke="#263238" stroke-width="0.373333" stroke-linecap="round" stroke-linejoin="round"/>
<path d="M124.029 162.105C124.518 162.105 124.731 162.396 124.731 162.852V163.225C124.731 163.721 124.499 163.972 123.984 163.972H123.678V165.207H123.327V162.071L124.029 162.105ZM123.999 163.692C124.26 163.692 124.372 163.568 124.372 163.27V162.852C124.372 162.568 124.268 162.422 123.999 162.422H123.663V163.692H123.999Z" fill="#263238"/>
<path d="M126.12 163.494V163.807H125.373V164.927H126.314V165.245H125.022V162.109H126.314V162.426H125.347V163.497L126.12 163.494Z" fill="#263238"/>
<path d="M127.314 162.105C127.807 162.105 128.012 162.355 128.012 162.822V163.076C128.012 163.423 127.893 163.636 127.639 163.722C127.927 163.807 128.035 164.039 128.035 164.375V164.864C128.025 164.991 128.046 165.119 128.095 165.237H127.744C127.695 165.119 127.674 164.991 127.684 164.864V164.371C127.684 163.998 127.52 163.904 127.228 163.904H126.982V165.245H126.631V162.109L127.314 162.105ZM127.225 163.598C127.505 163.598 127.669 163.509 127.669 163.169V162.867C127.669 162.587 127.568 162.437 127.296 162.437H126.956V163.598H127.225Z" fill="#263238"/>
<path d="M129.737 162.859V162.941H129.409V162.841C129.409 162.557 129.3 162.393 129.035 162.393C128.77 162.393 128.662 162.557 128.662 162.837C128.662 163.539 129.715 163.606 129.715 164.487C129.715 164.961 129.483 165.271 129.005 165.271C128.527 165.271 128.303 164.961 128.303 164.487V164.308H128.628V164.506C128.628 164.789 128.748 164.954 129.002 164.954C129.255 164.954 129.375 164.789 129.375 164.506C129.375 163.807 128.326 163.759 128.326 162.859C128.326 162.374 128.55 162.075 129.02 162.075C129.491 162.075 129.737 162.4 129.737 162.859Z" fill="#263238"/>
<path d="M130.021 162.863C130.021 162.381 130.26 162.075 130.738 162.075C131.216 162.075 131.458 162.381 131.458 162.863V164.483C131.458 164.957 131.223 165.271 130.738 165.271C130.252 165.271 130.021 164.957 130.021 164.483V162.863ZM130.368 164.502C130.368 164.789 130.488 164.954 130.742 164.954C130.995 164.954 131.115 164.789 131.115 164.502V162.844C131.115 162.564 130.995 162.393 130.742 162.393C130.488 162.393 130.368 162.564 130.368 162.844V164.502Z" fill="#263238"/>
<path d="M132.1 165.241H131.787V162.105H132.231L132.955 164.371V162.105H133.265V165.241H132.892L132.089 162.706L132.1 165.241Z" fill="#263238"/>
<path d="M133.978 164.61L133.855 165.241H133.534L134.135 162.105H134.639L135.24 165.241H134.889L134.77 164.61H133.978ZM134.023 164.308H134.721L134.366 162.501L134.023 164.308Z" fill="#263238"/>
<path d="M136.894 162.105C137.387 162.105 137.596 162.396 137.596 162.852V163.225C137.596 163.721 137.364 163.972 136.868 163.972H136.547V165.207H136.196V162.071L136.894 162.105ZM136.868 163.692C137.125 163.692 137.241 163.568 137.241 163.27V162.852C137.241 162.568 137.137 162.422 136.868 162.422H136.547V163.692H136.868Z" fill="#263238"/>
<path d="M138.57 162.105C139.063 162.105 139.268 162.355 139.268 162.822V163.076C139.29 163.212 139.262 163.352 139.19 163.47C139.119 163.588 139.007 163.677 138.876 163.722C139.164 163.807 139.272 164.039 139.272 164.375V164.864C139.262 164.992 139.284 165.12 139.336 165.237H138.962C138.913 165.119 138.893 164.991 138.903 164.864V164.371C138.903 163.998 138.738 163.904 138.447 163.904H138.201V165.245H137.854V162.109L138.57 162.105ZM138.481 163.598C138.757 163.598 138.921 163.509 138.921 163.169V162.867C138.921 162.587 138.82 162.437 138.548 162.437H138.208V163.598H138.481Z" fill="#263238"/>
<path d="M139.608 162.863C139.608 162.381 139.847 162.075 140.325 162.075C140.803 162.075 141.045 162.381 141.045 162.863V164.483C141.045 164.957 140.81 165.271 140.325 165.271C139.84 165.271 139.608 164.957 139.608 164.483V162.863ZM139.955 164.502C139.955 164.789 140.075 164.954 140.329 164.954C140.583 164.954 140.702 164.789 140.702 164.502V162.844C140.702 162.564 140.583 162.393 140.329 162.393C140.075 162.393 139.955 162.564 139.955 162.844V164.502Z" fill="#263238"/>
<path d="M142.449 163.565V163.893H141.729V165.252H141.378V162.116H142.625V162.434H141.729V163.576L142.449 163.565Z" fill="#263238"/>
<path d="M143.267 162.105V165.241H142.894V162.105H143.267Z" fill="#263238"/>
<path d="M143.61 165.241V162.105H143.958V164.924H144.854V165.241H143.61Z" fill="#263238"/>
<path d="M146.254 163.494V163.807H145.47V164.927H146.41V165.245H145.134V162.109H146.425V162.426H145.47V163.497L146.254 163.494Z" fill="#263238"/>
<path d="M171.117 162.859V162.941H170.785V162.841C170.785 162.557 170.681 162.393 170.412 162.393C170.143 162.393 170.038 162.557 170.038 162.837C170.038 163.539 171.091 163.606 171.091 164.487C171.091 164.961 170.864 165.271 170.386 165.271C169.908 165.271 169.684 164.961 169.684 164.487V164.308H170.009V164.506C170.009 164.789 170.124 164.954 170.382 164.954C170.64 164.954 170.755 164.789 170.755 164.506C170.755 163.807 169.706 163.759 169.706 162.859C169.706 162.374 169.93 162.075 170.401 162.075C170.871 162.075 171.117 162.4 171.117 162.859Z" fill="#263238"/>
<path d="M171.961 163.893L171.778 164.203V165.256H171.427V162.12H171.778V163.636L172.611 162.12H172.962L172.17 163.52L172.992 165.226H172.618L171.961 163.893Z" fill="#263238"/>
<path d="M173.611 162.105V165.241H173.26V162.105H173.611Z" fill="#263238"/>
<path d="M173.97 165.241V162.105H174.317V164.924H175.213V165.241H173.97Z" fill="#263238"/>
<path d="M175.478 165.241V162.105H175.825V164.924H176.721V165.241H175.478Z" fill="#263238"/>
<path d="M178.36 162.859V162.941H178.028V162.841C178.028 162.557 177.92 162.393 177.655 162.393C177.39 162.393 177.281 162.557 177.281 162.837C177.281 163.539 178.334 163.606 178.334 164.487C178.334 164.961 178.106 165.271 177.625 165.271C177.143 165.271 176.923 164.961 176.923 164.487V164.308H177.251V164.506C177.251 164.789 177.367 164.954 177.625 164.954C177.882 164.954 177.998 164.789 177.998 164.506C177.998 163.807 176.953 163.759 176.953 162.859C176.953 162.374 177.177 162.075 177.647 162.075C178.118 162.075 178.36 162.4 178.36 162.859Z" fill="#263238"/>
<path d="M124.727 185.92V186.2H124.395V185.901C124.395 185.617 124.283 185.449 124.022 185.449C123.76 185.449 123.648 185.617 123.648 185.901V187.559C123.648 187.839 123.764 188.01 124.022 188.01C124.279 188.01 124.395 187.839 124.395 187.559V187.152H124.727V187.525C124.727 187.999 124.503 188.313 124.018 188.313C123.532 188.313 123.316 187.999 123.316 187.525V185.92C123.316 185.446 123.54 185.132 124.018 185.132C124.496 185.132 124.727 185.442 124.727 185.92Z" fill="#263238"/>
<path d="M125.018 185.92C125.018 185.438 125.254 185.132 125.735 185.132C126.217 185.132 126.467 185.434 126.467 185.92V187.54C126.481 187.641 126.473 187.744 126.443 187.842C126.413 187.939 126.362 188.029 126.293 188.104C126.224 188.18 126.139 188.239 126.045 188.277C125.95 188.316 125.848 188.333 125.746 188.328C125.265 188.328 125.03 188.014 125.03 187.54L125.018 185.92ZM125.362 187.559C125.362 187.842 125.485 188.01 125.735 188.01C125.985 188.01 126.108 187.842 126.108 187.559V185.901C126.108 185.617 125.993 185.449 125.735 185.449C125.478 185.449 125.362 185.617 125.362 185.901V187.559Z" fill="#263238"/>
<path d="M127.098 188.294H126.784V185.173H127.214L127.96 187.413V185.173H128.27V188.309H127.897L127.098 185.774V188.294Z" fill="#263238"/>
<path d="M129.08 188.294V185.475H128.501V185.173H129.995V185.49H129.416V188.309L129.08 188.294Z" fill="#263238"/>
<path d="M130.417 187.663L130.293 188.294H129.972L130.573 185.173H131.077L131.679 188.309H131.32L131.201 187.678L130.417 187.663ZM130.461 187.361H131.16L130.805 185.554L130.461 187.361Z" fill="#263238"/>
<path d="M133.332 185.92V186.2H133V185.901C133 185.617 132.888 185.449 132.627 185.449C132.365 185.449 132.253 185.617 132.253 185.901V187.559C132.253 187.839 132.373 188.01 132.627 188.01C132.881 188.01 133 187.839 133 187.559V187.152H133.332V187.525C133.332 187.999 133.108 188.313 132.623 188.313C132.138 188.313 131.921 187.999 131.921 187.525V185.92C131.921 185.446 132.145 185.132 132.623 185.132C133.101 185.132 133.332 185.442 133.332 185.92Z" fill="#263238"/>
<path d="M134.102 188.294V185.475H133.527V185.173H135.02V185.49H134.445V188.309L134.102 188.294Z" fill="#263238"/>
<path d="M170.595 188.294H170.113L169.684 185.158H170.027L170.401 187.828L170.748 185.162H171.095L171.438 187.831L171.793 185.158H172.096L171.674 188.294H171.211L170.912 186.166L170.595 188.294Z" fill="#263238"/>
<path d="M172.346 185.92C172.346 185.438 172.585 185.132 173.062 185.132C173.54 185.132 173.783 185.438 173.783 185.92V187.54C173.783 188.014 173.548 188.328 173.062 188.328C172.577 188.328 172.346 188.014 172.346 187.54V185.92ZM172.693 187.559C172.693 187.842 172.812 188.01 173.066 188.01C173.32 188.01 173.44 187.842 173.44 187.559V185.901C173.44 185.617 173.32 185.449 173.066 185.449C172.812 185.449 172.693 185.617 172.693 185.901V187.559Z" fill="#263238"/>
<path d="M174.814 185.173C175.306 185.173 175.512 185.423 175.512 185.89V186.144C175.512 186.491 175.392 186.704 175.138 186.79C175.426 186.875 175.534 187.107 175.534 187.443V187.932C175.525 188.059 175.545 188.187 175.594 188.305H175.243C175.194 188.187 175.173 188.059 175.183 187.932V187.413C175.183 187.058 175.019 186.946 174.728 186.946H174.481V188.287H174.13V185.173H174.814ZM174.724 186.666C175.004 186.666 175.168 186.577 175.168 186.237V185.92C175.168 185.64 175.064 185.49 174.795 185.49H174.455V186.651L174.724 186.666Z" fill="#263238"/>
<path d="M176.415 186.932L176.228 187.242V188.294H175.881V185.173H176.228V186.667L177.065 185.151H177.416L176.624 186.581L177.442 188.287H177.068L176.415 186.932Z" fill="#263238"/>
<path d="M179.521 186.547V186.861H178.756V187.981H179.697V188.298H178.409V185.173H179.697V185.49H178.756V186.562L179.521 186.547Z" fill="#263238"/>
<path d="M180.798 186.939L180.275 188.294H179.943L180.574 186.678L179.984 185.173H180.358L180.843 186.427L181.332 185.173H181.657L181.059 186.666L181.687 188.283H181.313L180.798 186.939Z" fill="#263238"/>
<path d="M182.653 185.173C183.146 185.173 183.359 185.464 183.359 185.938V186.312C183.359 186.808 183.124 187.058 182.612 187.058H182.303V188.294H181.955V185.173H182.653ZM182.627 186.76C182.889 186.76 183.001 186.637 183.001 186.338V185.92C183.001 185.636 182.9 185.49 182.627 185.49H182.291V186.76H182.627Z" fill="#263238"/>
<path d="M184.748 186.547V186.861H183.979V187.981H184.92V188.298H183.632V185.173H184.92V185.49H183.979V186.562L184.748 186.547Z" fill="#263238"/>
<path d="M185.942 185.173C186.435 185.173 186.641 185.423 186.641 185.89V186.144C186.641 186.491 186.521 186.704 186.267 186.79C186.555 186.875 186.659 187.107 186.659 187.443V187.932C186.649 188.06 186.671 188.188 186.723 188.305H186.368C186.323 188.186 186.303 188.059 186.312 187.932V187.413C186.312 187.058 186.144 186.946 185.853 186.946H185.606V188.287H185.259V185.173H185.942ZM185.853 186.666C186.129 186.666 186.297 186.577 186.297 186.237V185.92C186.297 185.64 186.193 185.49 185.924 185.49H185.58V186.651L185.853 186.666Z" fill="#263238"/>
<path d="M187.357 185.173V188.309H187.01V185.173H187.357Z" fill="#263238"/>
<path d="M188.832 186.547V186.861H188.067V187.981H189.008V188.298H187.716V185.173H189.008V185.49H188.067V186.562L188.832 186.547Z" fill="#263238"/>
<path d="M189.639 188.294H189.325V185.173H189.769L190.493 187.413V185.173H190.803V188.309H190.43L189.627 185.774L189.639 188.294Z" fill="#263238"/>
<path d="M192.547 185.92V186.2H192.214V185.901C192.214 185.617 192.102 185.449 191.841 185.449C191.58 185.449 191.468 185.617 191.468 185.901V187.559C191.468 187.839 191.583 188.01 191.841 188.01C192.099 188.01 192.214 187.839 192.214 187.559V187.152H192.547V187.525C192.547 187.999 192.323 188.313 191.837 188.313C191.352 188.313 191.135 187.999 191.135 187.525V185.92C191.135 185.446 191.359 185.132 191.837 185.132C192.315 185.132 192.547 185.442 192.547 185.92Z" fill="#263238"/>
<path d="M193.98 186.547V186.861H193.234V187.981H194.171V188.298H192.883V185.173H194.171V185.49H193.234V186.562L193.98 186.547Z" fill="#263238"/>
<path d="M170.046 169.904H225.221" stroke="#263238" stroke-width="0.373333" stroke-linecap="round" stroke-linejoin="round"/>
<path d="M170.046 174.305H225.221" stroke="#263238" stroke-width="0.373333" stroke-linecap="round" stroke-linejoin="round"/>
<path d="M170.046 178.711H225.221" stroke="#263238" stroke-width="0.373333" stroke-linecap="round" stroke-linejoin="round"/>
<path d="M122.905 169.904H161.5" stroke="#263238" stroke-width="0.373333" stroke-linecap="round" stroke-linejoin="round"/>
<path d="M122.905 174.305H161.5" stroke="#263238" stroke-width="0.373333" stroke-linecap="round" stroke-linejoin="round"/>
<path d="M122.905 178.711H161.5" stroke="#263238" stroke-width="0.373333" stroke-linecap="round" stroke-linejoin="round"/>
<path d="M170.046 191.662H225.221" stroke="#263238" stroke-width="0.373333" stroke-linecap="round" stroke-linejoin="round"/>
<path d="M170.046 196.063H225.221" stroke="#263238" stroke-width="0.373333" stroke-linecap="round" stroke-linejoin="round"/>
<path d="M170.046 200.469H225.221" stroke="#263238" stroke-width="0.373333" stroke-linecap="round" stroke-linejoin="round"/>
<path d="M122.905 191.662H161.5" stroke="#263238" stroke-width="0.373333" stroke-linecap="round" stroke-linejoin="round"/>
<path d="M122.905 196.063H161.5" stroke="#263238" stroke-width="0.373333" stroke-linecap="round" stroke-linejoin="round"/>
<path d="M122.905 200.469H161.5" stroke="#263238" stroke-width="0.373333" stroke-linecap="round" stroke-linejoin="round"/>
<path d="M65.2399 189.653L58.3743 251.164C58.3743 251.164 53.3343 255.551 53.7748 257.32C54.2154 259.09 60.0394 256.286 60.842 254.808C61.6447 253.329 62.0479 250.977 62.0479 250.977L76.5295 204.732L87.6623 254.345C87.6623 254.345 92.4223 258.231 95.0468 258.097C97.6714 257.962 96.7418 256.932 95.241 255.035C93.7402 253.139 90.354 252.049 90.354 252.049L88.6852 188.112L65.2399 189.653Z" fill="#263238" stroke="#263238" stroke-width="0.373333" stroke-linecap="round" stroke-linejoin="round"/>
<path d="M88.4388 190.18L65.1055 190.299L65.1764 188.201L88.2783 187.029L88.4388 190.18Z" fill="#696969" stroke="#263238" stroke-width="0.373333" stroke-linejoin="round"/>
<path d="M79.2474 188.138H75.4656V190.12H79.2474V188.138Z" fill="white" stroke="#263238" stroke-width="0.373333" stroke-linecap="round" stroke-linejoin="round"/>
<path d="M75.5515 156.707L66.864 159.253L67.9429 188.28L88.3157 187.772L85.7397 157.767L75.5515 156.707Z" fill="white" stroke="#263238" stroke-width="0.373333" stroke-linecap="round" stroke-linejoin="round"/>
<path d="M71.7508 157.031L70.5822 206.569L60.1924 203.579L64.3849 185.565L61.0697 159.152L71.7508 157.031Z" fill="#407BFF" stroke="#263238" stroke-width="0.373333" stroke-linecap="round" stroke-linejoin="round"/>
<path d="M64.4073 190.34L69.9513 191.21L69.7311 192.08L64.2991 190.994" fill="#407BFF"/>
<path d="M64.4073 190.34L69.9513 191.21L69.7311 192.08L64.2991 190.994" stroke="#263238" stroke-width="0.373333" stroke-linecap="round" stroke-linejoin="round"/>
<path d="M71.751 157.031L67.3867 157.898L71.0865 185.282L71.751 157.031Z" fill="#407BFF" stroke="#263238" stroke-width="0.373333" stroke-linecap="round" stroke-linejoin="round"/>
<path d="M73.9648 162.576L75.6859 165.387L74.3083 184.931L77.5787 188.799L79.2699 184.151L76.6528 165.424L78.2694 162.71L75.9211 159.671L73.9648 162.576Z" fill="#263238" stroke="#263238" stroke-width="0.373333" stroke-linecap="round" stroke-linejoin="round"/>
<path d="M80.5466 156.583L86.729 205.751L94.8304 203.385L90.7685 184.225L91.3882 157.614L80.5466 156.583Z" fill="#407BFF" stroke="#263238" stroke-width="0.373333" stroke-linecap="round" stroke-linejoin="round"/>
<path d="M91.3657 190.232L86.2547 191.427L86.1465 192.188L91.474 190.886" fill="#407BFF"/>
<path d="M91.3657 190.232L86.2547 191.427L86.1465 192.188L91.474 190.886" stroke="#263238" stroke-width="0.373333" stroke-linecap="round" stroke-linejoin="round"/>
<path d="M83.7909 182.373L84.0821 185.229L84.0784 156.919L80.5466 156.583L83.7909 182.373Z" fill="#407BFF" stroke="#263238" stroke-width="0.373333" stroke-linecap="round" stroke-linejoin="round"/>
<path d="M76.0927 162.206L72.841 164.651L70.2351 158.293L71.7023 156.024L79.6618 155.62L81.5471 158.155L79.9978 163.938L76.0927 162.206Z" fill="white" stroke="#263238" stroke-width="0.373333" stroke-linecap="round" stroke-linejoin="round"/>
<path d="M72.3669 153.578L73.0987 157.621L76.0928 162.206L78.8443 156.804L78.6725 153.392L72.3669 153.578Z" fill="white" stroke="#263238" stroke-width="0.373333" stroke-linecap="round" stroke-linejoin="round"/>
<path d="M78.7397 154.709L78.7136 154.157L75.8128 153.474L72.3669 153.578L73.1136 157.621L73.8939 158.816C73.9908 158.782 74.0855 158.742 74.1776 158.697C76.0032 157.774 77.9333 155.643 78.7397 154.709Z" fill="#263238" stroke="#263238" stroke-width="0.373333" stroke-linecap="round" stroke-linejoin="round"/>
<path d="M61.0698 159.152L46.3157 177.009L56.1157 188.619L60.0655 186.051L55.2197 176.161L62.4549 170.927L61.0698 159.152Z" fill="#407BFF" stroke="#263238" stroke-width="0.373333" stroke-linecap="round" stroke-linejoin="round"/>
<path d="M55.2234 176.161L51.3967 174.156" stroke="#263238" stroke-width="0.373333" stroke-linecap="round" stroke-linejoin="round"/>
<path d="M60.0656 186.051L60.6592 187.335L57.3328 189.213L56.8848 188.186L60.0656 186.051Z" fill="white" stroke="#263238" stroke-width="0.373333" stroke-linecap="round" stroke-linejoin="round"/>
<path d="M60.6592 187.335L64.0416 191.77L62.9216 193.14L62.1115 192.789L60.4725 194.186C60.4725 194.186 59.2704 193.853 59.1211 193.465C58.9717 193.077 57.3403 192.11 57.3067 191.453C57.2731 190.796 57.3067 189.213 57.3067 189.213L60.6592 187.335Z" fill="white" stroke="#263238" stroke-width="0.373333" stroke-linecap="round" stroke-linejoin="round"/>
<path d="M99.6052 161.097C99.6052 161.097 99.9785 160.085 99.7321 159.462C99.4857 158.839 98.9556 156.669 99.0601 155.956C99.1646 155.243 100.244 154.198 100.341 153.272C100.438 152.346 100.322 151.503 100.367 151.002C100.412 150.502 101.028 150.121 101.554 150.73C102.08 151.338 102.398 151.962 102.148 152.596C101.897 153.231 101.905 154.807 101.905 154.807C101.905 154.807 102.741 155.968 103.208 156.722C103.675 157.476 103.63 159.462 103.316 160.257C103.026 160.848 102.618 161.374 102.118 161.803L102.17 163.177L99.6052 161.097Z" fill="white" stroke="#263238" stroke-width="0.373333" stroke-linecap="round" stroke-linejoin="round"/>
<path d="M101.14 153.728C101.14 153.728 100.766 154.807 101.42 155.057C102.073 155.307 104.709 155.669 104.739 154.818C104.768 153.967 104.813 153.541 104.391 153.56C103.97 153.578 101.983 153.56 101.983 153.56C101.983 153.56 101.08 153.519 101.14 153.728Z" fill="white" stroke="#263238" stroke-width="0.373333" stroke-linecap="round" stroke-linejoin="round"/>
<path d="M101.453 159.04C101.453 159.04 101.188 159.847 101.659 160.033C102.129 160.22 104.026 160.492 104.044 159.858C104.063 159.223 104.1 158.91 103.794 158.924C103.488 158.939 102.058 158.924 102.058 158.924C102.058 158.924 101.382 158.868 101.453 159.04Z" fill="white" stroke="#263238" stroke-width="0.373333" stroke-linecap="round" stroke-linejoin="round"/>
<path d="M101.08 157.319C101.08 157.319 100.774 158.249 101.315 158.465C101.856 158.682 104.059 158.999 104.081 158.267C104.104 157.536 104.145 157.147 103.79 157.181C103.436 157.215 101.782 157.162 101.782 157.162C101.782 157.162 101.02 157.14 101.08 157.319Z" fill="white" stroke="#263238" stroke-width="0.373333" stroke-linecap="round" stroke-linejoin="round"/>
<path d="M100.886 155.65C100.886 155.65 100.512 156.733 101.166 156.983C101.819 157.233 104.455 157.595 104.481 156.744C104.507 155.893 104.559 155.464 104.134 155.486C103.708 155.508 101.726 155.486 101.726 155.486C101.726 155.486 100.804 155.441 100.886 155.65Z" fill="white" stroke="#263238" stroke-width="0.373333" stroke-linecap="round" stroke-linejoin="round"/>
<path d="M99.3066 162.176L99.7173 160.526L102.566 162.221L102.088 164.017L99.3066 162.176Z" fill="white" stroke="#263238" stroke-width="0.373333" stroke-linecap="round" stroke-linejoin="round"/>
<path d="M91.3731 157.614L96.8313 169.221L99.5118 161.754L102.125 164.252L99.4372 178.106C99.3426 178.52 99.1324 178.899 98.8309 179.198C98.5293 179.497 98.149 179.704 97.7342 179.796C97.3194 179.887 96.8872 179.858 96.4881 179.713C96.0889 179.568 95.7392 179.312 95.4798 178.976L91.1118 172.891L91.3731 157.614Z" fill="#407BFF" stroke="#263238" stroke-width="0.373333" stroke-linecap="round" stroke-linejoin="round"/>
<path d="M96.8463 169.221L95.3157 172.827" stroke="#263238" stroke-width="0.373333" stroke-linecap="round" stroke-linejoin="round"/>
<path d="M91.2313 167.72L93.8894 176.404L91.1118 172.891L91.2313 167.72Z" fill="#263238" stroke="#263238" stroke-width="0.373333" stroke-linecap="round" stroke-linejoin="round"/>
<path d="M69.8245 148.856C69.8245 148.856 68.7045 147.68 68.5776 148.542C68.4506 149.404 68.8874 150.89 69.5744 151.424C70.2613 151.958 70.8848 151.073 70.8848 151.073L69.8245 148.856Z" fill="white" stroke="#263238" stroke-width="0.373333" stroke-linecap="round" stroke-linejoin="round"/>
<path d="M80.2592 148.325C80.2592 148.325 81.2336 147.045 81.4688 147.885C81.704 148.725 81.3979 150.256 80.767 150.872C80.136 151.488 79.4304 150.655 79.4304 150.655L80.2592 148.325Z" fill="white" stroke="#263238" stroke-width="0.373333" stroke-linecap="round" stroke-linejoin="round"/>
<path d="M70.265 150.08L69.2048 147.84C68.3566 146.649 67.7688 145.293 67.48 143.86C66.976 141.426 67.8197 139.38 68.9248 138.768C69.5472 138.403 70.2786 138.271 70.9893 138.395C70.9893 138.395 71.1984 136.965 74.6405 135.748C78.0826 134.531 81.8869 136.707 81.8309 137.465C81.7749 138.223 80.8453 138.559 80.8453 138.559C80.8453 138.559 83.5482 139.556 82.5701 140.836C81.9673 141.615 81.188 142.24 80.2965 142.658C80.4914 143.304 80.651 143.959 80.7744 144.622C80.9125 145.466 80.1509 149.102 80.1509 149.102L78.2842 143.991L72.4266 144.286C72.4266 144.286 72.0794 146.769 71.4634 147.646C71.0745 148.315 70.8601 149.071 70.84 149.845C70.84 149.845 70.5861 150.804 70.265 150.08Z" fill="#696969" stroke="#263238" stroke-width="0.373333" stroke-linejoin="round"/>
<path d="M71.3104 140.825C71.2973 142.352 71.1851 143.875 70.9744 145.387C70.8493 146.229 70.4155 146.994 69.7573 147.534C69.7573 147.534 70.504 150.999 71.4485 152.843C72.3931 154.687 74.3643 156.203 76.3429 156.005C78.3216 155.807 79.912 153.552 80.0987 151.648C80.2853 149.744 79.352 142.688 79.352 142.688C79.352 142.688 73.1621 143.763 71.3104 140.825Z" fill="white" stroke="#263238" stroke-width="0.373333" stroke-linecap="round" stroke-linejoin="round"/>
<path d="M74.0693 151.745C74.0693 151.745 75.1408 152.664 77.5301 151.85" stroke="#263238" stroke-width="0.373333" stroke-linecap="round" stroke-linejoin="round"/>
<path d="M71.8293 147.941C71.8293 147.941 72.9493 147.269 73.9312 147.833" stroke="#263238" stroke-width="0.373333" stroke-linecap="round" stroke-linejoin="round"/>
<path d="M71.751 146.347C71.751 146.347 71.8742 145.287 73.6176 145.201" stroke="#263238" stroke-width="0.373333" stroke-linecap="round" stroke-linejoin="round"/>
<path d="M76.4399 144.984C76.8375 144.82 77.2774 144.789 77.6943 144.894C78.1112 145 78.483 145.237 78.7546 145.57" stroke="#263238" stroke-width="0.373333" stroke-linecap="round" stroke-linejoin="round"/>
<path d="M75.8052 146.683C75.8052 146.683 76.0889 148.777 76.1001 149.039C76.1113 149.3 76.9961 149.345 76.7609 149.886C76.5257 150.427 75.7604 151.006 75.1257 150.58" stroke="#263238" stroke-width="0.373333" stroke-linecap="round" stroke-linejoin="round"/>
<path d="M78.1236 147.355C78.1236 147.728 77.963 148.068 77.7204 148.079C77.4777 148.09 77.2686 147.788 77.2462 147.4C77.2238 147.011 77.4068 146.69 77.6494 146.679C77.8921 146.668 78.1049 146.97 78.1236 147.355Z" fill="#263238"/>
</svg>
