<svg width="28" height="28" viewBox="0 0 28 28" fill="none" xmlns="http://www.w3.org/2000/svg">
<path d="M5.04 0.359863C2.57322 0.359863 0.559998 2.37309 0.559998 4.83986V22.7599C0.559998 25.2266 2.57322 27.2399 5.04 27.2399H22.96C25.4268 27.2399 27.44 25.2266 27.44 22.7599V4.83986C27.44 2.37309 25.4268 0.359863 22.96 0.359863H5.04ZM5.04 1.63986H22.96C24.7351 1.63986 26.16 3.06472 26.16 4.83986V22.7599C26.16 24.535 24.7351 25.9599 22.96 25.9599H5.04C3.26485 25.9599 1.84 24.535 1.84 22.7599V4.83986C1.84 3.06472 3.26485 1.63986 5.04 1.63986ZM6.375 6.11986L12.2775 14.5061L6.32 21.4799H7.92L13 15.5324L17.185 21.4799H22.265L15.785 12.2724L21.04 6.11986H19.44L15.0625 11.2461L11.455 6.11986H6.375ZM8.825 7.39986H10.7862L19.815 20.1999H17.8537L8.825 7.39986Z" fill="black"/>
</svg>
