<svg width="32" height="32" viewBox="0 0 32 32" fill="none" xmlns="http://www.w3.org/2000/svg">
<path d="M16 2.88375C23.2439 2.88375 29.1163 8.75608 29.1163 16C29.1163 23.2439 23.2439 29.1163 16 29.1163C8.75609 29.1163 2.88376 23.2439 2.88376 16C2.88376 8.75608 8.75609 2.88375 16 2.88375Z" fill="#8FBFFA"/>
<path d="M10.6498 11.8259C10.8697 10.2032 12.2987 9.2876 13.8202 9.89345C14.7783 10.2751 16.0356 10.8478 17.6533 11.7072C19.181 12.5192 20.3877 13.245 21.3246 13.8596C22.9816 14.9463 22.9816 17.0562 21.3246 18.1429C20.3877 18.7569 19.181 19.4833 17.6533 20.2953C16.0356 21.1541 14.7783 21.7268 13.8202 22.1084C12.2987 22.7143 10.8697 21.7993 10.6498 20.1766C10.466 18.7925 10.3755 17.3975 10.3787 16.0013C10.3787 14.3336 10.5005 12.9252 10.6498 11.8259Z" fill="white"/>
<path d="M16 2.88375C23.2439 2.88375 29.1163 8.75608 29.1163 16C29.1163 23.2439 23.2439 29.1163 16 29.1163C8.75609 29.1163 2.88376 23.2439 2.88376 16C2.88376 8.75608 8.75609 2.88375 16 2.88375Z" stroke="#2859C5" stroke-width="2.02" stroke-linejoin="round"/>
<path d="M10.6498 11.8247C10.8697 10.202 12.2987 9.28635 13.8202 9.8922C14.7783 10.2738 16.0356 10.8466 17.6533 11.706C19.181 12.5179 20.3877 13.2437 21.3246 13.8583C22.9816 14.9451 22.9816 17.0549 21.3246 18.1417C20.3877 18.7557 19.181 19.4821 17.6533 20.294C16.0356 21.1528 14.7783 21.7256 13.8202 22.1072C12.2987 22.713 10.8697 21.798 10.6498 20.1753C10.466 18.7912 10.3755 17.3963 10.3787 16C10.3787 14.3324 10.5005 12.9239 10.6498 11.8247Z" stroke="#2859C5" stroke-width="2.02" stroke-linejoin="round"/>
</svg>
